<?xml version="1.0" encoding="UTF-8"?>
<svg width="18px" height="18px" viewBox="0 0 18 18" version="1.1" xmlns="http://www.w3.org/2000/svg" xmlns:xlink="http://www.w3.org/1999/xlink">
    <!-- Generator: sketchtool 54.1 (76490) - https://sketchapp.com -->
    <title>00D67B16-5002-4EA9-8647-06B1B7843925</title>
    <desc>Created with sketchtool.</desc>
    <g id="Page-1" stroke="none" stroke-width="1" fill="none" fill-rule="evenodd">
        <g id="pays-XDR---1440px" transform="translate(-1214.000000, -7176.000000)" fill="#7F7AA9" fill-rule="nonzero">
            <g id="Group-55" transform="translate(0.000000, 6627.000000)">
                <g id="Group-74" transform="translate(1162.000000, 549.000000)">
                    <g id="flogo-Hex-RGB-MedGrey-58" transform="translate(52.000000, 0.000000)">
                        <path d="M17.0068966,0 L0.993103448,0 C0.444627559,-3.35844621e-17 6.71689242e-17,0.444627559 0,0.993103448 L0,17.0068966 C6.71689242e-17,17.5553724 0.444627559,18 0.993103448,18 L9.62068966,18 L9.62068966,11.0389655 L7.27758621,11.0389655 L7.27758621,8.31413793 L9.62068966,8.31413793 L9.62068966,6.30931034 C9.62068966,3.98482759 11.042069,2.71862069 13.1151724,2.71862069 C13.8137815,2.71709716 14.5119873,2.75231822 15.2068966,2.82413793 L15.2068966,5.25413793 L13.7793103,5.25413793 C12.6496552,5.25413793 12.4293103,5.78793103 12.4293103,6.5762069 L12.4293103,8.31103448 L15.1293103,8.31103448 L14.7786207,11.0358621 L12.4137931,11.0358621 L12.4137931,18 L17.0068966,18 C17.5553724,18 18,17.5553724 18,17.0068966 L18,0.993103448 C18,0.444627559 17.5553724,3.35844621e-17 17.0068966,0 Z" id="Shape"></path>
                    </g>
                </g>
            </g>
        </g>
    </g>
</svg>