<?xml version="1.0" encoding="UTF-8"?>
<svg width="335px" height="316px" viewBox="0 0 335 316" version="1.1" xmlns="http://www.w3.org/2000/svg" xmlns:xlink="http://www.w3.org/1999/xlink">
    <!-- Generator: sketchtool 54.1 (76490) - https://sketchapp.com -->
    <title>B7F176CA-0046-430B-88C8-08EC47D95F26</title>
    <desc>Created with sketchtool.</desc>
    <g id="Page-1" stroke="none" stroke-width="1" fill="none" fill-rule="evenodd">
        <g id="pays-XDR---1440px" transform="translate(-808.000000, -999.000000)">
            <g id="i-01" transform="translate(809.000000, 1000.000000)">
                <ellipse id="Oval" stroke-opacity="0.5" stroke="#DEDFE1" cx="167.516724" cy="157.102158" rx="156.531484" ry="156.698904"></ellipse>
                <g id="Group" stroke="#1F105C">
                    <ellipse id="Oval" cx="80.0440694" cy="291.494158" rx="3.87085645" ry="3.87499658"></ellipse>
                    <ellipse id="Oval" cx="213.693082" cy="5.43478082" rx="5.03098548" ry="5.03636644"></ellipse>
                    <ellipse id="Oval" stroke-width="1.6625" cx="3.95679194" cy="166.610336" rx="3.68824355" ry="3.69218836"></ellipse>
                    <ellipse id="Oval" stroke-width="1.6625" cx="330.780179" cy="174.406568" rx="1.80840484" ry="1.81033904"></ellipse>
                </g>
                <g id="Group" transform="translate(43.504839, 31.722603)">
                    <ellipse id="Oval" stroke="#D5D3DD" cx="122.983882" cy="124.90049" rx="86.8694952" ry="86.9624075"></ellipse>
                    <path d="M250.482063,104.085623 C240.373902,44.0847397 188.472092,0.155924658 127.689387,0.155924658 C66.9061452,0.155924658 15.0043355,44.0847397 4.89617419,104.085623 L35.5944774,109.268236 C43.1755984,64.2678425 82.1016871,31.3209623 127.689387,31.3209623 C173.27655,31.3209623 212.202639,64.2678425 219.78376,109.268236 L250.482063,104.085623 Z" id="Path" stroke="#1F105C" fill="#6646F6"></path>
                    <path d="M246.059071,104.085623 C235.951447,44.0847397 184.0491,0.155924658 123.266395,0.155924658 C62.4831532,0.155924658 10.5813435,44.0847397 0.473182258,104.085623 L31.1714855,109.268236 C38.7526065,64.2678425 77.6786952,31.3209623 123.266395,31.3209623 C168.853558,31.3209623 207.780184,64.2678425 215.360768,109.268236 L246.059071,104.085623 Z" id="Path" stroke="#1F105C" fill="#FFFFFF"></path>
                    <path d="M6.97259032,144.469034 C16.5549339,201.350349 65.7583694,242.995137 123.381334,242.995137 C181.004298,242.995137 230.207734,201.350349 239.790077,144.469034 L216.441944,140.526829 C208.781332,185.999836 169.446513,219.291901 123.381334,219.291901 C77.3156177,219.291901 37.9807984,185.999836 30.3207242,140.526829 L6.97259032,144.469034 L6.97259032,144.469034 Z" id="Path" stroke="#1F105C"></path>
                    <path d="M4.89617419,145.546527 C15.0043355,205.547411 66.9061452,249.476226 127.689387,249.476226 C188.472092,249.476226 240.373902,205.547411 250.482063,145.546527 L219.78376,140.363914 C212.202639,185.364846 173.27655,218.311188 127.689387,218.311188 C82.1016871,218.311188 43.1755984,185.364846 35.5944774,140.363914 L4.89617419,145.546527 Z" id="Path" stroke="#1F105C" fill="#6646F6"></path>
                    <path d="M0.473182258,145.546527 C10.5813435,205.547411 62.4831532,249.476226 123.266395,249.476226 C184.0491,249.476226 235.951447,205.547411 246.059071,145.546527 L215.360768,140.363914 C207.780184,185.364846 168.853558,218.311188 123.266395,218.311188 C77.6786952,218.311188 38.7526065,185.364846 31.1714855,140.363914 L0.473182258,145.546527 L0.473182258,145.546527 Z" id="Path" stroke="#1F105C" fill="#FFFFFF"></path>
                    <path d="M227.451353,157.011829 C213.732827,201.734784 172.120718,234.286476 122.974215,234.286476 C74.70855,234.286476 33.7098048,202.891853 19.2619016,159.406079" id="Path" stroke="#D5D3DD"></path>
                    <path d="M20.7061548,86.3204281 C36.3012968,44.9616815 76.2296081,15.5145034 122.974215,15.5145034 C170.104456,15.5145034 210.30615,45.4504247 225.623076,87.3479178" id="Path" stroke="#D5D3DD"></path>
                    <polygon id="Path" stroke="#1F105C" points="16.8138145 111.745825 19.6378694 120.446959 28.776571 120.446959 21.3834339 125.824209 24.2074887 134.525342 16.8138145 129.148092 9.42014032 134.525342 12.2441952 125.824209 4.85052097 120.446959 13.9897597 120.446959 16.8138145 111.745825"></polygon>
                    <polygon id="Path" stroke="#1F105C" points="228.490098 111.745825 231.314153 120.446959 240.453392 120.446959 233.059718 125.824209 235.883773 134.525342 228.490098 129.148092 221.096424 134.525342 223.920479 125.824209 216.526805 120.446959 225.666044 120.446959 228.490098 111.745825"></polygon>
                </g>
                <g id="Group" transform="translate(90.769355, 85.489726)">
                    <path d="M151.295327,0.486592466 L151.295327,81.1550205 C151.295327,98.9530137 144.909247,116.301514 128.455287,130.497647 C115.704073,141.500014 94.1519903,149.461312 78.1572484,154.108404 L78.1486548,154.106253 L78.1400613,154.108404 C76.5497177,154.114856 74.3911258,154.113781 72.9162581,154.108404 L72.9076645,154.106253 L72.899071,154.108404 C56.904329,149.461312 35.7341226,141.500014 22.9829081,130.497647 C6.52894839,116.301514 0.142867742,98.9530137 0.142867742,81.1550205 L0.142867742,0.486592466 L151.295327,0.486592466 L151.295327,0.486592466 Z" id="path2657" stroke="#1F105C" fill="#6D57FC"></path>
                    <path d="M146.054337,81.1550205 C146.054337,98.9530137 139.668256,116.301514 123.214297,130.497647 C110.462545,141.500014 88.911,149.461312 72.9162581,154.108404 L72.9076645,154.106253 L72.899071,154.108404 C56.904329,149.461312 35.7341226,141.500014 22.9829081,130.497647 C6.52894839,116.301514 0.142867742,98.9530137 0.142867742,81.1550205 L0.142867742,0.486592466 L146.054337,0.486592466 L146.054337,81.1550205 L146.054337,81.1550205 Z" id="path26571" stroke="#1F105C" fill="#FFFFFF"></path>
                    <ellipse id="Oval" stroke="#1F105C" fill="#FFFFFF" cx="100.441394" cy="57.9787021" rx="40.9176435" ry="40.9614075"></ellipse>
                    <ellipse id="Oval" stroke="#1F105C" fill="#FFFFFF" cx="45.7558113" cy="57.9787021" rx="40.9176435" ry="40.9614075"></ellipse>
                    <path d="M86.4457258,35.2502637 C86.9022581,34.8695925 86.5977242,33.4996062 86.9022581,32.966774 C87.174029,32.4903973 87.9662468,32.4344795 88.2707806,32.0538082 C88.5710177,31.677976 88.2965613,30.8988904 88.7267758,30.6838219 C89.3347694,30.3795 91.0078258,29.9988288 91.9198161,30.2268014 C92.8323435,30.4553116 93.3302323,31.6177568 94.2008661,32.0538082 C95.1133935,32.5102911 96.3084339,32.7495548 97.3939065,32.966774 C98.5347,33.1952842 100.283487,33.4237945 101.043479,33.4237945 C101.383461,33.4237945 101.956006,33.2716336 101.956006,32.966774 C101.956006,32.6624521 101.010716,31.8822911 101.086984,31.6537808 C101.162715,31.4252705 101.555332,30.963411 101.942042,31.205363 C102.550573,31.5860342 104.289692,32.9183836 104.517421,33.4512158 C104.687144,33.8469418 103.898685,33.9775959 103.822418,34.2819178 C103.746687,34.5867774 104.144139,35.0760582 104.017921,35.3916712 C103.865923,35.7723425 102.742853,36.3869007 102.894852,36.8433836 C103.04685,37.2998664 104.245113,38.0886301 105.078687,38.3918767 C105.914947,38.6961986 107.037479,39.1618219 107.494011,38.9333116 C107.950006,38.7048014 107.64601,37.5633253 107.494011,37.1068425 C107.357589,36.6982123 106.802768,36.5627192 106.581484,36.193339 C106.353218,35.8126678 106.137305,34.9459418 106.517569,34.7937808 C106.897834,34.6416199 108.570353,35.1744521 109.254615,35.2502637 C109.707924,35.3008048 110.148344,34.8405582 110.465231,35.1685377 C111.047981,35.7723425 112.143658,36.4842192 113.48264,36.9579075 C114.073447,37.1670616 115.412966,37.1530822 115.641232,37.5337534 C115.869498,37.9144247 115.627268,38.7311473 115.171273,39.0354692 C114.71474,39.3397911 113.284452,39.2080616 112.904187,39.3602226 C112.621674,39.4731336 112.650677,39.9280034 112.878944,40.0801644 C113.10721,40.2323253 113.968713,40.1215651 114.27271,40.273726 C114.576706,40.425887 114.811418,40.8565616 114.728705,41.1872295 C114.576706,41.7958733 113.740447,43.3180205 113.360182,43.9272021 C113.132453,44.2922808 112.584077,44.4320753 112.448192,44.8401678 C112.219926,45.525161 112.371924,47.1994692 111.99166,48.037161 C111.635565,48.8210856 110.395408,49.2544486 110.167142,49.8636301 C109.946932,50.4513048 110.547406,51.2336164 110.623137,51.6900993 C110.673087,51.9906575 110.775135,52.4514418 110.623137,52.6036027 C110.471139,52.7557637 109.863145,52.832113 109.71061,52.6036027 C109.558611,52.3750925 109.697719,51.6395582 109.581169,51.2277021 C109.488789,50.9002603 109.133231,50.715839 108.798619,50.7771336 C107.96236,50.9292945 105.529311,51.6142877 104.693052,52.1471199 C104.119432,52.5121986 103.552258,53.4407568 103.780524,53.973589 C104.00879,54.5064212 105.453044,55.1914144 106.061574,55.3435753 C106.527774,55.46025 107.149732,55.0026918 107.453729,55.0790411 C107.757726,55.1548527 107.96236,55.5064897 107.886092,55.8000582 C107.810361,56.0941644 106.897834,56.4210685 106.973565,56.6495788 C107.049832,56.878089 107.96236,57.1700445 108.342087,57.1700445 C108.692274,57.1700445 108.950618,56.6495788 109.254615,56.6495788 C109.558611,56.6495788 109.958211,56.8893801 110.167142,57.1700445 C110.471139,57.5792123 110.471139,58.7803699 111.079669,59.1024349 C111.687663,59.4245 112.919226,59.269113 113.816715,59.1024349 C114.409132,58.9922123 115.611155,58.1136575 116.213777,57.8491233 C116.538721,57.7066404 116.563427,57.9819281 116.55376,58.0835479 C116.519385,58.4212055 116.477492,58.9422089 116.707906,59.0110308 C117.039832,59.1099623 117.448563,58.4029247 117.922282,58.5400308 C118.91054,58.8271473 121.571318,60.1385274 122.483845,60.8235205 C123.027924,61.2321507 123.016108,62.3456678 123.396373,62.6499897 C123.752468,62.9354932 124.331995,62.5058938 124.764895,62.6499897 C125.22089,62.8021507 125.980882,63.1070103 126.133418,63.5634932 C126.285416,64.019976 125.18759,64.998 125.676885,65.3899623 C126.437415,65.9991438 129.706723,66.4556267 130.694981,67.2169692 C131.457121,67.8035685 131.774545,69.0084897 131.607508,69.9569418 C131.379242,71.2505788 130.390984,73.6862295 129.326458,74.9798664 C128.280731,76.2509212 126.209148,76.8826849 125.22089,77.719839 C124.477548,78.3494521 124.18859,79.4366233 123.396373,80.0033288 C122.331847,80.7646712 119.898798,81.6018253 118.834273,82.2868185 C118.110803,82.7524418 117.725168,83.6358356 117.009755,84.1132877 C115.869498,84.8746301 113.132453,85.8639452 111.99166,86.8532603 C111.065168,87.6570788 110.395408,89.288911 110.167142,90.0497158 C110.029108,90.5110377 110.699405,91.0395685 110.623137,91.4197021 C110.547406,91.8003733 110.127934,92.4375137 109.71061,92.3332055 C109.102616,92.1810445 107.201831,91.2675411 106.973565,90.5067363 C106.745835,89.7453938 108.114358,88.5275685 108.342087,87.7667637 C108.517181,87.1833904 108.114358,86.4048425 108.342087,85.9397568 C108.570353,85.4752089 109.439913,85.4655308 109.71061,84.977863 C110.471139,83.6078767 112.143658,79.6145925 112.904187,77.719839 C113.441821,76.3799623 114.34844,74.5997329 114.27271,73.6098801 C114.206647,72.7517568 112.675921,72.1640822 112.448192,71.783411 C112.33755,71.5989897 112.917615,71.5414589 112.904187,71.3269281 C112.827919,70.1091027 111.915929,65.9991438 111.99166,64.4769966 C112.036239,63.5903767 113.132453,62.8021507 113.360182,62.1935068 C113.520237,61.7660582 113.588448,61.1278425 113.360182,60.8235205 C113.132453,60.5191986 112.371924,60.3670377 111.99166,60.3670377 C111.651677,60.3670377 111.406224,60.9170753 111.079669,60.8235205 C110.547406,60.6713596 109.591374,59.8503356 108.798619,59.4535342 C107.734094,58.9207021 105.605042,57.931387 104.693052,57.6270651 C104.260152,57.4824315 103.576427,57.7152432 103.207442,57.4469452 C102.371182,56.8377637 100.587484,55.3435753 99.6749565,53.973589 C98.7667258,52.6095171 98.2307032,50.1679521 97.8504387,49.4071473 C97.7822274,49.2705788 97.3439565,49.1888527 97.3616806,49.6206027 C97.3869242,50.2287089 97.8225097,52.3756301 97.8504387,53.0600856 C97.8660145,53.4498973 97.3917581,53.4095719 97.291321,53.2192363 C96.6070597,51.9250616 94.2347032,48.3457842 93.7024403,46.2908048 C93.3570871,44.9563048 94.6557871,42.4878562 94.2008661,41.1872295 C93.6686032,39.6645445 92.22435,37.0009212 90.5512935,36.1637671 C88.8787742,35.326613 85.2292016,36.3159281 84.1652129,36.1637671 C83.8639016,36.1207534 83.8827,35.3631747 84.1652129,35.2502637 C84.5449403,35.0981027 85.9897306,35.6309349 86.4457258,35.2502637 L86.4457258,35.2502637 Z M62.9246468,80.1587158 C62.2983919,80.0022534 61.3294694,79.3936096 61.5561242,78.7887295 C62.0121194,77.5709041 61.6973806,74.4852089 64.6191871,73.1173733 C66.5914065,72.1941918 69.5733677,70.3370753 70.7898919,69.9569418 C71.2491097,69.8133836 71.8920145,70.0128596 72.1584145,70.4134247 C72.4624113,70.8699075 72.5166581,71.6339384 72.7449242,72.0904212 C72.8969226,72.3952808 73.3120984,72.5280856 73.6037419,72.3533425 C73.9834694,72.1248322 74.5914629,71.63125 74.8954597,71.3269281 C75.002879,71.2188562 75.3219145,71.1774555 75.3519919,71.3269281 C75.4277226,71.7070616 75.2574629,72.8549897 75.3519919,73.6098801 C75.5039903,74.8277055 76.5690532,76.6385822 76.3407871,78.3128904 C76.112521,79.9871986 74.5737387,82.7040514 73.5092129,83.6933664 C72.4817468,84.6482705 71.5600887,85.1321747 70.4198323,84.933774 C69.2870952,84.737524 67.9191097,83.5008801 67.3975887,82.5029623 C66.9920806,81.7265651 67.0141016,80.3893767 66.228329,80.0033288 C65.3920694,79.5925479 63.8366371,80.387226 62.9246468,80.1587158 L62.9246468,80.1587158 Z M32.1097935,45.924113 C31.7864613,46.1252021 30.6311661,46.3762945 30.3400597,45.924113 C30.0489532,45.4713938 30.5119306,43.729339 30.3647661,43.2077979 C30.2739968,42.8873459 28.0198016,41.9996507 27.2872016,41.6700582 C26.5497677,41.3377774 24.3761371,41.8216815 23.7026177,41.9372808 C23.4974468,41.9722295 23.4496452,42.4050548 23.2455484,42.3631164 C22.6832081,42.2485925 20.8425774,41.7501712 20.3275016,41.2495993 C19.8741919,40.8092466 19.8865452,39.8774623 20.1545565,39.3602226 C20.4225677,38.8429829 21.2362694,38.3074623 21.9366435,38.1456233 C22.6955613,37.9708801 23.9711661,38.5644692 24.7069887,38.3106884 C25.4428113,38.0563699 25.6275726,36.9267226 26.351579,36.6213253 C27.1056629,36.303024 28.3017774,36.6449829 29.2336403,36.3998048 C30.2439194,36.1341952 31.5136161,34.891637 32.4127161,35.0265925 C33.311279,35.1615479 33.5927177,37.1391027 34.626629,37.2111507 C35.7926661,37.292339 35.8152242,35.4895274 35.2077677,35.7352432 C34.6561694,35.9583767 34.1008113,35.1841301 33.6587806,34.8496986 C33.2403823,34.5330103 32.6141274,34.1077123 32.5539726,33.7270411 C32.4943548,33.3463699 32.8912694,32.775363 33.3005371,32.5656712 C33.7973516,32.3108151 34.7936661,32.3274829 35.5380823,32.1968288 C36.8437645,31.9677808 39.9514065,31.0456747 41.1357048,31.1913836 C41.9322194,31.2897774 41.8833435,32.811387 42.6427984,33.0716199 C43.8931597,33.5012192 46.9540742,34.0507192 48.6378726,33.7673664 C50.2002871,33.5039075 51.2325871,31.8446541 52.7445145,31.3704281 C54.6254274,30.7800651 58.2078629,30.5698356 59.9228129,30.2268014 C60.9830419,30.0149589 61.6522645,28.5132432 63.4950435,28.3282842 C65.2325516,28.1540788 69.2435903,31.2263322 70.2758903,31.8554075 C70.7356452,32.1355342 69.6678968,33.0619418 69.2285516,33.0872123 C68.7892065,33.1124829 66.5683113,32.1828493 66.0070452,32.3549041 C65.2427565,32.5893288 65.1954919,33.6915548 65.9613919,34.4066575 C66.3701226,34.7884041 67.8261919,34.6717295 68.5088419,35.2502637 C69.3939774,35.9997774 70.8108387,37.5337534 71.2711306,38.9037397 C71.7314226,40.273726 71.4370935,42.7093767 71.2711306,43.4701815 C71.200771,43.7949349 70.3537694,43.7933219 70.2758903,43.4701815 C70.1099274,42.7851884 70.5519581,40.3172774 70.2758903,39.3602226 C70.0599774,38.6150103 68.9621516,37.0342568 68.6162613,37.7289281 C68.1237435,38.7187808 67.8696968,43.7331027 67.3197097,45.2988014 C67.0200097,46.1515479 65.5021742,46.2391884 65.3158016,47.1236575 C65.0526242,48.3721301 66.0274548,51.653 65.7401081,52.7901747 C65.5403081,53.579476 63.8726226,53.182137 63.5901097,53.9456301 C63.2211242,54.9424726 64.380179,57.928161 63.5272694,58.7701541 C62.6748968,59.6121473 61.216679,59.0820034 60.0168048,58.4540034 C58.8163935,57.8265411 56.3360806,55.0064555 55.499821,54.6263219 C54.6630242,54.2456507 53.4529452,55.3344349 52.6483742,56.1049178 C51.7417548,56.9732568 51.6891194,59.9863664 50.8861597,60.2148767 C50.0832,60.4428493 49.1110548,59.3110514 48.6378726,58.0835479 C48.129779,56.7657158 46.9723355,54.5634144 45.7219742,53.49775 C42.0584371,53.2369795 41.0895145,51.697089 40.0744016,51.5051404 C39.5373048,51.4035205 39.3509323,51.9987226 39.632371,52.3471336 C39.9922258,52.7917877 41.9520919,53.4429075 42.2877774,54.1187603 C42.6234629,54.794613 42.2791839,55.6097226 41.5712903,55.9602842 C40.5432871,56.4683836 36.9178839,58.5862705 36.1208323,57.1700445 C35.2314,55.5898288 33.6915435,52.4933801 33.1829129,51.4804075 C32.9627032,51.0422055 32.3187242,51.2341541 32.3069081,51.6653664 C32.2719968,52.9584658 34.1958774,56.4511781 34.8060194,57.8614897 C35.2324742,58.8475788 36.2631629,58.6583185 36.9356081,59.2852432 C37.6085903,59.9116301 38.0559919,60.950411 37.6273887,61.9359623 C37.0870694,63.1785205 33.9590177,65.4469555 33.2935548,67.1094349 C32.6280919,68.7719144 33.9267919,70.9242123 33.4283661,72.7307877 C32.8348742,74.8798596 30.8707113,78.4645137 29.7342145,80.0033288 C28.6025516,81.5362295 26.3945468,81.1872808 25.4342177,80.2103322 C24.0603242,78.812387 22.1509452,73.6604212 21.489779,71.6161952 C21.2276758,70.8048493 22.0950871,69.9160788 21.8877677,69.0891404 C21.4371435,67.2900925 20.4193452,62.2349075 18.5620645,61.1144007 C16.7047839,59.9933562 14.0998645,61.4396918 12.5379871,60.9294418 C11.0217629,60.4342466 9.43034516,59.3589041 9.41584355,57.7620205 C9.39865645,55.8796336 9.94703226,53.2289144 10.6404242,51.0701644 C11.5916226,48.1065205 16.9674242,45.9864829 18.8563935,43.8997808 C20.6508339,41.9179247 23.3905645,43.2545753 25.5915871,44.120226 C26.5674919,44.5041233 26.6459081,45.7515205 27.2356403,46.3053219 C27.6696145,46.712339 29.1342774,47.451637 29.6762081,47.6957397 C30.4136419,48.0280205 31.8138532,48.7673185 32.5523613,48.8033425 C33.1496129,48.8323767 33.9692226,48.3425582 34.1077935,47.9102705 C34.2463645,47.4785205 33.6877839,46.7429863 33.3837871,46.2101541 C33.0792532,45.6778596 32.4948919,44.7627432 32.2827387,44.7148904 C32.0700484,44.6675753 32.4336629,45.7224863 32.1097935,45.924113 L32.1097935,45.924113 Z M66.228329,68.5869555 C66.0129532,68.5869555 65.5875726,68.9326781 65.7717968,69.0434384 C66.1520613,69.2719486 68.0528468,69.9569418 68.5088419,69.9569418 C68.8133758,69.9569418 68.769871,69.1999007 68.5088419,69.0434384 C68.1291145,68.8149281 66.6843242,68.5869555 66.228329,68.5869555 Z M70.929,63.5737089 C70.534771,63.7398493 70.3193952,64.4345205 71.04555,64.9334795 C71.3586774,65.1485479 72.4898032,65.4663116 72.8700677,65.8469829 C73.21005,66.1873288 72.9860806,66.8766233 73.3260629,67.2169692 C73.8583258,67.7498014 74.7160694,68.7192226 75.9062758,68.6880377 C76.5148065,68.6719075 77.7361645,69.4999212 77.8881629,69.0434384 C78.0401613,68.5869555 77.6556,66.9841575 76.9756355,66.3034658 C76.1393758,65.4663116 73.8583258,64.3248356 72.8700677,64.019976 C72.2706677,63.8355548 71.2421274,63.4414418 70.929,63.5737089 L70.929,63.5737089 Z M66.7847613,62.3945959 C66.1767677,62.3945959 63.4397226,63.5360719 63.1351887,64.2210651 C62.8311919,64.9060582 64.4279806,66.1238836 64.9602435,66.5045548 C65.3313774,66.7696267 66.0435677,66.8610308 66.3287661,66.5045548 C66.6327629,66.1238836 66.1176871,65.0899418 66.1939548,64.4049486 C66.2610919,63.7995308 67.3927548,62.3945959 66.7847613,62.3945959 L66.7847613,62.3945959 Z M101.205682,25.746387 C100.973119,26.1077021 101.21159,27.3169247 101.043479,27.4868288 C100.875368,27.6572705 100.542905,27.8502945 100.717998,28.2051575 C100.899537,28.572387 100.740556,29.2573801 101.023069,29.5181507 C101.305582,29.7794589 102.09404,29.5095479 102.412002,29.7703185 C102.729963,30.0316267 102.565611,30.7875925 102.9303,31.084387 C103.532385,31.5736678 105.578724,32.2511336 106.02344,32.7076164 C106.301119,32.9920445 105.629748,33.5447705 105.600745,33.8238219 C105.579798,34.026524 105.646398,34.3754726 105.849421,34.3819247 C106.154492,34.3910651 106.899982,33.830274 107.430097,33.8802774 C107.959674,33.9302808 108.725037,34.6050582 109.029034,34.6808699 C109.161697,34.7142055 109.246558,34.4738664 109.254615,34.3367603 C109.270727,34.0700753 109.023663,33.3318527 109.125711,33.0775342 C109.223463,32.8339692 109.704702,32.8995651 109.866905,32.8124623 C109.968953,32.7570822 110.180569,32.6350308 110.098931,32.5527671 C109.93995,32.3930788 109.283618,32.1247808 108.913558,31.8537945 C108.495697,31.5478596 108.132619,30.9300753 107.592837,30.7182329 C106.681921,30.3606815 104.954618,30.0025925 104.216647,29.7638664 C104.055518,29.7117123 103.923392,29.5100856 103.934134,29.3412568 C103.945413,29.1541473 103.819732,28.6643288 104.236519,28.6288425 C105.023366,28.5610959 107.253929,28.7111062 107.886092,28.8799349 C108.135305,28.9466062 107.889315,29.4245959 108.029497,29.6412774 C108.252392,29.985387 108.762097,30.5784384 109.224537,30.9435171 C109.834679,31.4247329 110.903502,32.22425 111.690348,32.5296473 C112.394482,32.8027842 113.448803,32.9296747 113.943469,32.7742877 C114.380666,32.6366438 114.672847,31.9473493 114.656734,31.5967877 C114.640621,31.2467637 114.031016,31.0381473 113.846792,30.6719932 C113.478344,29.9402226 112.696331,27.9244932 112.448729,27.2061644 C112.356885,26.9394795 112.585152,26.534613 112.361182,26.3641712 C112.018515,26.1034007 110.996419,25.9974795 110.395408,25.6426164 C109.649918,25.2022637 108.429634,23.9451884 107.886092,23.7199041 C107.595523,23.5994658 107.438153,24.2903733 107.134156,24.2903733 C106.83016,24.2903733 106.46386,23.7629178 106.061574,23.7199041 C105.350458,23.6435548 103.472231,23.5672055 102.867997,23.8338904 C102.3975,24.0414315 102.715998,24.9995616 102.438856,25.3184007 C102.161715,25.6372397 101.438245,25.3850719 101.205682,25.746387 L101.205682,25.746387 Z M97.9428194,29.8821541 C98.1565839,30.0305514 98.1232839,30.4391815 98.1576581,30.6752192 C98.1925694,30.9139452 98.2725968,31.2682705 98.4638032,31.4967808 C98.6555468,31.7247534 99.1614919,31.8011027 99.2538726,31.9532637 C99.3430306,32.0995103 99.189421,32.4097466 99.0180871,32.4097466 C98.6748823,32.4097466 97.4594323,32.2575856 97.1935694,31.9532637 C96.9271694,31.6489418 97.3675887,30.9333014 97.3675887,30.6284418 C97.3675887,30.4585377 97.2075339,30.3612192 97.1935694,30.1267945 C97.1715484,29.7649418 97.6538613,29.6816027 97.9428194,29.8821541 L97.9428194,29.8821541 Z M80.0596452,30.2268014 C79.5273823,30.3031507 77.7785952,30.3031507 77.3226,30.2268014 C77.1722129,30.2020685 77.1969194,29.8568836 77.3226,29.7703185 C77.550329,29.6133185 78.3865887,29.4369623 78.6911226,29.2848014 C78.8774952,29.1912466 78.9424839,28.8955274 79.1471177,28.8568151 C79.5273823,28.7858425 80.5919081,29.0853253 80.9716355,28.8568151 C81.3519,28.6288425 81.0586452,27.7954521 81.4281677,27.4868288 C81.8841629,27.1066952 83.1576194,26.8018356 83.7086806,26.573863 C84.054571,26.4303048 84.3628645,26.0765171 84.7350726,26.1168425 C85.43115,26.1931918 87.3604016,26.726024 87.8856823,27.0303459 C88.1488597,27.1830445 87.8228419,27.6459795 87.8856823,27.9438493 C87.9495968,28.2481712 88.2154597,28.5309863 88.2707806,28.8568151 C88.3346952,29.2374863 88.4985097,29.8466678 88.2707806,30.2268014 C88.0425145,30.6074726 87.2062548,30.9881438 86.9022581,31.1403048 C86.7658355,31.208589 86.5139371,31.2763356 86.4457258,31.1403048 C86.3699952,30.9881438 86.5219935,30.4553116 86.4457258,30.2268014 C86.3780516,30.023024 86.2045694,29.7703185 85.9897306,29.7703185 C85.7045323,29.7703185 85.1781774,30.1827123 84.7350726,30.2268014 C83.9750806,30.3031507 82.1312274,30.3031507 81.4281677,30.2268014 C81.0897968,30.1902397 80.7439065,29.7703185 80.5156403,29.7703185 C80.3008016,29.7703185 80.2723355,30.1966918 80.0596452,30.2268014 L80.0596452,30.2268014 Z M99.0207726,28.6433596 C98.9536355,28.7573459 99.1335629,29.0885514 99.0551468,29.2132911 C98.9767306,29.3374932 98.7307403,29.3116849 98.6818645,29.4832021 C98.5948548,29.7885993 98.9681371,30.3160548 99.3790161,30.305839 C99.6690484,30.2983116 99.761429,29.9848493 99.7710968,29.7611781 C99.7839871,29.4649212 99.6384339,28.7799281 99.5132903,28.5938938 C99.4289661,28.4686164 99.0873726,28.5288356 99.0207726,28.6433596 L99.0207726,28.6433596 Z M118.27784,30.3273459 C118.049574,30.4085342 117.330402,30.5031644 116.909318,30.3273459 C116.453323,30.1370103 115.92106,29.2810377 115.540795,29.1858699 C115.192756,29.0987671 114.86835,29.8719384 114.628268,29.7574144 C114.388185,29.6434281 113.948303,28.7863801 114.100302,28.5008767 C114.2523,28.2153733 115.148715,28.0443938 115.540795,28.0443938 C115.880777,28.0443938 116.168661,28.3143048 116.453323,28.5008767 C116.909318,28.8003596 117.973844,29.5375068 118.27784,29.8418288 C118.392242,29.9563527 118.430376,30.2735788 118.27784,30.3273459 Z" id="Shape" fill="#6646F6"></path>
                    <g transform="translate(40.282258, 106.458904)" id="Path" stroke="#1F105C">
                        <path d="M19.8645242,8.38659589 C22.3169081,6.96875685 25.1484823,7.27576712 26.1840048,9.0705137 C27.2189903,10.8657979 26.068529,13.4740411 23.6161452,14.8918801 C21.1632242,16.3091815 18.33165,16.0027089 17.2966645,14.2074247 C16.2611419,12.4121404 17.4116032,9.80389726 19.8645242,8.38659589 L19.8645242,8.38659589 Z"></path>
                        <path d="M55.4960613,21.5950274 C55.4960613,21.5950274 47.8725097,25.6377774 39.704879,24.1016507 C31.5372484,22.5660616 25.8988065,16.0295925 25.8988065,16.0295925 C25.8988065,16.0295925 33.5153758,12.0239418 41.6830065,13.5595308 C49.8506371,15.0951199 55.4960613,21.5950274 55.4960613,21.5950274 Z" fill="#FFFFFF"></path>
                        <path d="M50.1745065,0.499496575 C50.1745065,0.499496575 47.6619677,8.49090411 41.0030419,12.7460342 C34.3446532,17.0011644 26.045971,15.9193699 26.045971,15.9193699 C26.045971,15.9193699 28.5789194,7.95968493 35.2373081,3.70455479 C41.8962339,-0.550575342 50.1745065,0.499496575 50.1745065,0.499496575 L50.1745065,0.499496575 Z" fill="#FFFFFF"></path>
                        <path d="M65.0762565,7.30587671 C65.0762565,7.30587671 59.9185161,14.2149521 51.8948274,16.3107945 C43.8706016,18.406637 35.9983742,14.9004829 35.9983742,14.9004829 C35.9983742,14.9004829 41.1652452,8.02743151 49.189471,5.93158904 C57.2136968,3.83574658 65.0762565,7.30587671 65.0762565,7.30587671 Z" fill="#FFFFFF"></path>
                        <path d="M0.237933871,7.74784247 C0.237933871,7.74784247 10.0958081,15.3612671 22.3673952,16.0591644 C34.6389823,16.7575993 50.7733694,11.3459384 50.7733694,11.3459384"></path>
                        <path d="M27.1964323,19.2642226 C28.7174903,21.9020377 28.4962065,24.8845 26.7028403,25.9205925 C24.9100113,26.9572226 22.2191565,25.6576712 20.6980984,23.0203938 C19.1770403,20.3831164 19.3977871,17.4001164 21.1911532,16.364024 C22.9845194,15.3273938 25.6753742,16.6269452 27.1964323,19.2642226 Z"></path>
                    </g>
                </g>
                <g id="add" transform="translate(15.038710, 37.099315)" stroke="#AFABC2">
                    <g id="Group">
                        <polyline id="Path" points="0.509704839 25.6657363 17.5646758 8.59252397 30.2970919 21.3385582 45.9244597 5.69393836"></polyline>
                        <polyline id="Path" points="44.5645306 15.2279247 46.0001903 5.61866438 36.4006597 7.05532192"></polyline>
                        <path d="M13.5826403,3.06956507 C13.5826403,1.66247945 12.4418468,0.519928082 11.0362645,0.519928082 L4.25595484,0.519928082 C2.85037258,0.519928082 1.70957903,1.66247945 1.70957903,3.06956507 C1.70957903,4.47611301 2.85037258,5.61866438 4.25595484,5.61866438 L11.0362645,5.61866438 C12.4418468,5.61866438 13.5826403,4.47611301 13.5826403,3.06956507 Z" id="Path"></path>
                    </g>
                    <g id="Group" transform="translate(247.601613, 216.681507)">
                        <path d="M18.0024097,2.72276712 C13.3661903,2.72276712 8.92010323,4.56644178 5.64166452,7.84838699 C-1.18053871,14.6773493 -1.18053871,25.7668185 5.64166452,32.5963185 C9.27082742,36.229363 14.1046984,37.9294795 18.8606903,37.6972055" id="Path"></path>
                        <path d="M19.8290758,2.72276712 C15.1928565,2.72276712 10.7462323,4.56644178 7.46833065,7.84838699 C0.646127419,14.6773493 0.646127419,25.7668185 7.46833065,32.5963185 C14.2899968,39.4252808 25.3676177,39.4252808 32.189821,32.5963185 C35.4677226,29.3143733 37.3094274,24.8635308 37.3094274,20.2223527 L19.8290758,20.2223527 L19.8290758,2.72276712 L19.8290758,2.72276712 Z" id="Path"></path>
                        <polyline id="Path" stroke-width="1.6625" points="23.0022435 0.0032260274 21.6321097 0.0032260274 21.6321097 17.5028116 27.3752855 17.5028116"></polyline>
                        <path d="M40.4831323,17.5028116 C40.4831323,12.8616336 38.6414274,8.41025342 35.3629887,5.12884589 C32.08455,1.84690068 27.6384629,0.0032260274 23.0022435,0.0032260274 L23.0022435,17.5028116 L40.4831323,17.5028116 Z" id="Path"></path>
                    </g>
                    <g id="bank" transform="translate(272.308065, 11.828767)">
                        <rect id="Rectangle" x="0.173482258" y="33.7716678" width="36.5279516" height="5.52188356"></rect>
                        <rect id="Rectangle" x="10.6323677" y="37.4283699" width="15.6101806" height="1.86518151"></rect>
                        <rect id="Rectangle" x="0.173482258" y="9.57001027" width="36.5279516" height="5.52188356"></rect>
                        <g id="Group" transform="translate(2.685484, 0.000000)">
                            <polyline id="Path" points="0.408730645 9.57001027 15.7519742 0.41884589 31.0952177 9.57001027"></polyline>
                            <rect id="Rectangle" x="2.06084032" y="15.0924315" width="4.0953629" height="16.9124486"></rect>
                            <rect id="Rectangle" x="1.13703387" y="32.0043425" width="5.9435129" height="1.76732534"></rect>
                            <rect id="Rectangle" x="9.8235" y="15.0924315" width="4.0953629" height="16.9124486"></rect>
                            <rect id="Rectangle" x="8.89915645" y="32.0043425" width="5.9435129" height="1.76732534"></rect>
                            <rect id="Rectangle" x="17.5856226" y="15.0924315" width="4.0953629" height="16.9124486"></rect>
                            <rect id="Rectangle" x="16.661279" y="32.0043425" width="5.9435129" height="1.76732534"></rect>
                            <rect id="Rectangle" x="25.3477452" y="15.0924315" width="4.0953629" height="16.9124486"></rect>
                            <rect id="Rectangle" x="24.4234016" y="32.0043425" width="5.9435129" height="1.76732534"></rect>
                            <ellipse id="Oval" cx="15.7707726" cy="5.49284932" rx="2.0474129" ry="2.04960274"></ellipse>
                        </g>
                    </g>
                </g>
            </g>
        </g>
    </g>
</svg>