<?xml version="1.0" encoding="UTF-8"?>
<svg width="356px" height="370px" viewBox="0 0 356 370" version="1.1" xmlns="http://www.w3.org/2000/svg" xmlns:xlink="http://www.w3.org/1999/xlink">
    <!-- Generator: sketchtool 54.1 (76490) - https://sketchapp.com -->
    <title>3E1AF754-8BC0-46CB-87D2-46159BA368F8</title>
    <desc>Created with sketchtool.</desc>
    <g id="Page-1" stroke="none" stroke-width="1" fill="none" fill-rule="evenodd">
        <g id="pays-XDR---1440px" transform="translate(-182.000000, -1381.000000)">
            <g id="i-02" transform="translate(183.000000, 1382.000000)">
                <ellipse id="Oval" stroke-opacity="0.5" stroke="#DEDFE1" stroke-width="1.2" cx="178.072855" cy="191.813062" rx="175.757683" ry="175.819541"></ellipse>
                <g id="arrow-l" transform="translate(92.269165, 24.131148)" stroke="#21116A" stroke-width="1.2">
                    <polygon id="Path" fill="#DADAEB" points="67.7846678 85.9654033 67.7846678 65.478059 173.033632 65.478059 173.033632 20.7208131 67.7846678 20.7208131 67.7846678 0.233468852 56.4192777 0.233468852 0.549393526 43.0994361 56.4192777 85.9654033"></polygon>
                    <polygon id="Path" fill="#FFFFFF" points="56.4192777 85.9654033 56.4192777 65.478059 162.486603 65.478059 162.486603 20.7208131 56.4192777 20.7208131 56.4192777 0.233468852 0.549393526 43.0994361"></polygon>
                </g>
                <g id="Earth" transform="translate(66.337308, 75.409836)">
                    <ellipse id="Oval" stroke="#21116A" stroke-width="1.2" fill="#FFFFFF" cx="114.633281" cy="114.662767" rx="114.173141" ry="114.213325"></ellipse>
                    <path d="M0.668800681,121.608918 C0.668800681,121.608918 16.1157445,122.745495 22.6131823,121.608918 C28.6396252,120.55499 34.1444157,112.1296 39.6540307,114.790059 C47.890109,118.767475 64.0788245,141.212459 72.0314617,145.474623 C76.7812129,148.019856 82.2558501,139.224052 87.3680443,140.360026 C92.4802385,141.496603 101.383911,145.95061 102.704627,152.292879 C104.124848,159.111738 99.2966985,176.442728 95.88877,181.272577 C93.2678433,184.986361 85.3562147,177.949115 82.2558501,181.272577 C78.279833,185.534138 75.4393901,201.444407 72.0314617,206.842544 C69.8441397,210.307174 65.1022283,213.082256 61.8070733,213.661403 C58.5119182,214.241154 52.2605315,210.319239 52.2605315,210.319239 C44.1981363,205.044774 36.8413288,198.777915 30.3656014,191.69301 C30.3656014,191.69301 36.1176491,175.05398 36.2454991,169.339725 C36.3425928,165.013613 34.4230324,160.217548 31.1333049,157.406872 C25.6978671,152.763436 3.63045997,141.479108 3.63045997,141.479108 C2.08118228,135.049364 1.07647359,128.409075 0.668800681,121.608918 Z M141.129005,3.54607213 C181.837799,13.2383475 214.125976,44.7632787 224.923881,85.0466098 C224.923881,85.0466098 216.881387,99.318977 210.061911,101.152944 C201.620187,103.422479 188.640388,95.2854557 183.528194,95.8537443 C180.70524,96.1674492 179.144504,98.7337967 180.237261,101.356852 C181.656879,104.76598 192.105608,108.299384 197.985506,110.275121 C205.826576,112.909639 209.0566,115.732984 210.42556,119.808734 C212.54353,126.114807 208.925734,134.394203 204.949717,136.950898 C202.082739,138.794518 196.367479,133.963462 194.725329,136.950898 C191.600842,142.63318 187.908869,162.80501 186.204603,171.04459 C185.162504,176.083174 187.142974,184.167108 182.691741,186.744918 C177.295503,189.870505 170.506181,190.790505 165.393986,189.370387 C161.562705,188.3056 159.426644,180.131174 157.15429,177.005587 C154.882538,173.880603 148.518378,171.23583 147.666245,166.974269 C146.814716,162.712708 148.714978,156.838584 148.714978,152.292879 C148.714978,148.275043 141.614474,147.46303 140.194252,143.769757 C138.774634,140.075882 141.614474,133.825915 140.194252,130.132039 C138.774634,126.438767 135.598886,122.462557 131.674129,121.608918 C125.141714,120.188197 103.1714,125.64063 99.4661601,117.392603 C94.9166269,107.267174 93.0983816,99.9584525 93.9414685,88.4364328 C94.8732061,75.7048393 113.781148,71.8891016 121.449741,70.4683803 C127.28079,69.3879082 132.290463,72.9074361 135.414348,72.9074361 C137.210882,72.9074361 140.74847,71.9952787 141.540899,70.3821115 C143.292807,66.8167344 149.000831,65.378518 153.468951,69.1652984 C158.494906,73.4250492 170.110569,74.3728 174.834991,72.6371672 C180.646743,70.5021639 182.278037,63.4275148 179.388143,58.5355279 C175.69617,52.2849574 169.933267,52.2210098 162.692852,54.6528262 C158.88509,55.931777 146.273765,61.4680656 140.312453,60.3761311 C137.127056,59.7933639 137.186157,53.9488 132.321823,51.7975082 C126.583646,49.2595148 115.769458,52.8532459 111.225353,50.0124066 C106.681247,47.1709639 102.243884,35.8299279 109.47646,26.9128656 C119.419819,14.6548459 135.333537,23.4584918 143.602784,15.9187148 C150.892048,9.27239344 141.129005,3.54607213 141.129005,3.54607213 L141.129005,3.54607213 Z M61.8070733,50.0124066 C49.2741465,75.6264131 2.19516184,94.7364721 2.19516184,94.7364721 C7.60587394,64.0265705 25.2992402,37.5305705 50.0122998,20.5156984 C50.0122998,20.5156984 71.1334957,30.9500066 61.8070733,50.0124066 L61.8070733,50.0124066 Z" id="Shape" stroke="#21116A" stroke-width="1.2" fill="#6646F6"></path>
                    <path d="M149.064756,5.74321311 C195.273516,20.3660852 228.806422,63.6278033 228.806422,114.662767 C228.806422,177.698754 177.64709,228.876092 114.633281,228.876092 C86.3657479,228.876092 60.4833424,218.577521 40.5351107,201.528866 C51.4017649,204.968157 62.9691823,206.823239 74.965983,206.823239 C137.980395,206.823239 189.139727,155.645902 189.139727,92.6093115 C189.139727,57.8514098 173.584835,26.6987016 149.064756,5.74321311 L149.064756,5.74321311 Z" id="Path" fill-opacity="0.153522" fill="#0B0B7C"></path>
                </g>
                <g id="shield" transform="translate(130.865417, 151.422951)">
                    <g id="Group">
                        <path d="M55.9724055,0.824681967 C73.7489949,0.824681967 84.3358262,2.81429508 90.9568927,4.10772459 C94.0862044,4.7188459 95.5510528,6.07079344 95.6957888,8.58344918 C96.2228688,18.726977 96.7071312,43.6888393 89.9153969,57.9304393 C78.4456763,81.979541 55.9537104,87.2280656 55.9537104,87.2280656 C54.6269642,86.9933902 33.2319761,81.228459 22.1210801,57.9304393 C15.3293458,43.6888393 15.8136082,18.726977 16.3406882,8.58344918 C16.4854242,6.07079344 18.1124974,4.68868197 21.0795843,4.10772459 C27.684971,2.81429508 36.1972538,0.824681967 55.9724055,0.824681967 L55.9724055,0.824681967 Z" id="Path" fill-opacity="0.270047" fill="#241660"></path>
                        <path d="M43.2284055,0.563462295 C44.2114037,0.552603279 45.2239523,0.54717377 46.2678603,0.54717377 C64.0444497,0.54717377 74.6318842,2.53678689 81.2523475,3.83021639 C84.3816593,4.4413377 85.8465077,5.79328525 85.9912436,8.3053377 C86.5183237,18.4494689 87.002586,43.4113311 80.2108518,57.6523279 C68.7411312,81.7020328 46.2491652,86.9505574 46.2491652,86.9505574 C45.9850221,86.9041049 40.4530937,86.9505574 40.4530937,86.9505574 C39.1269506,86.715882 17.7319625,80.9503475 6.62106644,57.6523279 C-0.170667802,43.4113311 0.313594549,18.4494689 0.840674617,8.3053377 C0.984807496,5.79328525 2.61188075,4.41057049 5.5795707,3.83021639 C12.1849574,2.53678689 20.6972402,0.54717377 40.4723918,0.54717377 C41.4107632,0.54717377 42.3292334,0.552603279 43.2284055,0.563462295 L43.2284055,0.563462295 Z" id="Path" stroke="#21116A" stroke-width="1.2" fill="#6D57FC"></path>
                        <path d="M40.4723918,0.54717377 C58.2483782,0.54717377 68.8358126,2.53678689 75.456276,3.83021639 C78.5861908,4.4413377 80.0510392,5.79328525 80.1951721,8.3053377 C80.7222521,18.4494689 81.2065145,43.4113311 74.4147802,57.6523279 C62.9456627,81.7020328 40.4530937,86.9505574 40.4530937,86.9505574 C39.1269506,86.715882 17.7319625,80.9503475 6.62106644,57.6523279 C-0.170667802,43.4113311 0.313594549,18.4494689 0.840674617,8.3053377 C0.984807496,5.79328525 2.61188075,4.41057049 5.5795707,3.83021639 C12.1849574,2.53678689 20.6972402,0.54717377 40.4723918,0.54717377 Z" id="Path" stroke="#21116A" stroke-width="1.2" fill="#FFFFFF"></path>
                        <path d="M40.4814378,9.55593443 C54.5509779,9.55593443 62.930586,11.1310951 68.1706303,12.1542557 C70.6474242,12.6380852 71.807121,13.7083016 71.9211005,15.6967082 C72.3384225,23.725141 72.7219727,43.4819148 67.3462385,54.7529705 C58.2688825,73.7876197 40.4669642,77.9417967 40.4669642,77.9417967 C39.4170256,77.7559869 22.483523,73.1927869 13.6896082,54.7529705 C8.31387394,43.4819148 8.69742419,23.725141 9.11474617,15.6967082 C9.22872572,13.7083016 10.5168756,12.6139541 12.8652164,12.1542557 C18.0931993,11.1310951 24.8306576,9.55593443 40.4814378,9.55593443 Z" id="Path" stroke="#AFABC2" stroke-width="1.2"></path>
                    </g>
                    <g id="Group" transform="translate(19.298126, 13.875410)" stroke="#21116A" stroke-width="1.2">
                        <path d="M7.70236457,40.8673049 C10.6791005,37.3031344 16.0626746,34.9207869 22.2037002,34.9207869 C28.3453288,34.9207869 33.7289029,37.3031344 36.7056388,40.8673049 L7.70236457,40.8673049 L7.70236457,40.8673049 Z" id="Path"></path>
                        <path d="M7.70236457,9.78940328 L36.5928654,5.12967869" id="Path"></path>
                        <path d="M22.2037002,0.560445902 L22.2037002,34.7072262" id="Path"></path>
                        <ellipse id="Oval" fill="#FFFFFF" cx="22.147615" cy="7.4504918" rx="2.86637479" ry="2.86738361"></ellipse>
                        <ellipse id="Oval" fill="#FFFFFF" cx="22.147615" cy="7.4504918" rx="1.04270187" ry="1.04306885"></ellipse>
                        <g transform="translate(0.000000, 9.652459)" id="Path">
                            <path d="M14.8752368,13.7704393 C14.1334651,17.0474492 11.2019591,19.4979672 7.70236457,19.4979672 C4.20337308,19.4979672 1.27186712,17.0474492 0.529492334,13.7704393 L14.8752368,13.7704393 Z"></path>
                            <polygon points="7.70236457 0.136944262 0.529492334 13.7704393 14.8752368 13.7704393"></polygon>
                        </g>
                        <g transform="translate(28.947189, 4.826230)" id="Path">
                            <path d="M14.9457956,13.936341 C14.2040239,17.2139541 11.2719148,19.6638689 7.77292334,19.6638689 C4.27332879,19.6638689 1.34182283,17.2139541 0.600051107,13.936341 L14.9457956,13.936341 Z"></path>
                            <polygon points="7.77292334 0.30344918 0.600051107 13.936341 14.9457956 13.936341"></polygon>
                        </g>
                    </g>
                </g>
                <g id="arrow-r" transform="translate(92.872232, 261.219672)" stroke="#21116A">
                    <polygon id="Path" stroke-width="1.2" fill="#DADAEB" points="116.948453 85.932223 105.34063 85.932223 105.34063 65.4448787 8.16371039 65.4448787 8.16371039 20.6882361 105.34063 20.6882361 105.34063 0.200891803 116.948453 0.200891803 172.430566 43.0662557"></polygon>
                    <path d="M168.894184,43.0662557 L160.822743,43.0662557" id="Path" stroke-width="1.7766"></path>
                    <polygon id="Path" stroke-width="1.2" fill="#FFFFFF" points="105.34063 85.932223 105.34063 65.4448787 0.0922691652 65.4448787 0.0922691652 20.6882361 105.34063 20.6882361 105.34063 0.200891803 160.822743 43.0662557"></polygon>
                </g>
                <g id="Group" stroke="#AFABC2" stroke-width="1.2">
                    <g id="banknota" transform="translate(0.000000, 246.740984)">
                        <polygon id="Path" points="53.916552 0.306465574 0.45229983 14.6367475 7.61491993 41.3788852 61.0797751 27.048 53.916552 0.306465574"></polygon>
                        <path d="M28.4954923,12.3654033 C33.1722726,11.1111869 37.987155,13.8923016 39.2403271,18.5707279 C40.4934991,23.2497574 37.7139659,28.0657311 33.0365826,29.3199475 C28.3598024,30.5735607 23.5449199,27.7924459 22.2917479,23.1140197 C21.0385758,18.4349902 23.818109,13.6190164 28.4954923,12.3654033 Z" id="Path"></path>
                        <path d="M45.2046542,16.9720393 L50.7414072,15.4879738" id="Path"></path>
                        <path d="M10.8033322,26.1931541 L16.3141533,24.7163279" id="Path"></path>
                    </g>
                    <g id="portfel" transform="translate(306.357751, 91.095082)">
                        <path d="M41.9746303,19.9106098 L43.3200716,14.8883148 C44.1703952,11.713259 42.2840034,8.44469508 39.1100647,7.59407213 L12.4696048,0.453062295 C9.2956661,-0.397560656 6.02825213,1.48949508 5.17792845,4.66455082 L0.654327087,21.553941 C-0.196599659,24.7289967 1.68979216,27.9975607 4.86373083,28.8481836 L31.5047939,35.9891934 C34.6781295,36.8398164 37.9455434,34.9527607 38.7958671,31.7777049 L40.1316593,26.7910033" id="Path"></path>
                        <path d="M36.8817342,18.5333246 L41.672494,19.8171016 C42.6319727,20.0740984 43.2018705,21.0622689 42.9449642,22.021482 L42.0367462,25.4125115 C41.7798399,26.3717246 40.792017,26.9424262 39.8331414,26.6848262 L35.0417785,25.4010492 C33.1475468,24.8930885 32.0216218,22.9420852 32.5288007,21.0465836 C33.0365826,19.1516852 34.9868995,18.0253639 36.8817342,18.5333246 L36.8817342,18.5333246 Z" id="Path"></path>
                        <path d="M37.0138058,20.0065311 C38.168075,20.3160131 38.8537615,21.5044721 38.5449915,22.6591475 C38.2356184,23.813823 37.0469744,24.5003541 35.8933083,24.1908721 C34.7390392,23.8813902 34.0527496,22.6929311 34.3621227,21.5382557 C34.6714957,20.3835803 35.8595366,19.6970492 37.0138058,20.0065311 Z" id="Path"></path>
                        <polygon id="Path" points="38.531724 7.43902951 15.1791823 1.17940984 38.9412061 4.53303607 38.531724 7.43902951"></polygon>
                    </g>
                    <g transform="translate(293.693356, 255.186885)">
                        <ellipse id="Oval" cx="42.9865758" cy="11.4803934" rx="4.94996934" ry="4.95171148"></ellipse>
                        <path d="M37.7742726,30.3919738 L52.0995128,30.3919738 L52.0995128,24.0201443 C52.0995128,20.8728393 49.5449233,18.3179541 46.3987257,18.3179541 L39.5738228,18.3179541 C38.6463066,18.3179541 37.7700511,18.5399607 36.9951107,18.9339016" id="Path"></path>
                        <ellipse id="Oval" cx="9.49769336" cy="11.4803934" rx="4.94996934" ry="4.95171148"></ellipse>
                        <path d="M14.7099966,30.3919738 L0.384756388,30.3919738 L0.384756388,24.0201443 C0.384756388,20.8728393 2.93874276,18.3179541 6.08494037,18.3179541 L12.9104463,18.3179541 C13.8379625,18.3179541 14.7142181,18.5399607 15.4885554,18.9339016" id="Path"></path>
                        <ellipse id="Oval" cx="26.2243441" cy="6.42371148" rx="6.27430324" ry="6.27651148"></ellipse>
                        <path d="M37.7742726,22.3164852 C37.7742726,18.3276066 34.5370119,15.0892066 30.5495366,15.0892066 L21.8991516,15.0892066 C17.9116763,15.0892066 14.6744157,18.3276066 14.6744157,22.3164852 L14.6744157,30.3919738 L37.7742726,30.3919738 L37.7742726,22.3164852 L37.7742726,22.3164852 Z" id="Path"></path>
                    </g>
                    <g id="s" transform="translate(322.037479, 181.586885)">
                        <path d="M6.553523,0.533901639 L6.553523,29.8134295" id="Path"></path>
                        <path d="M11.5077138,5.64789508 C7.49370358,2.25022951 1.16452129,4.28086557 0.911836457,8.57741639 C0.489086882,15.7642754 13.18846,14.0919869 13.134184,21.1262164 C13.0937785,26.4043016 5.09289608,28.173718 0.0777955707,24.7289967" id="Path"></path>
                    </g>
                    <g id="Phound" transform="translate(185.744463, 0.000000)">
                        <path d="M0.25750937,13.748118 L11.3623748,13.748118" id="Path"></path>
                        <path d="M15.7840579,24.8822295 C12.3893969,26.1569574 10.1266917,24.5661115 7.74819761,24.2228459 C4.91318228,23.8144262 2.99784327,24.3127344 1.05054174,25.0547672 C4.12135605,21.8055082 5.13511073,17.7074361 5.01630664,14.1444721 C4.90413629,10.7630951 3.82223509,8.00188852 3.82223509,5.31729836 C3.82223509,2.63210492 6.00111414,0.452459016 8.6847598,0.452459016 C11.3690085,0.452459016 13.5478876,2.63210492 13.5478876,5.31729836" id="Path"></path>
                    </g>
                    <g transform="translate(20.504259, 158.059016)" id="Path">
                        <path d="M4.99218399,0.775213115 L20.940276,0.775213115"></path>
                        <path d="M1.73622828,7.72317377 L24.1962317,7.72317377"></path>
                        <path d="M9.6587121,7.72317377 C9.6587121,14.1867016 5.97277002,19.7959869 0.591005111,22.5608131"></path>
                        <path d="M21.9950392,19.4599607 C21.9950392,21.1714623 20.6061772,22.5608131 18.8952777,22.5608131 C17.1849813,22.5608131 15.7961193,21.1714623 15.7961193,19.4599607 C15.7961193,17.7490623 15.7961193,7.72317377 15.7961193,7.72317377"></path>
                    </g>
                </g>
                <ellipse id="Oval" stroke="#21116A" stroke-width="1.2" cx="32.2568177" cy="94.392" rx="5.60912095" ry="5.61109508"></ellipse>
                <ellipse id="Oval" stroke="#21116A" stroke-width="1.2" cx="304.041373" cy="68.2326295" rx="6.51372061" ry="6.51601311"></ellipse>
                <ellipse id="Oval" stroke="#21116A" stroke-width="1.2" cx="306.775073" cy="311.249574" rx="2.90858944" ry="2.90961311"></ellipse>
            </g>
        </g>
    </g>
</svg>