<?xml version="1.0" encoding="UTF-8"?>
<svg width="351px" height="343px" viewBox="0 0 351 343" version="1.1" xmlns="http://www.w3.org/2000/svg" xmlns:xlink="http://www.w3.org/1999/xlink">
    <!-- Generator: sketchtool 54.1 (76490) - https://sketchapp.com -->
    <title>36D0BFDE-B240-41D2-B04F-76445E5AC337</title>
    <desc>Created with sketchtool.</desc>
    <g id="Page-1" stroke="none" stroke-width="1" fill="none" fill-rule="evenodd">
        <g id="pays-XDR---1440px" transform="translate(-835.000000, -1848.000000)">
            <g id="i-03" transform="translate(836.000000, 1850.000000)">
                <ellipse id="Oval" stroke-opacity="0.5" stroke="#DEDFE1" cx="174.423309" cy="163.703881" rx="161.962675" ry="161.858371"></ellipse>
                <g id="S" transform="translate(179.501592, 304.345277)" stroke="#1F105C" stroke-width="2.5">
                    <path d="M8.22706369,0.411532573 L8.22706369,36.2576303" id="Path"></path>
                    <path d="M14.2978854,6.67227036 C9.37909713,2.51307003 1.62273885,4.99837134 1.31319586,10.2588795 C0.794697452,19.0571238 16.3574299,17.010013 16.2912978,25.6216515 C16.2418376,32.0839902 6.43649363,34.2499511 0.290648089,30.0329919" id="Path"></path>
                </g>
                <g id="Euro" transform="translate(32.232484, 48.317590)" stroke="#1F105C" stroke-width="2.5">
                    <path d="M26.0571847,23.6184153 C23.6297452,25.9032264 20.3598153,27.3038811 16.7653376,27.3038811 C9.28239968,27.3038811 3.2076879,21.2325261 3.2076879,13.7544072 C3.2076879,6.27628827 9.28239968,0.204933225 16.7653376,0.204933225 C20.4187229,0.204933225 23.7358901,1.65168404 26.175,4.00258469" id="Path"></path>
                    <path d="M0.0494601911,10.9792003 L20.2447787,10.9792003" id="Path"></path>
                    <path d="M0.0494601911,16.529614 L20.2447787,16.529614" id="Path"></path>
                </g>
                <g id="Phound" transform="translate(226.738854, 0.000000)" stroke="#1F105C" stroke-width="2.5">
                    <path d="M0.175611465,15.8970423 L13.3503615,15.8970423" id="Path"></path>
                    <path d="M18.5964761,29.0944088 C14.5690828,30.6050277 11.8843392,28.7195309 9.06232962,28.3129967 C5.69903662,27.8281547 3.4266465,28.4190733 1.11646656,29.2987866 C4.75984873,25.4472638 5.96245382,20.5899577 5.8218535,16.3674446 C5.68847771,12.3598616 4.40473567,9.08703909 4.40473567,5.90474267 C4.40473567,2.72244625 6.99000318,0.138843648 10.1743503,0.138843648 C13.3586975,0.138843648 15.943965,2.72244625 15.943965,5.90474267" id="Path"></path>
                </g>
                <g id="ien" transform="translate(326.214968, 147.729642)" stroke="#1F105C" stroke-width="2.5">
                    <polyline id="Path" points="0.157828025 0.263247557 11.3136019 17.5159593 22.4699315 0.263247557"></polyline>
                    <path d="M11.3136019,31.6313599 L11.3136019,17.5159593" id="Path"></path>
                    <path d="M19.9902532,17.5159593 L2.63750637,17.5159593" id="Path"></path>
                    <path d="M19.9902532,23.5656547 L2.63750637,23.5656547" id="Path"></path>
                </g>
                <g id="Group" transform="translate(303.985669, 66.644951)" stroke="#1F105C" stroke-width="2.5">
                    <path d="M5.70014809,0.414309446 L24.6217277,0.414309446" id="Path"></path>
                    <path d="M1.83725159,8.64940391 L28.4846242,8.64940391" id="Path"></path>
                    <path d="M11.2369108,8.64940391 C11.2369108,16.310241 6.86385191,22.9586303 0.478485669,26.2353404" id="Path"></path>
                    <path d="M25.8726815,22.5604267 C25.8726815,24.5886547 24.2249347,26.2353404 22.1953997,26.2353404 C20.1658646,26.2353404 18.5181178,24.5886547 18.5181178,22.5604267 C18.5181178,20.5321987 18.5181178,8.64940391 18.5181178,8.64940391" id="Path"></path>
                </g>
                <g id="Group" transform="translate(132.820064, 113.851792)" fill-rule="nonzero" stroke="#231268">
                    <path d="M6.22809395,0.299346906 L21.2967803,0.299346906 L43.1898615,37.5710912 C43.3604713,37.8621075 43.7272548,37.954855 44.0090111,37.7782459 C44.0907038,37.7271515 44.1596146,37.6560635 44.2090748,37.5716466 L66.1427245,0.299346906 L80.4233822,0.299346906 L59.8273806,34.1472068 C59.7395748,34.2910489 59.7818105,34.4815423 59.9212994,34.5720684 C59.9685366,34.6031694 60.0235541,34.6192752 60.0796831,34.6192752 L70.5985876,34.6192752 C71.5866799,34.6192752 72.3880462,35.4473388 72.3880462,36.4686726 L72.3880462,43.4630603 C72.3880462,44.4843941 71.5866799,45.3119023 70.5985876,45.3119023 L53.0007627,45.3119023 L51.0712596,48.9285016 C50.9662261,49.1256596 50.9734506,49.3672476 51.0907102,49.5571857 L53.0007627,52.6539544 L70.5985876,52.6539544 C71.5866799,52.6539544 72.3880462,53.4814625 72.3880462,54.5027964 L72.3880462,61.6221433 C72.3880462,62.6434772 71.5866799,63.4715407 70.5985876,63.4715407 L60.0752373,63.4715407 C59.9107404,63.4715407 59.7773646,63.6092736 59.7773646,63.7797736 C59.7773646,63.8369772 59.7929252,63.89307 59.8218232,63.941943 L81.8855143,100.773831 L67.0218933,100.773831 L44.1990717,60.2464805 C44.0334634,59.9521319 43.6683471,59.8527199 43.3838121,60.0237752 C43.298785,60.0748697 43.2276513,60.146513 43.1765239,60.2325961 L18.9243583,100.773831 L4.33915924,100.773831 L27.1369729,63.9458306 C27.2258901,63.8019886 27.1853217,63.6114951 27.0463885,63.5198583 C26.9985955,63.488202 26.9430223,63.4715407 26.8857818,63.4715407 L14.7997118,63.4715407 C13.8116194,63.4715407 13.0102532,62.6434772 13.0102532,61.6221433 L13.0102532,54.5027964 C13.0102532,53.4814625 13.8116194,52.6539544 14.7997118,52.6539544 L33.8057627,52.6539544 L35.8114013,49.5688485 C35.9392197,49.3728013 35.947,49.1189951 35.8325191,48.9151726 L33.8057627,45.3119023 L14.7997118,45.3119023 C13.8116194,45.3119023 13.0102532,44.4843941 13.0102532,43.4630603 L13.0102532,36.4686726 C13.0102532,35.4473388 13.8116194,34.6192752 14.7997118,34.6192752 L26.8863376,34.6192752 C27.0508344,34.6192752 27.1847659,34.4815423 27.1847659,34.3110423 C27.1847659,34.252728 27.1686497,34.1949691 27.1375287,34.1455407 L6.22809395,0.299346906 L6.22809395,0.299346906 Z" id="Path-2-Copy" fill="#FFFFFF"></path>
                    <path d="M2.20236783,0.299346906 L17.2710541,0.299346906 L39.1635796,37.5710912 C39.3347452,37.8621075 39.7015287,37.954855 39.983285,37.7782459 C40.0649777,37.7271515 40.1338885,37.6560635 40.1833487,37.5716466 L62.1169984,0.299346906 L76.3976561,0.299346906 L55.8016545,34.1472068 C55.7138487,34.2910489 55.7560844,34.4815423 55.8955732,34.5720684 C55.9428105,34.6031694 55.997828,34.6192752 56.053957,34.6192752 L66.5728615,34.6192752 C67.5609538,34.6192752 68.3623201,35.4473388 68.3623201,36.4686726 L68.3623201,43.4630603 C68.3623201,44.4843941 67.5609538,45.3119023 66.5728615,45.3119023 L48.9750366,45.3119023 L47.0455334,48.9285016 C46.9399443,49.1256596 46.9477245,49.3672476 47.0649841,49.5571857 L48.9750366,52.6539544 L66.5728615,52.6539544 C67.5609538,52.6539544 68.3623201,53.4814625 68.3623201,54.5027964 L68.3623201,61.6221433 C68.3623201,62.6434772 67.5609538,63.4715407 66.5728615,63.4715407 L56.0495111,63.4715407 C55.8850143,63.4715407 55.7516385,63.6092736 55.7516385,63.7797736 C55.7516385,63.8369772 55.7666433,63.89307 55.7960971,63.941943 L77.8597882,100.773831 L62.9961672,100.773831 L40.1733455,60.2464805 C40.0077373,59.9521319 39.642621,59.8527199 39.358086,60.0237752 C39.2730589,60.0748697 39.2019252,60.146513 39.150242,60.2325961 L14.8986322,100.773831 L0.313433121,100.773831 L23.1112468,63.9458306 C23.200164,63.8019886 23.1595955,63.6114951 23.0206624,63.5198583 C22.9728694,63.488202 22.9167404,63.4715407 22.8600557,63.4715407 L10.7739857,63.4715407 C9.78533758,63.4715407 8.98452707,62.6434772 8.98452707,61.6221433 L8.98452707,54.5027964 C8.98452707,53.4814625 9.78533758,52.6539544 10.7739857,52.6539544 L29.7800366,52.6539544 L31.7856752,49.5688485 C31.9129379,49.3728013 31.9212739,49.1189951 31.8062373,48.9151726 L29.7800366,45.3119023 L10.7739857,45.3119023 C9.78533758,45.3119023 8.98452707,44.4843941 8.98452707,43.4630603 L8.98452707,36.4686726 C8.98452707,35.4473388 9.78533758,34.6192752 10.7739857,34.6192752 L22.8606115,34.6192752 C23.0251083,34.6192752 23.1590398,34.4815423 23.1590398,34.3110423 C23.1590398,34.252728 23.1423678,34.1949691 23.1118025,34.1455407 L2.20236783,0.299346906 L2.20236783,0.299346906 Z" id="Path-2-Copy1" fill="#5438DC"></path>
                </g>
                <g id="Group" transform="translate(0.000000, 4.442997)" stroke="#1F105C" stroke-width="0.8">
                    <ellipse id="Oval" cx="88.9344252" cy="4.04812541" rx="4.00516401" ry="4.00258469"></ellipse>
                    <ellipse id="Oval" cx="5.48341242" cy="195.115868" rx="5.20554618" ry="5.20219381"></ellipse>
                    <ellipse id="Oval" cx="344.202361" cy="206.908692" rx="3.81621497" ry="3.81375733"></ellipse>
                    <ellipse id="Oval" cx="293.352839" cy="51.1261189" rx="1.87115127" ry="1.86994625"></ellipse>
                </g>
                <g id="Group" transform="translate(46.125796, 36.654723)">
                    <path d="M10.7139666,150.490964 C21.9553232,208.724767 72.957672,250.800502 132.303232,250.800502 C200.647213,250.800502 256.134323,195.349681 256.134323,127.049158 C256.134323,59.3212264 201.654756,4.17475081 133.888182,3.30781107 L133.525844,31.5935945 C185.801376,32.2628208 227.827533,74.8028485 227.827533,127.049158 C227.827533,179.73699 185.024462,222.512497 132.303232,222.512497 C86.5231019,222.512497 47.1800207,190.054739 38.5078153,145.13271 L10.7139666,150.490964 Z" id="Path" stroke="#231268" fill="#6D57FC"></path>
                    <path d="M88.2869968,6.96328664 C39.7815541,23.5145603 6.49262261,68.2183274 4.55700637,119.403316 L32.8432341,120.471857 C34.3364873,80.9869446 60.0157739,46.5015147 97.4337978,33.7340081 L88.2869968,6.96328664 L88.2869968,6.96328664 Z" id="Path" stroke="#231268" stroke-width="1.75" fill="#0B0B7C"></path>
                    <path d="M6.97221975,151.818865 C18.7487468,209.427316 69.4615589,250.800502 128.297513,250.800502 C196.642049,250.800502 252.129159,195.349681 252.129159,127.049158 C252.129159,60.7896368 199.906422,6.28684039 133.666444,3.41388762 L132.439387,31.6757899 C183.537322,33.8917345 223.822369,75.9358127 223.822369,127.049158 C223.822369,179.73699 181.019298,222.512497 128.297513,222.512497 C82.9108408,222.512497 43.7906083,190.59623 34.7060494,146.156821 L6.97221975,151.818865 Z" id="Path" stroke="#231268" fill="#FFFFFF"></path>
                    <path d="M128.297513,0.324894137 C59.9074061,0.324894137 4.46642197,55.7301743 4.46642197,124.076238 C4.46642197,131.533808 5.14108121,138.975272 6.48150796,146.311215 L34.3275955,141.228427 C33.2933774,135.569715 32.7732118,129.828808 32.7732118,124.076238 C32.7732118,71.3534169 75.5407166,28.6134544 128.297513,28.6134544 L128.297513,0.324894137 L128.297513,0.324894137 Z" id="Path" stroke="#231268" stroke-width="1.75" fill="#0B0B7C"></path>
                    <path d="M124.294572,0.324894137 C55.904465,0.324894137 0.463480892,55.7301743 0.463480892,124.076238 C0.463480892,131.533808 1.13758439,138.975272 2.47856688,146.311215 L30.3240987,141.228427 C29.2898806,135.569715 28.769715,129.828808 28.769715,124.076238 C28.769715,71.3534169 71.5377755,28.6134544 124.294572,28.6134544 L124.294572,0.324894137 Z" id="Path" stroke="#231268" fill="#6646F6"></path>
                    <path d="M88.7621481,20.4516694 C45.5861799,34.6120554 15.8072548,74.1508388 14.1383901,119.532163" id="Path" stroke="#FFFFFF" stroke-width="1.75"></path>
                </g>
                <g id="add" transform="translate(181.724522, 57.758958)" stroke-width="1.75">
                    <ellipse id="Oval" stroke="#D5D3DD" cx="4.48420541" cy="214.289621" rx="4.00516401" ry="4.00258469"></ellipse>
                    <ellipse id="Oval" stroke="#D5D3DD" cx="102.766607" cy="109.094453" rx="4.00516401" ry="4.00258469"></ellipse>
                    <ellipse id="Oval" stroke="#D5D3DD" cx="87.0182596" cy="51.0478111" rx="4.00516401" ry="4.00258469"></ellipse>
                    <ellipse id="Oval" stroke="#D5D3DD" cx="34.9961417" cy="4.51963844" rx="4.00516401" ry="4.00258469"></ellipse>
                    <path d="M84.1617946,133.552039 L111.519393,140.87743" id="Path" stroke="#1F105C"></path>
                    <path d="M58.2379857,36.329829 L76.6955287,15.6393485" id="Path" stroke="#231268"></path>
                    <path d="M85.5222277,83.3289593 L112.870379,75.9874625" id="Path" stroke="#1F105C"></path>
                </g>
                <path d="M251.85685,164.481961 C251.85685,207.441296 216.95685,242.318821 173.969831,242.318821 C130.982256,242.318821 96.0822564,207.441296 96.0822564,164.481961 C96.0822564,121.522625 130.982256,86.6445456 173.969831,86.6445456" id="Path" stroke="#21116A"></path>
                <path d="M204.524003,92.8802915 C216.133255,97.8109072 226.703842,105.633358 235.070951,116.211578" id="Path" stroke="#21116A" stroke-width="1.75"></path>
            </g>
        </g>
    </g>
</svg>