<?xml version="1.0" encoding="UTF-8"?>
<svg width="102px" height="18px" viewBox="0 0 102 18" version="1.1" xmlns="http://www.w3.org/2000/svg" xmlns:xlink="http://www.w3.org/1999/xlink">
    <!-- Generator: sketchtool 54.1 (76490) - https://sketchapp.com -->
    <title>D4A17853-04D5-414C-8B89-E06932B34883</title>
    <desc>Created with sketchtool.</desc>
    <g id="Page-1" stroke="none" stroke-width="1" fill="none" fill-rule="evenodd">
        <g id="pays-XDR---1440px" transform="translate(-1056.000000, -6936.000000)">
            <g id="Group" transform="translate(1056.000000, 6936.000000)">
                <g id="xdr-symbol" transform="translate(58.081529, 0.887324)" fill="#FFFFFF">
                    <path d="M0.341838349,5.63421463e-18 L3.06869977,5.63421463e-18 L7.03055132,6.34808466 C7.0614855,6.39765053 7.12787705,6.41344249 7.17884103,6.38335693 C7.19364284,6.37461897 7.2060662,6.36254624 7.21506268,6.34815763 L11.184226,0 L13.7685793,0 L10.0414076,5.76490419 C10.0255402,5.7894466 10.0331339,5.82185229 10.0583686,5.83728435 C10.0669744,5.84254713 10.0769333,5.84533928 10.087099,5.84533928 L11.9906133,5.84533928 C12.1694659,5.84533928 12.3144546,5.98635041 12.3144546,6.16029651 L12.3144546,7.35155697 C12.3144546,7.52550307 12.1694659,7.6665142 11.9906133,7.6665142 L8.80602405,7.6665142 L8.45686381,8.28240025 C8.43779194,8.3160412 8.43913523,8.35712685 8.46036615,8.3895214 L8.80602405,8.91693424 L11.9906133,8.91693424 C12.1694659,8.91693424 12.3144546,9.05794537 12.3144546,9.23189147 L12.3144546,10.4444183 C12.3144546,10.6183644 12.1694659,10.7593755 11.9906133,10.7593755 L10.086292,10.7593755 C10.0564832,10.7593755 10.0323184,10.7828774 10.0323184,10.8118684 C10.0323184,10.8216296 10.0351169,10.8311974 10.0403995,10.8394972 L14.033121,17.1126761 L11.3433944,17.1126761 L7.21325068,10.2101131 C7.18326492,10.159999 7.11718522,10.1430149 7.06565754,10.172178 C7.05033856,10.1808481 7.03745038,10.1930533 7.02813103,10.2077159 L2.63943059,17.1126761 L0,17.1126761 L4.12559688,10.8401549 C4.14165974,10.8157331 4.13432501,10.783271 4.10921432,10.7676488 C4.10053076,10.7622464 4.09043814,10.7593755 4.08012994,10.7593755 L1.89296799,10.7593755 C1.7141154,10.7593755 1.56912673,10.6183644 1.56912673,10.4444183 L1.56912673,9.23189147 C1.56912673,9.05794537 1.7141154,8.91693424 1.89296799,8.91693424 L5.3324213,8.91693424 L5.69539943,8.39148784 C5.71843755,8.35813791 5.71988491,8.31492505 5.69912722,8.28018757 L5.3324213,7.6665142 L1.89296799,7.6665142 C1.7141154,7.6665142 1.56912673,7.52550307 1.56912673,7.35155697 L1.56912673,6.16029651 C1.56912673,5.98635041 1.7141154,5.84533928 1.89296799,5.84533928 L4.08023687,5.84533928 C4.11004563,5.84533928 4.13421041,5.82183738 4.13421041,5.79284641 C4.13421041,5.78283733 4.13126811,5.77303686 4.12573037,5.76460036 L0.341838349,5.63421463e-18 Z" id="Path-2-Copy"></path>
                </g>
                <path d="M30.3068141,15.4152502 C30.6907104,16.2726999 30.2902442,17.2713396 29.4127672,17.6469392 C29.1863594,17.7435956 28.9505667,17.7888451 28.7184402,17.7888451 C28.0497744,17.7888451 27.4130758,17.4098088 27.1277198,16.7730221 L22.6456072,6.76815351 L18.1629082,16.7730221 C17.8781388,17.4098088 17.2408536,17.7888451 16.5729212,17.7888451 C16.3406479,17.7888451 16.1045619,17.7435956 15.8783008,17.6469392 C15.0003838,17.2713396 14.6003576,16.2726999 14.9841072,15.4152502 L21.0559134,1.86259039 C21.4402495,1.00557027 22.4633373,0.61450562 23.3409609,0.989532469 C23.751545,1.16465955 24.0556706,1.47739672 24.2257698,1.84755495 C24.2282626,1.85242357 24.2325151,1.85729219 24.2350079,1.86259039 L30.3068141,15.4152502 Z M7.37321145,0 C11.438581,0 14.7459829,3.23018543 14.7459829,7.20097373 C14.7459829,11.1704733 11.438581,14.4003723 7.37321145,14.4003723 C5.94041941,14.4003723 4.60279491,13.9977089 3.46958268,13.3043603 L3.46958268,16.3058638 C3.46958268,17.2410682 2.69284545,18 1.73515793,18 C0.776737223,18 0.000146637195,17.2410682 0.000146637195,16.3058638 L0.000146637195,10.3297773 L0.000146637195,7.20627193 C0.000146637195,7.20469679 0,7.20297846 0,7.20097373 C0,3.23018543 3.30784185,0 7.37321145,0 Z M7.26499319,11.118064 C9.47686865,11.118064 11.2764003,9.36106536 11.2764003,7.20097373 C11.2764003,5.03973653 9.47686865,3.28259468 7.26499319,3.28259468 C5.05238456,3.28259468 3.25299953,5.03973653 3.25299953,7.20097373 C3.25299953,9.36106536 5.05238456,11.118064 7.26499319,11.118064 Z M42.9730418,1.10543424 C43.784972,1.60131739 44.0324956,2.6469249 43.5248376,3.4397938 L38.3664344,11.4982172 L38.3664344,16.0951959 C38.3664344,17.0304002 37.5899904,17.789332 36.6320097,17.789332 C35.6740288,17.789332 34.8972917,17.0304002 34.8972917,16.0951959 L34.8972917,11.4986468 L29.7397682,3.4397938 C29.2318169,2.6469249 29.4791938,1.60131739 30.291124,1.10543424 C31.1037874,0.609121501 32.173799,0.850977304 32.6818969,1.64427579 L36.6320097,7.8162526 L40.5821224,1.64384621 C41.0899269,0.85054772 42.1599386,0.609551084 42.9730418,1.10543424 Z" id="Combined-Shape" fill="#5438DC" fill-rule="nonzero"></path>
                <path d="M48.735873,5.60798112 C48.735873,8.49468895 56.6522293,6.53940761 56.6522293,12.5258228 C56.6522293,15.4742449 53.9775128,17.8732394 50.6906939,17.8732394 C48.745125,17.8732394 46.8982445,17.2255266 45.7508464,16.1402434 C45.0541542,15.4815305 45.0382936,14.3979615 45.7158943,13.7203915 C46.392467,13.0428217 47.5065285,13.0273931 48.2030738,13.6865345 C48.6787454,14.1363906 49.7021956,14.5403897 50.6906939,14.5403897 C52.2168376,14.5403897 53.0238198,13.78582 53.0238198,12.722108 C53.0238198,9.42440116 45.2233341,11.7536817 45.2233341,5.57369549 C45.2233341,2.86041584 47.676002,0.76056338 50.6906939,0.76056338 C53.0227919,0.76056338 55.348428,1.62456145 55.348428,3.22284359 C55.348428,4.10927018 54.6114968,4.82769715 53.6998051,4.82769715 C52.9126486,4.82769715 51.7278019,3.90769921 50.2505618,4.06112744 C49.4048091,4.14884152 48.735873,4.55912632 48.735873,5.60798112 Z" id="Combined-Shape-path" fill="#5438DC" fill-rule="nonzero"></path>
                <path d="M86.6903847,9.44467606 C86.6903847,6.01301408 84.125442,3.29628169 80.4612382,3.29628169 L76.4794701,3.29628169 L76.4794701,15.5930704 L80.4612382,15.5930704 C83.9788739,15.5930704 86.6903847,13.1146479 86.6903847,9.44467606 Z M74.1832357,0.889352113 L79.6062573,0.889352113 C85.053707,0.889352113 89.0110471,3.98738028 89.0110471,9.44467606 C89.0110471,14.8304789 84.9804229,18 79.6062573,18 L74.1832357,18 L74.1832357,0.889352113 Z M91.2771363,18 L91.2771363,0.889352113 L96.1383134,0.889352113 C98.7765401,0.889352113 101.439195,2.39070423 101.439195,5.70321127 C101.439195,8.20546479 99.9490854,9.84980282 97.701707,10.3740845 L101.952183,18 L99.2406726,18 L95.1611924,10.6600563 L93.5733707,10.6600563 L93.5733707,18 L91.2771363,18 Z M96.6024459,3.29628169 L93.5733707,3.29628169 L93.5733707,8.25312676 L96.6024459,8.25312676 C98.0192713,8.25312676 99.1185325,7.27605634 99.1185325,5.8223662 C99.1185325,4.39250704 98.0925554,3.29628169 96.6024459,3.29628169 Z" id="DR" fill="#FFFFFF"></path>
            </g>
        </g>
    </g>
</svg>