<svg xmlns="http://www.w3.org/2000/svg" width="102" height="18" viewBox="0 0 102 18">
    <g fill="none" fill-rule="evenodd">
        <path fill="#211265" d="M58.423.887h2.727l3.962 6.348a.11.11 0 0 0 .185 0L69.266.887h2.584l-3.727 5.765a.052.052 0 0 0 .017.073.055.055 0 0 0 .029.008h1.903a.32.32 0 0 1 .324.315v1.19a.32.32 0 0 1-.324.316h-3.184l-.35.616a.103.103 0 0 0 .004.107l.346.527h3.184a.32.32 0 0 1 .324.315v1.213a.32.32 0 0 1-.324.315h-1.904a.053.053 0 0 0-.054.052c0 .01.003.02.008.028L72.115 18h-2.69l-4.13-6.903a.11.11 0 0 0-.185-.002L60.72 18h-2.64l4.126-6.273a.052.052 0 0 0-.016-.072.055.055 0 0 0-.03-.008h-2.187a.32.32 0 0 1-.323-.315v-1.213a.32.32 0 0 1 .323-.315h3.44l.363-.525a.103.103 0 0 0 .004-.111l-.367-.614h-3.44a.32.32 0 0 1-.323-.315V7.048a.32.32 0 0 1 .323-.315h2.188c.03 0 .054-.024.054-.053 0-.01-.003-.02-.009-.028L58.423.887z"/>
        <path fill="#5438DC" fill-rule="nonzero" d="M30.307 15.415a1.68 1.68 0 0 1-.894 2.232 1.764 1.764 0 0 1-.695.142 1.737 1.737 0 0 1-1.59-1.016L22.646 6.768l-4.483 10.005a1.737 1.737 0 0 1-1.59 1.016c-.232 0-.468-.045-.695-.142a1.68 1.68 0 0 1-.894-2.232l6.072-13.552C21.44 1.006 22.463.615 23.34.99c.41.175.715.487.885.858l.009.015 6.072 13.552zM7.373 0c4.066 0 7.373 3.23 7.373 7.201 0 3.97-3.307 7.2-7.373 7.2a7.459 7.459 0 0 1-3.903-1.097v3.002C3.47 17.24 2.693 18 1.735 18 .777 18 0 17.241 0 16.306v-9.1-.005C0 3.231 3.308 0 7.373 0zm-.108 11.118c2.212 0 4.011-1.757 4.011-3.917 0-2.161-1.8-3.918-4.011-3.918-2.213 0-4.012 1.757-4.012 3.918 0 2.16 1.8 3.917 4.012 3.917zM42.973 1.105a1.672 1.672 0 0 1 .552 2.335l-5.159 8.058v4.597c0 .935-.776 1.694-1.734 1.694s-1.735-.759-1.735-1.694V11.5l-5.157-8.06a1.671 1.671 0 0 1 .551-2.334 1.76 1.76 0 0 1 2.39.54l3.951 6.171 3.95-6.172C41.09.85 42.16.61 42.973 1.105zM48.736 5.608c0 2.887 7.916.931 7.916 6.918 0 2.948-2.674 5.347-5.961 5.347-1.946 0-3.793-.647-4.94-1.733a1.678 1.678 0 0 1-.035-2.42 1.793 1.793 0 0 1 2.487-.033c.476.45 1.5.853 2.488.853 1.526 0 2.333-.754 2.333-1.818 0-3.298-7.8-.968-7.8-7.148C45.223 2.86 47.675.76 50.69.76c2.332 0 4.657.864 4.657 2.462 0 .886-.737 1.605-1.648 1.605-.787 0-1.972-.92-3.45-.767-.845.088-1.514.498-1.514 1.547z"/>
        <path fill="#211265" d="M86.69 9.445c0-3.432-2.565-6.149-6.229-6.149H76.48v12.297h3.982c3.518 0 6.23-2.478 6.23-6.148zM74.183.889h5.423c5.448 0 9.405 3.098 9.405 8.556 0 5.385-4.03 8.555-9.405 8.555h-5.423V.89zM91.277 18V.89h4.861c2.639 0 5.301 1.5 5.301 4.813 0 2.502-1.49 4.147-3.737 4.671l4.25 7.626h-2.711l-4.08-7.34h-1.588V18h-2.296zm5.325-14.704h-3.029v4.957h3.03c1.416 0 2.516-.977 2.516-2.43 0-1.43-1.026-2.527-2.517-2.527z"/>
    </g>
</svg>
