<?xml version="1.0" encoding="UTF-8"?>
<svg width="124px" height="26px" viewBox="0 0 124 26" version="1.1" xmlns="http://www.w3.org/2000/svg" xmlns:xlink="http://www.w3.org/1999/xlink">
    <!-- Generator: sketchtool 54.1 (76490) - https://sketchapp.com -->
    <title>8AB57D65-CD2B-427E-B73B-B99EE6B7E634</title>
    <desc>Created with sketchtool.</desc>
    <g id="Page-1" stroke="none" stroke-width="1" fill="none" fill-rule="evenodd">
        <g id="pays-XDR---1440px" transform="translate(-550.000000, -6761.000000)" fill="#BCBEC9" fill-rule="nonzero">
            <g id="Group-55" transform="translate(0.000000, 6627.000000)">
                <g id="Group-48" transform="translate(172.000000, 0.000000)">
                    <g id="Microsoft_logo_(2012)" transform="translate(378.000000, 134.000000)">
                        <path d="M43.5110891,14.9751938 L42.7763802,17.0310078 L42.7151545,17.0310078 C42.592703,16.5674419 42.3682087,15.8620155 42.0008543,15.0155039 L38.0619986,5.24031008 L34.2047773,5.24031008 L34.2047773,20.820155 L36.7558496,20.820155 L36.7558496,11.2062016 C36.7558496,10.6015504 36.7558496,9.91627907 36.735441,9.06976744 C36.7150325,8.64651163 36.6742153,8.32403101 36.6538067,8.08217054 L36.7150325,8.08217054 C36.8374839,8.68682171 36.980344,9.13023256 37.0823869,9.4124031 L41.8171771,20.779845 L43.6131319,20.779845 L48.307105,9.31162791 C48.4091479,9.0496124 48.5111908,8.5255814 48.6132336,8.08217054 L48.6744594,8.08217054 C48.6132336,9.23100775 48.5724165,10.2589147 48.5520079,10.8837209 L48.5520079,20.7596899 L51.2663488,20.7596899 L51.2663488,5.2 L47.5519876,5.2 L43.5110891,14.9751938 L43.5110891,14.9751938 Z M53.8378297,9.59379845 L56.4909449,9.59379845 L56.4909449,20.7596899 L53.8378297,20.7596899 L53.8378297,9.59379845 Z M55.1847959,4.87751938 C54.7358071,4.87751938 54.3684527,5.03875969 54.0623241,5.32093023 C53.7561954,5.60310078 53.5929268,5.96589147 53.5929268,6.40930233 C53.5929268,6.83255814 53.7561954,7.19534884 54.0623241,7.47751938 C54.3684527,7.75968992 54.7358071,7.90077519 55.1847959,7.90077519 C55.6337846,7.90077519 56.0215476,7.73953488 56.3072677,7.47751938 C56.6133964,7.19534884 56.776665,6.83255814 56.776665,6.40930233 C56.776665,5.98604651 56.6133964,5.62325581 56.3072677,5.32093023 C56.0419562,5.03875969 55.6541932,4.87751938 55.1847959,4.87751938 L55.1847959,4.87751938 Z M65.8992995,9.49302326 C65.4094936,9.39224806 64.8992792,9.33178295 64.4094733,9.33178295 C63.2053672,9.33178295 62.1033039,9.59379845 61.1849179,10.1178295 C60.2665319,10.6418605 59.5318231,11.3674419 59.0624258,12.2744186 C58.5726199,13.2015504 58.3277169,14.2697674 58.3277169,15.4992248 C58.3277169,16.5674419 58.5726199,17.5147287 59.0420172,18.3813953 C59.5114145,19.227907 60.164489,19.9131783 61.0420579,20.3767442 C61.8788096,20.8403101 62.8584213,21.0821705 63.9604846,21.0821705 C65.2258164,21.0821705 66.3074711,20.820155 67.1646314,20.3364341 L67.1850399,20.3162791 L67.1850399,17.8976744 L67.0829971,17.9782946 C66.6952341,18.2604651 66.2462453,18.5023256 65.7972566,18.6434109 C65.3278593,18.8046512 64.8992792,18.8852713 64.5319248,18.8852713 C63.4706787,18.8852713 62.633927,18.5829457 62.0420782,17.9178295 C61.4298209,17.2728682 61.1236922,16.3860465 61.1236922,15.2775194 C61.1236922,14.1286822 61.4298209,13.2217054 62.0624868,12.5565891 C62.6951527,11.8914729 63.5319044,11.5488372 64.5523333,11.5488372 C65.4094936,11.5488372 66.2870625,11.8310078 67.0829971,12.3953488 L67.1850399,12.475969 L67.1850399,9.91627907 L67.1646314,9.89612403 C66.8176855,9.75503876 66.4299225,9.59379845 65.8992995,9.49302326 L65.8992995,9.49302326 Z M74.6545796,9.4124031 C74.0015051,9.4124031 73.3892478,9.61395349 72.8586247,10.0372093 C72.409636,10.4 72.1035073,10.924031 71.8381958,11.5488372 L71.8177872,11.5488372 L71.8177872,9.59379845 L69.164672,9.59379845 L69.164672,20.7596899 L71.8177872,20.7596899 L71.8177872,15.055814 C71.8177872,14.0883721 72.021873,13.2821705 72.4708617,12.6976744 C72.9198505,12.0930233 73.4912907,11.7906977 74.1851823,11.7906977 C74.4300853,11.7906977 74.6749882,11.8511628 74.9811169,11.8914729 C75.266837,11.972093 75.4709228,12.0527132 75.6137828,12.1534884 L75.7158257,12.2341085 L75.7158257,9.61395349 L75.6546,9.59379845 C75.4709228,9.47286822 75.1035683,9.4124031 74.6545796,9.4124031 L74.6545796,9.4124031 Z M81.8792164,9.35193798 C80.0220357,9.35193798 78.5322095,9.89612403 77.491372,10.9643411 C76.4301259,12.0325581 75.9199115,13.503876 75.9199115,15.3581395 C75.9199115,17.0914729 76.4505345,18.5023256 77.4709634,19.5302326 C78.4913924,20.5379845 79.8791757,21.0620155 81.6139048,21.0620155 C83.4302683,21.0620155 84.8792774,20.5178295 85.9201149,19.4294574 C86.981361,18.3410853 87.4915754,16.8899225 87.4915754,15.096124 C87.4915754,13.3224806 87.0017695,11.9116279 86.0017492,10.8837209 C85.042546,9.85581395 83.6343541,9.35193798 81.8792164,9.35193798 L81.8792164,9.35193798 Z M84.0017085,17.9379845 C83.5119026,18.5627907 82.7363767,18.8651163 81.7771735,18.8651163 C80.8179703,18.8651163 80.0424443,18.5627907 79.4914127,17.8976744 C78.9403811,17.2728682 78.6750696,16.3658915 78.6750696,15.2170543 C78.6750696,14.027907 78.9607897,13.1209302 79.4914127,12.475969 C80.0424443,11.8310078 80.7975617,11.5085271 81.7567649,11.5085271 C82.6955595,11.5085271 83.4302683,11.8108527 83.9608914,12.4356589 C84.4915144,13.0604651 84.7772345,13.9674419 84.7772345,15.1565891 C84.7364173,16.3658915 84.511923,17.3131783 84.0017085,17.9379845 L84.0017085,17.9379845 Z M93.4100631,14.2294574 C92.5733114,13.8868217 92.0426884,13.6248062 91.7977854,13.4031008 C91.5936997,13.2015504 91.4916568,12.9193798 91.4916568,12.5565891 C91.4916568,12.2542636 91.6141082,11.951938 91.9202369,11.7503876 C92.2263656,11.5488372 92.5733114,11.448062 93.0835259,11.448062 C93.5325146,11.448062 94.0019119,11.5286822 94.4509006,11.6496124 C94.8998894,11.7705426 95.3080609,11.951938 95.6345982,12.1937984 L95.7366411,12.2744186 L95.7366411,9.81550388 L95.6754153,9.79534884 C95.3692867,9.6744186 94.9611151,9.55348837 94.4713092,9.45271318 C93.9815033,9.37209302 93.5325146,9.33178295 93.1651602,9.33178295 C91.8998283,9.33178295 90.8589908,9.63410853 90.0426477,10.2992248 C89.2263046,10.924031 88.8385416,11.7705426 88.8385416,12.7581395 C88.8385416,13.2821705 88.9201759,13.7457364 89.1038531,14.1286822 C89.2875303,14.5116279 89.5528418,14.8744186 89.9201962,15.1767442 C90.2875506,15.4589147 90.8181737,15.7813953 91.5528825,16.0837209 C92.1651399,16.3457364 92.6345372,16.5472868 92.9202573,16.7085271 C93.2059774,16.8697674 93.3896546,17.0511628 93.5325146,17.1922481 C93.6345575,17.3534884 93.6957832,17.5550388 93.6957832,17.8170543 C93.6957832,18.5627907 93.124343,18.9255814 91.9610541,18.9255814 C91.5120653,18.9255814 91.042668,18.8449612 90.4916364,18.6635659 C89.9406048,18.4821705 89.4303904,18.220155 89.0018102,17.9178295 L88.8997673,17.8372093 L88.8997673,20.3968992 L88.9609931,20.4170543 C89.348756,20.5984496 89.8181533,20.7193798 90.3895935,20.8604651 C90.9610337,20.9612403 91.4712482,21.0418605 91.9202369,21.0418605 C93.2876117,21.0418605 94.4100835,20.7395349 95.206018,20.0744186 C96.0223612,19.4294574 96.4509413,18.6031008 96.4509413,17.5348837 C96.4509413,16.7891473 96.2468555,16.124031 95.7978668,15.620155 C95.206018,15.1364341 94.4713092,14.6325581 93.4100631,14.2294574 L93.4100631,14.2294574 Z M103.451084,9.35193798 C101.593903,9.35193798 100.104077,9.89612403 99.0632393,10.9643411 C98.0224018,12.0325581 97.4917788,13.503876 97.4917788,15.3581395 C97.4917788,17.0914729 98.0224018,18.5023256 99.0428308,19.5302326 C100.06326,20.5379845 101.451043,21.0620155 103.185772,21.0620155 C105.002136,21.0620155 106.451145,20.5178295 107.491982,19.4294574 C108.553228,18.3410853 109.063443,16.8899225 109.063443,15.096124 C109.063443,13.3224806 108.573637,11.9116279 107.573617,10.8837209 C106.614413,9.85581395 105.206221,9.35193798 103.451084,9.35193798 L103.451084,9.35193798 Z M105.553167,17.9379845 C105.063361,18.5627907 104.287835,18.8651163 103.328632,18.8651163 C102.34902,18.8651163 101.593903,18.5627907 101.042871,17.8976744 C100.49184,17.2728682 100.226528,16.3658915 100.226528,15.2170543 C100.226528,14.027907 100.512248,13.1209302 101.042871,12.475969 C101.593903,11.8310078 102.34902,11.5085271 103.308224,11.5085271 C104.22661,11.5085271 104.981727,11.8108527 105.51235,12.4356589 C106.042973,13.0604651 106.328693,13.9674419 106.328693,15.1565891 C106.328693,16.3658915 106.063382,17.3131783 105.553167,17.9379845 L105.553167,17.9379845 Z M123.247405,11.7503876 L123.247405,9.59379845 L120.573881,9.59379845 L120.573881,6.28837209 L120.492247,6.30852713 L117.961583,7.05426357 L117.900357,7.0744186 L117.900357,9.59379845 L113.900276,9.59379845 L113.900276,8.18294574 C113.900276,7.5379845 114.063544,7.03410853 114.349265,6.71162791 C114.634985,6.38914729 115.063565,6.22790698 115.594188,6.22790698 C115.961542,6.22790698 116.349305,6.30852713 116.777885,6.48992248 L116.879928,6.5503876 L116.879928,4.27286822 L116.818703,4.25271318 C116.451348,4.13178295 115.961542,4.05116279 115.328876,4.05116279 C114.532942,4.05116279 113.83905,4.23255814 113.206384,4.53488372 C112.573718,4.87751938 112.104321,5.34108527 111.757375,5.96589147 C111.410429,6.57054264 111.226752,7.25581395 111.226752,8.04186047 L111.226752,9.59379845 L109.369571,9.59379845 L109.369571,11.7302326 L111.226752,11.7302326 L111.226752,20.7596899 L113.900276,20.7596899 L113.900276,11.7503876 L117.900357,11.7503876 L117.900357,17.4945736 C117.900357,19.8527132 119.022829,21.0418605 121.267773,21.0418605 C121.635127,21.0418605 122.02289,20.9813953 122.390244,20.9209302 C122.778007,20.8403101 123.063727,20.7395349 123.226996,20.6589147 L123.247405,20.6387597 L123.247405,18.4821705 L123.145362,18.5627907 C122.982093,18.6635659 122.839233,18.744186 122.59433,18.8046512 C122.390244,18.8651163 122.206567,18.8852713 122.063707,18.8852713 C121.533084,18.8852713 121.16573,18.7643411 120.900418,18.4620155 C120.655515,18.179845 120.533064,17.7162791 120.533064,17.0310078 L120.533064,11.7503876 L123.247405,11.7503876 L123.247405,11.7503876 Z" id="Shape"></path>
                        <polygon id="Path" points="0 0 12.5104585 0 12.5104585 12.3550388 0 12.3550388"></polygon>
                        <polygon id="Path" points="13.8166075 0 26.3270661 0 26.3270661 12.3550388 13.8166075 12.3550388"></polygon>
                        <polygon id="Path" points="0 13.6449612 12.5104585 13.6449612 12.5104585 26 0 26"></polygon>
                        <polygon id="Path" points="13.8166075 13.6449612 26.3270661 13.6449612 26.3270661 26 13.8166075 26"></polygon>
                    </g>
                </g>
            </g>
        </g>
    </g>
</svg>