<?xml version="1.0" encoding="UTF-8"?>
<svg width="115px" height="20px" viewBox="0 0 115 20" version="1.1" xmlns="http://www.w3.org/2000/svg" xmlns:xlink="http://www.w3.org/1999/xlink">
    <!-- Generator: sketchtool 54.1 (76490) - https://sketchapp.com -->
    <title>2476113E-60DE-4AAF-B517-FE7E18F5E25D</title>
    <desc>Created with sketchtool.</desc>
    <g id="Page-1" stroke="none" stroke-width="1" fill="none" fill-rule="evenodd" opacity="0.603887649">
        <g id="pays-XDR---1440px" transform="translate(-947.000000, -742.000000)" fill="#9093A5" fill-rule="nonzero">
            <g id="Group-9" transform="translate(252.000000, 651.000000)">
                <g id="paysend-logo-copy" transform="translate(695.000000, 91.000000)">
                    <path d="M33.5233434,17.0876666 C33.9479838,18.0381428 33.5050148,19.145127 32.5344084,19.5614762 C32.2839711,19.668619 32.023153,19.7187777 31.7663901,19.7187777 C31.0267566,19.7187777 30.3224831,19.298619 30.0068413,18.5927461 L25.0490275,7.50242858 L20.0905648,18.5927461 C19.7755719,19.298619 19.0706495,19.7187777 18.3318273,19.7187777 C18.074902,19.7187777 17.8137595,19.668619 17.5634845,19.5614762 C16.5923913,19.145127 16.149909,18.0381428 16.5743872,17.0876666 L23.2906142,2.06465079 C23.7157412,1.11465079 24.8474126,0.68115873 25.8181812,1.09687302 C26.272342,1.291 26.6087454,1.63766666 26.7968978,2.04798413 C26.7996552,2.05338096 26.804359,2.05877777 26.8071164,2.06465079 L33.5233434,17.0876666 Z M8.15572214,-1.58730159e-05 C12.6525628,-1.58730159e-05 16.3109901,3.58061904 16.3109901,7.98220635 C16.3109901,12.3823651 12.6525628,15.9626825 8.15572214,15.9626825 C6.57086319,15.9626825 5.09127221,15.5163334 3.83778844,14.747762 L3.83778844,18.0749048 C3.83778844,19.1115714 2.97861353,19.9528413 1.9192835,19.9528413 C0.859142454,19.9528413 0.000129760226,19.1115714 0.000129760226,18.0749048 L0.000129760226,11.4504603 L0.000129760226,7.98807937 C0.000129760226,7.98633334 -3.24400565e-05,7.98442858 -3.24400565e-05,7.98220635 C-3.24400565e-05,3.58061904 3.65888153,-1.58730159e-05 8.15572214,-1.58730159e-05 Z M8.03601833,12.3242698 C10.4826474,12.3242698 12.4731693,10.3766508 12.4731693,7.98220635 C12.4731693,5.58649207 10.4826474,3.63871428 8.03601833,3.63871428 C5.58857828,3.63871428 3.59821861,5.58649207 3.59821861,7.98220635 C3.59821861,10.3766508 5.58857828,12.3242698 8.03601833,12.3242698 Z M47.5338793,1.22534921 C48.4319823,1.77503175 48.7057765,2.93407937 48.1442391,3.81296825 L42.4383576,12.7456667 L42.4383576,17.841381 C42.4383576,18.8780476 41.5795071,19.7193175 40.5198527,19.7193175 C39.4601981,19.7193175 38.6010233,18.8780476 38.6010233,17.841381 L38.6010233,12.7461429 L32.896115,3.81296825 C32.3342532,2.93407937 32.607885,1.77503175 33.505988,1.22534921 C34.404902,0.675190476 35.5884774,0.943285714 36.1505014,1.82265079 L40.5198527,8.6642381 L44.8892038,1.82217461 C45.4509033,0.942809524 46.6344789,0.675666666 47.5338793,1.22534921 Z" id="Combined-Shape"></path>
                    <path d="M75.2135035,16.0810317 C76.2069803,16.0810317 77.012629,16.8686508 77.012629,17.8415079 C77.012629,18.8137301 76.2069803,19.6018254 75.2135035,19.6018254 L67.538024,19.6018254 C67.4752525,19.6018254 67.4137786,19.599127 67.3534401,19.5927777 C66.3800762,19.5021428 65.6190325,18.7003968 65.6190325,17.7240476 L65.6190325,2.9354762 C65.6190325,1.89785714 66.4772341,1.05706349 67.538024,1.05706349 L75.2151255,1.05706349 C76.2095754,1.05706349 77.0139267,1.84563492 77.0139267,2.81801587 C77.0139267,3.7902381 76.2095754,4.57801587 75.2151255,4.57801587 L69.4568533,4.57801587 L69.4568533,7.95230159 L74.7329041,7.95230159 C75.7271918,7.95230159 76.5325162,8.74039683 76.5325162,9.71325397 C76.5325162,10.6854762 75.7271918,11.4735714 74.7329041,11.4735714 L69.4568533,11.4735714 L69.4568533,16.0810317 L75.2135035,16.0810317 Z M114.945111,10.3298571 C114.945111,15.432873 110.7099,19.5855714 105.499865,19.6008096 C105.49289,19.6008096 101.512819,19.602238 101.512819,19.602238 C100.518532,19.602238 99.7135317,18.8136666 99.7135317,17.8412858 L99.7135317,2.81795238 C99.7135317,1.84557142 100.518532,1.05715873 101.512819,1.05715873 C101.512819,1.05715873 105.49289,1.05842857 105.499216,1.05842857 C110.7099,1.07430159 114.945111,5.22636508 114.945111,10.3298571 Z M105.470182,16.0809683 C108.579237,16.0809683 110.987262,13.3712857 110.987262,10.3298571 C110.987262,7.28795238 108.69813,4.57795238 105.591021,4.57795238 L103.551353,4.57795238 L103.551353,16.0809683 L105.470182,16.0809683 Z M93.8199521,0.94004762 C94.8796065,0.94004762 95.7378082,1.78084127 95.7378082,2.81798413 L95.7378082,17.8405238 C95.7378082,18.8776666 94.8796065,19.7183015 93.8199521,19.7183015 C93.1387109,19.7183015 92.5427871,19.3705238 92.2024909,18.8481428 L84.2243456,8.16131746 L84.2243456,17.8405238 C84.2243456,18.8776666 83.3648462,19.7187777 82.3055162,19.7187777 C81.2458618,19.7187777 80.3870113,18.8776666 80.3870113,17.8405238 L80.3870113,2.81798413 C80.3870113,1.78084127 81.2458618,0.94004762 82.3055162,0.94004762 C82.9209041,0.94004762 83.4662215,1.22353968 83.8177095,1.66385714 C83.860206,1.70957142 91.9003117,12.4752857 91.9003117,12.4752857 L91.9003117,2.81798413 C91.9003117,1.78084127 92.7601353,0.94004762 93.8199521,0.94004762 Z M53.9223322,6.20822223 C53.9223322,9.41568254 62.6657383,7.24314286 62.6657383,13.8947302 C62.6657383,17.170762 59.7115847,19.8363175 56.0813801,19.8363175 C53.9325508,19.8363175 51.89272,19.1166349 50.6254492,17.910762 C49.8559711,17.1788572 49.8384535,15.9748889 50.5868456,15.2220317 C51.3341022,14.4691746 52.5645536,14.4520317 53.3338696,15.1844127 C53.8592363,15.6842539 54.9896099,16.1331428 56.0813801,16.1331428 C57.7669655,16.1331428 58.658256,15.2947301 58.658256,14.1128254 C58.658256,10.4486984 50.0428259,13.0367936 50.0428259,6.17012699 C50.0428259,3.15536508 52.7517327,0.822190476 56.0813801,0.822190476 C58.6571207,0.822190476 61.2257243,1.78219048 61.2257243,3.55806349 C61.2257243,4.54298413 60.4118033,5.3412381 59.4048639,5.3412381 C58.5354704,5.3412381 57.2268385,4.31901587 55.5952659,4.48949207 C54.6611544,4.58695238 53.9223322,5.04282539 53.9223322,6.20822223 Z" id="Combined-Shape"></path>
                </g>
            </g>
        </g>
    </g>
</svg>