<?xml version="1.0" encoding="UTF-8"?>
<svg width="83px" height="23px" viewBox="0 0 83 23" version="1.1" xmlns="http://www.w3.org/2000/svg" xmlns:xlink="http://www.w3.org/1999/xlink">
    <!-- Generator: sketchtool 54.1 (76490) - https://sketchapp.com -->
    <title>50979F5E-CC87-4890-9ADE-D501D46E61F6</title>
    <desc>Created with sketchtool.</desc>
    <defs>
        <polygon id="path-1" points="0 26.4213135 84.6556886 26.4213135 84.6556886 0 0 0"></polygon>
    </defs>
    <g id="Page-1" stroke="none" stroke-width="1" fill="none" fill-rule="evenodd" opacity="0.603887649">
        <g id="pays-XDR---1440px" transform="translate(-685.000000, -740.000000)">
            <g id="Group-9" transform="translate(252.000000, 651.000000)">
                <g id="Stellar_(payment_network)_logo-Copy-2" transform="translate(432.000000, 87.000000)">
                    <g id="g283" transform="translate(42.500000, 13.500000) scale(-1, 1) rotate(-180.000000) translate(-42.500000, -13.500000) ">
                        <g id="g285">
                            <g id="g287-Clipped">
                                <mask id="mask-2" fill="white">
                                    <use xlink:href="#path-1"></use>
                                </mask>
                                <g id="path289"></g>
                                <g id="g287" mask="url(#mask-2)">
                                    <g transform="translate(0.944115, 2.528295)">
                                        <g id="g293" stroke-width="1" fill="none" fill-rule="evenodd" transform="translate(0.088055, 0.207857)">
                                            <path d="M12.2735013,4.74055289 C12.2735013,3.76115466 12.0274019,2.92302491 11.5348883,2.22616364 C11.0426894,1.52930236 10.344044,0.997412328 9.43926663,0.630177498 C8.53448929,0.262942667 7.50036813,0.0793252517 6.33784726,0.0793252517 C3.25279256,0.0793252517 1.1524503,0.941157767 0.036820504,2.66419072 L2.7373055,4.5708411 C3.17789273,3.96847484 3.68677097,3.56584388 4.26331083,3.36358029 C4.83985069,3.16068463 5.4563581,3.05986887 6.11283307,3.05986887 C7.83804677,3.05986887 8.70096832,3.56331559 8.70096832,4.5708411 C8.70096832,5.01360874 8.45707182,5.35492855 7.96959353,5.59511656 C7.48180052,5.83530457 6.71769639,6.0824454 5.67696642,6.33653903 C3.71698267,6.76950953 2.33857406,7.38167292 1.54174059,8.17271318 C0.744592414,8.96375344 0.346175678,9.98992513 0.346175678,11.2521763 C0.346175678,12.560885 0.845612771,13.6392027 1.84417225,14.4864976 C2.84273173,15.3341084 4.31271954,15.7575978 6.25350628,15.7575978 C7.57558266,15.7575978 8.74062117,15.5458531 9.74893651,15.1220477 C10.7566224,14.6982423 11.5326854,14.0630082 12.0764959,13.2153973 L9.36216387,11.2803036 C8.71481535,12.278348 7.65992365,12.7773702 6.19717405,12.7773702 C5.44691695,12.7773702 4.87981824,12.6481111 4.49556324,12.3889609 C4.11099353,12.1298107 3.91870868,11.797972 3.91870868,11.3931288 C3.91870868,11.0069317 4.09211122,10.6987958 4.43923102,10.4680889 C4.78603611,10.237382 5.47051983,9.99498172 6.4926822,9.74057204 C8.17100483,9.32624772 9.36908738,8.91445169 10.0863004,8.50486792 C10.8038282,8.09528415 11.347324,7.58646481 11.717732,6.979358 C12.08814,6.37193516 12.2735013,5.6254561 12.2735013,4.74055289" id="path295" fill="#9093A5" fill-rule="nonzero"></path>
                                        </g>
                                        <g id="g297" stroke-width="1" fill="none" fill-rule="evenodd" transform="translate(13.332107, 0.093041)">
                                            <path d="M10.0705652,0.632073719 C9.09529389,0.340371698 8.06841095,0.194362669 6.99023106,0.194362669 C5.28358497,0.194362669 4.05529072,0.580243674 3.30534832,1.35232172 C2.55509121,2.12439977 2.17996266,3.37685384 2.17996266,5.10936791 L2.17996266,12.5533001 L0.309355174,12.5533001 L0.309355174,15.4488298 L2.17996266,15.4488298 L2.17996266,19.5734268 L5.80882788,19.5734268 L5.80882788,15.4488298 L9.24068768,15.4488298 L9.24068768,12.5533001 L5.80882788,12.5533001 L5.80882788,5.57583831 C5.80882788,4.65269464 5.95170403,4.02662563 6.23777102,3.69699918 C6.52383801,3.36737274 6.92917826,3.20271753 7.45442118,3.20271753 C8.12002259,3.20271753 8.78121814,3.33924546 9.43769311,3.6123013 L10.0705652,0.632073719 Z" id="path299" fill="#9093A5" fill-rule="nonzero"></path>
                                        </g>
                                        <g id="g301" stroke-width="1" fill="none" fill-rule="evenodd" transform="translate(24.485855, 0.213104)">
                                            <path d="M10.0705652,9.48110578 C10.0705652,11.7316043 9.09057331,12.8570115 7.13090427,12.8570115 C6.48387046,12.8570115 5.95390696,12.7460826 5.5413285,12.5248568 C5.12875003,12.303631 4.79830961,11.9743206 4.55000723,11.5362935 C4.30139016,11.0985824 4.10690237,10.4134145 3.96622916,9.48110578 L10.0705652,9.48110578 Z M3.86772644,6.96703257 C3.93318512,5.64852679 4.25229615,4.70199639 4.82411543,4.12807346 C5.39593471,3.55351845 6.29630618,3.26624094 7.52460043,3.26624094 C8.23709291,3.26624094 8.86304148,3.35567937 9.40244613,3.53487227 C9.94153607,3.7134331 10.4126497,4.0572812 10.8161017,4.56578451 L13.5165867,2.63069082 C12.9255704,1.77359885 12.1592633,1.13330818 11.2167214,0.709818786 C10.2744941,0.286013358 8.98766473,0.074268662 7.35591846,0.074268662 C4.92733872,0.074268662 3.1152664,0.714243302 1.91970149,1.99514069 C0.724136578,3.27572205 0.126511475,5.2104997 0.126511475,7.80042176 C0.126511475,13.101624 2.48931783,15.7525412 7.21524525,15.7525412 C9.3155875,15.7525412 10.9164927,15.1568117 12.0185901,13.9656688 C13.1200582,12.7745259 13.6711069,11.0394835 13.6711069,8.76085778 L13.6711069,6.96703257 L3.86772644,6.96703257 Z" id="path303" fill="#9093A5" fill-rule="nonzero"></path>
                                        </g>
                                        <polygon id="path305" fill="#9093A5" fill-rule="nonzero" points="41.4340816 21.7566095 45.0629469 21.7566095 45.0629469 0.724988555 41.4340816 0.724988555"></polygon>
                                        <polygon id="path307" fill="#9093A5" fill-rule="nonzero" points="49.1560022 21.7566095 52.7848674 21.7566095 52.7848674 0.724988555 49.1560022 0.724988555"></polygon>
                                        <g id="g309" stroke-width="1" fill="none" fill-rule="evenodd" transform="translate(55.847421, 0.018994)">
                                            <path d="M9.44115486,7.58488463 L7.59855614,7.41517283 C6.29504736,7.30234767 5.35533774,7.05267855 4.77848318,6.66679755 C4.20194333,6.28060051 3.9136734,5.70162098 3.9136734,4.92954293 C3.9136734,4.25132783 4.10092297,3.78738572 4.47605152,3.53803264 C4.85118007,3.28867956 5.34809953,3.163845 5.96712458,3.163845 C6.40771181,3.163845 6.94459881,3.30258518 7.57747089,3.58069762 C8.21034298,3.85817798 8.83157097,4.25132783 9.44115486,4.75983114 L9.44115486,7.58488463 Z M9.73634831,0.706026344 L9.73634831,2.24575792 C8.30192218,0.927252145 6.76395805,0.268315294 5.12308533,0.268315294 C3.49165377,0.268315294 2.25832424,0.699073533 1.42404086,1.56059001 C0.589442769,2.42242253 0.172143724,3.52633928 0.172143724,4.87297233 C0.172143724,5.9272713 0.385513824,6.79858492 0.812254024,7.48596509 C1.23867952,8.17334526 1.8715516,8.71250414 2.71087027,9.1031257 C3.54987423,9.49406329 4.75739794,9.7693314 6.33281198,9.92956209 L9.44115486,10.2260047 L9.44115486,10.8899981 C9.44115486,11.7186467 9.19253779,12.2859329 8.69561834,12.5921726 C8.19869888,12.8980963 7.47204466,13.0510581 6.51565568,13.0510581 C5.72794866,13.0510581 5.05038844,12.9189547 4.48328974,12.655696 C3.91556163,12.3918053 3.49605965,12.0150893 3.22446909,11.5255482 L0.397157915,13.3478168 C0.894077366,14.1856305 1.67234323,14.8284494 2.73195551,15.2756416 C3.79156779,15.7228338 5.07147369,15.9465879 6.5716732,15.9465879 C8.86902088,15.9465879 10.5262583,15.5442729 11.5440148,14.739011 C12.5611418,13.9337491 13.0700201,12.6133471 13.0700201,10.7771729 L13.0700201,0.706026344 L9.73634831,0.706026344 Z" id="path311" fill="#9093A5" fill-rule="nonzero"></path>
                                        </g>
                                        <g id="g313" stroke-width="1" fill="none" fill-rule="evenodd" transform="translate(72.674454, 0.605084)">
                                            <path d="M9.1264497,11.3773269 C8.75132115,11.5656849 8.2544017,11.6598639 7.63569135,11.6598639 C6.96064878,11.6598639 6.32053848,11.4974209 5.71567515,11.1725351 C5.11081183,10.8476492 4.48958384,10.374542 3.85199118,9.75289748 L3.85199118,0.120094007 L0.22312596,0.120094007 L0.22312596,14.9368501 L3.85199118,14.9368501 L3.85199118,12.818139 C4.47101624,13.496038 5.13661766,14.0563714 5.84942485,14.498823 C6.56191734,14.9412746 7.35875081,15.1628164 8.24055467,15.1628164 C8.99049707,15.1628164 9.52486644,15.0638969 9.84366277,14.8663739 L9.1264497,11.3773269 Z" id="path315" fill="#9093A5" fill-rule="nonzero"></path>
                                        </g>
                                    </g>
                                </g>
                            </g>
                        </g>
                    </g>
                </g>
            </g>
        </g>
    </g>
</svg>