<?xml version="1.0" encoding="UTF-8"?>
<svg width="548px" height="473px" viewBox="0 0 548 473" version="1.1" xmlns="http://www.w3.org/2000/svg" xmlns:xlink="http://www.w3.org/1999/xlink">
    <!-- Generator: sketchtool 53.2 (72643) - https://sketchapp.com -->
    <title>3E0DC4EC-3BE0-4A7F-8090-475D0967BE1A</title>
    <desc>Created with sketchtool.</desc>
    <defs>
        <linearGradient x1="35.9218931%" y1="57.2918973%" x2="53.3233655%" y2="40.0013342%" id="linearGradient-1">
            <stop stop-color="#ECF1FF" offset="0%"></stop>
            <stop stop-color="#FFFFFF" offset="100%"></stop>
        </linearGradient>
        <path d="M123.136058,82.24593 C122.603758,66.9921686 82.8350525,70.4305655 67.4942838,71.902111 C52.1532976,73.3736566 50.7604422,52.4772268 63.996592,49.3711033 C77.2325242,46.2649798 101.234969,47.86794 113.671255,45.0007314 C126.107541,42.1335228 110.376085,26.7563948 127.32115,24.9029074 C144.266215,23.0495349 179.304259,24.7655141 189.749695,24.3889759 C206.156804,23.7975524 214.574627,43.537234 185.830209,44.4329924 C177.903355,44.6799554 176.313198,62.2164002 203.069812,57.3993564 C219.860647,54.3764737 252.804949,54.3066848 259.658284,62.0243945 C263.590387,66.4524831 262.227768,78.3490189 255.467754,84.9182586 C250.446035,89.7983079 234.475947,90.7498284 228.219954,91.8778332 C213.542874,94.5245227 216.444312,108.726852 221.448845,111.651202 C233.291705,118.571111 265.794417,105.511273 266.665632,124.513285 C267.050663,132.910028 237.477232,134.265681 225.351146,134.163124 C195.610651,133.911677 176.069998,136.559746 174.698678,126.420925 C173.322138,116.242553 193.179517,123.112563 192.200407,110.59954 C191.688772,104.060768 193.060092,90.166453 180.320132,90.8957297 C197.762474,89.8971851 123.855,102.847683 123.136058,82.24593 Z" id="path-2"></path>
        <filter x="-1.5%" y="-5.4%" width="104.7%" height="109.8%" filterUnits="objectBoundingBox" id="filter-3">
            <feGaussianBlur stdDeviation="5.5" in="SourceAlpha" result="shadowBlurInner1"></feGaussianBlur>
            <feOffset dx="0" dy="-5" in="shadowBlurInner1" result="shadowOffsetInner1"></feOffset>
            <feComposite in="shadowOffsetInner1" in2="SourceAlpha" operator="arithmetic" k2="-1" k3="1" result="shadowInnerInner1"></feComposite>
            <feColorMatrix values="0 0 0 0 0.788056219   0 0 0 0 0.827193393   0 0 0 0 0.897640306  0 0 0 0.337126359 0" type="matrix" in="shadowInnerInner1"></feColorMatrix>
        </filter>
        <linearGradient x1="35.9218931%" y1="57.620319%" x2="53.3233655%" y2="39.5510016%" id="linearGradient-4">
            <stop stop-color="#ECF1FF" offset="0%"></stop>
            <stop stop-color="#FFFFFF" offset="100%"></stop>
        </linearGradient>
        <path d="M344.333296,172.05486 C344.372726,156.791862 304.503246,158.739798 289.118011,159.636191 C273.732562,160.5327 273.123761,139.598759 286.466803,136.990164 C299.81006,134.381454 323.735647,136.881444 336.270384,134.481606 C348.805335,132.081769 333.661177,116.126735 350.66388,114.908696 C367.666369,113.690657 402.615514,116.716534 413.06777,116.731123 C429.48546,116.754048 437.157934,136.794954 408.400084,136.614448 C400.469604,136.564661 398.223406,154.02916 425.141781,150.216768 C442.034339,147.824341 474.958005,148.987267 481.517238,156.956042 C485.280616,161.528203 483.473286,173.365294 476.471971,179.676981 C471.270915,184.365851 455.27645,184.71899 448.98251,185.612257 C434.216576,187.7077 436.583848,202.008772 441.475468,205.118244 C453.05061,212.476495 486.01992,200.642067 486.178709,219.663271 C486.248783,228.068664 456.645127,228.316672 444.531472,227.76045 C414.821314,226.396293 395.195046,228.311346 394.204593,218.128334 C393.210283,207.905492 412.796478,215.513834 412.286894,202.972898 C412.02053,196.419572 413.911434,182.586264 401.152978,182.838324 C418.620693,182.49329 344.279938,192.669008 344.333296,172.05486 Z" id="path-5"></path>
        <filter x="-1.7%" y="-5.5%" width="105.1%" height="111.7%" filterUnits="objectBoundingBox" id="filter-6">
            <feGaussianBlur stdDeviation="5.5" in="SourceAlpha" result="shadowBlurInner1"></feGaussianBlur>
            <feOffset dx="0" dy="-5" in="shadowBlurInner1" result="shadowOffsetInner1"></feOffset>
            <feComposite in="shadowOffsetInner1" in2="SourceAlpha" operator="arithmetic" k2="-1" k3="1" result="shadowInnerInner1"></feComposite>
            <feColorMatrix values="0 0 0 0 0.788056219   0 0 0 0 0.827193393   0 0 0 0 0.897640306  0 0 0 0.337126359 0" type="matrix" in="shadowInnerInner1"></feColorMatrix>
        </filter>
        <linearGradient x1="45.0499749%" y1="71.3870021%" x2="88.8289587%" y2="25.0445449%" id="linearGradient-7">
            <stop stop-color="#E7E6FF" offset="0%"></stop>
            <stop stop-color="#EAE7FA" offset="100%"></stop>
        </linearGradient>
        <linearGradient x1="53.1983696%" y1="61.313692%" x2="50%" y2="83.8523371%" id="linearGradient-8">
            <stop stop-color="#FFFFFF" stop-opacity="0" offset="0%"></stop>
            <stop stop-color="#FFFFFF" stop-opacity="0" offset="100%"></stop>
        </linearGradient>
        <path d="M12.15,0 L271.410907,-8.8817842e-15 C278.121167,-1.01144389e-14 283.560907,5.43974029 283.560907,12.15 L283.560907,150.343512 C283.560907,155.579455 280.206606,160.226491 275.23706,161.87534 L59.9005111,233.321996 L41.4863803,201.405595 L3.47643556,162.657512 C1.24822257,160.386028 3.4140452e-14,157.33109 3.37507799e-14,154.149176 L-1.77635684e-15,12.15 C-2.59812665e-15,5.43974029 5.43974029,8.33808207e-15 12.15,7.10542736e-15 Z" id="path-9"></path>
        <radialGradient cx="85.0826039%" cy="13.5190277%" fx="85.0826039%" fy="13.5190277%" r="152.233772%" gradientTransform="translate(0.850826,0.135190),scale(0.522785,1.000000),rotate(137.873642),translate(-0.850826,-0.135190)" id="radialGradient-10">
            <stop stop-color="#EDF1FD" offset="0%"></stop>
            <stop stop-color="#E7EAFF" offset="40.8869518%"></stop>
            <stop stop-color="#E3E7FF" offset="100%"></stop>
        </radialGradient>
        <radialGradient cx="19.9831358%" cy="0%" fx="19.9831358%" fy="0%" r="86.4459978%" gradientTransform="translate(0.199831,0.000000),scale(0.833372,1.000000),rotate(53.809815),scale(1.000000,1.872876),translate(-0.199831,-0.000000)" id="radialGradient-11">
            <stop stop-color="#9870F9" offset="0%"></stop>
            <stop stop-color="#653DF0" offset="100%"></stop>
        </radialGradient>
        <linearGradient x1="46.171092%" y1="-9.21335019%" x2="60.4439525%" y2="50%" id="linearGradient-12">
            <stop stop-color="#CFDDF3" offset="0%"></stop>
            <stop stop-color="#A1B8E3" offset="100%"></stop>
        </linearGradient>
        <linearGradient x1="50%" y1="0%" x2="50%" y2="100%" id="linearGradient-13">
            <stop stop-color="#CFDDF3" offset="0%"></stop>
            <stop stop-color="#A1B8E3" offset="100%"></stop>
        </linearGradient>
        <linearGradient x1="50%" y1="0%" x2="50%" y2="100%" id="linearGradient-14">
            <stop stop-color="#CFDDF3" offset="0%"></stop>
            <stop stop-color="#A1B8E3" offset="100%"></stop>
        </linearGradient>
        <linearGradient x1="50%" y1="0%" x2="50%" y2="100%" id="linearGradient-15">
            <stop stop-color="#CFDDF3" offset="0%"></stop>
            <stop stop-color="#A1B8E3" offset="100%"></stop>
        </linearGradient>
        <linearGradient x1="50%" y1="0%" x2="50%" y2="100%" id="linearGradient-16">
            <stop stop-color="#D8CFF3" offset="0%"></stop>
            <stop stop-color="#B7A1E3" offset="100%"></stop>
        </linearGradient>
        <linearGradient x1="46.721534%" y1="-3.13696144%" x2="54.1510643%" y2="88.0078869%" id="linearGradient-17">
            <stop stop-color="#D2D7FA" offset="0%"></stop>
            <stop stop-color="#A396E4" offset="100%"></stop>
        </linearGradient>
        <linearGradient x1="46.7276097%" y1="-3.13696144%" x2="54.1433715%" y2="88.0078869%" id="linearGradient-18">
            <stop stop-color="#D2D7FA" offset="0%"></stop>
            <stop stop-color="#A396E4" offset="100%"></stop>
        </linearGradient>
        <linearGradient x1="46.7276171%" y1="-3.13696144%" x2="54.1433621%" y2="88.0078869%" id="linearGradient-19">
            <stop stop-color="#D2D7FA" offset="0%"></stop>
            <stop stop-color="#A396E4" offset="100%"></stop>
        </linearGradient>
        <linearGradient x1="46.7219124%" y1="-3.13696144%" x2="54.1505853%" y2="88.0078869%" id="linearGradient-20">
            <stop stop-color="#D2D7FA" offset="0%"></stop>
            <stop stop-color="#A396E4" offset="100%"></stop>
        </linearGradient>
        <linearGradient x1="46.7229979%" y1="-3.13696144%" x2="54.1492108%" y2="88.0078869%" id="linearGradient-21">
            <stop stop-color="#D2D7FA" offset="0%"></stop>
            <stop stop-color="#A396E4" offset="100%"></stop>
        </linearGradient>
        <linearGradient x1="46.7238455%" y1="-3.13696144%" x2="54.1481376%" y2="88.0078869%" id="linearGradient-22">
            <stop stop-color="#D2D7FA" offset="0%"></stop>
            <stop stop-color="#A396E4" offset="100%"></stop>
        </linearGradient>
        <linearGradient x1="37.8592151%" y1="53.2010927%" x2="36.6773085%" y2="45.2927156%" id="linearGradient-23">
            <stop stop-color="#FFFFFF" offset="0%"></stop>
            <stop stop-color="#CAC8FF" offset="100%"></stop>
        </linearGradient>
        <linearGradient x1="50%" y1="100%" x2="50%" y2="-16.0324538%" id="linearGradient-24">
            <stop stop-color="#F6F6FD" stop-opacity="0.0503441871" offset="0%"></stop>
            <stop stop-color="#ADA5F7" offset="100%"></stop>
        </linearGradient>
        <filter x="-52.7%" y="-934.2%" width="205.5%" height="1968.4%" filterUnits="objectBoundingBox" id="filter-25">
            <feGaussianBlur stdDeviation="12.606529 0" in="SourceGraphic"></feGaussianBlur>
        </filter>
        <linearGradient x1="69.4155742%" y1="-68.7894451%" x2="39.5560475%" y2="125.947616%" id="linearGradient-26">
            <stop stop-color="#BEFFB1" offset="0%"></stop>
            <stop stop-color="#5CDBA8" offset="53.3765996%"></stop>
            <stop stop-color="#1984AC" offset="100%"></stop>
        </linearGradient>
        <linearGradient x1="92.0924801%" y1="16.0556086%" x2="-46.0292161%" y2="16.0556093%" id="linearGradient-27">
            <stop stop-color="#BCBDFA" offset="0.981841216%"></stop>
            <stop stop-color="#FFFFFF" stop-opacity="0" offset="100%"></stop>
        </linearGradient>
        <linearGradient x1="92.0924801%" y1="16.0556086%" x2="-46.0292161%" y2="16.0556093%" id="linearGradient-28">
            <stop stop-color="#BCBDFA" offset="0.981841216%"></stop>
            <stop stop-color="#FFFFFF" stop-opacity="0" offset="100%"></stop>
        </linearGradient>
        <radialGradient cx="19.9831358%" cy="0%" fx="19.9831358%" fy="0%" r="85.63558%" gradientTransform="translate(0.199831,0.000000),scale(0.856612,1.000000),rotate(54.557625),scale(1.000000,1.872876),translate(-0.199831,-0.000000)" id="radialGradient-29">
            <stop stop-color="#FFA961" offset="0%"></stop>
            <stop stop-color="#FFD6AA" offset="100%"></stop>
        </radialGradient>
        <radialGradient cx="19.9831358%" cy="0%" fx="19.9831358%" fy="0%" r="89.2315357%" gradientTransform="translate(0.199831,0.000000),scale(1.000000,0.889439),rotate(61.528755),scale(1.000000,1.872876),translate(-0.199831,-0.000000)" id="radialGradient-30">
            <stop stop-color="#FFA961" offset="0%"></stop>
            <stop stop-color="#FFD6AA" offset="100%"></stop>
        </radialGradient>
        <radialGradient cx="73.2561708%" cy="83.3906288%" fx="73.2561708%" fy="83.3906288%" r="137.404481%" gradientTransform="translate(0.732562,0.833906),scale(1.000000,0.533984),rotate(-108.034171),scale(1.000000,1.872876),translate(-0.732562,-0.833906)" id="radialGradient-31">
            <stop stop-color="#8A70F9" offset="0%"></stop>
            <stop stop-color="#4422BA" offset="100%"></stop>
        </radialGradient>
        <radialGradient cx="19.9831358%" cy="0%" fx="19.9831358%" fy="0%" r="219.330842%" gradientTransform="translate(0.199831,0.000000),scale(1.000000,0.324248),rotate(78.816866),scale(1.000000,1.872876),translate(-0.199831,-0.000000)" id="radialGradient-32">
            <stop stop-color="#9870F9" offset="0%"></stop>
            <stop stop-color="#653DF0" offset="100%"></stop>
        </radialGradient>
        <path d="M0.257912083,8.79249193 C0.257912083,10.658662 3.10646169,18.7478233 3.98822053,28.6279189 C4.60911012,35.5849781 3.23364225,43.4300287 3.64578224,50.6156834 C4.31074375,62.2092775 6.17233916,92.9581641 9.23056847,142.862343 C11.3159463,144.384218 13.5341472,145.320024 15.8851713,145.669763 C18.2361954,146.019501 21.3372917,145.689796 25.18846,144.680647 C29.6161293,110.563278 32.899911,89.3359444 35.0398052,80.998645 C36.5850859,74.9780355 35.2609331,61.8458202 40.935857,51.8568906 C42.5775627,48.9671808 44.0241472,45.7195635 45.2756103,42.1140388 L45.2756106,42.1140389 C48.3402463,33.2846778 48.2568505,23.6671155 45.0395649,14.8922263 L39.5991979,0.0540605812 C13.371674,3.75952698 0.257912083,6.67233743 0.257912083,8.79249193 Z" id="path-33"></path>
        <linearGradient x1="89.2651436%" y1="51.6987716%" x2="79.8543348%" y2="48.756407%" id="linearGradient-35">
            <stop stop-color="#CFDDF3" stop-opacity="0.477723053" offset="0%"></stop>
            <stop stop-color="#A1B8E3" offset="100%"></stop>
        </linearGradient>
        <linearGradient x1="62.3603134%" y1="45.115866%" x2="50%" y2="88.6153495%" id="linearGradient-36">
            <stop stop-color="#CFDDF3" stop-opacity="0.174422554" offset="0%"></stop>
            <stop stop-color="#5477B8" offset="100%"></stop>
        </linearGradient>
        <radialGradient cx="100%" cy="50%" fx="100%" fy="50%" r="74.6516383%" gradientTransform="translate(1.000000,0.500000),scale(0.514030,1.000000),rotate(119.313597),scale(1.000000,1.850923),translate(-1.000000,-0.500000)" id="radialGradient-37">
            <stop stop-color="#47689B" offset="0%"></stop>
            <stop stop-color="#223762" offset="100%"></stop>
        </radialGradient>
        <radialGradient cx="100%" cy="50%" fx="100%" fy="50%" r="75.1706849%" gradientTransform="translate(1.000000,0.500000),scale(0.499691,1.000000),rotate(120.010660),scale(1.000000,1.850923),translate(-1.000000,-0.500000)" id="radialGradient-38">
            <stop stop-color="#47689B" offset="0%"></stop>
            <stop stop-color="#223762" offset="100%"></stop>
        </radialGradient>
        <radialGradient cx="19.9831358%" cy="0%" fx="19.9831358%" fy="0%" r="83.8966368%" gradientTransform="translate(0.199831,0.000000),scale(1.000000,0.964798),rotate(59.533691),scale(1.000000,1.872876),translate(-0.199831,-0.000000)" id="radialGradient-39">
            <stop stop-color="#FFA961" offset="0%"></stop>
            <stop stop-color="#FFD6AA" offset="100%"></stop>
        </radialGradient>
        <path d="M0.355650565,12.7370913 C0.773642757,14.0442543 4.4999786,17.5412772 5.40834154,21.4594351 C5.94856145,23.7896346 5.54156998,26.1255989 5.54156998,27.9249733 C5.54156998,32.7499394 7.1388064,32.5660846 10.5348283,31.8358985 C13.7147581,33.7179726 14.2676865,37.9346584 17.8194016,40.1280492 C21.3711167,42.32144 27.5063768,34.3872142 29.5304289,36.6479304 C30.1914552,37.3862478 30.5709393,38.7979138 31.8954514,40.1280492 C32.8149479,41.0514494 33.024198,43.5101012 32.5232019,47.5040045 C40.544146,46.3287476 45.011161,43.600205 45.9242469,39.3183768 C44.4452098,36.338848 41.0209375,27.0809459 41.0209375,24.5549778 C41.0209375,22.0290096 46.6783831,12.3933774 31.2604345,3.04375172 C15.8424859,-6.305874 -0.310929165,10.6525348 0.355650565,12.7370913 Z" id="path-40"></path>
        <radialGradient cx="19.9831358%" cy="0%" fx="19.9831358%" fy="0%" r="122.38473%" gradientTransform="translate(0.199831,0.000000),scale(1.000000,0.607971),rotate(69.660750),scale(1.000000,1.872876),translate(-0.199831,-0.000000)" id="radialGradient-42">
            <stop stop-color="#FFA961" offset="0%"></stop>
            <stop stop-color="#FFD6AA" offset="100%"></stop>
        </radialGradient>
        <linearGradient x1="50%" y1="100%" x2="50%" y2="3.061617e-15%" id="linearGradient-43">
            <stop stop-color="#EDF3FD" offset="0%"></stop>
            <stop stop-color="#FFFFFF" offset="100%"></stop>
        </linearGradient>
        <radialGradient cx="19.9831358%" cy="0%" fx="19.9831358%" fy="0%" r="93.1305072%" gradientTransform="translate(0.199831,0.000000),scale(1.000000,0.842111),rotate(62.821796),scale(1.000000,1.872876),translate(-0.199831,-0.000000)" id="radialGradient-44">
            <stop stop-color="#FFA961" offset="0%"></stop>
            <stop stop-color="#FFD6AA" offset="100%"></stop>
        </radialGradient>
        <path d="M43.4305597,30.6779731 C34.1406797,42.3676137 29.2641315,48.2124341 28.800915,48.2124341 C28.1060903,48.2124341 12.1030362,25.4218249 12.1030362,24.3812277 C12.1030362,23.3406305 13.244444,19.2600644 10.0776017,14.9071646 C6.91075936,10.5542649 4.97728558,2.92985572 3.31090072,1.57240362 C1.64451586,0.214951518 1.63257045,-0.37679047 0.794898486,0.35789504 C-0.0427734737,1.09258055 0.0114786021,1.72181357 0.794898486,3.32498987 C1.57831837,4.92816617 3.31090072,9.53574361 3.31090072,10.7215867 C3.31090072,11.9074298 2.50956272,16.1319958 3.31090072,17.7406437 C4.11223872,19.3492916 3.34642888,25.6082948 4.34138209,28.7972378 C5.3363353,31.9861808 23.3760819,64.3383889 28.6693923,63.6434968 C32.1982658,63.1802353 40.1955527,56.5521484 52.6612529,43.7592359 C54.5918463,38.1210555 53.9728828,34.2476062 50.8043624,32.138888 C47.6358421,30.0301698 45.1779079,29.5431981 43.4305597,30.6779731 Z" id="path-45"></path>
        <linearGradient x1="35.4591463%" y1="45.3163473%" x2="58.7581222%" y2="16.9566555%" id="linearGradient-47">
            <stop stop-color="#CFDDF3" offset="0%"></stop>
            <stop stop-color="#A1B8E3" offset="100%"></stop>
        </linearGradient>
        <linearGradient x1="40.2129168%" y1="73.2649196%" x2="55.2968316%" y2="21.6075892%" id="linearGradient-48">
            <stop stop-color="#EDF3FD" offset="0%"></stop>
            <stop stop-color="#D6E3FA" offset="100%"></stop>
        </linearGradient>
        <linearGradient x1="45.5138226%" y1="107.033068%" x2="55.084919%" y2="58.2519775%" id="linearGradient-49">
            <stop stop-color="#D1DEF3" stop-opacity="0.126387002" offset="0%"></stop>
            <stop stop-color="#A4BAE4" offset="100%"></stop>
        </linearGradient>
        <radialGradient cx="50%" cy="0%" fx="50%" fy="0%" r="40.9162231%" gradientTransform="translate(0.500000,0.000000),scale(0.923646,1.000000),rotate(90.000000),scale(1.000000,2.667525),translate(-0.500000,-0.000000)" id="radialGradient-50">
            <stop stop-color="#47689B" offset="0%"></stop>
            <stop stop-color="#223762" offset="100%"></stop>
        </radialGradient>
        <path d="M4.4041586,0.482098687 C4.4041586,1.75846279 7.24514372,5.59386331 12.3337736,5.59386331 C17.4224035,5.59386331 32.6525244,1.63702947 37.7011775,14.0058807 C42.7498305,26.374732 35.7807115,26.9566657 44.0048927,35.8906888 C52.2290738,44.8247118 52.5431023,69.0120218 32.438438,63.2279055 C12.3337736,57.4437893 15.5024635,31.1521608 15.5024635,24.1374151 C15.5024635,17.1226694 7.94658604,14.6153213 1.16630495,13.033534 C-2.52871398,5.59386331 4.4041586,-0.794265413 4.4041586,0.482098687 Z" id="path-51"></path>
        <radialGradient cx="19.9831358%" cy="0%" fx="19.9831358%" fy="0%" r="264.91495%" gradientTransform="translate(0.199831,0.000000),scale(1.000000,0.266819),rotate(80.759830),scale(1.000000,1.872876),translate(-0.199831,-0.000000)" id="radialGradient-53">
            <stop stop-color="#FFA961" offset="0%"></stop>
            <stop stop-color="#FFD6AA" offset="100%"></stop>
        </radialGradient>
        <path d="M9.40547233,48.6330936 C8.15412006,43.2819943 0.910924252,14.665992 2.56553021,7.48872387 C4.22013617,0.3114557 16.9551771,-3.17371657 18.2869993,5.31467033 C19.1308806,10.6931592 20.9448044,25.3116865 23.7287709,49.1702521 L23.7287724,49.170252 C24.018986,51.6573797 23.6046603,54.1760144 22.5330154,56.4391109 L11.5559786,79.6203845 L6.90069255,88.7788969 C4.01058432,88.29714 1.89211904,86.2088183 0.545296699,82.5139318 C-0.113546482,80.7064545 0.294417386,78.6103618 1.23627011,76.4453769 C5.28624706,67.1359183 10.4207209,52.9745536 9.40547233,48.6330936 Z" id="path-54"></path>
        <linearGradient x1="43.3111123%" y1="108.715988%" x2="77.3492482%" y2="50%" id="linearGradient-56">
            <stop stop-color="#E3EDFE" offset="0%"></stop>
            <stop stop-color="#B8C8E6" offset="100%"></stop>
        </linearGradient>
        <linearGradient x1="77.2523541%" y1="30.4263167%" x2="50%" y2="100%" id="linearGradient-57">
            <stop stop-color="#D2DFF5" stop-opacity="0.542713995" offset="0%"></stop>
            <stop stop-color="#C5D5F5" offset="100%"></stop>
        </linearGradient>
        <linearGradient x1="50%" y1="0%" x2="50%" y2="100%" id="linearGradient-58">
            <stop stop-color="#FFB417" offset="0%"></stop>
            <stop stop-color="#FECC4C" offset="100%"></stop>
        </linearGradient>
        <linearGradient x1="50%" y1="0%" x2="50%" y2="100%" id="linearGradient-59">
            <stop stop-color="#FFB417" offset="0%"></stop>
            <stop stop-color="#FECC4C" offset="100%"></stop>
        </linearGradient>
        <linearGradient x1="50%" y1="0%" x2="50%" y2="100%" id="linearGradient-60">
            <stop stop-color="#FFB417" offset="0%"></stop>
            <stop stop-color="#FECC4C" offset="100%"></stop>
        </linearGradient>
        <linearGradient x1="71.0302013%" y1="44.9100814%" x2="7.46213062%" y2="79.9078943%" id="linearGradient-61">
            <stop stop-color="#FFFFFF" stop-opacity="0" offset="0%"></stop>
            <stop stop-color="#FEB94C" offset="100%"></stop>
        </linearGradient>
        <linearGradient x1="91.5066808%" y1="12.5085207%" x2="39.627475%" y2="99.9275345%" id="linearGradient-62">
            <stop stop-color="#CECBF1" offset="0%"></stop>
            <stop stop-color="#9B82EB" offset="100%"></stop>
        </linearGradient>
        <ellipse id="path-63" cx="24.9316866" cy="24.9136132" rx="24.9316866" ry="24.9136132"></ellipse>
        <ellipse id="path-65" cx="24.9316866" cy="24.9136132" rx="24.9316866" ry="24.9136132"></ellipse>
        <linearGradient x1="91.5066808%" y1="12.5085207%" x2="39.627475%" y2="99.9275345%" id="linearGradient-67">
            <stop stop-color="#CECBF1" offset="0%"></stop>
            <stop stop-color="#9B82EB" offset="100%"></stop>
        </linearGradient>
        <ellipse id="path-68" cx="17.492393" cy="17.4797125" rx="17.492393" ry="17.4797125"></ellipse>
        <linearGradient x1="91.5066808%" y1="12.5085207%" x2="39.627475%" y2="99.9275345%" id="linearGradient-70">
            <stop stop-color="#CECBF1" offset="0%"></stop>
            <stop stop-color="#9B82EB" offset="100%"></stop>
        </linearGradient>
        <ellipse id="path-71" cx="14.0743392" cy="14.0641365" rx="14.0743392" ry="14.0641365"></ellipse>
    </defs>
    <g id="FINALL" stroke="none" stroke-width="1" fill="none" fill-rule="evenodd">
        <g id="Homepage--web" transform="translate(-93.000000, -2354.000000)">
            <g id="Group-Copy-2" transform="translate(93.000000, 2325.000000)">
                <g id="Artwork-Copy-2">
                    <g id="artwork" transform="translate(0.000000, 29.148206)">
                        <g id="cloud" opacity="0.300000012" transform="translate(158.991369, 79.752730) scale(-1, 1) translate(-158.991369, -79.752730) ">
                            <use fill="url(#linearGradient-1)" fill-rule="evenodd" xlink:href="#path-2"></use>
                            <use fill="black" fill-opacity="1" filter="url(#filter-3)" xlink:href="#path-2"></use>
                        </g>
                        <g id="cloud" opacity="0.200000003" transform="translate(379.763738, 170.840874) scale(-1, 1) translate(-379.763738, -170.840874) ">
                            <use fill="url(#linearGradient-4)" fill-rule="evenodd" xlink:href="#path-5"></use>
                            <use fill="black" fill-opacity="1" filter="url(#filter-6)" xlink:href="#path-5"></use>
                        </g>
                        <g id="video" transform="translate(135.293784, 0.000000)">
                            <g id="projection" opacity="0.400000006">
                                <use fill="url(#linearGradient-7)" xlink:href="#path-9"></use>
                                <use fill="url(#linearGradient-8)" xlink:href="#path-9"></use>
                            </g>
                            <g id="iconmonstr-telegram-1-(1)" transform="translate(149.071985, 67.202808)" fill="#000000">
                                <path d="M7.44711786,8.00725507 C7.57755585,8.09955772 7.74566692,8.12263339 7.89554908,8.06595632 C8.04543124,8.00887441 8.15561488,7.88094618 8.18883201,7.72589392 C8.54085254,6.0725429 9.39477576,1.88775117 9.71519951,0.383784711 C9.73950472,0.270430577 9.69899603,0.152623245 9.60987691,0.0769188768 C9.52075779,0.00121450858 9.39720628,-0.0206466459 9.28702264,0.0202418097 C7.5884932,0.648547582 2.35760585,2.60997894 0.219557108,3.40062402 C0.0838529916,3.45082371 -0.00445595608,3.58118097 -8.09329817e-16,3.72408814 C0.00486104299,3.86740016 0.101271729,3.99168487 0.240216541,4.033383 C1.19905727,4.32000702 2.45766232,4.71877067 2.45766232,4.71877067 C2.45766232,4.71877067 3.04584852,6.49397738 3.35249932,7.39676209 C3.39098257,7.51011622 3.47969661,7.59918019 3.59676673,7.62994774 C3.71343176,7.66031045 3.83819853,7.62832839 3.92529222,7.54614665 C4.41787791,7.0813947 5.17944131,6.36281045 5.17944131,6.36281045 C5.17944131,6.36281045 6.62641177,7.42307644 7.44711786,8.00725507 Z M2.98711092,4.49449142 L3.66725185,6.73647426 L3.81834927,5.31671373 C3.81834927,5.31671373 6.44614809,2.94801716 7.94415951,1.59788846 C7.9879089,1.55821451 7.9939852,1.49182137 7.95752738,1.44526521 C7.92147464,1.39870905 7.85504039,1.38777847 7.8052147,1.41935569 C6.06901218,2.52739236 2.98711092,4.49449142 2.98711092,4.49449142 Z" id="telegram-1"></path>
                            </g>
                            <path d="M15.0634431,11.10921 L268.124575,11.10921 C271.032354,11.10921 273.389575,13.4664308 273.389575,16.37421 L273.389575,143.64579 C273.389575,146.553569 271.032354,148.91079 268.124575,148.91079 L15.0634431,148.91079 C12.1556639,148.91079 9.79844308,146.553569 9.79844308,143.64579 L9.79844308,16.37421 C9.79844308,13.4664308 12.1556639,11.10921 15.0634431,11.10921 Z" id="screen" fill="url(#radialGradient-10)"></path>
                            <g id="loading" transform="translate(108.514540, 46.399859)">
                                <ellipse id="Oval-2" fill="#FCFBFF" cx="33.9204727" cy="33.890226" rx="33.9204727" ry="33.890226"></ellipse>
                                <g id="iconmonstr-telegram-1-(1)" transform="translate(15.847144, 20.802950)" fill="url(#radialGradient-11)">
                                    <path d="M24.2650594,26.023579 C24.6886908,26.3235626 25.2346754,26.3985585 25.7214569,26.214358 C26.2082383,26.0288418 26.5660885,25.6130751 26.6739698,25.1091552 C27.8172484,19.7357644 30.5905871,6.1351913 31.6312469,1.24730031 C31.7101844,0.878899376 31.5786219,0.496025546 31.2891843,0.249986349 C30.9997466,0.00394715289 30.5984808,-0.0671015991 30.2406307,0.0657858814 C24.7242127,2.10777964 7.73553975,8.48243155 0.791668011,11.0520281 C0.350933446,11.2151771 0.0641270726,11.6388381 0.0785989539,12.1032865 C0.0943864607,12.5690505 0.407505345,12.9729758 0.858764915,13.1084947 C3.97285063,14.0400228 8.06049926,15.3360047 8.06049926,15.3360047 C8.06049926,15.3360047 9.97078759,21.1054265 10.9667161,24.0394768 C11.0917006,24.4078777 11.3798226,24.6973356 11.7600384,24.7973301 C12.1389385,24.896009 12.5441512,24.7920673 12.8270107,24.5249766 C14.4268114,23.0145328 16.9001874,20.679134 16.9001874,20.679134 C16.9001874,20.679134 21.599602,24.1249984 24.2650594,26.023579 Z M9.78002188,14.6070971 L11.9889572,21.8935413 L12.4796855,17.2793196 C12.4796855,17.2793196 21.0141486,9.58105577 25.8793319,5.19313748 C26.0214195,5.06419715 26.0411539,4.84841946 25.9227476,4.69711193 C25.8056569,4.54580441 25.5898943,4.51028003 25.4280724,4.61290601 C19.7893012,8.21402516 9.78002188,14.6070971 9.78002188,14.6070971 Z" id="telegram-1"></path>
                                </g>
                            </g>
                        </g>
                        <g id="tree" opacity="0.205803571" transform="translate(341.586793, 274.291332) rotate(-1.000000) translate(-341.586793, -274.291332) translate(316.268860, 210.136963)">
                            <path d="M39.0516899,109.958132 C36.1980383,112.480989 25.3456179,107.435275 21.0428764,99.6034028 C16.740135,91.7715305 24.7217276,88.9837907 13.8653443,76.4577365 C3.00896099,63.9316823 -3.95712076,59.134468 2.63120031,38.4874794 C9.21952137,17.8404908 0.117816518,6.36585687 12.1439855,0.97916646 C24.1701545,-4.40752395 31.0959844,13.4702958 29.7165202,29.1956453 C28.337056,44.9209947 31.1585201,48.1800297 42.9216713,46.5505122 C54.6848224,44.9209947 44.7673944,68.0072046 44.7673944,73.0464852 C44.7673944,78.0857658 51.900144,87.4456114 50.4204387,94.4875533 C48.9407334,101.529495 41.9053415,107.435275 39.0516899,109.958132 Z" id="leaves" fill="url(#linearGradient-12)"></path>
                            <path d="M32.1811523,88.0050801 C32.1811523,84.1373019 33.1589621,72.086296 38.4781446,64.7471621" id="branch" stroke="url(#linearGradient-13)" stroke-width="2.43" stroke-linecap="round"></path>
                            <path d="M7.67996466,65.4364691 C7.67996466,61.5686909 18.5461121,58.8533035 23.8652945,51.5141696" id="branch" stroke="url(#linearGradient-14)" stroke-width="2.43" stroke-linecap="round" transform="translate(15.772630, 58.475319) scale(-1, 1) translate(-15.772630, -58.475319) "></path>
                            <path d="M45.4605336,128.074074 C45.4605336,126.428476 42.6247014,119.010389 39.9148835,110.415735 C31.4291576,83.5017949 17.750682,50.3601668 17.750682,27.3943754" id="stem" stroke="url(#linearGradient-15)" stroke-width="2.43" stroke-linecap="round"></path>
                        </g>
                        <g id="plant" transform="translate(141.978967, 268.811232) rotate(-7.000000) translate(-141.978967, -268.811232) translate(94.381254, 191.082683)">
                            <path d="M23.0771489,155.423397 C23.0771489,135.181587 40.0079767,72.5396857 62.8613425,38.2635221" id="stem" stroke="url(#linearGradient-16)" stroke-width="2.43" stroke-linecap="round"></path>
                            <path d="M43.0686638,50.264948 C46.9824237,44.767189 48.9383942,38.6267475 48.9365755,31.8436235 C48.9338473,21.6689374 46.3022706,13.4200199 43.0587843,13.4191505 C39.815298,13.4182811 37.1881445,21.665789 37.1908726,31.8404751 C37.1926914,38.6235991 39.1519551,44.7650901 43.0686638,50.264948 Z" id="leaf" fill="url(#linearGradient-17)" transform="translate(43.063724, 31.842049) rotate(-30.000000) translate(-43.063724, -31.842049) "></path>
                            <path d="M76.5522491,69.0679851 C80.4657874,63.5665425 82.4226297,57.4226866 82.4227762,50.6364175 C82.422996,40.4570139 79.7950277,32.2050335 76.5530449,32.2051035 C73.311062,32.2051736 70.6827375,40.4572675 70.6825178,50.6366711 C70.6823713,57.4229402 72.6389484,63.5667116 76.5522491,69.0679851 Z" id="leaf" fill="url(#linearGradient-18)" transform="translate(76.552647, 50.636544) rotate(88.000000) translate(-76.552647, -50.636544) "></path>
                            <path d="M65.6154993,95.7871843 C69.5288572,90.2858654 71.4854995,84.1420695 71.4854262,77.3557965 C71.4853162,67.1763871 68.8570822,58.9243169 65.6151012,58.9242819 C62.3731202,58.9242469 59.7450644,67.1762602 59.7451744,77.3556697 C59.7452477,84.1419426 61.7020226,90.2857808 65.6154993,95.7871843 Z" id="leaf" fill="url(#linearGradient-19)" transform="translate(65.615300, 77.355733) rotate(91.000000) translate(-65.615300, -77.355733) "></path>
                            <path d="M56.70269,121.697818 C60.6160478,116.196499 62.5726901,110.052703 62.5726168,103.26643 C62.5725069,93.0870209 59.9442729,84.8349507 56.7022919,84.8349156 C53.4603108,84.8348806 50.8322551,93.086894 50.832365,103.266303 C50.8324383,110.052576 52.7892133,116.196415 56.70269,121.697818 Z" id="leaf" fill="url(#linearGradient-19)" transform="translate(56.702491, 103.266367) rotate(91.000000) translate(-56.702491, -103.266367) "></path>
                            <path d="M74.8308796,37.3798599 C78.7475561,31.8797856 80.7068537,25.7380885 80.7087723,18.9547686 C80.7116501,8.77978875 78.0846938,0.532081319 74.8413012,0.532998436 C71.5979085,0.533915553 68.9662863,8.78310993 68.9634085,18.9580898 C68.9614899,25.7414097 70.9173136,31.8819997 74.8308796,37.3798599 Z" id="leaf" fill="url(#linearGradient-20)" transform="translate(74.836091, 18.956429) rotate(33.000000) translate(-74.836091, -18.956429) "></path>
                            <path d="M28.4966912,78.5330011 C32.4098023,73.0347784 34.365318,66.8937261 34.3632383,60.1098443 C34.3601188,49.9340216 31.7285184,41.6840815 28.4853943,41.6830873 C25.2422703,41.6820932 22.6157277,49.9304215 22.6188473,60.1062442 C22.6209269,66.890126 24.5802083,73.0323783 28.4966912,78.5330011 Z" id="leaf" fill="url(#linearGradient-21)" transform="translate(28.491042, 60.108044) rotate(-41.000000) translate(-28.491042, -60.108044) "></path>
                            <path d="M17.5593861,106.872726 C21.4722316,101.374157 23.4276068,95.2327117 23.4255118,88.4483911 C23.4223693,78.2719102 20.7909203,70.0214307 17.548006,70.0204292 C14.3050918,70.0194277 11.6787378,78.2682836 11.6818803,88.4447645 C11.6839754,95.2290851 13.643144,101.371739 17.5593861,106.872726 Z" id="leaf" fill="url(#linearGradient-22)" transform="translate(17.553696, 88.446578) rotate(-47.000000) translate(-17.553696, -88.446578) "></path>
                        </g>
                        <g id="plant" opacity="0.200000003" transform="translate(92.895921, 294.800842) rotate(-38.000000) translate(-92.895921, -294.800842) translate(54.412664, 231.848814)">
                            <path d="M18.6581204,125.66147 C18.6581204,109.295751 32.3468748,58.6491076 50.8240642,30.9364647" id="stem" stroke="#A1B8E3" stroke-width="2.43" stroke-linecap="round"></path>
                            <path d="M34.8214729,40.6397452 C37.9857894,36.1947486 39.5672124,31.2301363 39.5657419,25.7459083 C39.5635361,17.5195664 37.4358783,10.8502289 34.8134852,10.8495259 C32.191092,10.848823 30.0670104,17.5170209 30.0692162,25.7433628 C30.0706867,31.2275908 31.6547722,36.1930516 34.8214729,40.6397452 Z" id="leaf" fill="#A1B8E3" transform="translate(34.817479, 25.744636) rotate(-30.000000) translate(-34.817479, -25.744636) "></path>
                            <path d="M61.8933078,55.8422007 C65.0574451,51.3942259 66.639573,46.426853 66.6396914,40.9400823 C66.6398691,32.7099261 64.5151288,26.0381122 61.8939512,26.0381688 C59.2727736,26.0382254 57.1477452,32.7101311 57.1475676,40.9402873 C57.1474491,46.4270581 58.7293625,51.3943625 61.8933078,55.8422007 Z" id="leaf" fill="#A1B8E3" transform="translate(61.893629, 40.940185) rotate(88.000000) translate(-61.893629, -40.940185) "></path>
                            <path d="M53.0508293,77.4449575 C56.2148207,72.9970827 57.7967868,68.0297583 57.7967276,62.5429844 C57.7966387,54.3128236 55.6716835,47.6409371 53.0505074,47.6409088 C50.4293312,47.6408804 48.3045202,54.312721 48.3046091,62.5428819 C48.3046683,68.0296557 49.8867417,72.9970143 53.0508293,77.4449575 Z" id="leaf" fill="#A1B8E3" transform="translate(53.050668, 62.542933) rotate(91.000000) translate(-53.050668, -62.542933) "></path>
                            <path d="M45.8447281,98.3939805 C49.0087195,93.9461057 50.5906856,88.9787813 50.5906264,83.4920075 C50.5905375,75.2618466 48.4655823,68.5899601 45.8444062,68.5899318 C43.22323,68.5899035 41.098419,75.2617441 41.0985079,83.4919049 C41.0985671,88.9786787 42.6806405,93.9460373 45.8447281,98.3939805 Z" id="leaf" fill="#A1B8E3" transform="translate(45.844567, 83.491956) rotate(91.000000) translate(-45.844567, -83.491956) "></path>
                            <path d="M60.5015622,30.2220144 C63.6682369,25.7751458 65.2523498,20.8095183 65.253901,15.3251321 C65.2562277,7.09855261 63.1323056,0.430193407 60.5099882,0.430934906 C57.8876707,0.431676405 55.7599762,7.10123781 55.7576494,15.3278173 C55.7560982,20.8122036 57.3374025,25.7769359 60.5015622,30.2220144 Z" id="leaf" fill="#A1B8E3" transform="translate(60.505776, 15.326475) rotate(33.000000) translate(-60.505776, -15.326475) "></path>
                            <path d="M23.039878,63.4947669 C26.2036699,59.0493953 27.7847252,54.0842892 27.7830437,48.5994486 C27.7805215,40.3721876 25.6528446,33.7020233 23.0307444,33.7012195 C20.4086441,33.7004158 18.2850564,40.3692769 18.2875786,48.5965378 C18.2892601,54.0813785 19.8733599,59.0474548 23.039878,63.4947669 Z" id="leaf" fill="#A1B8E3" transform="translate(23.035311, 48.597993) rotate(-41.000000) translate(-23.035311, -48.597993) "></path>
                            <path d="M14.1969505,86.4077363 C17.3605277,81.9620842 18.9414694,76.9966605 18.9397755,71.5114652 C18.9372348,63.2836721 16.8096803,56.6130716 14.1877496,56.6122619 C11.5658189,56.6114522 9.44238377,63.28074 9.44492453,71.508533 C9.44661837,76.9937284 11.030627,81.9601295 14.1969505,86.4077363 Z" id="leaf" fill="#A1B8E3" transform="translate(14.192350, 71.509999) rotate(-47.000000) translate(-14.192350, -71.509999) "></path>
                        </g>
                        <path d="M50.9564982,368.102759 C69.1722951,344.081996 126.127332,323.059282 194.812553,323.059282 C263.497773,323.059282 329.421167,369.770196 384.367219,374.851794 C439.313271,379.933392 476.383462,378.224726 523.542092,401.597504 C554.981179,417.179356 554.981179,433.237858 523.542092,449.773011 C326.436416,471.803562 194.278542,477.49649 127.06847,466.851794 C26.2533608,450.88475 32.7407013,392.123522 50.9564982,368.102759 Z" id="ground" fill="url(#linearGradient-23)" opacity="0.391950335" transform="translate(293.655259, 397.556350) scale(-1, 1) translate(-293.655259, -397.556350) "></path>
                        <path d="M5.86094216,378.926677 C20.6433821,339.10414 78.4075317,330.777371 129.385441,330.777371 C180.363351,330.777371 267.461229,367.838875 313.555309,372.920473 C359.649388,378.002071 393.648232,355.779984 443.242205,378.926677 C476.304854,394.357805 487.963826,417.97325 478.219123,449.773011 L17.4147887,449.773011 C-0.142735623,429.09048 -3.99401779,405.475035 5.86094216,378.926677 Z" id="ground" fill="url(#linearGradient-24)" opacity="0.311035156"></path>
                        <ellipse id="shadow" fill="#8699BF" opacity="0.200000003" filter="url(#filter-25)" cx="398.397736" cy="352.207488" rx="35.8501921" ry="2.02418097"></ellipse>
                        <g id="tree" opacity="0.821875" transform="translate(395.967215, 254.641966) rotate(18.000000) translate(-395.967215, -254.641966) translate(358.901762, 160.719969)">
                            <path d="M57.171674,160.978706 C52.993928,164.672168 37.1059846,157.285243 30.8067711,145.819382 C24.5075576,134.353521 36.1926093,130.27227 20.2988641,111.934126 C4.40511889,93.5959829 -5.79322479,86.5728611 3.85207725,56.3456699 C13.4973793,26.1184786 0.172483382,9.31961445 17.7787948,1.4334997 C35.3851061,-6.45261506 45.5245212,19.7205131 43.5049856,42.7424247 C41.48545,65.7643362 45.6160735,70.5355634 62.8373267,68.1499498 C80.05858,65.7643362 65.5394654,99.5625475 65.5394654,106.940054 C65.5394654,114.317561 75.9818108,128.020375 73.8155223,138.329778 C71.6492338,148.639181 61.34942,157.285243 57.171674,160.978706 Z" id="leaves" fill="url(#linearGradient-26)" opacity="0.800000012"></path>
                            <path d="M47.113207,128.839437 C47.113207,123.17701 48.5447206,105.534337 56.3320037,94.7898453" id="branch" stroke="#2EB491" stroke-width="2.43" stroke-linecap="round"></path>
                            <path d="M11.2434683,95.7989907 C11.2434683,90.1365635 27.1515081,86.1612364 34.9387912,75.4167443" id="branch" stroke="#2EB491" stroke-width="2.43" stroke-linecap="round" transform="translate(23.091130, 85.607868) scale(-1, 1) translate(-23.091130, -85.607868) "></path>
                            <path d="M66.5542212,187.500444 C66.5542212,185.091289 62.4025629,174.23121 58.4353895,161.648637 C46.0122868,122.246628 25.9869985,73.7272842 25.9869985,40.1053655" id="stem" stroke="#2EB491" stroke-width="2.43" stroke-linecap="round"></path>
                        </g>
                        <path d="M180.286791,405.187202 L340.284862,420.944972 L340.284862,420.944972 C338.973441,424.528643 335.501257,426.858269 331.687936,426.71299 L180.286791,420.944972" id="shadow" fill="url(#linearGradient-27)" opacity="0.5"></path>
                        <polyline id="shadow" fill="url(#linearGradient-28)" opacity="0.5" points="119.523754 425.835045 272.460829 432.094611 272.460829 440.722327 119.118667 444.800662"></polyline>
                        <g id="person" transform="translate(181.473693, 135.215289)">
                            <polygon id="ankle" fill="url(#radialGradient-29)" points="80.6122963 290.074585 80.6122963 282.980499 91.9547299 282.980499 91.9547299 291.673307 84.3530031 292.696568"></polygon>
                            <polygon id="ankle" fill="url(#radialGradient-30)" points="141.253628 266.382215 135.29903 261.696961 142.773626 251.808112 148.261811 258.379427"></polygon>
                            <path d="M115.402307,179.342434 C117.170659,200.518785 118.681659,212.678571 119.935306,215.821792 C121.188952,218.965013 129.41586,231.009227 144.616029,251.954436 C143.831407,254.432568 142.625105,256.57599 140.997124,258.384701 C138.701067,260.935653 136.315051,262.408816 134.476332,263.548362 C131.498223,261.179349 120.299988,250.056239 100.881629,230.179031 C99.2412988,219.307202 99.2412988,210.894354 100.881629,204.940489 C102.521959,198.986623 107.362185,190.453938 115.402307,179.342434 Z" id="leg" fill="url(#radialGradient-31)"></path>
                            <g id="leg" transform="translate(70.485123, 142.097504)">
                                <mask id="mask-34" fill="white">
                                    <use xlink:href="#path-33"></use>
                                </mask>
                                <use id="Mask" fill="url(#radialGradient-32)" xlink:href="#path-33"></use>
                                <path d="M2.45223379,10.7460467 C8.90713446,12.6884101 33.0216814,13.8992682 43.6298218,7.16600428 C50.7019154,2.67716165 41.9609041,1.16337017 17.4067879,2.62462985 C3.13381804,6.74399879 -1.85103332,9.45113774 2.45223379,10.7460467 Z" id="Path-98" fill="url(#linearGradient-35)" style="mix-blend-mode: multiply;" opacity="0.5" mask="url(#mask-34)"></path>
                                <path d="M26.0071621,35.200241 C23.6640089,34.644288 21.5089039,34.4274071 19.5842975,32.4271685 C18.100676,30.8852444 16.6429554,28.3729844 16.6429554,25.0747661 C16.6429554,20.0235768 17.4184529,16.3517313 18.9694479,14.0592297" id="Path-3" fill="url(#linearGradient-36)" style="mix-blend-mode: multiply;" opacity="0.5" mask="url(#mask-34)"></path>
                            </g>
                            <path d="M123.563585,282.969521 C122.828118,278.193481 122.460759,274.576415 122.461509,272.118321 C122.462258,269.660228 122.462931,267.452299 122.463528,265.494535 C124.310805,266.851064 126.147945,267.548509 127.974948,267.586871 C130.389695,267.637574 131.121284,267.585912 134.209999,265.490954 C138.796533,267.554643 145.866473,273.6 154.661068,277.199762 C156.044393,278.291527 156.631922,279.7127 156.423656,281.463282 L156.423631,281.463279 C156.327092,282.274739 155.641294,282.887247 154.824124,282.89185 L142.03379,282.96389 L132.60192,278.622011 L131.671633,282.967049 L123.563585,282.969521 Z" id="shoe" fill="url(#radialGradient-37)" transform="translate(139.463021, 274.230237) scale(-1, 1) rotate(40.000000) translate(-139.463021, -274.230237) "></path>
                            <path d="M57.8178352,306.119058 C57.0807239,301.344016 56.7121682,297.727762 56.7121682,295.270298 C56.7121682,292.812833 56.7121682,290.605469 56.7121682,288.648206 C58.5603315,290.004951 60.3981543,290.702778 62.2256367,290.741686 C64.6410169,290.793112 65.372777,290.741686 68.4616438,288.648206 C73.0499808,290.712765 83.5618729,297.152767 92.3598169,300.754289 C92.3598169,301.952418 92.0293414,303.493381 91.3683904,305.377177 L91.368389,305.377177 C91.1356412,306.040538 90.5016144,306.478076 89.798831,306.460319 L76.292765,306.119058 L66.8571575,301.775414 L65.9279579,306.119058 L57.8178352,306.119058 Z" id="shoe" fill="url(#radialGradient-38)" transform="translate(74.535993, 297.554602) scale(-1, 1) translate(-74.535993, -297.554602) "></path>
                            <g id="face" transform="translate(44.559561, 16.598284)">
                                <mask id="mask-41" fill="white">
                                    <use xlink:href="#path-40"></use>
                                </mask>
                                <use id="Mask" fill="url(#radialGradient-39)" xlink:href="#path-40"></use>
                                <path d="M25.6220938,37.5559502 C28.0195438,35.7349945 31.2265528,29.6754184 31.2265528,29.2080876 C31.2265528,28.8965338 31.788435,33.8169357 32.9121996,43.9692935 C26.4538291,40.9077018 24.0237938,38.7699207 25.6220938,37.5559502 Z" id="Path-95" fill="#F08D3D" style="mix-blend-mode: multiply;" opacity="0.5" mask="url(#mask-41)"></path>
                                <path d="M11.0740478,35.6013313 C11.6912074,34.1794392 12.7485688,33.3375039 14.4624765,32.8442018" id="Path-5" stroke="#223762" stroke-width="0.81" stroke-linecap="round" mask="url(#mask-41)"></path>
                            </g>
                            <path d="M21.3983186,101.532099 C18.2772079,98.7815783 14.4139583,97.838934 11.9888466,94.0822469 C9.56373484,90.3255599 2.51955132,77.700303 4.35129126,76.0686486 C6.18303119,74.4369942 10.7686783,70.0366615 12.4980775,70.0366615 C14.2274766,70.0366615 17.4070537,76.7097898 18.9881345,79.7458191 C20.5692153,82.7818483 23.2319245,89.2527417 23.2319245,91.9237462 C23.2319245,94.5947506 24.5194293,104.28262 21.3983186,101.532099 Z" id="palm" fill="url(#radialGradient-42)"></path>
                            <g id="phone" transform="translate(0.000000, 60.725429)">
                                <path d="M1.28629359,5.29146292 L8.27010214,0.833342802 C9.58985672,-0.00912365264 11.3426832,0.377794818 12.1851496,1.6975494 C12.2114969,1.73882337 12.2367704,1.78077303 12.2609448,1.82335616 L23.5307731,21.6751801 C24.1727586,22.8060387 23.8106927,24.2418802 22.7092444,24.9331095 L15.1970519,29.6474913 C14.060306,30.3608721 12.560482,30.017667 11.8471012,28.8809211 C11.825136,28.8459204 11.8040672,28.8103652 11.7839154,28.7742901 L0.472350529,8.52477398 C-0.155129654,7.40148377 0.201759355,5.98377627 1.28629359,5.29146292 Z" id="Rectangle-18" fill="#223762"></path>
                                <path d="M2.77733999,5.42422569 L9.74773839,1.10655627 C10.3181909,0.75320123 11.0670849,0.929193509 11.4204399,1.49964602 C11.431031,1.51674409 11.4411958,1.5341025 11.4509251,1.55170521 L22.0506139,20.7291941 C22.36596,21.299734 22.1748571,22.0174642 21.6175531,22.3556523 L14.4668046,26.6949321 C13.89314,27.0430483 13.1458892,26.8602052 12.797773,26.2865406 C12.7876444,26.2698495 12.7779196,26.2529168 12.768607,26.235757 L2.34926832,7.0366578 C2.04210587,6.47066771 2.22989081,5.76333178 2.77733999,5.42422569 Z" id="Rectangle-18-Copy" fill="url(#linearGradient-43)"></path>
                            </g>
                            <g id="arm" transform="translate(17.418737, 72.060842)">
                                <mask id="mask-46" fill="white">
                                    <use xlink:href="#path-45"></use>
                                </mask>
                                <use id="Mask" fill="url(#radialGradient-44)" xlink:href="#path-45"></use>
                                <path d="M39.7094356,31.7872281 C42.5537633,35.312451 45.1777593,38.2976679 47.5814237,40.7428786 C49.6371059,46.049153 48.0660464,49.977881 49.6371059,49.4299596 C51.2081653,48.8820382 54.2189389,34.0763033 52.7135521,31.7872281 C52.0783787,30.8213901 47.4845571,26.925921 43.9759271,27.5589949 C42.6191936,27.8037948 41.1970298,29.2132059 39.7094356,31.7872281 Z" id="Path-96" fill="#E69566" style="mix-blend-mode: multiply;" opacity="0.5" mask="url(#mask-46)"></path>
                                <path d="M28.8910046,47.7336481 C29.3791719,48.1546756 30.0988185,49.7213075 30.6896859,50.9985235" id="Path-6" stroke="#E0845A" stroke-width="0.81" stroke-linecap="round" mask="url(#mask-46)"></path>
                            </g>
                            <path d="M67.0363337,109.710608 C60.8513755,105.25448 53.6820787,97.0670706 57.2667271,93.4437449 C60.8513755,89.8204192 74.3945804,72.115656 77.1910381,68.410683 C79.9874957,64.70571 83.6045356,87.9325522 79.7337631,93.4437449 C75.8629906,98.9549376 72.3134329,105.141988 67.0363337,109.710608 Z" id="sleeve" fill="url(#linearGradient-47)"></path>
                            <path d="M69.0961356,149.340346 C68.2859617,143.569231 73.2274958,126.08231 68.7033624,115.688787 C66.7549236,111.212539 63.7977304,107.597406 63.6014646,102.591452 C63.3301864,95.6722312 66.4894809,87.5702532 68.2859617,84.1298775 C75.1866403,70.9146364 75.0262469,63.5698989 77.0240024,61.4779597 C79.9123135,61.4779597 87.6645756,59.2921611 90.5126903,55.0577223 C93.7073542,56.842973 104.777715,69.5613524 108.131155,76.641623 C111.484595,83.7218936 110.415986,105.509842 110.415986,118.556247 C110.415986,131.602652 112.209076,140.185291 112.209076,143.569231 C112.209076,146.95317 70.2748902,157.736976 69.0961356,149.340346 Z" id="shirt" fill="url(#linearGradient-48)"></path>
                            <path d="M90.0617532,151.016928 C92.4644424,144.374822 93.665787,139.735975 93.665787,137.100388 C93.665787,133.147008 88.2597363,104.145627 90.0617532,100.909464 C91.2630978,98.7520214 95.7746242,108.617962 103.596332,130.507285 C100.268835,139.705746 98.0523248,145.373771 96.9468024,147.511359 C95.84128,149.648948 93.5462636,150.81747 90.0617532,151.016928 Z" id="hadow" fill="url(#linearGradient-49)" style="mix-blend-mode: multiply;"></path>
                            <path d="M60.1880178,26.8064209 C49.3454032,20.849064 45.9098602,31.6967213 44.3245593,30.3182104 C40.137727,25.0443911 42.3487046,19.0485982 44.3245593,14.0394251 C47.6475497,5.61500322 67.9688352,-8.28585652 83.9865261,6.5677692 C94.6649867,16.4701864 95.6010844,29.9345961 86.7948192,46.9609984 C84.1060317,45.9542451 82.4204777,44.0729891 81.7381572,41.3172303 C81.0558367,38.5614715 77.5538821,36.5536775 71.2322934,35.2938484 C73.0041134,32.5733125 73.0041134,30.3875389 71.2322934,28.7365278 C68.5745633,26.2600111 67.421507,27.0630415 66.6022706,27.8891932 C66.0382299,28.1592001 65.72422,29.508654 65.6602408,31.9375552 C63.4085767,29.2386472 61.5845024,27.5282691 60.1880178,26.8064209 Z" id="hair" fill="url(#radialGradient-50)"></path>
                            <g id="hair" transform="translate(85.473339, 34.006240)">
                                <mask id="mask-52" fill="white">
                                    <use xlink:href="#path-51"></use>
                                </mask>
                                <use id="Mask" fill="#223762" xlink:href="#path-51"></use>
                                <path d="M1.47622844,12.4557637 C6.89252158,10.9554412 18.734603,11.0232058 22.2098518,17.7255754 C25.6851006,24.4279449 31.4321888,54.6877216 18.6414481,55.9885501 C5.85070738,57.2893785 -3.9400647,13.9560862 1.47622844,12.4557637 Z" id="Path-2" fill="#223762" style="mix-blend-mode: multiply;" opacity="0.300000012" mask="url(#mask-52)"></path>
                                <path d="M2.17412579,13.5615876 C2.17412579,10.6068391 2.32398882,5.53376212 7.04936819,3.05403905" id="Path-93" stroke="#D6E3FA" stroke-width="2.43" stroke-linecap="round" stroke-linejoin="round" mask="url(#mask-52)"></path>
                            </g>
                            <g id="arm" transform="translate(87.093687, 87.849454)">
                                <mask id="mask-55" fill="white">
                                    <use xlink:href="#path-54"></use>
                                </mask>
                                <use id="Mask" fill="url(#radialGradient-53)" xlink:href="#path-54"></use>
                                <path d="M3.39861894,17.0174867 C8.32673897,18.1352377 17.1296304,18.6977273 20.9781009,17.0174867 C23.5437479,15.8973262 23.1382766,13.602684 19.761687,10.1335598 C5.5675616,13.977677 0.113205588,16.2723193 3.39861894,17.0174867 Z" id="Path-94" fill="#E69566" style="mix-blend-mode: multiply;" opacity="0.5" mask="url(#mask-55)"></path>
                            </g>
                            <path d="M86.7837992,102.188657 C84.630611,95.8807851 80.6209161,70.2130605 91.5603708,67.3914727 C102.499825,64.5698849 108.96838,94.2869522 108.96838,97.0860537 C108.96838,99.8851552 88.9369874,108.49653 86.7837992,102.188657 Z" id="sleeve" fill="url(#linearGradient-56)"></path>
                            <path d="M73.0574465,87.0474875 L79.1340375,87.7587482 C79.7462899,87.8304119 80.2078522,88.3492063 80.207787,88.9656384 L80.2063229,102.789156 C80.2062635,103.350757 79.8213159,103.839138 79.275266,103.970383 L75.7387468,104.820397 C75.3860425,104.905171 75.013908,104.827916 74.7240925,104.609756 L72.1840578,102.697729 C71.879084,102.468158 71.6997286,102.108608 71.6997691,101.726886 L71.7011959,88.2541203 C71.701267,87.5830944 72.2452986,87.039178 72.9163246,87.039249 C72.9634853,87.039254 73.0106056,87.0420049 73.0574465,87.0474875 Z" id="pocket" fill="url(#linearGradient-57)" transform="translate(75.953778, 95.946650) rotate(10.000000) translate(-75.953778, -95.946650) "></path>
                            <g id="alert" transform="translate(7.291564, 40.483619)" stroke-linecap="round" stroke-width="2.43">
                                <path d="M0.810173832,10.9305772 L0,0" id="Line" stroke="url(#linearGradient-58)"></path>
                                <path d="M8.50682524,10.9305772 L12.5576944,0" id="Line-Copy" stroke="url(#linearGradient-59)"></path>
                                <path d="M12.5576944,16.3896505 L21.2670631,9.70985331" id="Line-Copy-2" stroke="url(#linearGradient-60)"></path>
                            </g>
                            <path d="M2.19644297,66.1894919 L58.5741823,21.6365055 L80.5263073,60.9881182 L14.2322957,87.5649911 C13.76635,87.7517859 13.2341286,87.564187 12.9883006,87.1265041 L1.94457738,67.4637785 C1.70368546,67.034884 1.81049551,66.4944902 2.19644297,66.1894919 Z" id="screen-light" fill="url(#linearGradient-61)" opacity="0.460602679"></path>
                        </g>
                    </g>
                </g>
                <g id="user" transform="translate(157.978652, 53.033541)">
                    <mask id="mask-64" fill="white">
                        <use xlink:href="#path-63"></use>
                    </mask>
                    <use id="Oval-6" fill="url(#linearGradient-62)" opacity="0.600000024" xlink:href="#path-63"></use>
                    <path d="M25.0679253,27.5002725 L25.0679253,27.5002725 C32.291212,27.5002725 38.1468429,33.3559033 38.1468429,40.57919 L38.1468429,56.6342245 L11.9890078,56.6342245 L11.9890078,40.57919 C11.9890078,33.3559033 17.8446386,27.5002725 25.0679253,27.5002725 Z" id="Rectangle-2" fill="#FFFFFF" opacity="0.699999988" mask="url(#mask-64)"></path>
                    <ellipse id="Oval" fill="#FFFFFF" mask="url(#mask-64)" cx="24.9316866" cy="22.1908139" rx="9.94542689" ry="9.93821728"></ellipse>
                </g>
                <g id="user-copy" transform="translate(341.077938, 110.115445)">
                    <mask id="mask-66" fill="white">
                        <use xlink:href="#path-65"></use>
                    </mask>
                    <use id="Oval-6" fill="url(#linearGradient-62)" opacity="0.600000024" xlink:href="#path-65"></use>
                    <path d="M25.0679253,27.5002725 L25.0679253,27.5002725 C32.291212,27.5002725 38.1468429,33.3559033 38.1468429,40.57919 L38.1468429,56.6342245 L11.9890078,56.6342245 L11.9890078,40.57919 C11.9890078,33.3559033 17.8446386,27.5002725 25.0679253,27.5002725 Z" id="Rectangle-2" fill="#FFFFFF" opacity="0.699999988" mask="url(#mask-66)"></path>
                    <ellipse id="Oval" fill="#FFFFFF" mask="url(#mask-66)" cx="24.9316866" cy="22.1908139" rx="9.94542689" ry="9.93821728"></ellipse>
                </g>
                <g id="user-copy-2" transform="translate(308.265897, 48.985179)">
                    <mask id="mask-69" fill="white">
                        <use xlink:href="#path-68"></use>
                    </mask>
                    <use id="Oval-6" fill="url(#linearGradient-67)" opacity="0.600000024" xlink:href="#path-68"></use>
                    <path d="M17.5879799,19.294546 L17.5879799,19.294546 C22.655931,19.294546 26.7643172,23.4029322 26.7643172,28.4708833 L26.7643172,39.7353027 L8.41164254,39.7353027 L8.41164254,28.4708833 C8.41164254,23.4029322 12.5200287,19.294546 17.5879799,19.294546 Z" id="Rectangle-2" fill="#FFFFFF" opacity="0.699999988" mask="url(#mask-69)"></path>
                    <ellipse id="Oval" fill="#FFFFFF" mask="url(#mask-69)" cx="17.492393" cy="15.5693614" rx="6.97783983" ry="6.97278148"></ellipse>
                </g>
                <g id="user-copy-3" transform="translate(202.943299, 123.475039)">
                    <mask id="mask-72" fill="white">
                        <use xlink:href="#path-71"></use>
                    </mask>
                    <use id="Oval-6" fill="url(#linearGradient-70)" opacity="0.600000024" xlink:href="#path-71"></use>
                    <path d="M14.1512482,15.5243474 L14.1512482,15.5243474 C18.22891,15.5243474 21.5345081,18.8299454 21.5345081,22.9076073 L21.5345081,31.9709332 L6.76798825,31.9709332 L6.76798825,22.9076073 C6.76798825,18.8299454 10.0735863,15.5243474 14.1512482,15.5243474 Z" id="Rectangle-2" fill="#FFFFFF" opacity="0.699999988" mask="url(#mask-72)"></path>
                    <ellipse id="Oval" fill="#FFFFFF" mask="url(#mask-72)" cx="14.0743392" cy="12.5270724" rx="5.61435389" ry="5.61028395"></ellipse>
                </g>
            </g>
        </g>
    </g>
</svg>