<svg xmlns="http://www.w3.org/2000/svg" xmlns:xlink="http://www.w3.org/1999/xlink" width="338.247" height="400.6" viewBox="0 0 338.247 400.6">
  <defs>
    <clipPath id="clip-path">
      <rect id="Rectangle_1725" data-name="Rectangle 1725" width="305" height="388" transform="translate(-24.73 -101)" fill="#fff" stroke="#707070" stroke-width="1"/>
    </clipPath>
    <linearGradient id="linear-gradient" x1="0.538" y1="0.45" x2="0.533" y2="0.579" gradientUnits="objectBoundingBox">
      <stop offset="0" stop-color="#ffc892" stop-opacity="0.149"/>
      <stop offset="1" stop-color="#ccdeff" stop-opacity="0"/>
    </linearGradient>
  </defs>
  <g id="monitoring-bg-mob" transform="translate(0.601 -15)">
    <path id="Number_of_users" data-name="Number of users" d="M1.392-11.488H3.264L8.992-3.072v-8.416H10.8V0H8.928L3.2-8.352V0H1.392ZM17.584.208l-.048.016A3.809,3.809,0,0,1,16.272,0a3.171,3.171,0,0,1-1.1-.672,3.715,3.715,0,0,1-.784-1.152,4.034,4.034,0,0,1-.3-1.664v-4.64h1.744V-3.68a2.035,2.035,0,0,0,.528,1.5,1.8,1.8,0,0,0,1.328.528,2.284,2.284,0,0,0,1.3-.384,1.555,1.555,0,0,0,.7-.992V-8.112h1.744V0h-1.68V-.864a1.5,1.5,0,0,1-.72.768A2.946,2.946,0,0,1,17.584.208ZM28.656-8.32l-.016.032A3.5,3.5,0,0,1,30.032-8a2.988,2.988,0,0,1,1.168.96A3.1,3.1,0,0,1,33.936-8.3a3.506,3.506,0,0,1,1.2.208,3.3,3.3,0,0,1,1.072.64,3.17,3.17,0,0,1,.768,1.072,3.8,3.8,0,0,1,.288,1.536V.016H35.52V-4.592a1.8,1.8,0,0,0-.512-1.376,1.758,1.758,0,0,0-1.248-.48,2.06,2.06,0,0,0-1.216.384,1.5,1.5,0,0,0-.672.976V.032H30.128V-4.576a1.8,1.8,0,0,0-.512-1.376,1.722,1.722,0,0,0-1.248-.48,2.113,2.113,0,0,0-.64.1,2.1,2.1,0,0,0-.56.272,1.923,1.923,0,0,0-.416.416,1.34,1.34,0,0,0-.224.528V0H24.784V-8.112h1.68v.864a1.487,1.487,0,0,1,.752-.768A3,3,0,0,1,28.656-8.32Zm20.1,4.272v.032a4.342,4.342,0,0,1-.336,1.728A4.106,4.106,0,0,1,47.5-.944a4.458,4.458,0,0,1-1.328.864,4.032,4.032,0,0,1-1.584.3,3.747,3.747,0,0,1-1.584-.3,1.722,1.722,0,0,1-.88-.768V0h-1.68V-11.648h1.744v4.4a1.642,1.642,0,0,1,.848-.768,3.572,3.572,0,0,1,1.568-.3,3.99,3.99,0,0,1,1.568.3,4.068,4.068,0,0,1,1.328.88,4.293,4.293,0,0,1,.912,1.36A4.342,4.342,0,0,1,48.752-4.048ZM46.992-4l-.032.016a2.37,2.37,0,0,0-.688-1.776,2.533,2.533,0,0,0-1.824-.672,2.956,2.956,0,0,0-1.424.336,1.633,1.633,0,0,0-.816.864v2.4a1.353,1.353,0,0,0,.32.48,2.467,2.467,0,0,0,.512.384,3.005,3.005,0,0,0,.656.256,3.03,3.03,0,0,0,.768.1,2.569,2.569,0,0,0,1.824-.656A2.251,2.251,0,0,0,46.992-4Zm8.336,2.416L55.3-1.52a3.591,3.591,0,0,0,1.472-.32,2.7,2.7,0,0,0,1.04-.752l.512,1.36a2.585,2.585,0,0,1-.448.56,3.592,3.592,0,0,1-.688.48,3.659,3.659,0,0,1-.88.336,4.314,4.314,0,0,1-1.04.112,4.969,4.969,0,0,1-1.7-.288,3.7,3.7,0,0,1-1.36-.848,3.63,3.63,0,0,1-.9-1.344A4.823,4.823,0,0,1,50.992-4a4.609,4.609,0,0,1,.288-1.632,4.529,4.529,0,0,1,.816-1.36,3.638,3.638,0,0,1,1.28-.944,4,4,0,0,1,1.68-.336,3.737,3.737,0,0,1,1.6.336,3.541,3.541,0,0,1,1.232.912,3.812,3.812,0,0,1,.768,1.344,4.9,4.9,0,0,1,.272,1.616,3.909,3.909,0,0,1-.048.64H52.768a1.9,1.9,0,0,0,.816,1.392A3.137,3.137,0,0,0,55.328-1.584Zm1.744-3.344h-.064a1.465,1.465,0,0,0-.656-1.1,2.333,2.333,0,0,0-1.376-.416,2.425,2.425,0,0,0-.768.112,2.509,2.509,0,0,0-.656.3,1.714,1.714,0,0,0-.48.48,1.922,1.922,0,0,0-.256.624ZM66.3-6.1l.016-.016a1.942,1.942,0,0,0-.48-.256,1.674,1.674,0,0,0-.64-.112,1.918,1.918,0,0,0-.688.128,1.285,1.285,0,0,0-.528.336,2.151,2.151,0,0,0-.352.48,1.661,1.661,0,0,0-.192.528V0H61.7V-8.112h1.68V-7.04a1.791,1.791,0,0,1,.656-.944,1.925,1.925,0,0,1,1.184-.336,1.737,1.737,0,0,1,.816.192,1.321,1.321,0,0,1,.528.448ZM81.952-4.048l-.032.016a4.26,4.26,0,0,1-.336,1.7,4.292,4.292,0,0,1-.912,1.36,4.028,4.028,0,0,1-1.344.88,4.2,4.2,0,0,1-1.6.32,4.2,4.2,0,0,1-1.6-.32,4.014,4.014,0,0,1-1.344-.9,4.293,4.293,0,0,1-.912-1.36,4.26,4.26,0,0,1-.336-1.7,4.26,4.26,0,0,1,.336-1.7,4.293,4.293,0,0,1,.912-1.36A4.014,4.014,0,0,1,76.128-8a4.238,4.238,0,0,1,1.616-.32A4.238,4.238,0,0,1,79.36-8a4.014,4.014,0,0,1,1.344.9,4.293,4.293,0,0,1,.912,1.36A4.26,4.26,0,0,1,81.952-4.048Zm-6.672.016v.016a2.379,2.379,0,0,0,.192.976A2.129,2.129,0,0,0,76-2.288a2.192,2.192,0,0,0,.784.48,2.772,2.772,0,0,0,.96.176,2.772,2.772,0,0,0,.96-.176,2.192,2.192,0,0,0,.784-.48,2.129,2.129,0,0,0,.528-.752A2.338,2.338,0,0,0,80.208-4a2.61,2.61,0,0,0-.192-1.008,2.1,2.1,0,0,0-.528-.768,2.192,2.192,0,0,0-.784-.48,2.772,2.772,0,0,0-.96-.176,2.772,2.772,0,0,0-.96.176,2.192,2.192,0,0,0-.784.48,2.1,2.1,0,0,0-.528.768A2.528,2.528,0,0,0,75.28-4.032ZM89.808-9.44l-.032.016a2.316,2.316,0,0,0-.608-.432,1.781,1.781,0,0,0-.8-.16,1.293,1.293,0,0,0-.816.288,1.152,1.152,0,0,0-.352.944V-8.1h2.672V-6.24H87.2V.016H85.456V-6.24H84V-8.1h1.456V-9.1a2.841,2.841,0,0,1,.672-2.016,2.606,2.606,0,0,1,2-.72,2.717,2.717,0,0,1,1.232.272,1.622,1.622,0,0,1,.752.672ZM100.992.208l-.048.016A3.809,3.809,0,0,1,99.68,0a3.171,3.171,0,0,1-1.1-.672,3.715,3.715,0,0,1-.784-1.152,4.034,4.034,0,0,1-.3-1.664v-4.64h1.744V-3.68a2.035,2.035,0,0,0,.528,1.5,1.8,1.8,0,0,0,1.328.528,2.284,2.284,0,0,0,1.3-.384,1.555,1.555,0,0,0,.7-.992V-8.112h1.744V0h-1.68V-.864a1.5,1.5,0,0,1-.72.768A2.946,2.946,0,0,1,100.992.208Zm8.64-3.872-.048.016q-1.84-.928-1.84-2.352a2.353,2.353,0,0,1,.176-.9,1.948,1.948,0,0,1,.512-.72,2.15,2.15,0,0,1,.816-.48,3.183,3.183,0,0,1,1.072-.176,3.287,3.287,0,0,1,.8.1,3.293,3.293,0,0,1,.7.256,3.143,3.143,0,0,1,.544.384,1.621,1.621,0,0,1,.368.432l-.32,1.552a2.881,2.881,0,0,0-1.008-.672,2.938,2.938,0,0,0-1.056-.224,1.331,1.331,0,0,0-.592.112.412.412,0,0,0-.24.384.488.488,0,0,0,.192.416,5.4,5.4,0,0,0,.56.336l.832.448A5.186,5.186,0,0,1,112.592-3.7a2.054,2.054,0,0,1,.5,1.44,2.452,2.452,0,0,1-.192.976,2.168,2.168,0,0,1-.576.784,2.845,2.845,0,0,1-.912.528,3.446,3.446,0,0,1-1.184.192,3.14,3.14,0,0,1-1.648-.432,2.633,2.633,0,0,1-1.04-1.008L108-2.7a3.216,3.216,0,0,0,.944.784,2.718,2.718,0,0,0,1.392.336,1.526,1.526,0,0,0,.72-.16.568.568,0,0,0,.32-.528.651.651,0,0,0-.256-.528,4.006,4.006,0,0,0-.72-.464Zm10.08,2.08-.032.064a3.591,3.591,0,0,0,1.472-.32,2.7,2.7,0,0,0,1.04-.752l.512,1.36a2.584,2.584,0,0,1-.448.56,3.592,3.592,0,0,1-.688.48,3.659,3.659,0,0,1-.88.336,4.314,4.314,0,0,1-1.04.112,4.969,4.969,0,0,1-1.7-.288,3.7,3.7,0,0,1-1.36-.848,3.63,3.63,0,0,1-.9-1.344A4.823,4.823,0,0,1,115.376-4a4.609,4.609,0,0,1,.288-1.632,4.529,4.529,0,0,1,.816-1.36,3.638,3.638,0,0,1,1.28-.944,4,4,0,0,1,1.68-.336,3.737,3.737,0,0,1,1.6.336,3.541,3.541,0,0,1,1.232.912,3.812,3.812,0,0,1,.768,1.344,4.9,4.9,0,0,1,.272,1.616,3.91,3.91,0,0,1-.048.64h-6.112a1.9,1.9,0,0,0,.816,1.392A3.137,3.137,0,0,0,119.712-1.584Zm1.744-3.344h-.064a1.465,1.465,0,0,0-.656-1.1,2.333,2.333,0,0,0-1.376-.416,2.425,2.425,0,0,0-.768.112,2.509,2.509,0,0,0-.656.3,1.714,1.714,0,0,0-.48.48,1.922,1.922,0,0,0-.256.624ZM130.688-6.1l.016-.016a1.942,1.942,0,0,0-.48-.256,1.674,1.674,0,0,0-.64-.112,1.918,1.918,0,0,0-.688.128,1.285,1.285,0,0,0-.528.336,2.15,2.15,0,0,0-.352.48,1.661,1.661,0,0,0-.192.528V0H126.08V-8.112h1.68V-7.04a1.791,1.791,0,0,1,.656-.944A1.925,1.925,0,0,1,129.6-8.32a1.737,1.737,0,0,1,.816.192,1.321,1.321,0,0,1,.528.448Zm4.128,2.432-.048.016q-1.84-.928-1.84-2.352a2.353,2.353,0,0,1,.176-.9,1.948,1.948,0,0,1,.512-.72,2.15,2.15,0,0,1,.816-.48,3.183,3.183,0,0,1,1.072-.176,3.287,3.287,0,0,1,.8.1,3.293,3.293,0,0,1,.7.256,3.143,3.143,0,0,1,.544.384,1.621,1.621,0,0,1,.368.432l-.32,1.552a2.881,2.881,0,0,0-1.008-.672,2.938,2.938,0,0,0-1.056-.224,1.331,1.331,0,0,0-.592.112.412.412,0,0,0-.24.384.488.488,0,0,0,.192.416,5.4,5.4,0,0,0,.56.336l.832.448A5.186,5.186,0,0,1,137.776-3.7a2.054,2.054,0,0,1,.5,1.44,2.451,2.451,0,0,1-.192.976A2.168,2.168,0,0,1,137.5-.5a2.845,2.845,0,0,1-.912.528,3.446,3.446,0,0,1-1.184.192,3.14,3.14,0,0,1-1.648-.432,2.633,2.633,0,0,1-1.04-1.008l.464-1.488a3.216,3.216,0,0,0,.944.784,2.718,2.718,0,0,0,1.392.336,1.526,1.526,0,0,0,.72-.16.568.568,0,0,0,.32-.528A.651.651,0,0,0,136.3-2.8a4.005,4.005,0,0,0-.72-.464Z" transform="translate(0 76)" fill="#fff"/>
    <text id="_50K" data-name="50K" transform="translate(11.355 369.6)" fill="#fff" font-size="12" font-family="Avenir-Book, Avenir" letter-spacing="0.014em"><tspan x="0" y="0">50K</tspan></text>
    <text id="_100K" data-name="100K" transform="translate(4.511 291.6)" fill="#fff" font-size="12" font-family="Avenir-Book, Avenir" letter-spacing="0.014em"><tspan x="0" y="0">100K</tspan></text>
    <text id="_500K" data-name="500K" transform="translate(3.652 213.6)" fill="#fff" font-size="12" font-family="Avenir-Book, Avenir" letter-spacing="0.014em"><tspan x="0" y="0">500K</tspan></text>
    <text id="_1MLN" data-name="1MLN" transform="translate(-0.601 136)" fill="#fff" font-size="12" font-family="Avenir-Book, Avenir" letter-spacing="0.014em"><tspan x="0" y="0">1MLN</tspan></text>
    <g id="Group_5130" data-name="Group 5130" transform="translate(56.128 116)">
      <g id="Group_5129" data-name="Group 5129">
        <g id="Mask_Group_1" data-name="Mask Group 1" clip-path="url(#clip-path)">
          <path id="Path_25745" data-name="Path 25745" d="M.116,224.187c18.97,0,25.26,17.613,39.418,17.613s14.551-51.859,31.4-52.034,13.338,20.608,34.047,20.608,10.853-51.443,35.943-51.443,15.465,40.834,36.87,40.834,15.623-35.83,34.774-35.83S234.314,45.644,250.011,45.644s15.906,85.545,33.374,85.545S300.852,207,315.835,207s15.448-30.586,32.107-30.62,12.477,8.976,32.811,8.976,22.991-82.568,41.392-82.568,16.283,64.693,37.966,61.15,15.516-17.014,33.71-17.014S504.579,106.8,524.63,110.8s32.99-55.994,45.331-69,17.9-8.975,44.3-8.975q26.4,0,56.534-30.025" fill="none" stroke="#fdc06e" stroke-linecap="round" stroke-linejoin="round" stroke-width="2.4"/>
          <path id="Path_25752" data-name="Path 25752" d="M.172,225.96c18.257,0,25.347,17.682,39.554,17.682s14.6-52.063,31.508-52.24,13.385,20.69,34.166,20.69,13.164-52.059,37.124-52.059,13.053,39.66,34.532,39.66,17.086-34.224,36.3-34.224,23.83-116.426,39.582-116.426,13.957,83.551,31.484,83.551S301.95,208.7,316.985,208.7s11.174-30.74,32.218-30.74,23.764,17.524,38.915,6.708,17.08-80.593,35.545-80.593S439.65,168.4,461.409,164.84s15.921-16.825,34.178-16.825,11.134-35.853,31.539-35.853,36.324-60.59,46.785-69.6,15.645-8.713,42.135-8.713,28.941-7.812,57.13-30.045v268H.172Z" transform="translate(-2.747 -0.8)" fill-rule="evenodd" opacity="0.749" fill="url(#linear-gradient)"/>
          <path id="Path_25753" data-name="Path 25753" d="M44.33,369.6H727.122v1.2H44.33Z" transform="translate(-56.128 -116)" fill="#e1e1ed" fill-rule="evenodd" opacity="0.221"/>
          <path id="Path_25754" data-name="Path 25754" d="M44.33,291.6H727.122v1.2H44.33Z" transform="translate(-56.128 -116)" fill="#e1e1ed" fill-rule="evenodd" opacity="0.221"/>
          <path id="Path_25755" data-name="Path 25755" d="M43.471,213.6H726.263v1.2H43.471Z" transform="translate(-56.128 -116)" fill="#e1e1ed" fill-rule="evenodd" opacity="0.221"/>
          <path id="Path_25756" data-name="Path 25756" d="M44.33,136H727.122v1.2H44.33Z" transform="translate(-56.128 -116)" fill="#e1e1ed" fill-rule="evenodd" opacity="0.221"/>
        </g>
      </g>
    </g>
    <text id="_2020" data-name="2020" transform="translate(309.646 412.6)" fill="#fff" font-size="12" font-family="Helvetica" letter-spacing="0.014em"><tspan x="0" y="0">2020</tspan></text>
    <text id="_2018" data-name="2018" transform="translate(44.393 412.6)" fill="#fff" font-size="12" font-family="Helvetica" letter-spacing="0.014em"><tspan x="0" y="0">2018</tspan></text>
    <text id="_2019" data-name="2019" transform="translate(183.59 412.6)" fill="#fff" font-size="12" font-family="Helvetica" letter-spacing="0.014em"><tspan x="0" y="0">2019</tspan></text>
    <g id="Group_5132" data-name="Group 5132" transform="translate(121 125)">
      <rect id="Rectangle_1724" data-name="Rectangle 1724" width="152" height="108" rx="8" fill="#2c137b"/>
      <path id="Path_25747" data-name="Path 25747" d="M135,81.167,131,77l-4,4.167M135,87l-4-4.167L127,87" fill="none" stroke="#fdc06e" stroke-linecap="round" stroke-width="1.6" fill-rule="evenodd"/>
      <path id="Active_users" data-name="Active users" d="M9.576,0H7.91L7.042-2.184H2.674L1.82,0H.112l3.92-10.052h1.61ZM3.332-3.864H6.384L4.858-7.77Zm13.552,2.8-.056.042a1.834,1.834,0,0,1-.392.476,2.925,2.925,0,0,1-.588.392,3.721,3.721,0,0,1-.756.266,3.775,3.775,0,0,1-.91.1,3.674,3.674,0,0,1-1.4-.28,3.534,3.534,0,0,1-1.176-.756A3.593,3.593,0,0,1,10.808-2a3.836,3.836,0,0,1-.294-1.526,3.836,3.836,0,0,1,.294-1.526,3.593,3.593,0,0,1,.8-1.176,3.534,3.534,0,0,1,1.176-.756A3.737,3.737,0,0,1,14.2-7.252a3.5,3.5,0,0,1,1.638.364,2.36,2.36,0,0,1,.966.84l-.42,1.26a2.367,2.367,0,0,0-.8-.588,2.68,2.68,0,0,0-1.162-.252,2.525,2.525,0,0,0-1.722.574,1.9,1.9,0,0,0-.644,1.512,1.951,1.951,0,0,0,.658,1.526,2.455,2.455,0,0,0,1.722.588,2.515,2.515,0,0,0,1.19-.28,2.818,2.818,0,0,0,.812-.616Zm6.44.392H23.3a1.852,1.852,0,0,1-.672.6,1.971,1.971,0,0,1-1.008.252,2.218,2.218,0,0,1-1.722-.6,2.644,2.644,0,0,1-.546-1.806V-5.474H18.1v-.49l2.31-2.926h.462V-7.1H23.24v1.624H20.874v2.94a1.084,1.084,0,0,0,.28.84,1.088,1.088,0,0,0,.756.252,1.207,1.207,0,0,0,.616-.154A2.411,2.411,0,0,0,23-1.974ZM25.3-7.1h1.526V0H25.3Zm.014-1.484A1.028,1.028,0,0,1,25-9.338a1.028,1.028,0,0,1,.308-.756,1.028,1.028,0,0,1,.756-.308,1.028,1.028,0,0,1,.756.308,1.028,1.028,0,0,1,.308.756,1.028,1.028,0,0,1-.308.756,1.028,1.028,0,0,1-.756.308A1.028,1.028,0,0,1,25.312-8.582ZM31.234,0,28.35-7.1h1.638l1.974,5,1.988-5h1.666L32.718,0ZM40.25-1.386l-.028.056a3.142,3.142,0,0,0,1.288-.28,2.367,2.367,0,0,0,.91-.658l.448,1.19a2.262,2.262,0,0,1-.392.49,3.143,3.143,0,0,1-.6.42,3.2,3.2,0,0,1-.77.294,3.775,3.775,0,0,1-.91.1A4.348,4.348,0,0,1,38.71-.028,3.239,3.239,0,0,1,37.52-.77a3.177,3.177,0,0,1-.784-1.176,4.22,4.22,0,0,1-.28-1.554,4.033,4.033,0,0,1,.252-1.428,3.963,3.963,0,0,1,.714-1.19,3.184,3.184,0,0,1,1.12-.826,3.5,3.5,0,0,1,1.47-.294,3.27,3.27,0,0,1,1.4.294,3.1,3.1,0,0,1,1.078.8,3.336,3.336,0,0,1,.672,1.176A4.284,4.284,0,0,1,43.4-3.556a3.421,3.421,0,0,1-.042.56H38.01a1.664,1.664,0,0,0,.714,1.218A2.745,2.745,0,0,0,40.25-1.386Zm1.526-2.926H41.72a1.282,1.282,0,0,0-.574-.966,2.041,2.041,0,0,0-1.2-.364,2.122,2.122,0,0,0-.672.1,2.2,2.2,0,0,0-.574.266,1.5,1.5,0,0,0-.42.42,1.682,1.682,0,0,0-.224.546ZM52.22.182,52.178.2A3.333,3.333,0,0,1,51.072,0a2.774,2.774,0,0,1-.966-.588A3.251,3.251,0,0,1,49.42-1.6a3.53,3.53,0,0,1-.266-1.456v-4.06H50.68V-3.22A1.78,1.78,0,0,0,51.142-1.9a1.576,1.576,0,0,0,1.162.462,2,2,0,0,0,1.134-.336,1.361,1.361,0,0,0,.616-.868V-7.1H55.58V0H54.11V-.756a1.311,1.311,0,0,1-.63.672A2.578,2.578,0,0,1,52.22.182Zm7.056-3.388-.042.014Q57.624-4,57.624-5.25a2.059,2.059,0,0,1,.154-.784,1.7,1.7,0,0,1,.448-.63,1.881,1.881,0,0,1,.714-.42,2.785,2.785,0,0,1,.938-.154,2.876,2.876,0,0,1,.7.084,2.881,2.881,0,0,1,.616.224,2.75,2.75,0,0,1,.476.336,1.418,1.418,0,0,1,.322.378l-.28,1.358a2.52,2.52,0,0,0-.882-.588,2.57,2.57,0,0,0-.924-.2,1.164,1.164,0,0,0-.518.1.36.36,0,0,0-.21.336.427.427,0,0,0,.168.364,4.724,4.724,0,0,0,.49.294l.728.392a4.537,4.537,0,0,1,1.3.924,1.8,1.8,0,0,1,.434,1.26,2.145,2.145,0,0,1-.168.854,1.9,1.9,0,0,1-.5.686,2.489,2.489,0,0,1-.8.462A3.015,3.015,0,0,1,59.794.2a2.748,2.748,0,0,1-1.442-.378,2.3,2.3,0,0,1-.91-.882l.406-1.3a2.814,2.814,0,0,0,.826.686,2.378,2.378,0,0,0,1.218.294,1.335,1.335,0,0,0,.63-.14.5.5,0,0,0,.28-.462.57.57,0,0,0-.224-.462,3.5,3.5,0,0,0-.63-.406Zm8.316,1.82-.028.056a3.142,3.142,0,0,0,1.288-.28,2.367,2.367,0,0,0,.91-.658l.448,1.19a2.262,2.262,0,0,1-.392.49,3.143,3.143,0,0,1-.6.42,3.2,3.2,0,0,1-.77.294,3.775,3.775,0,0,1-.91.1,4.348,4.348,0,0,1-1.484-.252,3.239,3.239,0,0,1-1.19-.742,3.177,3.177,0,0,1-.784-1.176A4.22,4.22,0,0,1,63.8-3.5a4.033,4.033,0,0,1,.252-1.428,3.963,3.963,0,0,1,.714-1.19,3.184,3.184,0,0,1,1.12-.826,3.5,3.5,0,0,1,1.47-.294,3.27,3.27,0,0,1,1.4.294,3.1,3.1,0,0,1,1.078.8A3.336,3.336,0,0,1,70.5-4.97a4.284,4.284,0,0,1,.238,1.414A3.421,3.421,0,0,1,70.7-3H65.352a1.664,1.664,0,0,0,.714,1.218A2.745,2.745,0,0,0,67.592-1.386Zm1.526-2.926h-.056a1.282,1.282,0,0,0-.574-.966,2.041,2.041,0,0,0-1.2-.364,2.122,2.122,0,0,0-.672.1,2.2,2.2,0,0,0-.574.266,1.5,1.5,0,0,0-.42.42,1.682,1.682,0,0,0-.224.546Zm7.574-1.022.014-.014a1.7,1.7,0,0,0-.42-.224,1.465,1.465,0,0,0-.56-.1,1.678,1.678,0,0,0-.6.112,1.124,1.124,0,0,0-.462.294,1.882,1.882,0,0,0-.308.42,1.453,1.453,0,0,0-.168.462V0H72.66V-7.1h1.47v.938a1.567,1.567,0,0,1,.574-.826A1.684,1.684,0,0,1,75.74-7.28a1.52,1.52,0,0,1,.714.168,1.156,1.156,0,0,1,.462.392ZM79.8-3.206l-.042.014Q78.148-4,78.148-5.25a2.059,2.059,0,0,1,.154-.784,1.7,1.7,0,0,1,.448-.63,1.881,1.881,0,0,1,.714-.42,2.785,2.785,0,0,1,.938-.154,2.876,2.876,0,0,1,.7.084,2.881,2.881,0,0,1,.616.224,2.749,2.749,0,0,1,.476.336,1.418,1.418,0,0,1,.322.378l-.28,1.358a2.521,2.521,0,0,0-.882-.588,2.57,2.57,0,0,0-.924-.2,1.164,1.164,0,0,0-.518.1.36.36,0,0,0-.21.336.427.427,0,0,0,.168.364,4.725,4.725,0,0,0,.49.294l.728.392a4.537,4.537,0,0,1,1.3.924,1.8,1.8,0,0,1,.434,1.26,2.145,2.145,0,0,1-.168.854,1.9,1.9,0,0,1-.5.686,2.489,2.489,0,0,1-.8.462A3.015,3.015,0,0,1,80.318.2a2.748,2.748,0,0,1-1.442-.378,2.3,2.3,0,0,1-.91-.882l.406-1.3a2.814,2.814,0,0,0,.826.686,2.378,2.378,0,0,0,1.218.294,1.335,1.335,0,0,0,.63-.14.5.5,0,0,0,.28-.462A.57.57,0,0,0,81.1-2.45a3.5,3.5,0,0,0-.63-.406Z" transform="translate(18 54)" fill="#fff"/>
      <text id="_15.10.2016" data-name="15.10.2016" transform="translate(18 29.2)" fill="#7f7af0" font-size="12" font-family="Helvetica-Bold, Helvetica" font-weight="700" letter-spacing="0.014em"><tspan x="0" y="0">15.10.2016</tspan></text>
      <text id="_480K" data-name="480K" transform="translate(18 89)" fill="#fdc06e" font-size="20" font-family="Helvetica-Bold, Helvetica" font-weight="700" letter-spacing="0.014em"><tspan x="0" y="0">480K</tspan></text>
    </g>
    <g id="Group_5134" data-name="Group 5134" transform="translate(-98 43)">
      <path id="Path_25750" data-name="Path 25750" d="M295,235v93.2"/>
      <path id="Path_25751" data-name="Path 25751" d="M295,235v93.2" fill="none" stroke="#d6a075" stroke-linecap="square" stroke-linejoin="round" stroke-width="1" stroke-dasharray="4 10"/>
    </g>
    <circle id="Ellipse_1278" data-name="Ellipse 1278" cx="7" cy="7" r="7" transform="translate(190 268)" fill="#fdc06e" stroke="#fff" stroke-width="4"/>
  </g>
</svg>
