<svg xmlns="http://www.w3.org/2000/svg" xmlns:xlink="http://www.w3.org/1999/xlink" width="1389.561" height="416" viewBox="0 0 1389.561 416">
  <defs>
    <linearGradient id="linear-gradient" x1="0.667" y1="0.331" x2="0.663" y2="0.776" gradientUnits="objectBoundingBox">
      <stop offset="0" stop-color="#ffc892" stop-opacity="0.243"/>
      <stop offset="0.246" stop-color="#efcfb5" stop-opacity="0.141"/>
      <stop offset="1" stop-color="#ccdeff" stop-opacity="0"/>
    </linearGradient>
    <clipPath id="clip-Artboard_1">
      <rect width="1389.56" height="416"/>
    </clipPath>
  </defs>
  <g id="Artboard_1" data-name="Artboard – 1" clip-path="url(#clip-Artboard_1)">
    <g id="group-21" transform="translate(1)">
      <g id="Homepage--web" transform="translate(-1)">
        <g id="Group-21-2" data-name="Group-21">
          <g id="Group-19">
            <g id="Group-7" transform="translate(0 59)">
              <g id="Group-5">
                <text id="Number_of_users" data-name="Number of users" transform="translate(0 17)" fill="#fff" font-size="16" font-family="SegoeUI-Bold, Segoe UI" font-weight="700"><tspan x="0" y="0">Number of users</tspan></text>
                <g id="AXIS-_-Desktop-v2" data-name="AXIS-|-Desktop-v2" transform="translate(13.982 297.6)">
                  <text id="_50K" data-name="50K" transform="translate(0 13)" fill="#fff" font-size="12" font-family="SegoeUI, Segoe UI" letter-spacing="0.014em"><tspan x="0" y="0">50K</tspan></text>
                  <rect id="Rectangle-7" width="1332.496" height="1.2" transform="translate(39.921 13)" fill="#e1e1ed" opacity="0.221"/>
                </g>
                <g id="AXIS-_-Desktop-v2-2" data-name="AXIS-|-Desktop-v2" transform="translate(7.138 219.6)">
                  <text id="_100K" data-name="100K" transform="translate(0 13)" fill="#fff" font-size="12" font-family="SegoeUI, Segoe UI" letter-spacing="0.014em"><tspan x="0" y="0">100K</tspan></text>
                  <rect id="Rectangle-7-2" data-name="Rectangle-7" width="1332.496" height="1.2" transform="translate(46.765 13)" fill="#e1e1ed" opacity="0.221"/>
                </g>
                <g id="AXIS-_-Desktop-v2-3" data-name="AXIS-|-Desktop-v2" transform="translate(4.738 141.6)">
                  <text id="_500K" data-name="500K" transform="translate(0 13)" fill="#fff" font-size="12" font-family="SegoeUI, Segoe UI" letter-spacing="0.014em"><tspan x="0" y="0">500K</tspan></text>
                  <rect id="Rectangle-7-3" data-name="Rectangle-7" width="1332.496" height="1.2" transform="translate(46.765 13)" fill="#e1e1ed" opacity="0.221"/>
                </g>
                <g id="AXIS-_-Desktop-v2-4" data-name="AXIS-|-Desktop-v2" transform="translate(1.626 64)">
                  <text id="_1MLN" data-name="1MLN" transform="translate(0 13)" fill="#fff" font-size="12" font-family="SegoeUI, Segoe UI" letter-spacing="0.014em"><tspan x="0" y="0">1MLN</tspan></text>
                  <rect id="Rectangle-7-4" data-name="Rectangle-7" width="1332.496" height="1.2" transform="translate(51.877 13)" fill="#e1e1ed" opacity="0.221"/>
                </g>
                <g id="Wykres" transform="translate(51.8 56)">
                  <g id="Group-6" transform="translate(4.2)">
                    <g id="Path-8" transform="translate(0 4)">
                      <path id="Path_10604" data-name="Path 10604" d="M.2,226.187c37.633,0,50.114,17.613,78.2,17.613s28.869-51.859,62.293-52.034,26.462,20.608,67.547,20.608,21.531-51.443,71.307-51.443,30.681,40.834,73.145,40.834,30.995-35.83,68.988-35.83,27.936-56.323,59.076-56.323,46.764,23.577,81.418,23.577S596.828,209,626.552,209s30.648-30.586,63.7-30.619,24.753,8.975,65.094,8.975,45.611-82.568,82.117-82.568,32.3,64.693,75.321,61.15,30.781-17.014,66.876-17.014S1001,108.8,1040.778,112.8s65.449-55.994,89.934-69,35.512-8.975,87.893-8.975q52.369,0,112.152-30.025" transform="translate(-0.2 -4.8)" fill="none"/>
                      <path id="Path_10605" data-name="Path 10605" d="M.2,226.187c37.633,0,50.114,17.613,78.2,17.613s28.869-51.859,62.293-52.034,26.462,20.608,67.547,20.608,21.531-51.443,71.307-51.443,30.681,40.834,73.145,40.834,30.995-35.83,68.988-35.83,27.936-56.323,59.076-56.323,46.764,23.577,81.418,23.577S596.828,209,626.552,209s30.648-30.586,63.7-30.619,24.753,8.975,65.094,8.975,45.611-82.568,82.117-82.568,32.3,64.693,75.321,61.15,30.781-17.014,66.876-17.014S1001,108.8,1040.778,112.8s65.449-55.994,89.934-69,35.512-8.975,87.893-8.975q52.369,0,112.152-30.025" transform="translate(-0.2 -4.8)" fill="none" stroke="#fdc06e" stroke-linecap="round" stroke-linejoin="round" stroke-width="2.4"/>
                    </g>
                    <circle id="Oval-7" cx="3.5" cy="3.5" r="3.5" transform="translate(1326.556)" fill="#fff"/>
                  </g>
                  <path id="Path-8-2" data-name="Path-8" d="M0,226.428c36.2,0,50.264,17.656,78.435,17.656s28.956-51.986,62.48-52.161,26.542,20.658,67.751,20.658,26.1-51.981,73.616-51.981,25.882,39.6,68.475,39.6,33.883-34.172,71.99-34.172,28.02-56.461,59.254-56.461S528.9,133.2,563.662,133.2s34.759,76,64.573,76,22.158-30.7,63.889-30.7,47.122,17.5,77.167,6.7,33.871-80.472,70.486-80.472,31.7,64.224,74.848,60.672S946.2,148.6,982.4,148.6s22.077-35.8,62.54-35.8,72.029-60.5,92.774-69.5,31.024-8.7,83.554-8.7,57.393-7.8,113.288-30V272.2H0Z" transform="translate(0.001 -0.8)" fill-rule="evenodd" opacity="0.749" fill="url(#linear-gradient)"/>
                </g>
                <text id="_2016" data-name="2016" transform="translate(576.301 353.6)" fill="#fff" font-size="12" font-family="SegoeUI, Segoe UI" letter-spacing="0.014em"><tspan x="0" y="0">2016</tspan></text>
                <text id="_2014" data-name="2014" transform="translate(52 353.6)" fill="#fff" font-size="12" font-family="SegoeUI, Segoe UI" letter-spacing="0.014em"><tspan x="0" y="0">2014</tspan></text>
                <text id="_2017" data-name="2017" transform="translate(834.584 353.6)" fill="#fff" font-size="12" font-family="SegoeUI, Segoe UI" letter-spacing="0.014em"><tspan x="0" y="0">2017</tspan></text>
                <text id="_2015" data-name="2015" transform="translate(318.018 353.6)" fill="#fff" font-size="12" font-family="SegoeUI, Segoe UI" letter-spacing="0.014em"><tspan x="0" y="0">2015</tspan></text>
              </g>
              <text id="_2018" data-name="2018" transform="translate(1092.867 353.6)" fill="#fff" font-size="12" font-family="SegoeUI, Segoe UI" letter-spacing="0.014em"><tspan x="0" y="0">2018</tspan></text>
              <text id="_2020" data-name="2020" transform="translate(1352.756 353.6)" fill="#fff" font-size="12" font-family="SegoeUI, Segoe UI" letter-spacing="0.014em"><tspan x="0" y="0">2020</tspan></text>
            </g>
            <g id="Group-18" transform="translate(1126.556)">
              <rect id="Rectangle" width="160" height="108" rx="8" fill="#2c137b"/>
              <g id="Group-11" transform="translate(21 16)">
                <g id="chevrons-up" transform="translate(109 61.8)">
                  <path id="Shape" d="M8,4.167,4,0,0,4.167M8,10,4,5.833,0,10" fill="none" stroke="#fdc06e" stroke-linecap="round" stroke-width="1.6" fill-rule="evenodd"/>
                </g>
                <text id="Active_users" data-name="Active users" transform="translate(0 37.8)" fill="#fff" font-size="14" font-family="SegoeUI-Bold, Segoe UI" font-weight="700" letter-spacing="0.014em"><tspan x="0" y="0">Active users</tspan></text>
                <text id="_15.12.2018" data-name="15.12.2018" transform="translate(0 13)" fill="#7f7af0" font-size="12" font-family="SegoeUI-Bold, Segoe UI" font-weight="700" letter-spacing="0.014em"><tspan x="0" y="0">15.12.2018</tspan></text>
                <text id="_930K" data-name="930K" transform="translate(0 72.8)" fill="#fdc06e" font-size="20" font-family="SegoeUI-Bold, Segoe UI" font-weight="700" letter-spacing="0.014em"><tspan x="0" y="0">930K</tspan></text>
              </g>
            </g>
            <g id="Group-17" transform="translate(461.063 72)">
              <rect id="Rectangle-Copy-2" width="152" height="108" rx="8" fill="#2c137b"/>
              <g id="Group-11-2" data-name="Group-11" transform="translate(18 16.2)">
                <g id="chevrons-up-2" data-name="chevrons-up" transform="translate(109 60.8)">
                  <path id="Shape-2" data-name="Shape" d="M8,4.167,4,0,0,4.167M8,10,4,5.833,0,10" fill="none" stroke="#fdc06e" stroke-linecap="round" stroke-width="1.6" fill-rule="evenodd"/>
                </g>
                <text id="Active_users-2" data-name="Active users" transform="translate(0 37.8)" fill="#fff" font-size="14" font-family="SegoeUI-Bold, Segoe UI" font-weight="700" letter-spacing="0.014em"><tspan x="0" y="0">Active users</tspan></text>
                <text id="_15.10.2016" data-name="15.10.2016" transform="translate(0 13)" fill="#7f7af0" font-size="12" font-family="SegoeUI-Bold, Segoe UI" font-weight="700" letter-spacing="0.014em"><tspan x="0" y="0">15.10.2016</tspan></text>
                <text id="_480K" data-name="480K" transform="translate(0 72.8)" fill="#fdc06e" font-size="20" font-family="SegoeUI-Bold, Segoe UI" font-weight="700" letter-spacing="0.014em"><tspan x="0" y="0">480K</tspan></text>
              </g>
            </g>
          </g>
          <g id="Line" transform="translate(1206.556 159.301)">
            <path id="Path_10606" data-name="Path 10606" d="M1037,171V382.059" transform="translate(-1037 -171)"/>
            <path id="Path_10607" data-name="Path 10607" stroke="#d6a075" d="M1037,171V382.059" fill="none" transform="translate(-1037 -171)" stroke-linecap="square" stroke-linejoin="round" stroke-width="1" stroke-dasharray="4 10"/>
          </g>
          <g id="Line-2" data-name="Line" transform="translate(537.512 232.301)">
            <path id="Path_10606-2" data-name="Path 10606" d="M1037.045,171V309.452" transform="translate(-1037.045 -171)"/>
            <path id="Path_10607-2" data-name="Path 10607" stroke="#d6a075" d="M1037.045,171V309.452" fill="none" transform="translate(-1037.045 -171)" stroke-linecap="square" stroke-linejoin="round" stroke-width="1" stroke-dasharray="4 10"/>
          </g>
          <circle id="Oval" cx="7" cy="7" r="7" transform="translate(1199.556 143)" fill="#fdc06e" stroke="#fff" stroke-width="4"/>
          <circle id="Oval-2" data-name="Oval" cx="7" cy="7" r="7" transform="translate(530.556 216)" fill="#fdc06e" stroke="#fff" stroke-width="4"/>
        </g>
      </g>
    </g>
  </g>
</svg>
