<svg xmlns="http://www.w3.org/2000/svg" xmlns:xlink="http://www.w3.org/1999/xlink" width="338.248" height="400.6" viewBox="0 0 338.248 400.6">
  <defs>
    <clipPath id="clip-path">
      <rect id="Rectangle_1725" data-name="Rectangle 1725" width="305" height="388" transform="translate(-24.73 -101)" fill="#fff" stroke="#707070" stroke-width="1"/>
    </clipPath>
    <linearGradient id="linear-gradient" x1="0.538" y1="0.45" x2="0.533" y2="0.579" gradientUnits="objectBoundingBox">
      <stop offset="0" stop-color="#ffc892" stop-opacity="0.149"/>
      <stop offset="1" stop-color="#ccdeff" stop-opacity="0"/>
    </linearGradient>
  </defs>
  <g id="monitoring-bg" transform="translate(0.602 -15)">
    <text id="Number_of_users" data-name="Number of users" transform="translate(0 76)" fill="#fff" font-size="16" font-family="Helvetica-Bold, Helvetica" font-weight="700"><tspan x="0" y="0">Number of users</tspan></text>
    <text id="_50K" data-name="50K" transform="translate(11.355 369.6)" fill="#fff" font-size="12" font-family="Avenir-Book, Avenir" letter-spacing="0.014em"><tspan x="0" y="0">50K</tspan></text>
    <text id="_100K" data-name="100K" transform="translate(4.511 291.6)" fill="#fff" font-size="12" font-family="Avenir-Book, Avenir" letter-spacing="0.014em"><tspan x="0" y="0">100K</tspan></text>
    <text id="_500K" data-name="500K" transform="translate(3.652 213.6)" fill="#fff" font-size="12" font-family="Avenir-Book, Avenir" letter-spacing="0.014em"><tspan x="0" y="0">500K</tspan></text>
    <text id="_1MLN" data-name="1MLN" transform="translate(-0.601 136)" fill="#fff" font-size="12" font-family="Avenir-Book, Avenir" letter-spacing="0.014em"><tspan x="0" y="0">1MLN</tspan></text>
    <g id="Group_5130" data-name="Group 5130" transform="translate(56.128 116)">
      <g id="Group_5129" data-name="Group 5129">
        <g id="Mask_Group_1" data-name="Mask Group 1" clip-path="url(#clip-path)">
          <path id="Path_25745" data-name="Path 25745" d="M.116,224.187c18.97,0,25.26,17.613,39.418,17.613s14.551-51.859,31.4-52.034,13.338,20.608,34.047,20.608,10.853-51.443,35.943-51.443,15.465,40.834,36.87,40.834,15.623-35.83,34.774-35.83S234.314,45.644,250.011,45.644s15.906,85.545,33.374,85.545S300.852,207,315.835,207s15.448-30.586,32.107-30.62,12.477,8.976,32.811,8.976,22.991-82.568,41.392-82.568,16.283,64.693,37.966,61.15,15.516-17.014,33.71-17.014S504.579,106.8,524.63,110.8s32.99-55.994,45.331-69,17.9-8.975,44.3-8.975q26.4,0,56.534-30.025" fill="none" stroke="#fdc06e" stroke-linecap="round" stroke-linejoin="round" stroke-width="2.4"/>
          <path id="Path_25752" data-name="Path 25752" d="M.172,225.96c18.257,0,25.347,17.682,39.554,17.682s14.6-52.063,31.508-52.24,13.385,20.69,34.166,20.69,13.164-52.059,37.124-52.059,13.053,39.66,34.532,39.66,17.086-34.224,36.3-34.224S237.186,49.043,252.938,49.043s13.957,83.551,31.484,83.551S301.95,208.7,316.985,208.7s11.174-30.74,32.218-30.74,23.764,17.524,38.915,6.708,17.08-80.593,35.545-80.593S439.65,168.4,461.409,164.84s15.921-16.825,34.178-16.825,11.134-35.853,31.539-35.853,36.324-60.59,46.785-69.6,15.645-8.713,42.135-8.713,28.941-7.812,57.13-30.045v268H.172V225.96Z" transform="translate(-2.747 -0.8)" fill-rule="evenodd" opacity="0.749" fill="url(#linear-gradient)"/>
          <path id="Path_25753" data-name="Path 25753" d="M44.33,369.6H727.122v1.2H44.33Z" transform="translate(-56.128 -116)" fill="#e1e1ed" fill-rule="evenodd" opacity="0.221"/>
          <path id="Path_25754" data-name="Path 25754" d="M44.33,291.6H727.122v1.2H44.33Z" transform="translate(-56.128 -116)" fill="#e1e1ed" fill-rule="evenodd" opacity="0.221"/>
          <path id="Path_25755" data-name="Path 25755" d="M43.471,213.6H726.263v1.2H43.471Z" transform="translate(-56.128 -116)" fill="#e1e1ed" fill-rule="evenodd" opacity="0.221"/>
          <path id="Path_25756" data-name="Path 25756" d="M44.33,136H727.122v1.2H44.33Z" transform="translate(-56.128 -116)" fill="#e1e1ed" fill-rule="evenodd" opacity="0.221"/>
        </g>
      </g>
    </g>
    <text id="_2020" data-name="2020" transform="translate(309.646 412.6)" fill="#fff" font-size="12" font-family="Helvetica" letter-spacing="0.014em"><tspan x="0" y="0">2020</tspan></text>
    <text id="_2018" data-name="2018" transform="translate(44.393 412.6)" fill="#fff" font-size="12" font-family="Helvetica" letter-spacing="0.014em"><tspan x="0" y="0">2018</tspan></text>
    <text id="_2019" data-name="2019" transform="translate(183.59 412.6)" fill="#fff" font-size="12" font-family="Helvetica" letter-spacing="0.014em"><tspan x="0" y="0">2019</tspan></text>
    <g id="Group_5132" data-name="Group 5132" transform="translate(121 125)">
      <rect id="Rectangle_1724" data-name="Rectangle 1724" width="152" height="108" rx="8" fill="#2c137b"/>
      <path id="Path_25747" data-name="Path 25747" d="M135,81.167,131,77l-4,4.167M135,87l-4-4.167L127,87" fill="none" stroke="#fdc06e" stroke-linecap="round" stroke-width="1.6" fill-rule="evenodd"/>
      <text id="Active_users" data-name="Active users" transform="translate(18 54)" fill="#fff" font-size="14" font-family="Helvetica-Bold, Helvetica" font-weight="700" letter-spacing="0.014em"><tspan x="0" y="0">Active users</tspan></text>
      <text id="_15.10.2016" data-name="15.10.2016" transform="translate(18 29.2)" fill="#7f7af0" font-size="12" font-family="Helvetica-Bold, Helvetica" font-weight="700" letter-spacing="0.014em"><tspan x="0" y="0">15.10.2016</tspan></text>
      <text id="_480K" data-name="480K" transform="translate(18 89)" fill="#fdc06e" font-size="20" font-family="Helvetica-Bold, Helvetica" font-weight="700" letter-spacing="0.014em"><tspan x="0" y="0">480K</tspan></text>
    </g>
    <g id="Group_5134" data-name="Group 5134" transform="translate(-98 43)">
      <path id="Path_25750" data-name="Path 25750" d="M295,235v93.2" transform="translate(0)"/>
      <path id="Path_25751" data-name="Path 25751" stroke="#d6a075" d="M295,235v93.2" fill="none" transform="translate(0)" stroke-linecap="square" stroke-linejoin="round" stroke-width="1" stroke-dasharray="4 10"/>
    </g>
    <circle id="Ellipse_1278" data-name="Ellipse 1278" cx="7" cy="7" r="7" transform="translate(190 268)" fill="#fdc06e" stroke="#fff" stroke-width="4"/>
  </g>
</svg>
