<?xml version="1.0" encoding="UTF-8"?>
<svg width="46px" height="46px" viewBox="0 0 46 46" version="1.1" xmlns="http://www.w3.org/2000/svg" xmlns:xlink="http://www.w3.org/1999/xlink">
    <!-- Generator: sketchtool 53.2 (72643) - https://sketchapp.com -->
    <title>420E78E9-B060-4873-AF0D-01FF2341917E</title>
    <desc>Created with sketchtool.</desc>
    <g id="FINALL" stroke="none" stroke-width="1" fill="none" fill-rule="evenodd" opacity="0.26281157">
        <g id="Homepage---mobile-375px" transform="translate(-18.000000, -5367.000000)" fill-rule="nonzero">
            <g id="Bitcoin" transform="translate(41.169132, 5390.169132) rotate(-15.000000) translate(-41.169132, -5390.169132) translate(18.169132, 5367.169132)">
                <path d="M44.6334576,28.3952286 C41.6546091,40.3433801 29.5531243,47.614865 17.6035788,44.6353195 C5.65891217,41.656471 -1.61257268,29.5542892 1.36766974,17.6068347 C4.34512429,5.6572892 16.4466091,-1.61489262 28.3926697,1.36395587 C40.3415182,4.34280435 47.6123061,16.4463801 44.6334576,28.3952286 Z" id="Path" fill="#B2ACBE"></path>
                <path d="M30.6229496,20.1177483 C30.9710018,17.7742322 29.1995966,16.5144134 26.7774376,15.6739839 L27.5631503,12.4993947 L25.6447654,12.0178126 L24.8798156,15.1087441 C24.3754951,14.9821568 23.8575148,14.8627244 23.3428129,14.7443928 L24.1132266,11.6330973 L22.1959345,11.1515152 L21.4096754,14.3250036 C20.9922313,14.2292376 20.5824368,14.1345723 20.1846629,14.0349536 L20.1868484,14.0250468 L17.5412148,13.3596379 L17.030884,15.4235612 C17.030884,15.4235612 18.4542371,15.7521378 18.4241855,15.7725018 C19.2011559,15.9678866 19.3415789,16.4857937 19.318084,16.8963768 L18.4230927,20.5129208 C18.4766392,20.5266803 18.5460311,20.546494 18.622526,20.5773152 C18.5585981,20.5613542 18.490299,20.5437421 18.4198143,20.5266803 L17.1652966,25.592924 C17.0702243,25.830688 16.8292651,26.1873339 16.2861507,26.0519406 C16.3052745,26.0800099 14.8917565,25.7013488 14.8917565,25.7013488 L13.9393939,27.9133242 L16.4358623,28.5402065 C16.9002962,28.6574373 17.3554413,28.780172 17.8034833,28.8957517 L17.0095747,32.1066659 L18.925774,32.5882481 L19.7120332,29.4114573 C20.2354774,29.554556 20.7436226,29.6866471 21.24084,29.8110329 L20.4573128,32.9729634 L22.3756977,33.4545455 L23.1696064,30.2496854 C26.4408596,30.8732654 28.9007197,30.6217419 29.936134,27.6414367 C30.7704757,25.2417819 29.8946081,23.8575773 28.173471,22.9549549 C29.4268959,22.6638041 30.3710626,21.8332814 30.6229496,20.1177483 L30.6229496,20.1177483 Z M26.2397871,26.3089678 C25.646951,28.7086226 21.635882,27.4113781 20.3354673,27.0861037 L21.3889124,22.8322202 C22.6893271,23.1591457 26.8593965,23.806392 26.2397871,26.3089678 Z M26.8331696,20.0830744 C26.2922408,22.2658797 22.9537812,21.1568649 21.8708308,20.8849774 L22.8259253,17.0268168 C23.9088757,17.2987043 27.3965005,17.8061542 26.8331696,20.0830744 L26.8331696,20.0830744 Z" id="Shape" fill="#FFFFFF"></path>
            </g>
        </g>
    </g>
</svg>