<svg xmlns="http://www.w3.org/2000/svg" width="47" height="47" viewBox="0 0 47 47">
    <g fill="none" fill-rule="evenodd">
        <rect width="47" height="47" fill="#FDC06E" rx="7"/>
        <g fill="#FFF">
            <path d="M35.304 25.014a6.815 6.815 0 0 0 2.776-5.48c0-3.729-3.028-6.788-6.717-6.788h-8.104c-3.531 0-6.432 2.772-6.684 6.277H14.84c-3.72 0-6.716 3.027-6.716 6.787 0 2.198 1.04 4.238 2.775 5.48-.253.478-.505.924-.789 1.275a1.595 1.595 0 0 0-.032 1.816c.284.446.757.67 1.262.67.125 0 .283-.033.41-.064 2.112-.574 4.067-1.593 5.393-2.422h5.801c3.406 0 6.244-2.581 6.654-5.927 1.261.733 2.964 1.593 4.825 2.07.125.033.283.064.41.064.505 0 .978-.255 1.261-.67a1.543 1.543 0 0 0-.032-1.815c-.252-.35-.505-.796-.757-1.274zm-12.36 5.958h-6.023a.636.636 0 0 0-.41.127c-.978.605-2.901 1.72-4.983 2.294.41-.574.788-1.242 1.167-2.039.19-.382.032-.829-.348-1.052A5.206 5.206 0 0 1 9.73 25.81c0-2.836 2.302-5.162 5.108-5.162h8.103c2.806 0 5.108 2.326 5.108 5.162.003 2.836-2.267 5.163-5.105 5.163zm10.91-6.947a.792.792 0 0 0-.314 1.052c.378.797.756 1.466 1.166 2.039-2.082-.605-4.004-1.69-4.982-2.327-.032-.032-.063-.032-.126-.063-.505-3.25-3.279-5.736-6.622-5.736l-4.794.002c.253-2.613 2.428-4.653 5.078-4.653h8.103c2.806 0 5.108 2.326 5.108 5.161a5.218 5.218 0 0 1-2.616 4.525z"/>
            <path d="M23.575 23.229H14.21a.785.785 0 0 0-.788.796c0 .446.347.797.788.797h9.365a.785.785 0 0 0 .788-.797.785.785 0 0 0-.788-.796zM23.575 26.766H14.21a.785.785 0 0 0-.788.797c0 .445.347.796.788.796h9.365a.785.785 0 0 0 .788-.796.785.785 0 0 0-.788-.797z"/>
        </g>
    </g>
</svg>
