<svg xmlns="http://www.w3.org/2000/svg" xmlns:xlink="http://www.w3.org/1999/xlink" width="377" height="193" viewBox="0 0 377 193">
    <defs>
        <rect id="b" width="267" height="79" rx="14"/>
        <filter id="a" width="177.5%" height="362%" x="-34.6%" y="-89.2%" filterUnits="objectBoundingBox">
            <feOffset dx="11" dy="33" in="SourceAlpha" result="shadowOffsetOuter1"/>
            <feGaussianBlur in="shadowOffsetOuter1" result="shadowBlurOuter1" stdDeviation="29"/>
            <feComposite in="shadowBlurOuter1" in2="SourceAlpha" operator="out" result="shadowBlurOuter1"/>
            <feColorMatrix in="shadowBlurOuter1" values="0 0 0 0 0.264766954 0 0 0 0 0.270541014 0 0 0 0 0.421110734 0 0 0 0.106561407 0"/>
        </filter>
    </defs>
    <g fill="none" fill-rule="evenodd">
        <g transform="translate(42 24)">
            <use fill="#000" filter="url(#a)" xlink:href="#b"/>
            <use fill="#FFF" fill-opacity=".801" xlink:href="#b"/>
        </g>
        <circle cx="24" cy="24" r="24" fill="#FDC06E" transform="translate(63 40)"/>
        <path fill="#FFF" d="M75.83 56c-.239 0-.46.047-.668.13l10.747 9.407c.372.325.84.325 1.21 0l10.728-9.407a1.848 1.848 0 0 0-.676-.13H75.829zm-1.801 1.537c-.017.1-.029.2-.029.306v12.314c0 .268.071.512.171.741l7.365-6.787-7.507-6.574zm24.952.01l-7.489 6.555 7.356 6.797c.1-.228.152-.475.152-.741V57.843c0-.102-.004-.2-.02-.296zm-8.851 7.75l-1.782 1.564a2.813 2.813 0 0 1-3.668 0L82.9 65.306l-7.25 6.685c.061.006.117.009.18.009h21.342c.066 0 .136-.003.2-.01l-7.241-6.694z"/>
        <g>
            <text fill="#1A1A23" font-family="AvenirNext-DemiBold, Avenir Next" font-size="14" font-weight="500" letter-spacing="-.28" transform="translate(138 42)">
                <tspan x="0" y="37">Select your currency</tspan>
            </text>
            <text fill="#FDC06E" font-family="AvenirNext-Bold, Avenir Next" font-size="11" font-weight="bold" letter-spacing="-.22" transform="translate(138 42)">
                <tspan x="0" y="11">Papayabot</tspan>
            </text>
        </g>
    </g>
</svg>
