<svg xmlns="http://www.w3.org/2000/svg" width="59" height="59" viewBox="0 0 59 59">
    <g fill="none" fill-rule="evenodd" opacity=".263">
        <path fill="#B2ACBE" fill-rule="nonzero" d="M58.689 29.5c0 16.207-13.138 29.345-29.344 29.345C13.138 58.845 0 45.707 0 29.501 0 13.294 13.138.156 29.345.156c16.206 0 29.344 13.138 29.344 29.345z"/>
        <path fill="#FFF" d="M36.433 32.6a4.056 4.056 0 0 0-.537-1.012c-.251-.358-.464-.641-.637-.847-.174-.207-.458-.468-.855-.784a20.457 20.457 0 0 0-.895-.683l-1.074-.745a55.887 55.887 0 0 0-1.095-.745c-.29-.222-.67-.49-1.135-.805l-.974-.662a8.96 8.96 0 0 1-.677-.517c-.267-.221-.444-.406-.538-.558a3.291 3.291 0 0 1-.257-.538c-.08-.207-.12-.42-.12-.641 0-.524.213-.937.637-1.241a2.349 2.349 0 0 1 1.392-.455c.53 0 1.272.201 2.23.6.954.4 1.471.6 1.551.6.107 0 .171-.042.2-.125.21-.249.637-.95 1.272-2.108.637-1.158.955-1.82.955-1.984 0-.055-.06-.125-.18-.208a8.687 8.687 0 0 0-.457-.29l-.558-.333a6.906 6.906 0 0 0-.537-.29c-.173-.083-.273-.141-.297-.169-1.221-.413-2.256-.669-3.104-.752-.053-.385-.08-.966-.08-1.709 0-.138-.053-.418-.16-.72l-.278-.129h-2.944c-.317 0-.477.268-.477.625 0 .25.013.68.04 1.149.027.468.04.821.04 1.04-3.661.8-5.49 2.995-5.49 6.577 0 .773.133 1.511.397 2.215.266.704.544 1.283.837 1.737.29.455.788.971 1.492 1.55.702.58 1.234.985 1.592 1.22.36.234 1.001.628 1.93 1.18.927.55 1.511.908 1.75 1.075.956.745 1.433 1.612 1.433 2.604 0 1.075-.69 1.613-2.07 1.613-1.565 0-2.93-.333-4.098-.992-.08-.028-.344-.201-.795-.517-.45-.316-.821-.49-1.114-.517-1.379 2.15-2.203 3.666-2.467 4.547 0 .138.438.494 1.315 1.073a14.53 14.53 0 0 0 5.093 1.815c0 .305-.014.766-.04 1.4-.027.635-.04 1.092-.04 1.394 0 .221-.027.376-.08.512l.16.044c.08 0 .173-.044.277-.044h2.984c.32 0 .478-.05.478-.408s-.007-.762-.02-1.438a83.42 83.42 0 0 1-.02-1.501c1.856-.386 3.401-1.258 4.635-2.621 1.235-1.366 1.852-3.008 1.852-4.939 0-.496-.047-.964-.14-1.405-.093-.44-.195-.821-.302-1.137z"/>
    </g>
</svg>
