<svg xmlns="http://www.w3.org/2000/svg" width="45" height="45" viewBox="0 0 45 45">
    <g fill="none" fill-rule="nonzero" opacity=".263">
        <path fill="#B2ACBE" d="M44.763 22.381c0 12.361-10.02 22.382-22.382 22.382C10.021 44.763 0 34.743 0 22.38 0 10.021 10.02 0 22.381 0s22.382 10.02 22.382 22.381z"/>
        <path fill="#FFF" d="M30.16 27.98c-.683.322-2.205.76-3.692.76-1.62 0-3.144-.438-4.178-1.495-.488-.495-.844-1.172-1.07-2.05h8.131v-2.08h-8.583v-.47c0-.322 0-.612.03-.908h8.554v-2.08h-8.065c.229-.761.548-1.435 1.037-1.904 1.002-1.085 2.43-1.583 3.953-1.583 1.42 0 2.784.382 3.626.704l.904-3.34c-1.167-.467-2.913-.878-4.858-.878-3.076 0-5.668 1.112-7.48 3.019a8.635 8.635 0 0 0-2.235 3.984h-2.172v2.078h1.816c0 .296-.033.587-.033.88v.497h-1.783v2.082h2.108c.292 1.556.938 2.812 1.813 3.807 1.816 2.168 4.696 3.34 7.9 3.34 2.075 0 3.954-.556 5.055-1.11l-.778-3.254z"/>
    </g>
</svg>
