<?xml version="1.0" encoding="UTF-8"?>
<svg width="35px" height="35px" viewBox="0 0 35 35" version="1.1" xmlns="http://www.w3.org/2000/svg" xmlns:xlink="http://www.w3.org/1999/xlink">
    <!-- Generator: sketchtool 53.2 (72643) - https://sketchapp.com -->
    <title>E2F632F9-D44E-471D-BD10-2098A3E89698</title>
    <desc>Created with sketchtool.</desc>
    <g id="FINALL" stroke="none" stroke-width="1" fill="none" fill-rule="evenodd" opacity="0.26281157">
        <g id="Homepage---mobile-375px" transform="translate(-159.000000, -5187.000000)">
            <g id="Group-38" transform="translate(159.000000, 5187.000000)">
                <g id="Group-42">
                    <path d="M34.8153776,17.5003172 C34.8153776,27.114426 27.0217976,34.9082175 17.4077946,34.9082175 C7.7936858,34.9082175 3.05533376e-13,27.114426 3.05533376e-13,17.5003172 C3.05533376e-13,7.8863142 7.7936858,0.0926283988 17.4077946,0.0926283988 C27.0216918,0.0926283988 34.8153776,7.8863142 34.8153776,17.5003172 Z" id="Combined-Shape-Copy" fill="#B2ACBE" fill-rule="nonzero"></path>
                    <path d="M21.6128402,19.3393356 C21.5496208,19.1518514 21.4429368,18.9506762 21.29411,18.7385847 C21.1452798,18.5264686 21.018841,18.3581581 20.9161086,18.2363473 C20.8133763,18.1131843 20.6447913,17.9585438 20.4090386,17.7710701 C20.1732826,17.5835859 19.9954659,17.4481052 19.8782656,17.3660152 L19.2408119,16.9240001 C18.9339332,16.711884 18.7179286,16.564103 18.5914898,16.481985 C18.4189532,16.3506101 18.1937303,16.1918673 17.9184647,16.0043761 C17.6431957,15.8168919 17.4495961,15.685517 17.3402856,15.6116178 C17.2296533,15.5377185 17.0966263,15.4350815 16.9385812,15.3050764 C16.7805327,15.1737016 16.6751671,15.0642225 16.619851,14.9739032 C16.5645348,14.8835839 16.5144853,14.7782107 16.4670725,14.6550442 C16.4196596,14.5318811 16.3959498,14.4059784 16.3959498,14.2746176 C16.3959498,13.9639704 16.5223886,13.7190246 16.7739512,13.5383579 C17.0255103,13.3590855 17.3007793,13.2687661 17.599748,13.2687661 C17.9145266,13.2687661 18.3544357,13.3878233 18.9220952,13.6245643 C19.4884397,13.8613123 19.7952981,13.9803624 19.842738,13.9803624 C19.9059573,13.9803624 19.944152,13.9557305 19.9612735,13.9064632 C20.0863939,13.7586647 20.3392748,13.3426373 20.7159611,12.6556694 C21.0939625,11.9687016 21.2823057,11.5759433 21.2823057,11.4787609 C21.2823057,11.4459172 21.2467443,11.4048617 21.1756217,11.3555979 C21.104499,11.306334 21.0136216,11.2488549 20.9043043,11.1831675 L20.5737192,10.9861052 C20.4630836,10.9204178 20.357718,10.8629421 20.254989,10.8136748 C20.15226,10.7644075 20.0929889,10.7301975 20.0785007,10.7137739 C19.3541246,10.4688141 18.7403403,10.3169167 18.2372489,10.2676599 C18.2056392,10.0391237 18.189836,9.69426993 18.189836,9.25362114 C18.189836,9.1715101 18.1582263,9.00592523 18.095007,8.82663533 L17.9303736,8.75 L16.1839339,8.75 C15.9955941,8.75 15.9007651,8.90874287 15.9007651,9.12086247 C15.9007651,9.26866094 15.9086683,9.52455113 15.9244715,9.80236517 C15.940278,10.0801792 15.9481813,10.2895382 15.9481813,10.4195467 C13.7763342,10.8944231 12.6910513,12.1958399 12.6910513,14.3212049 C12.6910513,14.7796506 12.7700772,15.2175668 12.9268073,15.6349535 C13.0848558,16.0523401 13.2494892,16.3958416 13.4233576,16.6654228 C13.5958943,16.9350145 13.8909113,17.2415454 14.308429,17.5850468 C14.7246317,17.9285378 15.0407286,18.1694022 15.2527748,18.3089748 C15.4661394,18.4471917 15.8467673,18.6812036 16.3972985,19.0082745 C16.9478297,19.3353418 17.2942382,19.5474719 17.4364566,19.6459855 C18.0028011,20.0880006 18.2859565,20.6025697 18.2859565,21.1910239 C18.2859565,21.828735 17.8763623,22.1476081 17.0584552,22.1476081 C16.1299227,22.1476081 15.3199391,21.9505458 14.6271558,21.5591538 C14.579743,21.5427302 14.4230095,21.4400967 14.1556572,21.2526125 C13.8882915,21.0651283 13.6683454,20.9624948 13.4945005,20.9460711 C12.6765934,22.2214933 12.1879666,23.1205878 12.03125,23.6433546 C12.03125,23.7254622 12.2907125,23.936212 12.8109557,24.2796994 C13.7711148,24.8352925 14.7786463,25.1938582 15.8323027,25.356693 C15.8323027,25.5373352 15.8243994,25.8110398 15.8085963,26.1873675 C15.7927897,26.5636951 15.7848865,26.8346777 15.7848865,27.0139431 C15.7848865,27.1453179 15.7690833,27.2370071 15.7374736,27.3177483 L15.8323027,27.34375 C15.8797155,27.34375 15.935035,27.3177483 15.9969361,27.3177483 L17.7670788,27.3177483 C17.9567369,27.3177483 18.0502476,27.2876407 18.0502476,27.0755246 C18.0502476,26.8634085 18.046296,26.6239104 18.0383961,26.2229543 C18.0304928,25.8219982 18.0265412,25.5291199 18.0265412,25.3320576 C19.1276037,25.1035214 20.0443016,24.5862338 20.7765675,23.7774551 C21.5088671,22.9673101 21.875,21.9929291 21.875,20.8475155 C21.875,20.5532918 21.8473419,20.2754918 21.7920258,20.0141084 C21.7367097,19.7527285 21.6761236,19.5269354 21.6129042,19.3394372 L21.6128402,19.3393356 Z" id="Fill-2" fill="#FFFFFF"></path>
                </g>
            </g>
        </g>
    </g>
</svg>