<?xml version="1.0" encoding="UTF-8"?>
<svg width="59px" height="59px" viewBox="0 0 59 59" version="1.1" xmlns="http://www.w3.org/2000/svg" xmlns:xlink="http://www.w3.org/1999/xlink">
    <!-- Generator: sketchtool 53.2 (72643) - https://sketchapp.com -->
    <title>F568AE21-9EA6-412D-ABF8-7CB8C4798F71</title>
    <desc>Created with sketchtool.</desc>
    <g id="FINALL" stroke="none" stroke-width="1" fill="none" fill-rule="evenodd" opacity="0.26281157">
        <g id="About-us---tablet" transform="translate(-114.000000, -2729.000000)" fill="#5438DC" fill-rule="nonzero">
            <g id="Group-38" transform="translate(114.000000, 2729.000000)">
                <g id="Group-42">
                    <path d="M58.6887795,29.3443897 C58.6887795,45.5510302 45.5510302,58.689136 29.344568,58.689136 C13.1379275,58.689136 -1.3500312e-12,45.5510302 -1.3500312e-12,29.3443897 C-1.3500312e-12,13.1379275 13.1379275,2.4158453e-13 29.344568,2.4158453e-13 C45.550852,2.4158453e-13 58.6887795,13.1379275 58.6887795,29.3443897 Z M36.4330734,32.4444493 C36.3265036,32.1284045 36.1466649,31.7892806 35.8957854,31.4317548 C35.6449002,31.0741877 35.4317605,30.7904643 35.2585832,30.5851262 C35.0854058,30.3775085 34.8012196,30.1168288 34.403808,29.8008018 C34.0063907,29.484757 33.7066425,29.2563751 33.5090762,29.1179948 L32.4345115,28.3728837 C31.9172017,28.0153165 31.5530796,27.7662001 31.33994,27.6277725 C31.0490925,27.406312 30.6694312,27.1387169 30.205412,26.8226603 C29.7413871,26.5066156 29.4150334,26.2851551 29.2307671,26.1605821 C29.0442727,26.0360091 28.8200271,25.8629924 28.5536083,25.643841 C28.2871837,25.4223805 28.1095674,25.2378301 28.0163202,25.0855775 C27.923073,24.9333249 27.8387038,24.7556959 27.7587793,24.5480723 C27.6788548,24.3404546 27.6388869,24.1282186 27.6388869,23.9067818 C27.6388869,23.3831193 27.8520265,22.9702107 28.2760891,22.6656582 C28.700146,22.3634562 29.1641709,22.2112036 29.6681466,22.2112036 C30.1987734,22.2112036 30.9403345,22.4119 31.8972461,22.8109776 C32.8519412,23.2100671 33.3692168,23.4107517 33.4491868,23.4107517 C33.5557567,23.4107517 33.6201419,23.3692293 33.6490038,23.2861787 C33.8599211,23.0370327 34.2862061,22.3357294 34.9211916,21.1776978 C35.5583939,20.0196662 35.8758867,19.3575879 35.8758867,19.1937662 C35.8758867,19.1384011 35.8159404,19.0691932 35.696048,18.9861485 C35.5761555,18.9031038 35.4229621,18.8062104 35.2386844,18.6954802 L34.6814124,18.3632895 C34.4949124,18.2525592 34.317296,18.1556717 34.1441243,18.0726211 C33.9709527,17.9895705 33.8710385,17.9319022 33.8466155,17.9042167 C32.6255244,17.4912844 31.5908594,17.2352288 30.742791,17.1521959 C30.6895061,16.7669492 30.6628665,16.1856243 30.6628665,15.4428163 C30.6628665,15.3044006 30.6095815,15.0252718 30.5030117,14.7230403 L30.2254869,14.593855 L27.2814886,14.593855 C26.9640015,14.593855 26.8041468,14.8614501 26.8041468,15.2190231 C26.8041468,15.4681691 26.8174695,15.8995269 26.8441091,16.367842 C26.8707544,16.8361571 26.884077,17.1890765 26.884077,17.4082338 C23.2229634,18.2087396 21.3934865,20.4025566 21.3934865,23.9853146 C21.3934865,24.7581231 21.5267016,25.4963247 21.7909038,26.1999194 C22.0573283,26.9035141 22.3348532,27.4825594 22.6279457,27.9369963 C22.9187932,28.3914509 23.4161077,28.9081743 24.1199232,29.4872196 C24.821522,30.0662472 25.354371,30.4722758 25.7118204,30.7075554 C26.0714921,30.9405496 26.713122,31.3350268 27.6411603,31.8863748 C28.5691987,32.4377169 29.1531445,32.7953076 29.3928839,32.9613735 C30.3475789,33.7064846 30.824898,34.573901 30.824898,35.5658668 C30.824898,36.6408655 30.1344393,37.1783943 28.7556817,37.1783943 C27.1904411,37.1783943 25.8250402,36.8462036 24.6572055,36.1864286 C24.577281,36.1587431 24.3130731,35.9857322 23.8623936,35.6696875 C23.4116914,35.3536427 23.0409251,35.1806319 22.7478723,35.1529463 C21.3691147,37.3029437 20.5454295,38.8185601 20.28125,39.6997957 C20.28125,39.8382055 20.7186296,40.1934695 21.5956111,40.7724912 C23.214165,41.7090623 24.9125752,42.3135017 26.6887388,42.5879946 C26.6887388,42.8925057 26.6754162,43.3538935 26.6487765,43.9882744 C26.6221313,44.6226554 26.6088086,45.0794545 26.6088086,45.3816447 C26.6088086,45.6031052 26.582169,45.7576669 26.5288841,45.8937735 L26.6887388,45.937605 C26.7686633,45.937605 26.8619162,45.8937735 26.9662637,45.8937735 L29.9502185,45.8937735 C30.2699279,45.8937735 30.4275603,45.8430207 30.4275603,45.4854536 C30.4275603,45.1278864 30.420899,44.724161 30.407582,44.0482637 C30.3942594,43.3723663 30.387598,42.8786571 30.387598,42.5464663 C32.2436748,42.1612196 33.7889655,41.2892205 35.0233566,39.9258507 C36.2578045,38.5601778 36.875,36.9176497 36.875,34.9868096 C36.875,34.4908327 36.8283764,34.0225412 36.7351292,33.5819234 C36.6418821,33.1413116 36.5397513,32.7606889 36.4331814,32.4446206 L36.4330734,32.4444493 Z" id="Combined-Shape"></path>
                </g>
            </g>
        </g>
    </g>
</svg>