<svg xmlns="http://www.w3.org/2000/svg" width="47" height="47" viewBox="0 0 47 47">
    <g fill="none" fill-rule="evenodd">
        <rect width="47" height="47" fill="#5438DC" rx="7"/>
        <g stroke="#FFF">
            <g fill="#FFF" stroke-width=".8">
                <path fill-rule="nonzero" d="M20.213 23.016h-7.186c-.594 0-1.078.477-1.078 1.062v9.911c0 .585.484 1.062 1.078 1.062h7.186c.594 0 1.078-.477 1.078-1.062v-9.911c0-.585-.484-1.062-1.078-1.062zm.36 10.953a.356.356 0 0 1-.36.352h-7.186a.356.356 0 0 1-.36-.352v-9.871c0-.194.162-.353.36-.353h7.186c.198 0 .36.159.36.353v9.87z"/>
                <path d="M33.155 11.95H14.627a1.855 1.855 0 0 0-1.853 1.853v6.674a.37.37 0 1 0 .741 0v-6.674c0-.613.5-1.112 1.112-1.112h18.528c.613 0 1.111.499 1.111 1.112V26.78c0 .654-.523 1.483-1.111 1.483H23.52a.37.37 0 0 0 0 .741h9.635c1.043 0 1.852-1.196 1.852-2.224V13.803a1.855 1.855 0 0 0-1.852-1.854z"/>
                <path d="M23.15 24.954c0 .22.152.398.341.398h8.877c.188 0 .341-.179.341-.398 0-.22-.153-.399-.341-.399H23.49c-.189 0-.341.179-.341.399z"/>
            </g>
            <path stroke-linecap="round" stroke-linejoin="round" stroke-width="1.36" d="M26.876 28.725v3.36h-3.271"/>
        </g>
    </g>
</svg>
