<svg xmlns="http://www.w3.org/2000/svg" width="47" height="47" viewBox="0 0 47 47">
    <g fill="none" fill-rule="evenodd">
        <rect width="47" height="47" fill="#74CFAD" rx="7"/>
        <g fill="#FFF" stroke="#FFF" stroke-width=".96">
            <path fill-rule="nonzero" d="M33.106 16.202l-9.562-4.995a.484.484 0 0 0-.453.003l-9.298 4.995a.465.465 0 0 0-.247.41v6.524c.006 5.363 3.247 10.215 8.26 12.363l1.29.552c.121.051.259.052.38 0l1.454-.615c5.106-2.102 8.427-7.001 8.428-12.43v-6.395a.466.466 0 0 0-.252-.412zm-.7 6.807c-.001 5.054-3.095 9.615-7.849 11.571l-.003.002-1.267.536-1.1-.471c-4.666-2-7.684-6.516-7.69-11.508V16.89l8.826-4.74 9.083 4.744v6.115z"/>
            <path d="M19.81 22.836a.483.483 0 0 0-.67-.052.46.46 0 0 0-.054.658l2.515 2.887a.483.483 0 0 0 .662.059l5.857-4.671a.46.46 0 0 0 .069-.657.483.483 0 0 0-.67-.067l-5.496 4.383-2.212-2.54z"/>
        </g>
    </g>
</svg>
