<svg xmlns="http://www.w3.org/2000/svg" width="144" height="25" viewBox="0 0 144 25">
    <g fill="#9093A5" fill-rule="nonzero">
        <path d="M41.977 21.36c.532 1.188-.023 2.571-1.238 3.092-.314.134-.64.196-.962.196a2.406 2.406 0 0 1-2.203-1.407L31.366 9.378l-6.21 13.863a2.405 2.405 0 0 1-2.201 1.407c-.322 0-.65-.062-.962-.196-1.216-.52-1.77-1.904-1.239-3.092l8.41-18.78c.532-1.187 1.95-1.729 3.165-1.209.569.243.99.676 1.225 1.189.004.007.01.013.013.02l8.41 18.78zM10.212 0c5.631 0 10.212 4.476 10.212 9.978 0 5.5-4.58 9.975-10.212 9.975-1.984 0-3.837-.558-5.406-1.518v4.159c0 1.295-1.076 2.347-2.403 2.347S0 23.89 0 22.594V9.985v-.007C0 4.476 4.582 0 10.212 0zm-.15 15.405c3.064 0 5.557-2.434 5.557-5.427 0-2.995-2.493-5.43-5.557-5.43-3.064 0-5.556 2.435-5.556 5.43 0 2.993 2.492 5.427 5.556 5.427zM59.521 1.532a2.317 2.317 0 0 1 .764 3.234L53.14 15.932v6.37c0 1.296-1.075 2.347-2.402 2.347-1.327 0-2.403-1.051-2.403-2.347v-6.37L41.192 4.767a2.316 2.316 0 0 1 .763-3.234c1.126-.688 2.608-.353 3.312.746l5.47 8.552 5.472-8.552c.703-1.1 2.185-1.433 3.312-.746zM94.18 20.101c1.244 0 2.253.985 2.253 2.2 0 1.216-1.009 2.201-2.253 2.201h-9.61c-.08 0-.156-.003-.232-.011-1.219-.113-2.172-1.116-2.172-2.336V3.67c0-1.297 1.075-2.348 2.403-2.348h9.613c1.246 0 2.253.986 2.253 2.202 0 1.215-1.007 2.2-2.253 2.2h-7.21V9.94h6.607c1.245 0 2.253.985 2.253 2.202 0 1.215-1.008 2.2-2.253 2.2h-6.607v5.76h7.208zm49.751-7.189c0 6.38-5.303 11.57-11.827 11.589l-4.992.002c-1.245 0-2.253-.986-2.253-2.201V3.522c0-1.215 1.008-2.2 2.253-2.2l4.991.001c6.525.02 11.828 5.21 11.828 11.59zm-11.864 7.19c3.893 0 6.908-3.388 6.908-7.19 0-3.802-2.866-7.19-6.757-7.19h-2.554v14.38h2.403zM117.479 1.174c1.327 0 2.401 1.051 2.401 2.347v18.779c0 1.296-1.074 2.347-2.401 2.347-.853 0-1.6-.435-2.025-1.088l-9.99-13.358V22.3c0 1.296-1.077 2.347-2.403 2.347-1.327 0-2.402-1.05-2.402-2.347V3.522c0-1.296 1.075-2.347 2.402-2.347.77 0 1.453.354 1.893.905.054.057 10.121 13.514 10.121 13.514V3.522c0-1.296 1.077-2.347 2.404-2.347zM67.52 7.76c0 4.01 10.948 1.294 10.948 9.608 0 4.095-3.699 7.427-8.244 7.427-2.691 0-5.245-.9-6.832-2.407a2.338 2.338 0 0 1-.048-3.36 2.473 2.473 0 0 1 3.44-.047c.657.624 2.073 1.185 3.44 1.185 2.11 0 3.226-1.048 3.226-2.525 0-4.58-10.788-1.345-10.788-9.928 0-3.769 3.392-6.685 7.562-6.685 3.225 0 6.441 1.2 6.441 3.42 0 1.23-1.019 2.229-2.28 2.229-1.088 0-2.727-1.278-4.77-1.065-1.17.122-2.095.692-2.095 2.148z"/>
    </g>
</svg>
