<svg xmlns="http://www.w3.org/2000/svg" xmlns:xlink="http://www.w3.org/1999/xlink" width="104" height="28" viewBox="0 0 104 28">
    <defs>
        <path id="a" d="M0 33.271h105.57V0H0z"/>
    </defs>
    <g fill="none" fill-rule="evenodd" transform="matrix(1 0 0 -1 -1 31)">
        <mask id="b" fill="#fff">
            <use xlink:href="#a"/>
        </mask>
        <g mask="url(#b)">
            <path fill="#9093A5" fill-rule="nonzero" d="M16.593 9.415c0-1.233-.307-2.289-.921-3.166-.614-.878-1.485-1.547-2.614-2.01-1.128-.462-2.417-.694-3.867-.694-3.847 0-6.467 1.086-7.858 3.255l3.368 2.401c.55-.758 1.184-1.265 1.903-1.52A6.837 6.837 0 0 1 8.91 7.3c2.152 0 3.228.634 3.228 1.902 0 .558-.304.988-.912 1.29-.609.303-1.561.614-2.86.934-2.444.545-4.162 1.316-5.156 2.312-.994.996-1.491 2.288-1.491 3.878 0 1.648.623 3.006 1.868 4.073 1.245 1.067 3.078 1.6 5.499 1.6 1.648 0 3.101-.266 4.359-.8 1.256-.534 2.224-1.334 2.902-2.4l-3.385-2.438c-.807 1.257-2.122 1.886-3.947 1.886-.935 0-1.642-.163-2.122-.49-.48-.326-.719-.744-.719-1.254 0-.486.216-.874.65-1.164.432-.291 1.285-.596 2.56-.917 2.093-.521 3.587-1.04 4.481-1.556.895-.515 1.573-1.156 2.035-1.92.462-.766.693-1.706.693-2.82M30.362 4.097a13.216 13.216 0 0 0-3.841-.551c-2.129 0-3.66.486-4.596 1.458-.935.972-1.403 2.55-1.403 4.731v9.374h-2.333v3.646h2.333v5.194h4.525v-5.194h4.28v-3.646h-4.28v-8.787c0-1.162.178-1.95.535-2.366.357-.415.862-.622 1.517-.622.83 0 1.655.172 2.474.516l.789-3.753zM44.271 15.391c0 2.834-1.222 4.251-3.666 4.251-.807 0-1.467-.14-1.982-.418a3.1 3.1 0 0 1-1.236-1.245c-.31-.55-.553-1.414-.728-2.588h7.612zm-7.735-3.166c.082-1.66.48-2.852 1.193-3.575.713-.723 1.836-1.085 3.367-1.085.889 0 1.67.113 2.342.338.672.225 1.26.658 1.763 1.299l3.368-2.437A6.834 6.834 0 0 0 45.7 4.346c-1.175-.534-2.78-.8-4.815-.8-3.029 0-5.288.806-6.78 2.419-1.49 1.612-2.236 4.049-2.236 7.31 0 6.675 2.947 10.014 8.84 10.014 2.62 0 4.616-.75 5.99-2.25 1.374-1.5 2.061-3.685 2.061-6.555v-2.259H36.536zM52.848 30.581h4.526V4.097h-4.526zM62.478 30.581h4.525V4.097h-4.525zM82.596 12.759l-2.298-.214c-1.625-.142-2.797-.456-3.517-.942-.719-.486-1.078-1.215-1.078-2.188 0-.854.233-1.438.701-1.752.468-.314 1.088-.471 1.86-.471.55 0 1.219.175 2.008.525.79.35 1.564.844 2.324 1.485v3.557zm.368-8.662v1.939c-1.789-1.66-3.707-2.49-5.753-2.49-2.034 0-3.572.542-4.613 1.627-1.04 1.085-1.56 2.475-1.56 4.171 0 1.328.265 2.425.797 3.29.532.866 1.321 1.545 2.368 2.037 1.046.492 2.552.839 4.517 1.04l3.876.374v.836c0 1.044-.31 1.758-.93 2.144-.62.385-1.526.577-2.718.577-.983 0-1.827-.166-2.535-.498-.708-.332-1.23-.806-1.57-1.423l-3.525 2.295c.62 1.055 1.59 1.865 2.911 2.428 1.322.563 2.918.845 4.789.845 2.865 0 4.931-.507 6.2-1.521 1.269-1.014 1.903-2.677 1.903-4.989V4.097h-4.157zM103.188 18.273c-.468.237-1.088.356-1.86.356a4.95 4.95 0 0 1-2.394-.614c-.754-.41-1.529-1.005-2.324-1.788V4.097h-4.525v18.658h4.525v-2.668c.772.854 1.602 1.56 2.491 2.117.889.557 1.882.836 2.982.836.935 0 1.602-.125 2-.374l-.895-4.393z"/>
        </g>
    </g>
</svg>
