<?xml version="1.0" encoding="UTF-8"?>
<svg width="67px" height="67px" viewBox="0 0 67 67" version="1.1" xmlns="http://www.w3.org/2000/svg" xmlns:xlink="http://www.w3.org/1999/xlink">
    <!-- Generator: sketchtool 54.1 (76490) - https://sketchapp.com -->
    <title>8B138E2A-AA98-469F-BDD4-4E484634DA7F</title>
    <desc>Created with sketchtool.</desc>
    <g id="Page-1" stroke="none" stroke-width="1" fill="none" fill-rule="evenodd">
        <g id="pays-XDR---1440px" transform="translate(-260.000000, -4258.000000)">
            <g id="Group-43" transform="translate(190.000000, 4005.000000)">
                <g id="Group-60" transform="translate(0.000000, 253.000000)">
                    <g id="Group-37" transform="translate(70.000000, 0.000000)">
                        <g id="Group-38">
                            <g id="077-coins-3" fill-rule="nonzero">
                                <path d="M51.946926,1.46659544e-15 C43.891328,7.3329772e-16 37.3609756,6.53035244 37.3609756,14.5859504 C37.3609756,22.6415484 43.891328,29.1719008 51.946926,29.1719008 C60.002524,29.1719008 66.5328764,22.6415484 66.5328764,14.5859504 C66.5237009,6.53415612 59.9987203,0.00917549722 51.946926,1.46659544e-15 Z M51.946926,27.5206612 C44.8032825,27.5206612 39.0122153,21.7295939 39.0122153,14.5859504 C39.0122153,7.44230693 44.8032825,1.65123967 51.946926,1.65123967 C59.0905695,1.65123967 64.8816368,7.44230693 64.8816368,14.5859504 C64.8735985,21.7262617 59.0872373,27.5126229 51.946926,27.5206612 Z" id="Shape" fill="#6013DC"></path>
                                <path d="M48.3254554,36.7607231 C45.3967066,35.5893062 41.509826,34.9443595 37.3997529,34.9443595 C35.4737259,34.9395633 33.5503748,35.0881399 31.6479347,35.3886806 L31.6479347,12.9806702 C31.6479347,11.0172087 29.9067025,9.23786033 26.7383864,7.97080909 C23.8097752,6.79925455 19.9351413,6.15444545 15.8252058,6.15444545 C11.7152702,6.15444545 7.84008595,6.79952975 4.91133719,7.97080909 C1.74384669,9.23813554 0,11.0172087 0,12.9806702 L0,48.9867769 C0,50.9502384 1.74480992,52.7295868 4.91243802,53.996638 C7.84118678,55.1681926 11.7349475,55.8130017 15.8447455,55.8130017 C17.7732587,55.8190764 19.6991332,55.6699376 21.603719,55.3670293 L21.603719,59.7735 C21.603719,61.736824 23.3310533,63.5163099 26.4992318,64.7833612 C29.4279806,65.9549157 33.2955967,66.5997248 37.4053946,66.5997248 C41.5151926,66.5997248 45.4009723,65.9546405 48.3298587,64.7833612 C51.4981748,63.5160347 53.2524793,61.736824 53.2524793,59.7735 L53.2524793,41.7707219 C53.2524793,39.8072603 51.4937715,38.0280496 48.3254554,36.7607231 Z M15.8278202,7.80540992 C24.182405,7.80540992 30.004676,10.532845 30.004676,12.9806702 C30.004676,15.4284955 24.182405,18.1559306 15.8278202,18.1559306 C7.47323554,18.1559306 1.65123967,15.4284955 1.65123967,12.9806702 C1.65123967,10.532845 7.47337314,7.80540992 15.8278202,7.80540992 Z M1.65123967,16.1056413 C2.46075992,16.8105831 3.55580702,17.4476864 4.91243802,17.9908066 C7.84118678,19.1623612 11.7174719,19.8071702 15.8272698,19.8071702 C19.9370678,19.8071702 23.8099128,19.162086 26.739212,17.9908066 C28.0963934,17.4479616 29.1719008,16.8108583 29.9975207,16.1056413 L29.9975207,18.9815504 C29.9975207,21.4293756 24.1788273,24.1569483 15.8243802,24.1569483 C7.46993306,24.1569483 1.65123967,21.4293756 1.65123967,18.9815504 L1.65123967,16.1056413 Z M1.65123967,22.1065215 C2.46075992,22.8116008 3.55580702,23.4485665 4.91243802,23.9916868 C7.84118678,25.1631037 11.7174719,25.8080504 15.8272698,25.8080504 C19.9370678,25.8080504 23.8099128,25.1628285 26.739212,23.9916868 C28.0963934,23.4487041 29.1719008,22.8116008 29.9975207,22.1065215 L29.9975207,24.9824306 C29.9975207,27.4302558 24.1788273,30.1576909 15.8243802,30.1576909 C7.46993306,30.1576909 1.65123967,27.4303934 1.65123967,24.9825682 L1.65123967,22.1065215 Z M1.65123967,28.1074017 C2.46075992,28.812481 3.55580702,29.4495843 4.91243802,29.9925669 C7.84118678,31.1641215 11.7174719,31.8089306 15.8272698,31.8089306 C19.9370678,31.8089306 23.8099128,31.1638463 26.739212,29.9925669 C28.0963934,29.4497219 29.1719008,28.8126186 29.9975207,28.1074017 L29.9975207,30.9833107 C29.9975207,33.431136 24.1788273,36.1585711 15.8243802,36.1585711 C7.46993306,36.1585711 1.65123967,33.4312736 1.65123967,30.9834483 L1.65123967,28.1074017 Z M1.65123967,34.1084194 C2.46075992,34.8133612 3.55580702,35.4504645 4.91243802,35.9935847 C7.84118678,37.1651393 11.7174719,37.8099483 15.8272698,37.8099483 C19.9370678,37.8099483 23.8099128,37.164864 26.739212,35.9935847 C28.0963934,35.4504645 29.1719008,34.8136364 29.9975207,34.1084194 L29.9975207,35.7017281 C28.7989216,35.9639455 27.6223214,36.3181769 26.4781785,36.7612736 C23.3525194,38.0116748 21.6154153,39.7602 21.5691806,41.692288 C19.6717191,42.0097462 17.7508196,42.1662537 15.8269946,42.1601393 C7.4718595,42.1595888 1.65123967,39.4321537 1.65123967,36.9843285 L1.65123967,34.1084194 Z M1.65123967,40.1092996 C2.46075992,40.8142413 3.55580702,41.4513446 4.91243802,41.9944649 C7.84118678,43.1658818 11.7349475,43.8108285 15.8447455,43.8108285 C17.7732537,43.8170592 19.6991334,43.668012 21.603719,43.3651314 L21.603719,47.6933058 C19.7008933,48.0115325 17.7745357,48.1680421 15.8452959,48.161157 C7.49084876,48.161157 1.65123967,45.4330339 1.65123967,42.9852087 L1.65123967,40.1092996 Z M1.65123967,48.9867769 L1.65123967,46.1108678 C2.46075992,46.8159471 3.55580702,47.4530504 4.91243802,47.9960331 C7.84118678,49.1675876 11.7349475,49.8123967 15.8447455,49.8123967 C17.7732723,49.8183998 19.699152,49.6691225 21.603719,49.3660116 L21.603719,53.6940483 C19.7008861,54.0122168 17.7745334,54.1687261 15.8452959,54.1618996 C7.49084876,54.1613492 1.65123967,51.433914 1.65123967,48.9867769 Z M37.4280992,64.9487603 C29.0735145,64.9487603 23.2549587,62.2213252 23.2549587,59.7735 L23.2549587,56.8975909 C24.0805785,57.6026702 25.1420504,58.239636 26.4992318,58.7827562 C29.4279806,59.9541731 33.2955967,60.5991198 37.4053946,60.5991198 C41.5151926,60.5991198 45.4009723,59.9538979 48.3298587,58.7827562 C49.6870401,58.2397736 50.7756198,57.6026702 51.6012397,56.8975909 L51.6012397,59.7735 C51.6012397,62.2213252 45.7825463,64.9487603 37.4280992,64.9487603 Z M37.4280992,58.9478802 C29.0735145,58.9478802 23.2549587,56.2203074 23.2549587,53.7724822 L23.2549587,50.8965731 C24.0805785,51.6015149 25.1420504,52.2386182 26.4992318,52.7817384 C29.4279806,53.953293 33.2955967,54.5981021 37.4053946,54.5981021 C41.5151926,54.5981021 45.4011099,53.9530178 48.3298587,52.7817384 C49.6870401,52.2386182 50.7756198,51.6012397 51.6012397,50.8965731 L51.6012397,53.7724822 C51.6012397,56.2203074 45.7825463,58.9478802 37.4280992,58.9478802 Z M37.4280992,52.9468624 C29.0735145,52.9468624 23.2549587,50.2194273 23.2549587,47.7716021 L23.2549587,44.895693 C24.0805785,45.6007723 25.1420504,46.237738 26.4992318,46.7808583 C29.4279806,47.9522752 33.2955967,48.5972219 37.4053946,48.5972219 C41.5151926,48.5972219 45.4011099,47.952 48.3298587,46.7808583 C49.6870401,46.2378756 50.7756198,45.6009099 51.6012397,44.895693 L51.6012397,47.7716021 C51.6012397,50.2194273 45.7825463,52.9468624 37.4280992,52.9468624 Z M37.396588,46.9459822 C29.0421409,46.9459822 23.2200074,44.2185471 23.2200074,41.7707219 C23.2200074,39.3228967 29.0421409,36.595324 37.396588,36.595324 C45.7510351,36.595324 51.573719,39.3228967 51.573719,41.7707219 C51.573719,44.2185471 45.7511727,46.9459822 37.396588,46.9459822 Z" id="Shape" fill="#211265"></path>
                                <path d="M4.40330579,12.9806702 C4.40330579,10.6689347 9.59328967,8.10951322 17.2038533,7.83086653 C16.7533401,7.81435413 16.2946624,7.8058686 15.8278202,7.80540992 C7.47337314,7.80540992 1.65123967,10.532845 1.65123967,12.9806702 C1.65123967,15.4284955 7.47337314,18.1559306 15.8278202,18.1559306 C16.2948459,18.1559306 16.7535236,18.147445 17.2038533,18.130474 C9.59328967,17.8515521 4.40330579,15.2917178 4.40330579,12.9806702 Z" id="Path" fill-opacity="0.0976835664" fill="#6013DC"></path>
                                <path d="M4.40330579,18.9815504 L4.40330579,17.7766959 C3.40765515,17.360223 2.48000694,16.796955 1.65123967,16.1056413 L1.65123967,18.9815504 C1.65123967,21.4293756 7.46979545,24.1569483 15.8243802,24.1569483 C16.2912223,24.1569483 16.7499,24.1484169 17.2004132,24.1313541 C9.58998719,23.8524322 4.40330579,21.2925979 4.40330579,18.9815504 Z" id="Path" fill-opacity="0.0976835664" fill="#6013DC"></path>
                                <path d="M4.40330579,24.9825682 L4.40330579,23.7778512 C3.40762877,23.3614302 2.47997314,22.7981577 1.65123967,22.1067967 L1.65123967,24.9827058 C1.65123967,27.430531 7.46979545,30.1579661 15.8243802,30.1579661 C16.2912223,30.1579661 16.7499,30.1494806 17.2004132,30.1325095 C9.58998719,29.8533124 4.40330579,27.2934781 4.40330579,24.9825682 Z" id="Path" fill-opacity="0.0976835664" fill="#6013DC"></path>
                                <path d="M4.40330579,30.9834483 L4.40330579,29.7784562 C3.40760237,29.362087 2.4799393,28.79881 1.65123967,28.1074017 L1.65123967,30.9833107 C1.65123967,33.431136 7.46979545,36.1585711 15.8243802,36.1585711 C16.2912223,36.1585711 16.7499,36.1500855 17.2004132,36.1331145 C9.58998719,35.8543302 4.40330579,33.2944959 4.40330579,30.9834483 Z" id="Path" fill-opacity="0.0976835664" fill="#6013DC"></path>
                                <path d="M4.40330579,36.9843285 L4.40330579,35.779474 C3.40765515,35.3630011 2.48000694,34.7997331 1.65123967,34.1084194 L1.65123967,36.9843285 C1.65123967,39.4321537 7.4718595,42.1595888 15.8269946,42.1595888 C16.2864062,42.1595888 16.7415521,42.1509657 17.1924322,42.1337194 C9.58764793,41.8527335 4.40330579,39.2942752 4.40330579,36.9843285 Z" id="Path" fill-opacity="0.0976835664" fill="#6013DC"></path>
                                <path d="M4.40330579,42.9852087 L4.40330579,41.7802165 C3.40763634,41.3638397 2.4799809,40.8006137 1.65123967,40.1092996 L1.65123967,42.9852087 C1.65123967,45.4330339 7.49084876,48.161157 15.8452959,48.161157 C16.3037901,48.161157 16.7602202,48.1518 17.2134855,48.1354252 C9.60471074,47.8543017 4.40330579,45.2954306 4.40330579,42.9852087 Z" id="Path" fill-opacity="0.0976835664" fill="#6013DC"></path>
                                <path d="M4.40330579,48.9867769 L4.40330579,47.7817847 C3.40760237,47.3654155 2.4799393,46.8021385 1.65123967,46.1107302 L1.65123967,48.9867769 C1.65123967,51.4346021 7.49084876,54.1620372 15.8452959,54.1620372 C16.3039736,54.1620372 16.7600368,54.1534599 17.2134855,54.1363054 C9.60471074,53.8551818 4.40330579,51.2963107 4.40330579,48.9867769 Z" id="Path" fill-opacity="0.0976835664" fill="#6013DC"></path>
                                <path d="M26.0070248,59.7735 L26.0070248,58.5763512 C25.0126649,58.1540568 24.0854796,57.5884738 23.2549587,56.8975909 L23.2549587,59.7735 C23.2549587,62.2213252 29.0735145,64.9487603 37.4280992,64.9487603 C37.8949413,64.9487603 38.353619,64.9402748 38.8041322,64.9233037 C31.1937062,64.6442442 26.0070248,62.0845475 26.0070248,59.7735 Z" id="Path" fill-opacity="0.0976835664" fill="#6013DC"></path>
                                <path d="M26.0070248,53.7724822 L26.0070248,52.5753335 C25.0126377,52.153092 24.085445,51.5875044 23.2549587,50.8965731 L23.2549587,53.7724822 C23.2549587,56.2203074 29.0735145,58.9478802 37.4280992,58.9478802 C37.8949413,58.9478802 38.353619,58.9393488 38.8041322,58.922286 C31.1937062,58.643364 26.0070248,56.0835298 26.0070248,53.7724822 Z" id="Path" fill-opacity="0.0976835664" fill="#6013DC"></path>
                                <path d="M26.0070248,47.7716021 L26.0070248,46.5744533 C25.0126649,46.1521589 24.0854796,45.5865759 23.2549587,44.895693 L23.2549587,47.7716021 C23.2549587,50.2194273 29.0735145,52.9468624 37.4280992,52.9468624 C37.8949413,52.9468624 38.353619,52.9383769 38.8041322,52.9214058 C31.1937062,52.6424839 26.0070248,50.0826496 26.0070248,47.7716021 Z" id="Path" fill-opacity="0.0976835664" fill="#6013DC"></path>
                                <path d="M25.9720736,41.7707219 C25.9720736,39.4589864 31.1620574,36.8995649 38.7726211,36.6209182 C38.3221079,36.6042223 37.8634302,36.5956909 37.396588,36.595324 C29.0421409,36.595324 23.2200074,39.3228967 23.2200074,41.7707219 C23.2200074,44.2185471 29.0421409,46.9459822 37.396588,46.9459822 C37.8636136,46.9459822 38.3222913,46.9374967 38.7726211,46.9205256 C31.1620574,46.6414661 25.9720736,44.0816318 25.9720736,41.7707219 Z" id="Path" fill-opacity="0.0976835664" fill="#6013DC"></path>
                                <path d="M54.7661157,26.1446281 C49.0505161,26.1459123 44.0120574,22.394726 42.3743049,16.9187926 C40.7365524,11.4428591 42.8880462,5.54128824 47.6657851,2.40420496 C42.9626417,4.07879258 39.6432641,8.31074452 39.1372681,13.2774104 C38.6312721,18.2440762 41.0290213,23.05848 45.2978342,25.6471163 C49.5666471,28.2357526 54.9441744,28.1363277 59.1143802,25.3916628 C57.7190843,25.8909906 56.2480663,26.1457187 54.7661157,26.1446281 L54.7661157,26.1446281 Z" id="Path" fill-opacity="0.0976835664" fill="#6013DC"></path>
                            </g>
                            <text id="XDR" font-family="Asap-Bold, Asap" font-size="9.9" font-weight="bold" fill="#6013DC">
                                <tspan x="42.3" y="18">XDR</tspan>
                            </text>
                        </g>
                    </g>
                </g>
            </g>
        </g>
    </g>
</svg>