<?xml version="1.0" encoding="UTF-8"?>
<svg width="72px" height="73px" viewBox="0 0 72 73" version="1.1" xmlns="http://www.w3.org/2000/svg" xmlns:xlink="http://www.w3.org/1999/xlink">
    <!-- Generator: sketchtool 54.1 (76490) - https://sketchapp.com -->
    <title>21EFF68C-27C4-4E92-AE65-CDF5EA1A4D81</title>
    <desc>Created with sketchtool.</desc>
    <g id="Page-1" stroke="none" stroke-width="1" fill="none" fill-rule="evenodd">
        <g id="pays-XDR---1440px" transform="translate(-543.000000, -4264.000000)">
            <g id="Group-43" transform="translate(190.000000, 4005.000000)">
                <g id="Group-61" transform="translate(296.000000, 255.000000)">
                    <g id="Group-41" transform="translate(57.000000, 0.000000)">
                        <g id="Group-36">
                            <g id="Group-20" transform="translate(0.000000, 4.115305)" fill-rule="nonzero">
                                <g id="074-currency-5">
                                    <rect id="Rectangle" fill-opacity="0.0976835664" fill="#6013DC" x="1.73414634" y="7.21095335" width="2.8902439" height="24.5172414"></rect>
                                    <path d="M8.27332317,1.87484787 L5.38307927,1.87484787 C3.38425283,1.87975378 1.75986504,3.48568666 1.73616951,5.48032454 L4.62641341,5.48032454 C4.65010894,3.48568666 6.27449673,1.87975378 8.27332317,1.87484787 Z" id="Path" fill-opacity="0.0976835664" fill="#6013DC"></path>
                                    <path d="M4.62439024,37.0643002 L4.62439024,33.4588235 L1.73414634,33.4588235 L1.73414634,37.0643002 C1.73665777,38.0260212 2.12306275,38.9471023 2.80786839,39.6237524 C3.49267403,40.3004024 4.41942628,40.6768398 5.38307927,40.6697769 L8.27332317,40.6697769 C7.30967018,40.6768398 6.38291793,40.3004024 5.69811229,39.6237524 C5.01330666,38.9471023 4.62690167,38.0260212 4.62439024,37.0643002 L4.62439024,37.0643002 Z" id="Path" fill-opacity="0.0976835664" fill="#6013DC"></path>
                                    <rect id="Rectangle" fill-opacity="0.0976835664" fill="#6013DC" x="48.5560976" y="35.7663286" width="2.8902439" height="24.6614604"></rect>
                                    <path d="M55.0591463,30.5744422 L52.1689024,30.5744422 C50.1825823,30.5744422 48.5631787,32.1608519 48.5219927,34.0356998 L51.4122366,34.0356998 C51.4534226,32.1608519 53.0728262,30.5744422 55.0591463,30.5744422 Z" id="Path" fill-opacity="0.0976835664" fill="#6013DC"></path>
                                    <path d="M51.4463415,65.7278398 L51.4463415,62.1584178 L48.5560976,62.1584178 L48.5560976,65.7278398 C48.5490203,66.6895381 48.9262228,67.6144105 49.6042481,68.2978271 C50.2822735,68.9812437 51.2052267,69.3668649 52.1689024,69.3693712 L55.0591463,69.3693712 C54.0954706,69.3668649 53.1725174,68.9812437 52.494492,68.2978271 C51.8164667,67.6144105 51.4392642,66.6895381 51.4463415,65.7278398 L51.4463415,65.7278398 Z" id="Path" fill-opacity="0.0976835664" fill="#6013DC"></path>
                                    <path d="M71.1,34.2159736 C71.1000383,32.7911764 70.5329064,31.4247242 69.5233749,30.4172405 C68.5138434,29.4097567 67.1446139,28.8437751 65.7169207,28.8438134 L52.2050305,28.8438134 C50.7773373,28.8437751 49.4081078,29.4097567 48.3985763,30.4172405 C47.3890448,31.4247242 46.8219129,32.7911764 46.8219512,34.2159736 L46.8219512,65.7278398 C46.8219129,67.152637 47.3890448,68.5190892 48.3985763,69.5265729 C49.4081078,70.5340567 50.7773373,71.1000383 52.2050305,71.1 L65.7169207,71.1 C67.1446139,71.1000383 68.5138434,70.5340567 69.5233749,69.5265729 C70.5329064,68.5190892 71.1000383,67.152637 71.1,65.7278398 L71.1,34.2159736 Z M69.3658537,35.7663286 L69.3658537,60.427789 L48.5560976,60.427789 L48.5560976,35.7663286 L69.3658537,35.7663286 Z M52.1689024,30.5744422 L65.7169207,30.5744422 C67.7032409,30.5744422 69.3226445,32.1608519 69.3638305,34.0356998 L48.5219927,34.0356998 C48.5631787,32.1608519 50.1825823,30.5744422 52.1689024,30.5744422 Z M65.7169207,69.3693712 L52.1689024,69.3693712 C51.2052267,69.3668649 50.2822735,68.9812437 49.6042481,68.2978271 C48.9262228,67.6144105 48.5490203,66.6895381 48.5560976,65.7278398 L48.5559997,62.1584178 L69.3658537,62.1584178 L69.3658537,65.7278398 C69.3636237,67.7380795 67.7312463,69.3671457 65.7169207,69.3693712 L65.7169207,69.3693712 Z" id="Shape" fill="#211265"></path>
                                    <path d="M61.0315463,64.8985801 L56.8542768,64.8985801 C56.3754055,64.8985801 55.9872037,65.2859946 55.9872037,65.7638945 C55.9872037,66.2417945 56.3754055,66.6292089 56.8542768,66.6292089 L61.0315463,66.6292089 C61.5104176,66.6292089 61.8986195,66.2417945 61.8986195,65.7638945 C61.8986195,65.2859946 61.5104176,64.8985801 61.0315463,64.8985801 Z" id="Path" fill="#211265"></path>
                                    <g id="Group-18" transform="translate(0.000000, 0.144219)">
                                        <path d="M24.2780488,5.37216024 C24.2780871,3.94736303 23.7109552,2.58091083 22.7014237,1.57342706 C21.6918922,0.565943295 20.3226627,-3.82511296e-05 18.8949695,2.7000624e-13 L5.38307927,2.7000624e-13 C3.95538613,-3.82511296e-05 2.58615659,0.565943295 1.57662509,1.57342706 C0.567093586,2.58091083 -3.83288765e-05,3.94736303 -4.4408921e-13,5.37216024 L-4.4408921e-13,36.8840264 C-3.83288765e-05,38.3088236 0.567093586,39.6752758 1.57662509,40.6827595 C2.58615659,41.6902433 3.95538613,42.2562249 5.38307927,42.2561866 L18.8949695,42.2561866 C20.3226627,42.2562249 21.6918922,41.6902433 22.7014237,40.6827595 C23.7109552,39.6752758 24.2780871,38.3088236 24.2780488,36.8840264 L24.2780488,5.37216024 Z M22.5439024,7.06673428 L22.5439024,31.5839757 L1.73414634,31.5839757 L1.73414634,7.06673428 L22.5439024,7.06673428 Z M5.38307927,1.7306288 L18.9310976,1.7306288 C20.929924,1.73553471 22.5543118,3.34146759 22.5780073,5.33610548 L1.73616951,5.33610548 C1.75986504,3.34146759 3.38425283,1.73553471 5.38307927,1.7306288 Z M1.73414634,36.9200811 L1.73414634,33.3146045 L22.5439657,33.3146045 L22.5439024,36.9200811 C22.5495971,37.8780439 22.1707923,38.7984167 21.4920216,39.4758106 C20.8132509,40.1532045 19.8910074,40.5312409 18.9310976,40.5255578 L5.38307927,40.5255578 C4.41942628,40.5326207 3.49267403,40.1561834 2.80786839,39.4795333 C2.12306275,38.8028832 1.73665777,37.8818021 1.73414634,36.9200811 Z" id="Shape" fill="#211265"></path>
                                        <path d="M5.0751,22.0719809 C4.7348983,22.0719809 4.5648,22.0206814 4.5648,21.9180809 C4.5648,21.8694807 4.59179973,21.8019814 4.6458,21.7155809 L6.3144,19.0992809 L4.8321,16.7259809 C4.77809973,16.6341805 4.7511,16.5666811 4.7511,16.5234809 C4.7511,16.4748807 4.79429957,16.4370811 4.8807,16.4100809 C4.96710043,16.3830808 5.09669914,16.3695809 5.2695,16.3695809 L5.6016,16.3695809 C5.86620132,16.3695809 6.0281997,16.4208804 6.0876,16.5234809 L7.011,18.0300809 L7.983,16.5234809 C8.02620022,16.4586806 8.08559962,16.416831 8.1612,16.3979309 C8.23680038,16.3790308 8.34209932,16.3695809 8.4771,16.3695809 L8.793,16.3695809 C9.1332017,16.3695809 9.3033,16.4208804 9.3033,16.5234809 C9.3033,16.5828812 9.27630027,16.6503806 9.2223,16.7259809 L7.6914,19.1154809 L9.3114,21.7155809 C9.36000024,21.7965813 9.3843,21.8640807 9.3843,21.9180809 C9.3843,22.0206814 9.2142017,22.0719809 8.874,22.0719809 L8.5581,22.0719809 C8.29349868,22.0719809 8.1315003,22.0206814 8.0721,21.9180809 L6.9948,20.1765809 L5.877,21.9180809 C5.83379978,21.9828813 5.77575036,22.0247308 5.70285,22.0436309 C5.62994964,22.062531 5.5233007,22.0719809 5.3829,22.0719809 L5.0751,22.0719809 Z M10.3887,22.0557809 C10.2752994,22.0557809 10.1929503,22.0301312 10.14165,21.9788309 C10.0903497,21.9275307 10.0647,21.8451815 10.0647,21.7317809 L10.0647,16.7097809 C10.0647,16.5963804 10.0903497,16.5140312 10.14165,16.4627309 C10.1929503,16.4114307 10.2752994,16.3857809 10.3887,16.3857809 L12.1221,16.3857809 C12.9591042,16.3857809 13.6003478,16.6301285 14.04585,17.1188309 C14.4913522,17.6075334 14.7141,18.3081764 14.7141,19.2207809 C14.7141,20.1333855 14.4913522,20.8340285 14.04585,21.3227309 C13.6003478,21.8114334 12.9591042,22.0557809 12.1221,22.0557809 L10.3887,22.0557809 Z M12.1221,20.9946809 C12.5541022,20.9946809 12.8807989,20.8434824 13.1022,20.5410809 C13.3236011,20.2386794 13.4343,19.7985838 13.4343,19.2207809 C13.4343,18.642978 13.3236011,18.2028824 13.1022,17.9004809 C12.8807989,17.5980794 12.5541022,17.4468809 12.1221,17.4468809 L11.3202,17.4468809 L11.3202,20.9946809 L12.1221,20.9946809 Z M16.1235,22.0719809 C15.7994984,22.0719809 15.6375,21.9855818 15.6375,21.8127809 L15.6375,16.7097809 C15.6375,16.5963804 15.6631497,16.5140312 15.71445,16.4627309 C15.7657503,16.4114307 15.8480994,16.3857809 15.9615,16.3857809 L17.541,16.3857809 C18.8856067,16.3857809 19.5579,16.8933759 19.5579,17.9085809 C19.5579,18.2109824 19.4728509,18.4742298 19.30275,18.6983309 C19.1326491,18.9224321 18.9018015,19.0884804 18.6102,19.1964809 L18.6102,19.2288809 C18.7128005,19.2666811 18.8180995,19.3571302 18.9261,19.5002309 C19.0341005,19.6433316 19.1231996,19.8012801 19.1934,19.9740809 L19.9062,21.7560809 C19.9332001,21.8262813 19.9467,21.8775808 19.9467,21.9099809 C19.9467,21.9585812 19.9062004,21.9977308 19.8252,22.0274309 C19.7441996,22.0571311 19.6227008,22.0719809 19.4607,22.0719809 L19.1286,22.0719809 C18.8639987,22.0719809 18.7074002,22.0152815 18.6588,21.9018809 L18.0189,20.3223809 C17.9270995,20.14418 17.8285505,20.0186313 17.72325,19.9457309 C17.6179495,19.8728306 17.4438012,19.8363809 17.2008,19.8363809 L16.8849,19.8363809 L16.8849,21.8127809 C16.8849,21.9855818 16.7229016,22.0719809 16.3989,22.0719809 L16.1235,22.0719809 Z M17.6544,18.7590809 C17.8218008,18.7590809 17.9675994,18.6915816 18.0918,18.5565809 C18.2160006,18.4215803 18.2781,18.2568819 18.2781,18.0624809 C18.2781,17.87348 18.2173506,17.7236315 18.09585,17.6129309 C17.9743494,17.5022304 17.8083011,17.4468809 17.5977,17.4468809 L16.8849,17.4468809 L16.8849,18.7590809 L17.6544,18.7590809 Z" id="XDR" fill="#6013DC"></path>
                                    </g>
                                    <path d="M14.2457232,36.1989858 L10.0684537,36.1989858 C9.58958237,36.1989858 9.20138049,36.5864003 9.20138049,37.0643002 C9.20138049,37.5422002 9.58958237,37.9296146 10.0684537,37.9296146 L14.2457232,37.9296146 C14.7245945,37.9296146 15.1127963,37.5422002 15.1127963,37.0643002 C15.1127963,36.5864003 14.7245945,36.1989858 14.2457232,36.1989858 Z" id="Path" fill="#211265"></path>
                                </g>
                                <g id="Group-19" transform="translate(53.100000, 39.600000)" fill="#6013DC">
                                    <path d="M5.67465307,7.58407045 C7.71547342,7.58407045 9.36962666,5.88617841 9.36962666,3.79203523 C9.36962666,1.69760554 7.71547342,2.39808173e-14 5.67465307,2.39808173e-14 C3.63383272,2.39808173e-14 1.97967948,1.69760554 1.97967948,3.79203523 C1.98219217,5.88503242 3.63494952,7.58120533 5.67465307,7.58407045 Z M5.67465307,1.4741233 C6.92594669,1.4741233 7.9402149,2.5150348 7.9402149,3.79919817 C7.9402149,5.08336148 6.92594669,6.12455947 5.67465307,6.12455947 C4.42335945,6.12455947 3.40909124,5.08336148 3.40909124,3.79919817 C3.40937048,2.51532129 4.42363861,1.47469629 5.67465307,1.4741233 Z" id="Shape"></path>
                                    <path d="M5.67465307,8.98513216 C4.1628826,8.97367153 2.71197384,9.59627019 1.65806183,10.7088106 C0.586003005,11.8308061 -6.38600284e-13,13.3565022 -6.38600284e-13,15.0142819 C0.00111679941,15.4188421 0.320221755,15.746616 0.714705882,15.7477621 L10.6346003,15.7477621 C11.0290844,15.746616 11.3481893,15.4188421 11.3493061,15.0142819 C11.3493061,13.3565022 10.7633031,11.8308061 9.69124431,10.7088106 C8.6373323,9.59627019 7.18642354,8.97367153 5.67465307,8.98513216 L5.67465307,8.98513216 Z M1.47938536,14.2808017 C1.6016671,13.3218337 2.0229527,12.4290509 2.68014706,11.7356828 C3.47106968,10.9142424 4.54954963,10.4520925 5.67465307,10.4520925 C6.79975651,10.4520925 7.87823646,10.9142424 8.66915908,11.7356828 C9.32495754,12.4299104 9.74596398,13.3221203 9.86992078,14.2808017 L1.47938536,14.2808017 Z" id="Shape"></path>
                                </g>
                            </g>
                            <g id="Group-22" transform="translate(45.254910, 16.256238) rotate(-13.000000) translate(-45.254910, -16.256238) translate(34.254910, 2.756238)" fill="#6013DC">
                                <path d="M21.085952,26.1468246 C20.6387672,26.1468246 20.269634,25.7964811 20.242202,25.3484373 C19.9489982,20.1697366 17.822732,15.2669491 14.251442,11.5277699 C10.678154,7.78864509 5.89386195,5.46159172 0.763861954,4.9647739 C0.540269554,4.94141694 0.333546754,4.83100815 0.192217954,4.65689361 C0.0487831537,4.48065918 -0.0187168463,4.25559092 0.00448155371,4.0305444 C0.0508891537,3.56129617 0.466435354,3.21943767 0.932633554,3.26618421 C6.46331355,3.80125809 11.6230136,6.31101431 15.4726736,10.3433921 C19.3243856,14.3755525 21.6151736,19.662803 21.9294536,25.2468397 C21.9442172,25.4719079 21.8682824,25.6948563 21.7185188,25.8625894 C21.5687552,26.0324532 21.3599264,26.1343715 21.1363448,26.1471127 L21.085952,26.1468246 Z" id="Fill-10"></path>
                                <path d="M4.09701195,8.97345232 C3.84388695,8.97345232 3.60341955,8.86091819 3.44312595,8.66345213 L0.190489954,4.6589048 C-0.102713846,4.29582012 -0.0499774463,3.76289332 0.308614954,3.46561797 L4.28690295,0.191512425 C4.64760675,-0.105752051 5.17914495,-0.050542219 5.47447095,0.312542464 C5.76979695,0.675627147 5.71493835,1.21067385 5.35423455,1.5079492 L2.02988655,4.24273019 L4.75100055,7.57206187 C4.95771795,7.82685766 5.00201415,8.17721207 4.86068535,8.47448741 C4.72146795,8.77175189 4.42404675,8.96072204 4.09707135,8.96072204 L4.09701195,8.97345232 Z" id="Fill-11"></path>
                            </g>
                            <g id="Group-13" transform="translate(24.664634, 64.637899) rotate(-11.000000) translate(-24.664634, -64.637899) translate(13.164634, 51.137899)" fill="#6013DC">
                                <path d="M21.92076,23.2287483 L21.836385,23.2287483 C16.278165,22.6427316 11.108205,20.0798822 7.256385,16.0009752 C3.406779,11.9221227 1.12630608,6.59459406 0.82714608,0.976312871 C0.8060526,0.509184535 1.16464608,0.112154257 1.62872208,0.0887809901 C2.09278728,0.0675439307 2.48721408,0.428508713 2.51043408,0.895647921 C2.7909792,6.10620149 4.906683,11.0472558 8.477973,14.8288331 C12.051261,18.6125302 16.845813,20.9885044 22.001193,21.534243 C22.4673642,21.5575945 22.825935,21.9567751 22.802769,22.4260125 C22.7795652,22.8952607 22.3830054,23.2561983 21.916845,23.2328794 L21.92076,23.2287483 Z" id="Fill-9"></path>
                                <path d="M17.94258,26.5031814 C17.5860936,26.5053045 17.265474,26.2781134 17.145216,25.9404838 C17.0249796,25.6007561 17.1304524,25.2228158 17.4067812,24.9956059 L20.7311292,22.2608249 L18.0142812,18.9314938 C17.718966,18.5684091 17.7738138,18.0333624 18.1345176,17.736087 C18.4952214,17.4388117 19.0267596,17.4940324 19.3220856,17.8571171 L22.5747216,21.8616639 C22.8679254,22.2247485 22.815189,22.7576753 22.4565966,23.0549507 L18.4783086,26.3290562 C18.3243222,26.4479609 18.1365912,26.5095357 17.942526,26.5031651 L17.94258,26.5031814 Z" id="Fill-12"></path>
                            </g>
                        </g>
                    </g>
                </g>
            </g>
        </g>
    </g>
</svg>