<?xml version="1.0" encoding="UTF-8"?>
<svg width="71px" height="73px" viewBox="0 0 71 73" version="1.1" xmlns="http://www.w3.org/2000/svg" xmlns:xlink="http://www.w3.org/1999/xlink">
    <!-- Generator: sketchtool 54.1 (76490) - https://sketchapp.com -->
    <title>66DF3555-8360-45F9-AEEF-29360EB28267</title>
    <desc>Created with sketchtool.</desc>
    <g id="Page-1" stroke="none" stroke-width="1" fill="none" fill-rule="evenodd">
        <g id="pays-XDR---1440px" transform="translate(-824.000000, -4261.000000)" fill-rule="nonzero">
            <g id="Group-43" transform="translate(190.000000, 4005.000000)">
                <g id="Group-62" transform="translate(576.000000, 256.000000)">
                    <g id="Group-39" transform="translate(58.000000, 0.000000)">
                        <g id="090-exchange">
                            <path d="M19.7703252,70.6910569 L19.7703252,66.5909512 C19.7703252,65.3585528 18.9044715,64.3514207 17.6056911,64.2882134 L17.6056911,60.7285447 C19.6070435,60.3609938 21.0624927,58.6196701 21.0691057,56.5848577 L21.0691057,52.3638211 L19.3373984,52.3638211 L19.3373984,56.5848577 C19.3130501,57.9747197 18.1782544,59.0880593 16.7881809,59.085876 C16.3005537,59.0826142 15.8971937,59.4646443 15.8739837,59.9517297 L15.8739837,64.3414634 L4.47357724,64.3414634 L4.47357724,46.177874 C4.47863913,45.5340985 4.73151798,44.9170183 5.17968089,44.4548252 L13.271372,37.7609106 L12.1713049,36.427063 L4.05392683,43.1518598 C4.03112602,43.1707642 3.99245122,43.1908232 3.97181504,43.2120366 C3.1875208,44.0002759 2.74559063,45.0659276 2.74186992,46.177874 L2.74186992,64.3414634 L2.30894309,64.3414634 C1.70306489,64.3287722 1.11743949,64.5597676 0.683372759,64.9826571 C0.249306029,65.4055466 0.0031152391,65.9849481 0,66.5909512 L0,70.6910569 C0.00151085954,71.9656246 1.03437538,72.9984891 2.30894309,73 L17.5191057,73 C18.1253356,72.9971119 18.7050462,72.7510502 19.1282602,72.3169846 C19.5514742,71.8829189 19.7827832,71.2971657 19.7703252,70.6910569 L19.7703252,70.6910569 Z M18.0386179,70.6910569 C18.0386179,71.0098554 17.7801806,71.2682927 17.4613821,71.2682927 L2.30894309,71.2682927 C1.99014458,71.2682927 1.73170732,71.0098554 1.73170732,70.6910569 L1.73170732,66.6504065 C1.73170732,66.331608 1.99014458,66.0731707 2.30894309,66.0731707 L17.4613821,66.0731707 C17.7801806,66.0731707 18.0386179,66.331608 18.0386179,66.6504065 L18.0386179,70.6910569 Z" id="Shape" fill="#211265"></path>
                            <path d="M68.6910569,2 L54.9883455,2 C53.7124663,2.00094513 52.6773722,3.03307179 52.6727642,4.30894309 L52.6727642,7.8267622 C52.6720018,8.98989315 53.5387387,9.97097741 54.6930894,10.113626 L54.6930894,13.2627358 C52.9092391,13.6875334 51.6534437,15.2856826 51.6626016,17.1193923 L51.6626016,21.0487805 L53.3943089,21.0487805 L53.3943089,17.1193923 C53.3886558,16.5336171 53.6169343,15.9697924 54.0285231,15.552948 C54.4401119,15.1361036 55.0009949,14.9006899 55.5867947,14.8989106 C55.8135662,14.8977938 56.0303116,14.8053024 56.188023,14.6423493 C56.3457344,14.4793963 56.4310923,14.2597438 56.4247967,14.0330569 L56.4247967,10.0813008 L66.6707317,10.0813008 L66.6707317,26.6590793 C66.6815359,27.2241435 66.4728099,27.7713832 66.0884451,28.1857236 L58.6952093,34.3188537 L59.8063882,35.6525569 L67.2527297,29.4885447 C67.2756748,29.4696402 67.2733659,29.4495813 67.2941463,29.4283679 C68.0153304,28.688204 68.4138466,27.6924325 68.402439,26.6590793 L68.402439,10.0813008 L68.6910569,10.0813008 C69.2974882,10.0928976 69.8832476,9.86085223 70.3172199,9.43710537 C70.7511922,9.01335851 70.9971361,8.43329759 71,7.8267622 L71,4.30894309 C70.9984891,3.03437538 69.9656246,2.00151086 68.6910569,2 Z M69.2682927,7.77235772 C69.2682927,8.09115624 69.0098554,8.3495935 68.6910569,8.3495935 L54.9817073,8.3495935 C54.6629088,8.3495935 54.4044715,8.09115624 54.4044715,7.77235772 L54.4044715,4.30894309 C54.4044715,3.99014458 54.6629088,3.73170732 54.9817073,3.73170732 L68.6910569,3.73170732 C69.0098554,3.73170732 69.2682927,3.99014458 69.2682927,4.30894309 L69.2682927,7.77235772 Z" id="Shape" fill="#211265"></path>
                            <path d="M49.0447154,65.8278455 C48.5665177,65.8278455 48.1788618,66.2155014 48.1788618,66.6936992 L48.1788618,72.0339959 C48.1788618,72.5121937 48.5665177,72.8998496 49.0447154,72.8998496 C49.5229132,72.8998496 49.9105691,72.5121937 49.9105691,72.0339959 L49.9105691,66.6936992 C49.9105691,66.2155014 49.5229132,65.8278455 49.0447154,65.8278455 L49.0447154,65.8278455 Z" id="Path" fill="#211265"></path>
                            <path d="M49.9105691,61.6122927 C49.9105691,61.1340949 49.5229132,60.746439 49.0447154,60.746439 C48.5665177,60.746439 48.1788618,61.1340949 48.1788618,61.6122927 L48.1788618,63.069813 C48.1788618,63.5480108 48.5665177,63.9356667 49.0447154,63.9356667 C49.5229132,63.9356667 49.9105691,63.5480108 49.9105691,63.069813 L49.9105691,61.6122927 Z" id="Path" fill="#211265"></path>
                            <path d="M55.3943089,69.14825 C55.3943089,69.6264478 55.7819648,70.0141037 56.2601626,70.0141037 C56.7383604,70.0141037 57.1260163,69.6264478 57.1260163,69.14825 L57.1260163,65.2506098 C57.1260163,64.772412 56.7383604,64.3847561 56.2601626,64.3847561 C55.7819648,64.3847561 55.3943089,64.772412 55.3943089,65.2506098 L55.3943089,69.14825 Z" id="Path" fill="#211265"></path>
                            <path d="M55.3943089,58.7261138 L55.3943089,61.6267236 C55.3943089,62.1049213 55.7819648,62.4925772 56.2601626,62.4925772 C56.7383604,62.4925772 57.1260163,62.1049213 57.1260163,61.6267236 L57.1260163,58.7261138 C57.1260163,58.247916 56.7383604,57.8602602 56.2601626,57.8602602 C55.7819648,57.8602602 55.3943089,58.247916 55.3943089,58.7261138 L55.3943089,58.7261138 Z" id="Path" fill="#211265"></path>
                            <path d="M41.8292683,65.5392276 C41.3510705,65.5392276 40.9634146,65.9268835 40.9634146,66.4050813 L40.9634146,69.1478171 C40.9634146,69.6260148 41.3510705,70.0136707 41.8292683,70.0136707 C42.3074661,70.0136707 42.695122,69.6260148 42.695122,69.1478171 L42.695122,66.4050813 C42.695122,65.9268835 42.3074661,65.5392276 41.8292683,65.5392276 L41.8292683,65.5392276 Z" id="Path" fill="#211265"></path>
                            <path d="M42.695122,58.7261138 C42.695122,58.247916 42.3074661,57.8602602 41.8292683,57.8602602 C41.3510705,57.8602602 40.9634146,58.247916 40.9634146,58.7261138 L40.9634146,63.3584309 C40.9634146,63.8366287 41.3510705,64.2242846 41.8292683,64.2242846 C42.3074661,64.2242846 42.695122,63.8366287 42.695122,63.3584309 L42.695122,58.7261138 Z" id="Path" fill="#211265"></path>
                            <path d="M23.5223577,1.80111992 C23.5223577,1.32292215 23.1347018,0.93526626 22.6565041,0.93526626 C22.1783063,0.93526626 21.7906504,1.32292215 21.7906504,1.80111992 L21.7906504,7.14141667 C21.7906504,7.61961444 22.1783063,8.00727033 22.6565041,8.00727033 C23.1347018,8.00727033 23.5223577,7.61961444 23.5223577,7.14141667 L23.5223577,1.80111992 Z" id="Path" fill="#211265"></path>
                            <path d="M22.6565041,9.8995935 C22.1783063,9.8995935 21.7906504,10.2872494 21.7906504,10.7654472 L21.7906504,12.2229675 C21.7906504,12.7011653 22.1783063,13.0888211 22.6565041,13.0888211 C23.1347018,13.0888211 23.5223577,12.7011653 23.5223577,12.2229675 L23.5223577,10.7654472 C23.5223577,10.2872494 23.1347018,9.8995935 22.6565041,9.8995935 Z" id="Path" fill="#211265"></path>
                            <path d="M15.4410569,9.45035976 C15.9192547,9.45035976 16.3069106,9.06270387 16.3069106,8.5845061 L16.3069106,4.68729878 C16.3069106,4.20910101 15.9192547,3.82144512 15.4410569,3.82144512 C14.9628591,3.82144512 14.5752033,4.20910101 14.5752033,4.68729878 L14.5752033,8.5845061 C14.5752033,9.06270387 14.9628591,9.45035976 15.4410569,9.45035976 Z" id="Path" fill="#211265"></path>
                            <path d="M14.5752033,15.1091463 C14.5752033,15.5873441 14.9628591,15.975 15.4410569,15.975 C15.9192547,15.975 16.3069106,15.5873441 16.3069106,15.1091463 L16.3069106,12.2085366 C16.3069106,11.7303388 15.9192547,11.3426829 15.4410569,11.3426829 C14.9628591,11.3426829 14.5752033,11.7303388 14.5752033,12.2085366 L14.5752033,15.1091463 Z" id="Path" fill="#211265"></path>
                            <path d="M30.7378049,4.68729878 C30.7378049,4.20910101 30.350149,3.82144512 29.8719512,3.82144512 C29.3937534,3.82144512 29.0060976,4.20910101 29.0060976,4.68729878 L29.0060976,7.43003455 C29.0060976,7.90823232 29.3937534,8.29588821 29.8719512,8.29588821 C30.350149,8.29588821 30.7378049,7.90823232 30.7378049,7.43003455 L30.7378049,4.68729878 Z" id="Path" fill="#211265"></path>
                            <path d="M29.8719512,9.61097561 C29.3937534,9.61097561 29.0060976,9.9986315 29.0060976,10.4768293 L29.0060976,15.1091463 C29.0060976,15.5873441 29.3937534,15.975 29.8719512,15.975 C30.350149,15.975 30.7378049,15.5873441 30.7378049,15.1091463 L30.7378049,10.4768293 C30.7378049,9.9986315 30.350149,9.61097561 29.8719512,9.61097561 Z" id="Path" fill="#211265"></path>
                            <path d="M34.2012195,50.915248 L34.2012195,21.7071179 C34.1997133,20.4686391 33.1969899,19.4645607 31.9585142,19.4613821 L14.0601646,19.4613821 C13.4668501,19.4635198 12.8987355,19.7014934 12.4810273,20.122856 C12.063319,20.5442186 11.8303029,21.1143845 11.8333333,21.7076951 L11.8333333,45.148374 L13.5650407,45.148374 L13.5650407,21.7076951 C13.5615159,21.57353 13.6119181,21.4435507 13.7049716,21.3468359 C13.798025,21.250121 13.9259634,21.1947425 14.0601646,21.1930894 L31.9585142,21.1930894 C32.2412802,21.1951506 32.4694404,21.4249217 32.4695122,21.7076951 L32.4695122,50.9158252 C32.4695122,51.1975163 32.2402053,51.4985447 31.9585142,51.4985447 L13.8536585,51.4985447 L13.8536585,53.230252 L31.9585142,53.230252 C33.1950976,53.2296748 34.2012195,52.1518313 34.2012195,50.915248 Z" id="Path" fill="#6013DC"></path>
                            <path d="M23.4817025,40.9564844 L23.4817025,40.5629051 L24.5520244,40.5629051 C25.1240785,40.5629051 25.5878199,40.0957072 25.5878199,39.5193894 C25.5878199,38.9430716 25.1240785,38.4758738 24.5520244,38.4758738 L23.4817025,38.4758738 L23.4817025,38.1280352 L24.5520244,38.1280352 C25.1240785,38.1280352 25.5878199,37.6608374 25.5878199,37.0845196 C25.5878199,36.5082018 25.1240785,36.041004 24.5520244,36.041004 L23.4817025,36.041004 L23.4817025,36.0498738 L26.7810562,31.669717 C27.0093102,31.3770823 27.0634893,30.9833023 26.9228487,30.6391531 C26.7822081,30.2950038 26.4685355,30.0537999 26.1019343,30.007897 C25.735333,29.9619941 25.372596,30.1185033 25.1526132,30.4174982 L22.5178948,33.9628426 L19.8807597,30.4174982 C19.5316056,29.9646517 18.8880463,29.8741816 18.4291816,30.2134386 C17.9703169,30.5526956 17.8629726,31.1983388 18.1870615,31.669717 L21.4101116,36.0498738 L21.4101116,36.041004 L20.4930874,36.041004 C19.9210334,36.041004 19.457292,36.5082018 19.457292,37.0845196 C19.457292,37.6608374 19.9210334,38.1280352 20.4930874,38.1280352 L21.4101116,38.1280352 L21.4101116,38.4758738 L20.4930874,38.4758738 C19.9210334,38.4758738 19.457292,38.9430716 19.457292,39.5193894 C19.457292,40.0957072 19.9210334,40.5629051 20.4930874,40.5629051 L21.4101116,40.5629051 L21.4101116,40.9564844 C21.4101116,41.5328021 21.873853,42 22.4459071,42 C23.0179611,42 23.4817025,41.5328021 23.4817025,40.9564844 L23.4817025,40.9564844 Z" id="Path" fill="#6013DC"></path>
                            <path d="M58.2467781,51.0152416 C58.2407191,51.2550698 58.038607,51.4449546 57.7946636,51.4400042 L39.509198,51.4400042 C39.3971646,51.4403095 39.2900814,51.3946439 39.2137519,51.3140112 C39.1374223,51.2333784 39.0987683,51.1250907 39.107104,51.0152416 L39.107104,21.675781 C39.0980173,21.5642414 39.1359211,21.4539276 39.211944,21.3706588 C39.287967,21.2873899 39.3954361,21.238475 39.509198,21.2353626 L58.0859405,21.2353626 L58.0859405,19.3376887 L39.509198,19.3376887 C38.8837951,19.341172 38.285703,19.5900746 37.8477938,20.0291006 C37.4098845,20.4681265 37.1684233,21.0609181 37.1770529,21.675781 L37.1770529,51.0152416 C37.1690518,51.6284693 37.4112225,52.2192935 37.8494548,52.6557015 C38.287687,53.0921094 38.8854564,53.3377285 39.509198,53.337678 L57.7946636,53.337678 C59.1040777,53.3415335 60.1696527,52.3026762 60.1768293,51.0152416 L60.1768293,27.4028025 L58.2467781,27.4028025 L58.2467781,51.0152416 Z" id="Path" fill="#6013DC"></path>
                            <path d="M47.9197171,31.0398013 L47.9197171,31.3389175 C46.7793272,31.8045919 46.026068,32.8947774 46.0012256,34.1155335 C46.0102778,35.7569353 47.356868,37.0830035 49.0152726,37.0836462 C49.51232,37.0837244 49.9163689,37.480388 49.9205022,37.9723297 C49.9250163,38.2917569 49.755427,38.5888505 49.4766616,38.7498678 C49.1978963,38.9108851 48.8531347,38.9108851 48.5743694,38.7498678 C48.295604,38.5888505 48.1260146,38.2917569 48.1305288,37.9723297 C48.1305288,37.3980633 47.6601786,36.9325285 47.0799722,36.9325285 C46.4939929,36.9302888 46.0139158,37.3925087 46,37.9723297 C46.0250747,39.1933298 46.7788744,40.2835329 47.9197171,40.7487725 L47.9197171,40.9601987 C47.9197171,41.5344651 48.3900673,42 48.9702737,42 C49.5504801,42 50.0208303,41.5344651 50.0208303,40.9601987 L50.0208303,40.7487725 C51.2210474,40.348758 52.0214248,39.2256102 51.9993786,37.9723297 C52.0018897,37.1869431 51.6888238,36.4327893 51.1291549,35.8760221 C50.569486,35.3192549 49.8091356,35.0055577 49.0156228,35.0040437 C48.7784257,35.0033565 48.5512508,34.9092923 48.3842177,34.7426037 C48.2171845,34.5759151 48.1240193,34.3502999 48.125276,34.1155335 C48.1277435,33.6278004 48.5254863,33.2324314 49.0182491,33.2278898 L49.0291049,33.2278898 L49.0390852,33.2278898 C49.5310171,33.2329187 49.9273696,33.6286126 49.9282063,34.1155335 C49.9282063,34.6897999 50.3985565,35.1553348 50.9787629,35.1553348 C51.2543206,35.1541588 51.5178062,35.0432719 51.7098369,34.847665 C51.9018676,34.652058 52.0062841,34.3881913 51.9995537,34.1155335 C52.0216521,32.8621435 51.2211791,31.7388908 50.0208303,31.3389175 L50.0208303,31.0398013 C50.0208303,30.4655349 49.5504801,30 48.9702737,30 C48.3900673,30 47.9197171,30.4655349 47.9197171,31.0398013 L47.9197171,31.0398013 Z" id="Path" fill="#6013DC"></path>
                            <path d="M17.6359959,46.9552663 C18.9580868,45.6301238 18.9580868,43.4848782 17.6359959,42.1597358 L17.0407215,41.5644614 C16.7299154,41.253698 16.2355878,41.2250944 15.8910122,41.497935 L7.80494919,47.9004898 C7.56112844,48.0920906 7.43838679,48.3994521 7.48315757,48.7062989 C7.52792835,49.0131458 7.73337508,49.2726226 8.02177697,49.3865689 C8.31017885,49.5005153 8.63749701,49.4515315 8.8799065,49.2581484 L16.3614593,43.334122 L16.4113902,43.3841972 C17.0582161,44.03268 17.0582161,45.0823221 16.4113902,45.7308049 L12.8404654,49.301874 C12.6900993,49.4521325 12.6002623,49.6524551 12.5880691,49.8646789 L12.5430447,50.6439472 C12.5420346,50.6605427 12.5416016,50.6772825 12.5416016,50.693878 C12.5452288,51.3171511 12.6870767,51.931858 12.9569228,52.4936992 C13.5033945,53.6612498 13.403705,55.0289199 12.6937033,56.1048862 C12.6009524,56.2476144 12.5526383,56.4146547 12.554878,56.5848577 L12.554878,58.2682215 C12.554878,58.7464193 12.9425339,59.1340752 13.4207317,59.1340752 C13.8989295,59.1340752 14.2865854,58.7464193 14.2865854,58.2682215 L14.2865854,56.8343679 C15.152439,55.3006524 15.2934289,53.380189 14.5309004,51.7571463 C14.3722668,51.4323068 14.2855854,51.0770655 14.2767724,50.7156687 L14.2995732,50.2932764 L17.6359959,46.9552663 Z" id="Path" fill="#211265"></path>
                            <path d="M54.7106951,25.8953963 C54.1141991,26.4918484 53.7790875,27.3008374 53.7790875,28.1443791 C53.7790875,28.9879207 54.1141991,29.7969097 54.7106951,30.3933618 L55.2561829,30.9389939 C55.5669708,31.2498856 56.0613999,31.2785536 56.4060366,31.0056646 L63.8181768,25.1366199 C64.0619976,24.9450191 64.1847392,24.6376577 64.1399685,24.3308108 C64.0951977,24.023964 63.8897509,23.7644871 63.6013491,23.6505408 C63.3129472,23.5365945 62.985629,23.5855782 62.7432195,23.7789614 L55.9355894,29.1693333 L55.9355894,29.1693333 C55.3698084,28.6034302 55.3698084,27.6860495 55.9355894,27.1201463 L59.2092378,23.8466423 C59.3594416,23.6963005 59.4491633,23.4960058 59.4613455,23.2838374 L59.5026179,22.5699411 C59.503628,22.5533455 59.504061,22.5366057 59.504061,22.5200102 C59.5008516,21.9378323 59.3684634,21.3636244 59.1164472,20.838811 C58.6204152,19.7945821 58.703004,18.5675568 59.334498,17.5992195 C59.4220168,17.4548495 59.4642878,17.287575 59.4558618,17.1189593 L59.4558618,15.5762967 C59.4558618,15.098099 59.0682059,14.7104431 58.5900081,14.7104431 C58.1118104,14.7104431 57.7241545,15.098099 57.7241545,15.5762967 L57.7241545,16.8708923 C57.0026098,18.2945 56.8189045,20.0722419 57.5250081,21.5753638 C57.6682516,21.8625118 57.7484517,22.1769651 57.7602317,22.4976423 L57.7458008,22.8550955 L54.7106951,25.8953963 Z" id="Path" fill="#211265"></path>
                        </g>
                    </g>
                </g>
            </g>
        </g>
    </g>
</svg>