<?xml version="1.0" encoding="UTF-8"?>
<svg width="65px" height="65px" viewBox="0 0 65 65" version="1.1" xmlns="http://www.w3.org/2000/svg" xmlns:xlink="http://www.w3.org/1999/xlink">
    <!-- Generator: sketchtool 54.1 (76490) - https://sketchapp.com -->
    <title>43E452CB-FE5E-4FCD-AF8D-E9BECB7C4836</title>
    <desc>Created with sketchtool.</desc>
    <g id="Page-1" stroke="none" stroke-width="1" fill="none" fill-rule="evenodd">
        <g id="pays-XDR---1440px" transform="translate(-1121.000000, -4266.000000)" fill-rule="nonzero">
            <g id="Group-43" transform="translate(190.000000, 4005.000000)">
                <g id="Group-63" transform="translate(868.000000, 261.000000)">
                    <g id="Group-40" transform="translate(63.000000, 0.000000)">
                        <g id="233-save-3">
                            <polygon id="Path" fill-opacity="0.0976835664" fill="#6013DC" points="3.42149554 41.8473451 9.8163058 41.8473451 9.3734933 40.409292 1.97060268 40.409292 4.76850446 63.130531 6.04238839 63.130531"></polygon>
                            <path d="M35.382779,46.7768473 C35.2243674,46.7984699 35.063009,46.7761702 34.9166071,46.7124226 C34.5171,46.8840152 34.3069412,47.3217709 34.4245963,47.7372692 C34.5422513,48.1527674 34.9515321,48.4182095 35.382779,48.3587058 C37.2390091,48.1045891 39.1147513,48.0187655 40.9867076,48.1023009 L47.3839844,48.3899115 C47.3971875,48.3899115 47.4102455,48.3909181 47.4233036,48.3909181 C47.9040872,48.3909181 48.2938393,48.0046152 48.2938393,47.5280863 C48.2938393,47.3986615 48.2889063,47.2711062 48.2812165,47.1438385 L49.1417411,46.6935841 L58.4088839,41.7384845 C59.400351,41.2065181 60.5846013,41.1600984 61.6153571,41.6127987 L62.7683817,40.8281969 C61.6325903,39.6583247 59.8487281,39.3835613 58.4083036,40.1566261 L49.1417411,45.1117257 L48.2815067,45.5614049 C48.2891964,45.6886726 48.2941295,45.8165155 48.2941295,45.9456527 C48.2941295,46.4221815 47.9043773,46.8084845 47.4235938,46.8084845 C47.4105357,46.8084845 47.3974777,46.8084845 47.3842746,46.8074779 L40.9869978,46.5198673 C39.1149273,46.4365049 37.2390871,46.5225211 35.382779,46.7768473 L35.382779,46.7768473 Z" id="Path" fill-opacity="0.0976835664" fill="#6013DC"></path>
                            <path d="M15.4656473,44.2920354 L17.3056696,42.6683296 C20.7745976,40.0844808 25.4109278,39.6427083 29.3129687,41.5242146 L30.0862946,41.8903429 C31.4157171,42.5241037 32.8719296,42.8533945 34.3471317,42.8538385 L41.8472321,42.8538385 C43.4504291,42.8555246 44.9424498,43.6661182 45.8062835,45.0047345 L46.4635379,45.0334956 C46.024198,42.8504733 44.0931308,41.2770374 41.8472321,41.2721239 L34.3471317,41.2721239 C32.8719296,41.2716799 31.4157171,40.9423891 30.0862946,40.3086283 L29.3129687,39.9425 C25.4109278,38.0609937 20.7745976,38.5027662 17.3056696,41.086615 L15.4656473,42.710177 C14.5832218,43.4883292 13.5414736,44.0681703 12.411808,44.4099558 L12.8528795,45.8438385 C13.8140966,45.4931678 14.7003639,44.9667864 15.4656473,44.2920354 L15.4656473,44.2920354 Z" id="Path" fill-opacity="0.0976835664" fill="#6013DC"></path>
                            <path d="M35.411942,30.116427 C34.9664211,30.116427 34.5169345,30.0944727 34.0634821,30.0505642 C28.3109948,29.4911817 23.539717,25.3970502 22.1575142,19.8343074 C20.7753114,14.2715647 23.0826766,8.44955957 27.9151786,5.30641593 C21.9039053,7.43245746 18.1844732,13.4065426 18.9629355,19.6853481 C19.7413979,25.9641536 24.8094957,30.8679362 31.1612612,31.4881858 C31.6139397,31.5322861 32.0634263,31.5542404 32.509721,31.5540487 C35.1682121,31.5529063 37.7678119,30.7778327 39.9857366,29.3250664 C38.5185874,29.848297 36.971175,30.1160312 35.411942,30.116427 L35.411942,30.116427 Z" id="Path" fill-opacity="0.0976835664" fill="#6013DC"></path>
                            <path d="M57.5817299,38.6377544 L57.2706585,38.8041372 C55.9168304,37.1935177 53.5853906,36.5717035 51.8087723,37.4645907 L51.7893304,37.4746571 L51.023404,37.8836394 C49.097658,36.2766615 46.3636844,36.0345281 44.1809933,37.2776438 L39.9626674,39.5464602 L34.3477121,39.5464602 C33.1350671,39.5464558 31.9379483,39.2761432 30.8449665,38.755531 L30.0714955,38.3871018 C25.5710279,36.2171513 20.2224891,36.7353127 16.2311384,39.7279425 C16.2121317,39.742323 16.1935603,39.757854 16.1757143,39.7735288 L14.3084152,41.4215376 C13.613499,42.0334714 12.7932769,42.4892058 11.9039955,42.7574889 L10.8515179,39.3155088 C10.7419087,38.9477308 10.4050832,38.6923044 10.0182701,38.6836283 L0.987477679,38.6836283 C0.735704557,38.6930369 0.499309964,38.8061389 0.335264663,38.9956767 C0.171219363,39.1852145 0.09440216,39.4339972 0.123325893,39.6820686 L3.13392857,64.1227876 C3.1896538,64.5506996 3.56291542,64.8674873 3.99808036,64.8561947 L17.5443415,64.8561947 C17.8159335,64.870187 18.0771683,64.7512176 18.243362,64.5378526 C18.4095557,64.3244877 18.4595558,64.0438832 18.377154,63.7870022 L16.6030022,58.0283186 L22.1261161,54.5718142 C22.8612929,54.1699631 23.7231258,54.0602056 24.5369196,54.2647898 C24.5549107,54.2692478 24.5730469,54.2741372 24.5913281,54.2774447 L35.8654911,56.3355863 C38.9357032,56.8801031 42.1011451,56.437233 44.8993304,55.0716814 C44.9362326,55.0536272 44.9717748,55.0329617 45.0056808,55.0098451 L64.5056808,41.7394912 C64.8853771,41.4810843 64.9962846,40.9742523 64.7587165,40.5831527 C63.2767402,38.1360488 60.1139033,37.2787284 57.5817299,38.6377544 Z M52.6051674,38.9994248 C53.6062835,38.5027212 54.8646429,38.9000553 55.6810603,39.6541704 L48.3222768,43.5889712 L47.9189286,43.7997898 C47.6879079,43.1609769 47.3555922,42.5627622 46.9344978,42.027677 L52.6051674,38.9994248 Z M45.0232366,38.7927765 L45.0438393,38.7814159 C46.3671175,38.0231359 47.9994582,38.0282436 49.3178795,38.7947898 L45.620279,40.7688053 C44.9252681,40.2692599 44.1362409,39.9129315 43.2998661,39.720896 L45.0232366,38.7927765 Z M4.76850446,63.130531 L1.97060268,40.409292 L9.3734933,40.409292 L16.3683929,63.130531 L4.76850446,63.130531 Z M44.071596,53.5520907 C41.6225885,54.7330337 38.8586968,55.1133832 36.1777232,54.638396 L24.9321429,52.5860066 C23.6880468,52.2817701 22.3737547,52.458389 21.2563058,53.0799779 C21.2428125,53.0875996 21.2293192,53.0955088 21.2161161,53.1037058 L16.0758929,56.3242257 L12.4112277,44.410531 C13.5411493,44.0686509 14.5831065,43.4886075 15.4656473,42.710177 L17.3056696,41.0864712 C20.7745976,38.5026224 25.4109278,38.0608499 29.3129687,39.9423562 L30.0862946,40.3084845 C31.4157171,40.9422453 32.8719296,41.2715361 34.3471317,41.2719801 L41.8472321,41.2719801 C44.0933097,41.2769486 46.0244394,42.8506761 46.4635379,45.033927 L41.065346,44.7942035 C39.0873061,44.7063827 37.105307,44.797501 35.1439621,45.066427 C34.6674655,45.1317909 34.3346496,45.5676372 34.4005971,46.039917 C34.4665446,46.5121969 34.9062824,46.8420674 35.382779,46.7767035 C37.2390085,46.5225805 39.1147513,46.4367569 40.9867076,46.5202987 L47.3839844,46.8079093 C47.3971875,46.8079093 47.4102455,46.8089159 47.4233036,46.8089159 C47.9040872,46.8089159 48.2938393,46.4226129 48.2938393,45.9460841 C48.2938393,45.8166593 48.2889062,45.689104 48.2812165,45.5618363 L49.1417411,45.1117257 L58.4088839,40.1566261 C59.8493084,39.3835613 61.6331707,39.6583247 62.7689621,40.8281969 L44.071596,53.5520907 Z" id="Shape" fill="#211265"></path>
                            <path d="M32.5,33.2794248 C40.9938436,33.2794248 47.8794643,26.4547388 47.8794643,18.0360619 C47.8794643,9.61738512 40.9938436,2.79269912 32.5,2.79269912 C24.0061564,2.79269912 17.1205357,9.61738512 17.1205357,18.0360619 C17.1301306,26.4507965 24.0101339,33.2699148 32.5,33.2794248 Z M32.5,4.51836283 C40.0322764,4.51836283 46.1383929,10.5704429 46.1383929,18.0360619 C46.1383929,25.501681 40.0322764,31.5537611 32.5,31.5537611 C24.9677236,31.5537611 18.8616071,25.501681 18.8616071,18.0360619 C18.8700827,10.5739253 24.9712371,4.52676338 32.5,4.51836283 Z" id="Shape" fill="#6013DC"></path>
                            <path d="M53.828125,12.9782854 C54.3089086,12.9782854 54.6986607,12.5919824 54.6986607,12.1154535 L54.6986607,10.6774004 C54.6986607,10.2008716 54.3089086,9.81456858 53.828125,9.81456858 C53.3473414,9.81456858 52.9575893,10.2008716 52.9575893,10.6774004 L52.9575893,12.1154535 C52.9575893,12.5919824 53.3473414,12.9782854 53.828125,12.9782854 L53.828125,12.9782854 Z" id="Path" fill="#6013DC"></path>
                            <path d="M53.828125,14.1287279 C53.3473414,14.1287279 52.9575893,14.5150309 52.9575893,14.9915597 L52.9575893,16.4296128 C52.9575893,16.9061417 53.3473414,17.2924447 53.828125,17.2924447 C54.3089086,17.2924447 54.6986607,16.9061417 54.6986607,16.4296128 L54.6986607,14.9915597 C54.6986607,14.5150309 54.3089086,14.1287279 53.828125,14.1287279 L53.828125,14.1287279 Z" id="Path" fill="#6013DC"></path>
                            <path d="M53.2985491,13.5176991 C53.2985491,13.0411702 52.908797,12.6548673 52.4280134,12.6548673 L50.9771205,12.6548673 C50.4963369,12.6548673 50.1065848,13.0411702 50.1065848,13.5176991 C50.1065848,13.994228 50.4963369,14.380531 50.9771205,14.380531 L52.4280134,14.380531 C52.908797,14.380531 53.2985491,13.994228 53.2985491,13.5176991 L53.2985491,13.5176991 Z" id="Path" fill="#6013DC"></path>
                            <path d="M56.780692,12.6548673 L55.3297991,12.6548673 C54.8490155,12.6548673 54.4592634,13.0411702 54.4592634,13.5176991 C54.4592634,13.994228 54.8490155,14.380531 55.3297991,14.380531 L56.780692,14.380531 C57.2614756,14.380531 57.6512277,13.994228 57.6512277,13.5176991 C57.6512277,13.0411702 57.2614756,12.6548673 56.780692,12.6548673 L56.780692,12.6548673 Z" id="Path" fill="#6013DC"></path>
                            <path d="M15.6696429,3.24712389 C16.1504265,3.24712389 16.5401786,2.86082091 16.5401786,2.38429204 L16.5401786,0.946238938 C16.5401786,0.469710061 16.1504265,0.0834070796 15.6696429,0.0834070796 C15.1888593,0.0834070796 14.7991071,0.469710061 14.7991071,0.946238938 L14.7991071,2.38429204 C14.7991071,2.86082091 15.1888593,3.24712389 15.6696429,3.24712389 L15.6696429,3.24712389 Z" id="Path" fill="#6013DC"></path>
                            <path d="M15.6696429,4.39756637 C15.1888593,4.39756637 14.7991071,4.78386935 14.7991071,5.26039823 L14.7991071,6.69845133 C14.7991071,7.1749802 15.1888593,7.56128319 15.6696429,7.56128319 C16.1504265,7.56128319 16.5401786,7.1749802 16.5401786,6.69845133 L16.5401786,5.26039823 C16.5401786,4.78386935 16.1504265,4.39756637 15.6696429,4.39756637 L15.6696429,4.39756637 Z" id="Path" fill="#6013DC"></path>
                            <path d="M15.1200446,3.88274336 C15.1200446,3.40621449 14.7302925,3.0199115 14.2495089,3.0199115 L12.7986161,3.0199115 C12.3178325,3.0199115 11.9280804,3.40621449 11.9280804,3.88274336 C11.9280804,4.35927224 12.3178325,4.74557522 12.7986161,4.74557522 L14.2495089,4.74557522 C14.7302925,4.74557522 15.1200446,4.35927224 15.1200446,3.88274336 Z" id="Path" fill="#6013DC"></path>
                            <path d="M18.6021875,4.74557522 C19.0829711,4.74557522 19.4727232,4.35927224 19.4727232,3.88274336 C19.4727232,3.40621449 19.0829711,3.0199115 18.6021875,3.0199115 L17.1512946,3.0199115 C16.670511,3.0199115 16.2807589,3.40621449 16.2807589,3.88274336 C16.2807589,4.35927224 16.670511,4.74557522 17.1512946,4.74557522 L18.6021875,4.74557522 Z" id="Path" fill="#6013DC"></path>
                        </g>
                        <path d="M23.7029,21.0198 C23.2870979,21.0198 23.0792,20.9571006 23.0792,20.8317 C23.0792,20.7722997 23.1121997,20.6898005 23.1782,20.5842 L25.2176,17.3865 L23.4059,14.4858 C23.3398997,14.3735994 23.3069,14.2911003 23.3069,14.2383 C23.3069,14.1788997 23.3596995,14.1327002 23.4653,14.0997 C23.5709005,14.0666998 23.7292989,14.0502 23.9405,14.0502 L24.3464,14.0502 C24.6698016,14.0502 24.8677996,14.1128994 24.9404,14.2383 L26.069,16.0797 L27.257,14.2383 C27.3098003,14.1590996 27.3823995,14.1079501 27.4748,14.08485 C27.5672005,14.0617499 27.6958992,14.0502 27.8609,14.0502 L28.247,14.0502 C28.6628021,14.0502 28.8707,14.1128994 28.8707,14.2383 C28.8707,14.3109004 28.8377003,14.3933995 28.7717,14.4858 L26.9006,17.4063 L28.8806,20.5842 C28.9400003,20.6832005 28.9697,20.7656997 28.9697,20.8317 C28.9697,20.9571006 28.7618021,21.0198 28.346,21.0198 L27.9599,21.0198 C27.6364984,21.0198 27.4385004,20.9571006 27.3659,20.8317 L26.0492,18.7032 L24.683,20.8317 C24.6301997,20.9109004 24.5592504,20.9620499 24.47015,20.98515 C24.3810496,21.0082501 24.2507009,21.0198 24.0791,21.0198 L23.7029,21.0198 Z M30.1973,21 C30.0586993,21 29.9580503,20.9686503 29.89535,20.90595 C29.8326497,20.8432497 29.8013,20.7426007 29.8013,20.604 L29.8013,14.466 C29.8013,14.3273993 29.8326497,14.2267503 29.89535,14.16405 C29.9580503,14.1013497 30.0586993,14.07 30.1973,14.07 L32.3159,14.07 C33.3389051,14.07 34.1226473,14.368647 34.66715,14.96595 C35.2116527,15.563253 35.4839,16.4195944 35.4839,17.535 C35.4839,18.6504056 35.2116527,19.506747 34.66715,20.10405 C34.1226473,20.701353 33.3389051,21 32.3159,21 L30.1973,21 Z M32.3159,19.7031 C32.8439026,19.7031 33.2431986,19.5183018 33.5138,19.1487 C33.7844014,18.7790982 33.9197,18.2412035 33.9197,17.535 C33.9197,16.8287965 33.7844014,16.2909018 33.5138,15.9213 C33.2431986,15.5516982 32.8439026,15.3669 32.3159,15.3669 L31.3358,15.3669 L31.3358,19.7031 L32.3159,19.7031 Z M37.2065,21.0198 C36.810498,21.0198 36.6125,20.9142011 36.6125,20.703 L36.6125,14.466 C36.6125,14.3273993 36.6438497,14.2267503 36.70655,14.16405 C36.7692503,14.1013497 36.8698993,14.07 37.0085,14.07 L38.939,14.07 C40.5824082,14.07 41.4041,14.6903938 41.4041,15.9312 C41.4041,16.3008018 41.300151,16.6225486 41.09225,16.89645 C40.884349,17.1703514 40.6022018,17.3732993 40.2458,17.5053 L40.2458,17.5449 C40.3712006,17.5911002 40.4998993,17.7016491 40.6319,17.87655 C40.7639007,18.0514509 40.8727996,18.2444989 40.9586,18.4557 L41.8298,20.6337 C41.8628002,20.7195004 41.8793,20.7821998 41.8793,20.8218 C41.8793,20.8812003 41.8298005,20.9290498 41.7308,20.96535 C41.6317995,21.0016502 41.483301,21.0198 41.2853,21.0198 L40.8794,21.0198 C40.5559984,21.0198 40.3646003,20.9505007 40.3052,20.8119 L39.5231,18.8814 C39.4108994,18.6635989 39.2904506,18.5101504 39.16175,18.42105 C39.0330494,18.3319496 38.8202015,18.2874 38.5232,18.2874 L38.1371,18.2874 L38.1371,20.703 C38.1371,20.9142011 37.939102,21.0198 37.5431,21.0198 L37.2065,21.0198 Z M39.0776,16.9707 C39.282201,16.9707 39.4603992,16.8882008 39.6122,16.7232 C39.7640008,16.5581992 39.8399,16.3569012 39.8399,16.1193 C39.8399,15.8882988 39.7656507,15.7051507 39.61715,15.56985 C39.4686493,15.4345493 39.2657013,15.3669 39.0083,15.3669 L38.1371,15.3669 L38.1371,16.9707 L39.0776,16.9707 Z" id="XDR" fill="#6013DC"></path>
                    </g>
                </g>
            </g>
        </g>
    </g>
</svg>