<?xml version="1.0" encoding="UTF-8"?>
<svg width="55px" height="59px" viewBox="0 0 55 59" version="1.1" xmlns="http://www.w3.org/2000/svg" xmlns:xlink="http://www.w3.org/1999/xlink">
    <!-- Generator: sketchtool 54.1 (76490) - https://sketchapp.com -->
    <title>1E4E9235-B125-4405-A08E-4C0DDE69EDFB</title>
    <desc>Created with sketchtool.</desc>
    <g id="Page-1" stroke="none" stroke-width="1" fill="none" fill-rule="evenodd">
        <g id="pays-XDR---1440px" transform="translate(-791.000000, -4827.000000)" fill-rule="nonzero">
            <g id="Group-32" transform="translate(171.000000, 4651.000000)">
                <g id="Group-30" transform="translate(561.000000, 120.000000)">
                    <g id="Group-45" transform="translate(59.000000, 56.000000)">
                        <g id="Group-8">
                            <g id="business-and-finance">
                                <path d="M26.921729,35.7930247 C23.3147082,35.794972 20.0303851,33.6543335 18.4894119,30.2970542 C16.9484386,26.9397748 17.4274703,22.9685962 19.7192991,20.1012735 C16.9772259,22.4198098 15.7516393,26.139883 16.5578832,29.6972484 C17.3641271,33.2546137 20.0623636,36.0322683 23.5180175,36.8622427 C26.9736714,37.6922171 30.587381,36.4305573 32.8396262,33.6077758 C31.1739481,35.0226123 29.0812217,35.7953746 26.921729,35.7930247 Z" id="Path" fill="#EFE8FB"></path>
                                <path d="M25.6366822,38.7033386 C31.6387684,38.7032655 36.5043697,33.6943545 36.5043224,27.5156069 C36.5042751,21.3368592 31.6385971,16.3280272 25.6365109,16.3280516 C19.6344247,16.3280759 14.768785,21.3369474 14.768785,27.5156951 C14.7755836,33.6916103 19.6373474,38.6964129 25.6366822,38.7033386 Z M25.6366822,17.9154955 C30.7871144,17.9155686 34.9623137,22.2137567 34.9622664,27.5157833 C34.962219,32.8178098 30.786943,37.115919 25.6365109,37.1158946 C20.4860788,37.1158703 16.3108411,32.8177217 16.3108411,27.5156951 C16.316719,22.216108 20.4886198,17.9214734 25.6366822,17.9154955 Z" id="Shape" fill="#6013DC"></path>
                                <path d="M15.0462266,16.7279552 C9.29108574,22.6998494 9.29108574,32.3320699 15.0462266,38.3039641 C15.0754496,38.3493946 15.1132516,38.3883093 15.1573832,38.4183924 C20.9585591,44.3428543 30.3153194,44.3428543 36.1164953,38.4183924 C36.1605041,38.3882538 36.1982465,38.3494005 36.2275234,38.3040964 C41.9824542,32.3321131 41.9824542,22.7000708 36.2275234,16.7280874 C36.1982465,16.6827833 36.1605041,16.6439301 36.1164953,16.6137915 C30.3152617,10.6894737 20.9586168,10.6894737 15.1573832,16.6137915 C15.1361683,16.6298233 15.1157932,16.6470006 15.0963435,16.6652511 C15.0785399,16.6851963 15.0618093,16.7061289 15.0462266,16.7279552 Z M16.1346612,18.8564529 C16.436462,19.1621172 16.9212288,19.1600852 17.2206015,18.8519009 C17.5199742,18.5437167 17.5219482,18.0446816 17.2250234,17.7339978 L16.7203855,17.2474462 C18.9558215,15.1846165 21.8044852,13.9627415 24.8014019,13.7812623 L24.8014019,14.4760336 C24.8014019,14.9143942 25.1466029,15.2697556 25.5724299,15.2697556 C25.9982569,15.2697556 26.3434579,14.9143942 26.3434579,14.4760336 L26.3434579,13.7812623 C29.3651856,13.9367952 32.2422074,15.1610059 34.4887266,17.2471816 L34.032278,17.7337332 C33.7380577,18.0488126 33.7444013,18.5487944 34.0465151,18.8558558 C34.3486289,19.1629173 34.8343567,19.1630654 35.1366472,18.8561883 L35.6103154,18.3697691 C37.6187918,20.6812648 38.8061894,23.6257633 38.9784229,26.7219731 L38.3035164,26.7219731 C37.8776893,26.7219731 37.5324883,27.0773345 37.5324883,27.5156951 C37.5324883,27.9540556 37.8776893,28.309417 38.3035164,28.309417 L38.9784229,28.309417 C38.8065099,31.4053758 37.6195741,34.3497594 35.6116005,36.6613565 L35.1389603,36.1749372 C34.8371595,35.8692729 34.3523927,35.871305 34.05302,36.1794892 C33.7536473,36.4876735 33.7516733,36.9867086 34.0485981,37.2973924 L34.4889836,37.7839439 C32.2424331,39.8702719 29.3653075,41.0945816 26.3434579,41.2501278 L26.3434579,40.5553565 C26.3434579,40.116996 25.9982569,39.7616345 25.5724299,39.7616345 C25.1466029,39.7616345 24.8014019,40.116996 24.8014019,40.5553565 L24.8014019,41.2501278 C21.804517,41.0687223 18.955857,39.8469421 16.7203855,37.7842085 L17.2087033,37.297657 C17.4069377,37.1001154 17.4867982,36.8081714 17.4178266,36.5331702 C17.348855,36.2581691 17.1416862,36.0425135 16.8753327,35.9684528 C16.6089792,35.8943921 16.3245105,35.9733459 16.1304206,36.1752018 L15.6598364,36.6616211 C13.652326,34.349799 12.4660498,31.4052727 12.2949416,28.309417 L12.9698481,28.309417 C13.3956752,28.309417 13.7408762,27.9540556 13.7408762,27.5156951 C13.7408762,27.0773345 13.3956752,26.7219731 12.9698481,26.7219731 L12.2949416,26.7219731 C12.4668545,23.6260143 13.6537904,20.6816308 15.661764,18.3700336 L16.1346612,18.8564529 Z" id="Shape" fill="#211265"></path>
                                <path d="M25.5724299,45.460426 C25.1466029,45.460426 24.8014019,45.8157874 24.8014019,46.254148 L24.8014019,53.5608879 C23.6869004,53.9465873 22.9281772,55.0117873 22.9059579,56.2219731 C22.9152126,57.7587244 24.1277777,58.9995932 25.6206192,59 C26.9599329,58.9900573 28.0887592,57.9687565 28.2703018,56.602711 C28.4518445,55.2366654 27.6309642,53.9407782 26.3434579,53.5608879 L26.3434579,46.254148 C26.3434579,45.8157874 25.9982569,45.460426 25.5724299,45.460426 Z M26.7932243,56.2219731 C26.7932243,56.8795139 26.2754228,57.4125561 25.6366822,57.4125561 C24.9979417,57.4125561 24.4801402,56.8795139 24.4801402,56.2219731 C24.4801402,55.5644323 24.9979417,55.0313901 25.6366822,55.0313901 C26.2751292,55.0321192 26.7925161,55.5647345 26.7932243,56.2219731 L26.7932243,56.2219731 Z" id="Shape" fill="#211265"></path>
                                <path d="M24.8014019,5.43911211 L24.8014019,8.77724215 C24.8014019,9.21560269 25.1466029,9.57096413 25.5724299,9.57096413 C25.9982569,9.57096413 26.3434579,9.21560269 26.3434579,8.77724215 L26.3434579,5.43911211 C27.6348741,5.06288207 28.4599768,3.76508438 28.2780565,2.39619689 C28.0961362,1.0273094 26.9627441,0.00533587758 25.6206192,9.34991626e-10 C24.1262013,-0.000275893989 22.9109708,1.23968132 22.8979907,2.77802691 C22.8979907,4.03395964 23.7733645,5.09648879 24.8014019,5.43911211 Z M25.6366822,1.58744395 C26.2754228,1.58744395 26.7932243,2.12048609 26.7932243,2.77802691 C26.7932243,3.43556772 26.2754228,3.96860987 25.6366822,3.96860987 C24.9979417,3.96860987 24.4801402,3.43556772 24.4801402,2.77802691 C24.4808484,2.12078831 24.9982353,1.588173 25.6366822,1.58744395 Z" id="Shape" fill="#211265"></path>
                                <path d="M42.5543224,26.7219731 C42.1284954,26.7219731 41.7832944,27.0773345 41.7832944,27.5156951 C41.7832944,27.9540556 42.1284954,28.309417 42.5543224,28.309417 L49.6521495,28.309417 C50.0349799,29.6312632 51.3019823,30.4637543 52.6278517,30.2646189 C53.953721,30.0654835 54.9368543,28.8950394 54.9368543,27.5156951 C54.9368543,26.1363507 53.953721,24.9659066 52.6278517,24.7667712 C51.3019823,24.5676359 50.0349799,25.4001269 49.6521495,26.7219731 L42.5543224,26.7219731 Z M52.2371495,26.3251121 C52.8758901,26.3251121 53.3936916,26.8581543 53.3936916,27.5156951 C53.3936916,28.1732359 52.8758901,28.706278 52.2371495,28.706278 C51.598409,28.706278 51.0806075,28.1732359 51.0806075,27.5156951 C51.0813157,26.8584565 51.5987026,26.3258412 52.2371495,26.3251121 L52.2371495,26.3251121 Z" id="Shape" fill="#211265"></path>
                                <path d="M5.34785047,28.309417 L8.59053738,28.309417 C9.01636441,28.309417 9.36156542,27.9540556 9.36156542,27.5156951 C9.36156542,27.0773345 9.01636441,26.7219731 8.59053738,26.7219731 L5.34785047,26.7219731 C4.96502006,25.4001269 3.69801767,24.5676359 2.37214833,24.7667712 C1.04627898,24.9659066 0.0631456802,26.1363507 0.0631456802,27.5156951 C0.0631456802,28.8950394 1.04627898,30.0654835 2.37214833,30.2646189 C3.69801767,30.4637543 4.96502006,29.6312632 5.34785047,28.309417 L5.34785047,28.309417 Z M1.60630841,27.5156951 C1.60630841,26.8581543 2.12410993,26.3251121 2.76285047,26.3251121 C3.40159101,26.3251121 3.91939252,26.8581543 3.91939252,27.5156951 C3.91939252,28.1732359 3.40159101,28.706278 2.76285047,28.706278 C2.12440351,28.705549 1.60701662,28.1729337 1.60630841,27.5156951 L1.60630841,27.5156951 Z" id="Shape" fill="#211265"></path>
                                <path d="M1.6748014,6.18190359 C2.51902632,7.04928231 3.81601001,7.24382934 4.86557243,6.66051794 L12.4546729,14.4728587 C12.7558036,14.7828161 13.2440041,14.7827865 13.5450993,14.4727926 C13.8461945,14.1627986 13.8461657,13.6602287 13.545035,13.3502713 L5.95606308,5.53793049 C6.6170128,4.27944387 6.24144214,2.71000349 5.08826735,1.91157254 C3.93509257,1.1131416 2.38144401,1.34683623 1.4983981,2.45154869 C0.615352181,3.55626116 0.691697229,5.17071007 1.6748014,6.18190359 Z M2.76516355,3.37569955 C3.21682278,2.91075217 3.94910213,2.91075525 4.40075767,3.37570643 C4.85241322,3.8406576 4.85241322,4.59449038 4.40075767,5.05944156 C3.94910213,5.52439273 3.21682278,5.52439581 2.76516355,5.05944843 L2.76516355,5.05944843 C2.31420749,4.59419386 2.31420749,3.84095412 2.76516355,3.37569955 L2.76516355,3.37569955 Z" id="Shape" fill="#211265"></path>
                                <path d="M42.9551285,46.163796 C43.6368964,46.8656306 44.6305948,47.1397283 45.5619072,46.882839 C46.4932195,46.6259497 47.2206572,45.877101 47.4702016,44.9183771 C47.719746,43.9596531 47.4534853,42.9367068 46.7717173,42.2348722 L46.7717173,42.2348722 C45.9272028,41.3680695 44.6305819,41.1736307 43.5809463,41.7563901 L41.2879089,39.395861 C40.9861081,39.0901967 40.5013413,39.0922287 40.2019686,39.400413 C39.9025959,39.7085972 39.9006219,40.2076324 40.1975467,40.5183161 L42.4904556,42.8788453 C41.9241962,43.9594123 42.1130296,45.2943483 42.9551285,46.163796 L42.9551285,46.163796 Z M44.8632944,43.0095448 C45.4150755,43.0098655 45.88979,43.4114057 45.9971009,43.968582 C46.1044118,44.5257583 45.8144287,45.0833749 45.3045063,45.3003916 C44.7945838,45.5174082 44.2067558,45.3333771 43.9005399,44.8608522 C43.594324,44.3883274 43.6550136,43.7589259 44.0454907,43.3575919 C44.2622671,43.1342114 44.5565731,43.0089585 44.8632944,43.0095448 Z" id="Shape" fill="#211265"></path>
                                <path d="M12.2599883,41.6811188 C12.561119,41.3711614 12.5611477,40.8685915 12.2600525,40.5585976 C11.9589574,40.2486036 11.4707569,40.248574 11.1696262,40.5585314 L6.15061916,45.7252646 C4.97191617,45.0693306 3.50420706,45.4030426 2.70352959,46.5090269 C1.90285213,47.6150112 2.01172832,49.1582697 2.95923828,50.1335531 C3.90674824,51.1088365 5.405895,51.2207354 6.4801629,50.396361 C7.5544308,49.5719866 7.87842839,48.0610386 7.24110981,46.8477197 L12.2599883,41.6811188 Z M5.68581776,49.0098184 C5.23415853,49.4747658 4.50187918,49.4747627 4.05022363,49.0098115 C3.59856809,48.5448603 3.59856809,47.7910276 4.05022363,47.3260764 C4.50187918,46.8611252 5.23415853,46.8611221 5.68581776,47.3260695 C6.13685931,47.7913393 6.13685931,48.5446809 5.68581776,49.0099507 L5.68581776,49.0098184 Z" id="Shape" fill="#211265"></path>
                                <path d="M39.585993,15.8676928 C39.7904978,15.8679454 39.9866711,15.7843005 40.1311098,15.6352646 L42.4241472,13.2748677 C43.6028159,13.9308475 45.0705281,13.5972073 45.8712541,12.4912717 C46.67198,11.3853361 46.5631865,9.84208389 45.6157387,8.86674955 C44.6682909,7.89141522 43.169163,7.77941949 42.0948481,8.60371349 C41.0205332,9.42800749 40.6964324,10.9389194 41.3336565,12.1522803 L39.0407477,14.5128094 C38.8202881,14.7398264 38.7543626,15.0811925 38.8737075,15.3777533 C38.9930523,15.674314 39.274169,15.8676778 39.585993,15.8676928 L39.585993,15.8676928 Z M42.8885631,9.99004933 C43.3402223,9.52510195 44.0725017,9.52510503 44.5241572,9.9900562 C44.9758127,10.4550074 44.9758127,11.2088402 44.5241572,11.6737913 C44.0725017,12.1387425 43.3402223,12.1387456 42.8885631,11.6737982 C42.6709267,11.4509002 42.5485981,11.1478767 42.5486704,10.8318412 C42.5487428,10.5158058 42.6712102,10.2128417 42.8889486,9.99004933 L42.8885631,9.99004933 Z" id="Shape" fill="#211265"></path>
                            </g>
                        </g>
                        <path d="M19.5041,30.0142 C19.2058985,30.0142 19.0568,29.9692338 19.0568,29.8793 C19.0568,29.8366998 19.0804664,29.7775337 19.1278,29.7018 L20.5904,27.4085 L19.2911,25.3282 C19.2437664,25.2477329 19.2201,25.1885669 19.2201,25.1507 C19.2201,25.1080998 19.2579663,25.0749668 19.3337,25.0513 C19.4094337,25.0276332 19.5230326,25.0158 19.6745,25.0158 L19.9656,25.0158 C20.1975345,25.0158 20.3395331,25.0607662 20.3916,25.1507 L21.201,26.4713 L22.053,25.1507 C22.0908669,25.0938997 22.142933,25.0572167 22.2092,25.04065 C22.275467,25.0240833 22.3677661,25.0158 22.4861,25.0158 L22.763,25.0158 C23.0612015,25.0158 23.2103,25.0607662 23.2103,25.1507 C23.2103,25.2027669 23.1866336,25.261933 23.1393,25.3282 L21.7974,27.4227 L23.2174,29.7018 C23.2600002,29.7728004 23.2813,29.8319664 23.2813,29.8793 C23.2813,29.9692338 23.1322015,30.0142 22.834,30.0142 L22.5571,30.0142 C22.3251655,30.0142 22.1831669,29.9692338 22.1311,29.8793 L21.1868,28.3528 L20.207,29.8793 C20.1691331,29.9361003 20.1182503,29.9727833 20.05435,29.98935 C19.9904497,30.0059167 19.8969673,30.0142 19.7739,30.0142 L19.5041,30.0142 Z M24.1617,30 C24.0622995,30 23.9901169,29.9775169 23.94515,29.93255 C23.9001831,29.8875831 23.8777,29.8154005 23.8777,29.716 L23.8777,25.314 C23.8777,25.2145995 23.9001831,25.1424169 23.94515,25.09745 C23.9901169,25.0524831 24.0622995,25.03 24.1617,25.03 L25.6811,25.03 C26.4147703,25.03 26.976848,25.2441812 27.36735,25.67255 C27.757852,26.1009188 27.9531,26.7150627 27.9531,27.515 C27.9531,28.3149373 27.757852,28.9290812 27.36735,29.35745 C26.976848,29.7858188 26.4147703,30 25.6811,30 L24.1617,30 Z M25.6811,29.0699 C26.0597686,29.0699 26.3461324,28.937368 26.5402,28.6723 C26.7342676,28.407232 26.8313,28.0214692 26.8313,27.515 C26.8313,27.0085308 26.7342676,26.622768 26.5402,26.3577 C26.3461324,26.092632 26.0597686,25.9601 25.6811,25.9601 L24.9782,25.9601 L24.9782,29.0699 L25.6811,29.0699 Z M29.1885,30.0142 C28.9044986,30.0142 28.7625,29.9384674 28.7625,29.787 L28.7625,25.314 C28.7625,25.2145995 28.7849831,25.1424169 28.82995,25.09745 C28.8749169,25.0524831 28.9470995,25.03 29.0465,25.03 L30.431,25.03 C31.6096059,25.03 32.1989,25.4749289 32.1989,26.3648 C32.1989,26.629868 32.1243507,26.8606157 31.97525,27.05705 C31.8261493,27.2534843 31.6238013,27.3990329 31.3682,27.4937 L31.3682,27.5221 C31.4581338,27.5552335 31.5504329,27.634516 31.6451,27.75995 C31.7397671,27.885384 31.8178664,28.0238326 31.8794,28.1753 L32.5042,29.7373 C32.5278668,29.7988336 32.5397,29.8437999 32.5397,29.8722 C32.5397,29.9148002 32.5042004,29.9491165 32.4332,29.97515 C32.3621996,30.0011835 32.2557007,30.0142 32.1137,30.0142 L31.8226,30.0142 C31.5906655,30.0142 31.4534002,29.9645005 31.4108,29.8651 L30.8499,28.4806 C30.7694329,28.3243992 30.6830505,28.2143503 30.59075,28.15045 C30.4984495,28.0865497 30.3458011,28.0546 30.1328,28.0546 L29.8559,28.0546 L29.8559,29.787 C29.8559,29.9384674 29.7139014,30.0142 29.4299,30.0142 L29.1885,30.0142 Z M30.5304,27.1103 C30.6771341,27.1103 30.8049328,27.0511339 30.9138,26.9328 C31.0226672,26.8144661 31.0771,26.6701009 31.0771,26.4997 C31.0771,26.3340325 31.0238505,26.2026838 30.91735,26.10565 C30.8108495,26.0086162 30.6653009,25.9601 30.4807,25.9601 L29.8559,25.9601 L29.8559,27.1103 L30.5304,27.1103 Z" id="XDR" fill="#6013DC"></path>
                    </g>
                </g>
            </g>
        </g>
    </g>
</svg>