<?xml version="1.0" encoding="UTF-8"?>
<svg width="41px" height="64px" viewBox="0 0 41 64" version="1.1" xmlns="http://www.w3.org/2000/svg" xmlns:xlink="http://www.w3.org/1999/xlink">
    <!-- Generator: sketchtool 54.1 (76490) - https://sketchapp.com -->
    <title>E98F457C-FFF2-4EDA-90AD-413DCBCE357F</title>
    <desc>Created with sketchtool.</desc>
    <g id="Page-1" stroke="none" stroke-width="1" fill="none" fill-rule="evenodd">
        <g id="pays-XDR---1440px" transform="translate(-794.000000, -5001.000000)" fill-rule="nonzero">
            <g id="Group-32" transform="translate(171.000000, 4651.000000)">
                <g id="Group-16" transform="translate(561.000000, 300.000000)">
                    <g id="Group-46" transform="translate(62.000000, 50.000000)">
                        <g id="coin-(2)">
                            <path d="M23.3082192,53.723348 C18.3303775,53.7260839 13.7748962,50.9153356 11.5287806,46.455392 C9.28266501,41.9954485 9.72845671,36.6458941 12.6814966,32.6226608 C8.49659565,35.7105394 6.50532087,40.9760077 7.59441593,46.0742759 C8.68351098,51.1725441 12.6503533,55.1550959 17.7284501,56.2484431 C22.806547,57.3417902 28.0511349,55.3425189 31.1267226,51.1409339 C28.8636474,52.8208932 26.1227276,53.7262058 23.3082192,53.723348 L23.3082192,53.723348 Z" id="Path" fill-opacity="0.0976835664" fill="#6013DC"></path>
                            <path d="M20.5,58.2343612 C28.7199641,58.2343612 35.3835616,51.5442726 35.3835616,43.29163 C35.3835616,35.0389874 28.7199641,28.3488987 20.5,28.3488987 C12.2800359,28.3488987 5.61643836,35.0389874 5.61643836,43.29163 C5.62572386,51.540408 12.2838851,58.2250388 20.5,58.2343612 Z M20.5,30.0405286 C27.7894021,30.0405286 33.6986301,35.9732488 33.6986301,43.29163 C33.6986301,50.6100111 27.7894021,56.5427313 20.5,56.5427313 C13.2105979,56.5427313 7.30136986,50.6100111 7.30136986,43.29163 C7.30957213,35.9766625 13.2139981,30.0487635 20.5,30.0405286 Z" id="Shape" fill="#211265"></path>
                            <path d="M6.00425342,57.8447225 C6.03079568,57.8695782 6.0589387,57.8926531 6.0885,57.9137974 C14.0664542,65.8592302 26.9335458,65.8592302 34.9115,57.9137974 C34.9410613,57.8926531 34.9692043,57.8695782 34.9957466,57.8447225 C35.0204626,57.8180385 35.0434439,57.7897864 35.0645479,57.760141 C42.9785188,49.7504704 42.9785188,36.8322257 35.0645479,28.8225551 C35.0434088,28.7929365 35.0204294,28.7646866 34.9957466,28.7379736 C34.9691683,28.7131592 34.9410281,28.6900867 34.9115,28.6688987 C26.9335458,20.7234658 14.0664542,20.7234658 6.0885,28.6688987 C6.05897195,28.6900867 6.03083168,28.7131592 6.00425342,28.7379736 C5.97957063,28.7646866 5.95659119,28.7929365 5.93545205,28.8225551 C-1.97851882,36.8322257 -1.97851882,49.7504704 5.93545205,57.760141 C5.95655614,57.7897864 5.97953735,57.8180385 6.00425342,57.8447225 L6.00425342,57.8447225 Z M2.88488356,42.4317181 L1.70543151,42.4317181 C1.91141055,38.0149843 3.65030732,33.80985 6.62065753,30.5453392 L7.44908219,31.3807225 C7.77726038,31.7110228 8.31000243,31.7116855 8.63899486,31.3822026 C8.96798729,31.0527198 8.96864737,30.5178598 8.64046918,30.1875595 L7.81204452,29.3558414 C11.0600505,26.3638518 15.2544787,24.6168788 19.6582363,24.4219207 L19.6582363,25.6067665 C19.6582363,26.0738972 20.0354211,26.4525815 20.5007021,26.4525815 C20.965983,26.4525815 21.3431678,26.0738972 21.3431678,25.6067665 L21.3431678,24.4219207 C25.747044,24.6170639 29.9415011,26.3643484 33.1893596,29.3566872 L32.3609349,30.1884053 C32.1452157,30.4014831 32.0598991,30.7143503 32.1374288,31.008032 C32.2149585,31.3017136 32.443422,31.5310854 32.7359408,31.6089233 C33.0284595,31.6867612 33.3400879,31.6011055 33.5523219,31.3845286 L34.3807466,30.5457621 C37.3507508,33.8102633 39.0893882,38.0152214 39.2952705,42.4317181 L38.1158185,42.4317181 C37.6505375,42.4317181 37.2733527,42.8104023 37.2733527,43.277533 C37.2733527,43.7446638 37.6505375,44.123348 38.1158185,44.123348 L39.2952705,44.123348 C39.1164052,48.5502258 37.3740271,52.7686764 34.3800445,56.0235419 L33.5516199,55.1950661 C33.2197662,54.8787771 32.6972463,54.8858266 32.3739778,55.210954 C32.0507093,55.5360814 32.0446107,56.0606902 32.3602329,56.393304 L33.1886575,57.225022 C29.9410342,60.217946 25.7465452,61.9657928 21.3424658,62.1613392 L21.3424658,60.9771982 C21.3424658,60.5100675 20.965281,60.1313833 20.5,60.1313833 C20.034719,60.1313833 19.6575342,60.5100675 19.6575342,60.9771982 L19.6575342,62.1613392 C15.2536448,61.9662558 11.0591682,60.2189632 7.81134247,57.2265727 L8.63976712,56.3948546 C8.85548639,56.1817769 8.94080297,55.8689096 8.86327326,55.575228 C8.78574356,55.2815463 8.55728006,55.0521745 8.26476128,54.9743366 C7.97224251,54.8964987 7.66061417,54.9821544 7.44838014,55.1987313 L6.61995548,56.0236828 C3.62594222,52.7687808 1.88356182,48.5502749 1.70472945,44.123348 L2.88418151,44.123348 C3.34946249,44.123348 3.72664726,43.7446638 3.72664726,43.277533 C3.72664726,42.8104023 3.34946249,42.4317181 2.88418151,42.4317181 L2.88488356,42.4317181 Z" id="Shape" fill="#211265"></path>
                            <path d="M20.0787671,3.55552423 C20.5440481,3.55552423 20.9212329,3.17683996 20.9212329,2.70970925 L20.9212329,0.972687225 C20.9212329,0.505556511 20.5440481,0.126872247 20.0787671,0.126872247 C19.6134861,0.126872247 19.2363014,0.505556511 19.2363014,0.972687225 L19.2363014,2.70942731 C19.2362269,2.93380024 19.3249535,3.14900902 19.4829546,3.30769109 C19.6409556,3.46637315 19.8552826,3.55552424 20.0787671,3.55552423 L20.0787671,3.55552423 Z" id="Path" fill="#6013DC"></path>
                            <path d="M19.2363014,13.5805463 C19.2363014,14.047677 19.6134861,14.4263612 20.0787671,14.4263612 C20.5440481,14.4263612 20.9212329,14.047677 20.9212329,13.5805463 L20.9212329,5.69811454 C20.9212329,5.23098382 20.5440481,4.85229956 20.0787671,4.85229956 C19.6134861,4.85229956 19.2363014,5.23098382 19.2363014,5.69811454 L19.2363014,13.5805463 Z" id="Path" fill="#6013DC"></path>
                            <path d="M27.6609589,3.79207048 C27.6609589,3.32493977 27.2837741,2.94625551 26.8184932,2.94625551 C26.3532122,2.94625551 25.9760274,3.32493977 25.9760274,3.79207048 L25.9760274,13.010326 C25.9760274,13.4774567 26.3532122,13.856141 26.8184932,13.856141 C27.2837741,13.856141 27.6609589,13.4774567 27.6609589,13.010326 L27.6609589,3.79207048 Z" id="Path" fill="#6013DC"></path>
                            <path d="M26.8184932,15.1711013 C26.3532122,15.1711013 25.9760274,15.5497856 25.9760274,16.0169163 L25.9760274,17.8096211 C25.9760274,18.2767519 26.3532122,18.6554361 26.8184932,18.6554361 C27.2837741,18.6554361 27.6609589,18.2767519 27.6609589,17.8096211 L27.6609589,16.0169163 C27.6609589,15.5497856 27.2837741,15.1711013 26.8184932,15.1711013 Z" id="Path" fill="#6013DC"></path>
                            <path d="M13.1986301,10.9420264 C13.6639111,10.9420264 14.0410959,10.5633422 14.0410959,10.0962115 L14.0410959,3.79207048 C14.0410959,3.32493977 13.6639111,2.94625551 13.1986301,2.94625551 C12.7333491,2.94625551 12.3561644,3.32493977 12.3561644,3.79207048 L12.3561644,10.0962115 C12.3561644,10.5633422 12.7333491,10.9420264 13.1986301,10.9420264 Z" id="Path" fill="#6013DC"></path>
                            <path d="M13.1986301,18.6554361 C13.6639111,18.6554361 14.0410959,18.2767519 14.0410959,17.8096211 L14.0410959,13.0565639 C14.0410959,12.5894332 13.6639111,12.2107489 13.1986301,12.2107489 C12.7333491,12.2107489 12.3561644,12.5894332 12.3561644,13.0565639 L12.3561644,17.8096211 C12.3561644,18.2767519 12.7333491,18.6554361 13.1986301,18.6554361 Z" id="Path" fill="#6013DC"></path>
                            <path d="M6.45890411,5.76563877 C5.99362312,5.76563877 5.61643836,6.14432303 5.61643836,6.61145374 L5.61643836,11.3733921 C5.61643836,11.8405228 5.99362312,12.219207 6.45890411,12.219207 C6.9241851,12.219207 7.30136986,11.8405228 7.30136986,11.3733921 L7.30136986,6.61145374 C7.30136986,6.14432303 6.9241851,5.76563877 6.45890411,5.76563877 Z" id="Path" fill="#6013DC"></path>
                            <path d="M6.45890411,13.6042291 C5.99362312,13.6042291 5.61643836,13.9829133 5.61643836,14.4500441 L5.61643836,20.8193128 C5.61643836,21.2864435 5.99362312,21.6651278 6.45890411,21.6651278 C6.9241851,21.6651278 7.30136986,21.2864435 7.30136986,20.8193128 L7.30136986,14.4500441 C7.30136986,13.9829133 6.9241851,13.6042291 6.45890411,13.6042291 L6.45890411,13.6042291 Z" id="Path" fill="#6013DC"></path>
                            <path d="M6.45890411,22.6627665 C5.99362312,22.6627665 5.61643836,23.0414508 5.61643836,23.5085815 L5.61643836,24.8580793 C5.61643836,25.32521 5.99362312,25.7038943 6.45890411,25.7038943 C6.9241851,25.7038943 7.30136986,25.32521 7.30136986,24.8580793 L7.30136986,23.5085815 C7.30136986,23.0414508 6.9241851,22.6627665 6.45890411,22.6627665 L6.45890411,22.6627665 Z" id="Path" fill="#6013DC"></path>
                            <path d="M33.6986301,10.6995595 C34.1639111,10.6995595 34.5410959,10.3208752 34.5410959,9.85374449 L34.5410959,6.61145374 C34.5410959,6.14432303 34.1639111,5.76563877 33.6986301,5.76563877 C33.2333491,5.76563877 32.8561644,6.14432303 32.8561644,6.61145374 L32.8561644,9.85374449 C32.8561644,10.3208752 33.2333491,10.6995595 33.6986301,10.6995595 Z" id="Path" fill="#6013DC"></path>
                            <path d="M33.6986301,25.7038943 C34.1639111,25.7038943 34.5410959,25.32521 34.5410959,24.8580793 L34.5410959,12.9057269 C34.5410959,12.4385962 34.1639111,12.0599119 33.6986301,12.0599119 C33.2333491,12.0599119 32.8561644,12.4385962 32.8561644,12.9057269 L32.8561644,24.8580793 C32.8561644,25.32521 33.2333491,25.7038943 33.6986301,25.7038943 L33.6986301,25.7038943 Z" id="Path" fill="#6013DC"></path>
                        </g>
                        <path d="M12.639,46.018 C12.2609981,46.018 12.072,45.9610006 12.072,45.847 C12.072,45.7929997 12.1019997,45.7180005 12.162,45.622 L14.016,42.715 L12.369,40.078 C12.3089997,39.9759995 12.279,39.9010002 12.279,39.853 C12.279,39.7989997 12.3269995,39.7570001 12.423,39.727 C12.5190005,39.6969998 12.662999,39.682 12.855,39.682 L13.224,39.682 C13.5180015,39.682 13.6979997,39.7389994 13.764,39.853 L14.79,41.527 L15.87,39.853 C15.9180002,39.7809996 15.9839996,39.7345001 16.068,39.7135 C16.1520004,39.6924999 16.2689993,39.682 16.419,39.682 L16.77,39.682 C17.1480019,39.682 17.337,39.7389994 17.337,39.853 C17.337,39.9190003 17.3070003,39.9939996 17.247,40.078 L15.546,42.733 L17.346,45.622 C17.4000003,45.7120004 17.427,45.7869997 17.427,45.847 C17.427,45.9610006 17.2380019,46.018 16.86,46.018 L16.509,46.018 C16.2149985,46.018 16.0350003,45.9610006 15.969,45.847 L14.772,43.912 L13.53,45.847 C13.4819998,45.9190004 13.4175004,45.9654999 13.3365,45.9865 C13.2554996,46.0075001 13.1370008,46.018 12.981,46.018 L12.639,46.018 Z M18.543,46 C18.4169994,46 18.3255003,45.9715003 18.2685,45.9145 C18.2114997,45.8574997 18.183,45.7660006 18.183,45.64 L18.183,40.06 C18.183,39.9339994 18.2114997,39.8425003 18.2685,39.7855 C18.3255003,39.7284997 18.4169994,39.7 18.543,39.7 L20.469,39.7 C21.3990047,39.7 22.1114975,39.9714973 22.6065,40.5145 C23.1015025,41.0575027 23.349,41.8359949 23.349,42.85 C23.349,43.8640051 23.1015025,44.6424973 22.6065,45.1855 C22.1114975,45.7285027 21.3990047,46 20.469,46 L18.543,46 Z M20.469,44.821 C20.9490024,44.821 21.3119988,44.6530017 21.558,44.317 C21.8040012,43.9809983 21.927,43.4920032 21.927,42.85 C21.927,42.2079968 21.8040012,41.7190017 21.558,41.383 C21.3119988,41.0469983 20.9490024,40.879 20.469,40.879 L19.578,40.879 L19.578,44.821 L20.469,44.821 Z M24.915,46.018 C24.5549982,46.018 24.375,45.922001 24.375,45.73 L24.375,40.06 C24.375,39.9339994 24.4034997,39.8425003 24.4605,39.7855 C24.5175003,39.7284997 24.6089994,39.7 24.735,39.7 L26.49,39.7 C27.9840075,39.7 28.731,40.2639944 28.731,41.392 C28.731,41.7280017 28.6365009,42.0204988 28.4475,42.2695 C28.2584991,42.5185012 28.0020016,42.7029994 27.678,42.823 L27.678,42.859 C27.7920006,42.9010002 27.9089994,43.0014992 28.029,43.1605 C28.1490006,43.3195008 28.2479996,43.494999 28.326,43.687 L29.118,45.667 C29.1480002,45.7450004 29.163,45.8019998 29.163,45.838 C29.163,45.8920003 29.1180005,45.9354998 29.028,45.9685 C28.9379996,46.0015002 28.8030009,46.018 28.623,46.018 L28.254,46.018 C27.9599985,46.018 27.7860003,45.9550006 27.732,45.829 L27.021,44.074 C26.9189995,43.875999 26.8095006,43.7365004 26.6925,43.6555 C26.5754994,43.5744996 26.3820014,43.534 26.112,43.534 L25.761,43.534 L25.761,45.73 C25.761,45.922001 25.5810018,46.018 25.221,46.018 L24.915,46.018 Z M26.616,42.337 C26.8020009,42.337 26.9639993,42.2620007 27.102,42.112 C27.2400007,41.9619992 27.309,41.7790011 27.309,41.563 C27.309,41.3529989 27.2415007,41.1865006 27.1065,41.0635 C26.9714993,40.9404994 26.7870012,40.879 26.553,40.879 L25.761,40.879 L25.761,42.337 L26.616,42.337 Z" id="XDR" fill="#6013DC"></path>
                    </g>
                </g>
            </g>
        </g>
    </g>
</svg>