<?xml version="1.0" encoding="UTF-8"?>
<svg width="49px" height="56px" viewBox="0 0 49 56" version="1.1" xmlns="http://www.w3.org/2000/svg" xmlns:xlink="http://www.w3.org/1999/xlink">
    <!-- Generator: sketchtool 54.1 (76490) - https://sketchapp.com -->
    <title>53304C1E-8FA2-40B3-86E4-AA3336587666</title>
    <desc>Created with sketchtool.</desc>
    <g id="Page-1" stroke="none" stroke-width="1" fill="none" fill-rule="evenodd">
        <g id="pays-XDR---1440px" transform="translate(-794.000000, -5188.000000)" fill-rule="nonzero">
            <g id="Group-32" transform="translate(171.000000, 4651.000000)">
                <g id="Group-14" transform="translate(562.000000, 480.000000)">
                    <g id="Group-47" transform="translate(61.000000, 57.000000)">
                        <g id="report-(1)">
                            <path d="M6.36519608,44.8965517 C4.90665905,44.894889 3.72469383,43.7071013 3.72303922,42.2413793 L3.72303922,1.68965517 C3.72303922,1.61181034 3.72712255,1.53505172 3.73360784,1.45889655 C2.36951803,1.58003565 1.32291195,2.72729789 1.32107843,4.10344828 L1.32107843,44.6551724 C1.32273304,46.1208944 2.50469826,47.3086821 3.96323529,47.3103448 L25.7619902,47.3103448 C25.5462018,46.5218255 25.4127332,45.7128627 25.3637451,44.8965517 L6.36519608,44.8965517 Z" id="Path" fill="#EFE8FB"></path>
                            <path d="M39.6323529,52.137931 C35.7617081,52.1395565 32.2153284,49.9653322 30.445872,46.5058578 C28.6764155,43.0463833 28.9811837,38.8829144 31.2353382,35.7208793 C27.894134,38.1110626 26.2772538,42.2617968 27.1158022,46.296245 C27.9543506,50.3306931 31.0893561,53.4840069 35.1032636,54.3303529 C39.1171712,55.1766989 43.2490266,53.5556273 45.6305294,50.2001379 C43.8826042,51.4617586 41.7844124,52.1396082 39.6323529,52.137931 Z" id="Path" fill="#EFE8FB"></path>
                            <path d="M4.08333333,48.7586207 L26.9019608,48.7586207 L26.9019608,47.3103448 L4.08333333,47.3103448 C2.6247963,47.3086821 1.44283108,46.1208944 1.44117647,44.6551724 L1.44117647,4.10344828 C1.44283108,2.63772633 2.6247963,1.44993862 4.08333333,1.44827586 L20.1764706,1.44827586 L20.1764706,10.862069 C20.1789857,13.1272931 22.0056838,14.9629898 24.2598039,14.9655172 L33.627451,14.9655172 L33.627451,33.4310345 L35.0686275,33.4310345 L35.0686275,14.2413793 C35.0686503,14.0493172 34.9927465,13.865113 34.8576152,13.7292931 L21.4066348,0.212051724 C21.2714807,0.0762547952 21.0881795,-2.30030317e-05 20.8970588,2.97248742e-11 L4.08333333,2.97248742e-11 C1.82921321,0.00252748626 0.00251509659,1.83822412 0,4.10344828 L0,44.6551724 C0.00251509659,46.9203966 1.82921321,48.7560932 4.08333333,48.7586207 Z M21.6176471,10.862069 L21.6176471,2.47232759 L32.6084191,13.5172414 L24.2598039,13.5172414 C22.8012669,13.5155786 21.6193017,12.3277909 21.6176471,10.862069 L21.6176471,10.862069 Z" id="Shape" fill="#211265"></path>
                            <path d="M15.7328431,20.0344828 C15.3348732,20.0344828 15.0122549,20.3586904 15.0122549,20.7586207 L15.0122549,35.2413793 C15.0122549,35.6413096 15.3348732,35.9655172 15.7328431,35.9655172 L19.3357843,35.9655172 C19.7337542,35.9655172 20.0563725,35.6413096 20.0563725,35.2413793 L20.0563725,20.7586207 C20.0563725,20.3586904 19.7337542,20.0344828 19.3357843,20.0344828 L15.7328431,20.0344828 Z M18.6151961,34.5172414 L16.4534314,34.5172414 L16.4534314,21.4827586 L18.6151961,21.4827586 L18.6151961,34.5172414 Z" id="Shape" fill="#211265"></path>
                            <path d="M8.52696078,27.2758621 C8.12899089,27.2758621 7.80637255,27.6000697 7.80637255,28 L7.80637255,35.2413793 C7.80637255,35.6413096 8.12899089,35.9655172 8.52696078,35.9655172 L12.129902,35.9655172 C12.5278719,35.9655172 12.8504902,35.6413096 12.8504902,35.2413793 L12.8504902,28 C12.8504902,27.6000697 12.5278719,27.2758621 12.129902,27.2758621 L8.52696078,27.2758621 Z M11.4093137,34.5172414 L9.24754902,34.5172414 L9.24754902,28.7241379 L11.4093137,28.7241379 L11.4093137,34.5172414 Z" id="Shape" fill="#211265"></path>
                            <path d="M22.9387255,24.862069 C22.5407556,24.862069 22.2181373,25.1862766 22.2181373,25.5862069 L22.2181373,35.2413793 C22.2181373,35.6413096 22.5407556,35.9655172 22.9387255,35.9655172 L26.5416667,35.9655172 C26.9396366,35.9655172 27.2622549,35.6413096 27.2622549,35.2413793 L27.2622549,25.5862069 C27.2622549,25.1862766 26.9396366,24.862069 26.5416667,24.862069 L22.9387255,24.862069 Z M25.8210784,34.5172414 L23.6593137,34.5172414 L23.6593137,26.3103448 L25.8210784,26.3103448 L25.8210784,34.5172414 Z" id="Shape" fill="#211265"></path>
                            <path d="M37.2303922,32.3448276 C30.7302172,32.3448276 25.4607843,37.6402183 25.4607843,44.1724138 C25.4607843,50.7046093 30.7302172,56 37.2303922,56 C43.7305671,56 49,50.7046093 49,44.1724138 C48.9838269,37.6469623 43.7238562,32.3610803 37.2303922,32.3448276 Z M37.2303922,54.5517241 C31.526157,54.5517241 26.9019608,49.9047486 26.9019608,44.1724138 C26.9019608,38.440079 31.526157,33.7931034 37.2303922,33.7931034 C42.9346273,33.7931034 47.5588235,38.440079 47.5588235,44.1724138 C47.5522054,49.9019915 42.9318837,54.5450734 37.2303922,54.5517241 L37.2303922,54.5517241 Z" id="Shape" fill="#6013DC"></path>
                        </g>
                        <path d="M30.5751,47.0162 C30.2348983,47.0162 30.0648,46.9649005 30.0648,46.8623 C30.0648,46.8136998 30.0917997,46.7462004 30.1458,46.6598 L31.8144,44.0435 L30.3321,41.6702 C30.2780997,41.5783995 30.2511,41.5109002 30.2511,41.4677 C30.2511,41.4190998 30.2942996,41.3813001 30.3807,41.3543 C30.4671004,41.3272999 30.5966991,41.3138 30.7695,41.3138 L31.1016,41.3138 C31.3662013,41.3138 31.5281997,41.3650995 31.5876,41.4677 L32.511,42.9743 L33.483,41.4677 C33.5262002,41.4028997 33.5855996,41.3610501 33.6612,41.34215 C33.7368004,41.3232499 33.8420993,41.3138 33.9771,41.3138 L34.293,41.3138 C34.6332017,41.3138 34.8033,41.3650995 34.8033,41.4677 C34.8033,41.5271003 34.7763003,41.5945996 34.7223,41.6702 L33.1914,44.0597 L34.8114,46.6598 C34.8600002,46.7408004 34.8843,46.8082997 34.8843,46.8623 C34.8843,46.9649005 34.7142017,47.0162 34.374,47.0162 L34.0581,47.0162 C33.7934987,47.0162 33.6315003,46.9649005 33.5721,46.8623 L32.4948,45.1208 L31.377,46.8623 C31.3337998,46.9271003 31.2757504,46.9689499 31.20285,46.98785 C31.1299496,47.0067501 31.0233007,47.0162 30.8829,47.0162 L30.5751,47.0162 Z M35.8887,47 C35.7752994,47 35.6929503,46.9743503 35.64165,46.92305 C35.5903497,46.8717497 35.5647,46.7894006 35.5647,46.676 L35.5647,41.654 C35.5647,41.5405994 35.5903497,41.4582503 35.64165,41.40695 C35.6929503,41.3556497 35.7752994,41.33 35.8887,41.33 L37.6221,41.33 C38.4591042,41.33 39.1003478,41.5743476 39.54585,42.06305 C39.9913522,42.5517524 40.2141,43.2523954 40.2141,44.165 C40.2141,45.0776046 39.9913522,45.7782476 39.54585,46.26695 C39.1003478,46.7556524 38.4591042,47 37.6221,47 L35.8887,47 Z M37.6221,45.9389 C38.0541022,45.9389 38.3807989,45.7877015 38.6022,45.4853 C38.8236011,45.1828985 38.9343,44.7428029 38.9343,44.165 C38.9343,43.5871971 38.8236011,43.1471015 38.6022,42.8447 C38.3807989,42.5422985 38.0541022,42.3911 37.6221,42.3911 L36.8202,42.3911 L36.8202,45.9389 L37.6221,45.9389 Z M41.6235,47.0162 C41.2994984,47.0162 41.1375,46.9298009 41.1375,46.757 L41.1375,41.654 C41.1375,41.5405994 41.1631497,41.4582503 41.21445,41.40695 C41.2657503,41.3556497 41.3480994,41.33 41.4615,41.33 L43.041,41.33 C44.3856067,41.33 45.0579,41.8375949 45.0579,42.8528 C45.0579,43.1552015 44.9728509,43.4184489 44.80275,43.64255 C44.6326491,43.8666511 44.4018015,44.0326995 44.1102,44.1407 L44.1102,44.1731 C44.2128005,44.2109002 44.3180995,44.3013493 44.4261,44.44445 C44.5341005,44.5875507 44.6231996,44.7454991 44.6934,44.9183 L45.4062,46.7003 C45.4332001,46.7705004 45.4467,46.8217998 45.4467,46.8542 C45.4467,46.9028002 45.4062004,46.9419499 45.3252,46.97165 C45.2441996,47.0013501 45.1227008,47.0162 44.9607,47.0162 L44.6286,47.0162 C44.3639987,47.0162 44.2074002,46.9595006 44.1588,46.8461 L43.5189,45.2666 C43.4270995,45.0883991 43.3285505,44.9628504 43.22325,44.88995 C43.1179495,44.8170496 42.9438012,44.7806 42.7008,44.7806 L42.3849,44.7806 L42.3849,46.757 C42.3849,46.9298009 42.2229016,47.0162 41.8989,47.0162 L41.6235,47.0162 Z M43.1544,43.7033 C43.3218008,43.7033 43.4675994,43.6358007 43.5918,43.5008 C43.7160006,43.3657993 43.7781,43.201101 43.7781,43.0067 C43.7781,42.8176991 43.7173506,42.6678506 43.59585,42.55715 C43.4743494,42.4464494 43.3083011,42.3911 43.0977,42.3911 L42.3849,42.3911 L42.3849,43.7033 L43.1544,43.7033 Z" id="XDR" fill="#6013DC"></path>
                    </g>
                </g>
            </g>
        </g>
    </g>
</svg>