<svg xmlns="http://www.w3.org/2000/svg" width="18.83" height="18.83" viewBox="0 0 18.83 18.83">
  <g id="instagram_2_" data-name="instagram (2)" transform="translate(-10.585 -10.585)">
    <path id="Path_10520" data-name="Path 10520" d="M214.656,210.828A3.828,3.828,0,1,1,210.828,207,3.828,3.828,0,0,1,214.656,210.828Zm0,0" transform="translate(-190.828 -190.828)" fill="#717a95"/>
    <path id="Path_10524" data-name="Path 10524" d="M153.852,138.13a3.8,3.8,0,0,0-2.18-2.18,6.354,6.354,0,0,0-2.132-.4c-1.211-.055-1.574-.067-4.641-.067s-3.43.012-4.641.067a6.358,6.358,0,0,0-2.132.4,3.8,3.8,0,0,0-2.18,2.18,6.356,6.356,0,0,0-.4,2.133c-.055,1.211-.067,1.574-.067,4.641s.012,3.43.067,4.641a6.354,6.354,0,0,0,.4,2.132,3.8,3.8,0,0,0,2.18,2.18,6.346,6.346,0,0,0,2.133.4c1.211.055,1.574.067,4.641.067s3.43-.012,4.641-.067a6.346,6.346,0,0,0,2.133-.4,3.8,3.8,0,0,0,2.18-2.18,6.36,6.36,0,0,0,.4-2.132c.055-1.211.067-1.574.067-4.641s-.012-3.43-.067-4.641A6.346,6.346,0,0,0,153.852,138.13ZM144.9,150.8a5.9,5.9,0,1,1,5.9-5.9A5.9,5.9,0,0,1,144.9,150.8Zm6.13-10.649a1.378,1.378,0,1,1,1.378-1.378A1.378,1.378,0,0,1,151.03,140.151Zm0,0" transform="translate(-124.9 -124.903)" fill="#717a95"/>
  </g>
</svg>
