<svg id="instagram_2_" data-name="instagram (2)" xmlns="http://www.w3.org/2000/svg" xmlns:xlink="http://www.w3.org/1999/xlink" width="40" height="40" viewBox="0 0 40 40">
  <defs>
    <linearGradient id="linear-gradient" x1="-0.163" y1="-0.154" x2="0.884" y2="1.185" gradientUnits="objectBoundingBox">
      <stop offset="0" stop-color="#e477d9"/>
      <stop offset="0.582" stop-color="#d82d74"/>
      <stop offset="1" stop-color="#d9c52d"/>
    </linearGradient>
  </defs>
  <path id="Path_10520" data-name="Path 10520" d="M214.656,210.828A3.828,3.828,0,1,1,210.828,207,3.828,3.828,0,0,1,214.656,210.828Zm0,0" transform="translate(-190.828 -190.828)" fill="#e477d9"/>
  <path id="Path_10521" data-name="Path 10521" d="M153.852,138.13a3.8,3.8,0,0,0-2.18-2.18,6.354,6.354,0,0,0-2.132-.4c-1.211-.055-1.574-.067-4.641-.067s-3.43.012-4.641.067a6.358,6.358,0,0,0-2.132.4,3.8,3.8,0,0,0-2.18,2.18,6.356,6.356,0,0,0-.4,2.133c-.055,1.211-.067,1.574-.067,4.641s.012,3.43.067,4.641a6.354,6.354,0,0,0,.4,2.132,3.8,3.8,0,0,0,2.18,2.18,6.346,6.346,0,0,0,2.133.4c1.211.055,1.574.067,4.641.067s3.43-.012,4.641-.067a6.346,6.346,0,0,0,2.133-.4,3.8,3.8,0,0,0,2.18-2.18,6.36,6.36,0,0,0,.4-2.132c.055-1.211.067-1.574.067-4.641s-.012-3.43-.067-4.641A6.346,6.346,0,0,0,153.852,138.13ZM144.9,150.8a5.9,5.9,0,1,1,5.9-5.9A5.9,5.9,0,0,1,144.9,150.8Zm6.13-10.649a1.378,1.378,0,1,1,1.378-1.378A1.378,1.378,0,0,1,151.03,140.151Zm0,0" transform="translate(-124.9 -124.903)" fill="#e477d9"/>
  <path id="Path_10522" data-name="Path 10522" d="M20,0A20,20,0,1,0,40,20,20,20,0,0,0,20,0ZM31.415,24.735a8.426,8.426,0,0,1-.534,2.788,5.872,5.872,0,0,1-3.359,3.359,8.432,8.432,0,0,1-2.787.534c-1.225.056-1.616.069-4.735.069s-3.51-.013-4.735-.069a8.432,8.432,0,0,1-2.787-.534,5.872,5.872,0,0,1-3.359-3.359,8.424,8.424,0,0,1-.534-2.787c-.056-1.225-.07-1.616-.07-4.735s.013-3.51.069-4.735a8.427,8.427,0,0,1,.533-2.788,5.876,5.876,0,0,1,3.359-3.359,8.434,8.434,0,0,1,2.788-.534c1.225-.056,1.616-.069,4.735-.069s3.51.013,4.735.07a8.435,8.435,0,0,1,2.788.533,5.874,5.874,0,0,1,3.359,3.359,8.425,8.425,0,0,1,.534,2.788c.056,1.225.069,1.616.069,4.735S31.471,23.51,31.415,24.735Zm0,0" fill="url(#linear-gradient)"/>
</svg>
