<svg xmlns="http://www.w3.org/2000/svg" width="38" height="38" viewBox="0 0 38 38">
    <g fill="none" fill-rule="evenodd">
        <path stroke="#5438DC" d="M.961 19c0-9.941 8.068-18 18.02-18C28.932 1 37 9.059 37 19s-8.068 18-18.02 18C9.03 37 .962 28.941.962 19z"/>
        <path fill="#5438DC" d="M15.366 15.879v10.12h-3.215V15.88h3.215zm.212-3.13c0 .97-.698 1.749-1.82 1.749h-.02c-1.08 0-1.777-.778-1.777-1.75 0-.992.72-1.748 1.819-1.748 1.1 0 1.777.756 1.798 1.748zm11.383 7.448V26h-3.215v-5.415c0-1.36-.465-2.288-1.63-2.288-.887 0-1.416.626-1.649 1.23-.085.216-.106.518-.106.82V26h-3.215s.042-9.171 0-10.12h3.215v1.433c.427-.69 1.191-1.672 2.898-1.672 2.116 0 3.702 1.447 3.702 4.556z"/>
    </g>
</svg>
