<svg xmlns="http://www.w3.org/2000/svg" width="37" height="38" viewBox="0 0 37 38">
    <g fill="none" fill-rule="evenodd">
        <path stroke="#5438DC" d="M.48 19C.48 9.059 8.549 1 18.5 1s18.02 8.059 18.02 18-8.068 18-18.02 18S.48 28.941.48 19z"/>
        <path fill="#5438DC" d="M19.278 17.192l.03.52-.505-.064c-1.841-.244-3.45-1.07-4.815-2.458l-.668-.688-.172.508c-.364 1.134-.131 2.33.627 3.136.405.444.314.508-.384.243-.243-.085-.455-.148-.476-.116-.07.074.172 1.038.365 1.419.263.53.799 1.049 1.386 1.356l.495.243-.587.011c-.566 0-.586.01-.526.233.203.689 1.002 1.42 1.892 1.737l.627.223-.546.339c-.81.487-1.76.762-2.711.784-.455.01-.83.053-.83.084 0 .106 1.235.7 1.953.932 2.155.689 4.714.392 6.636-.783 1.365-.837 2.731-2.5 3.368-4.11.344-.858.688-2.426.688-3.178 0-.487.03-.55.597-1.133.334-.34.647-.71.708-.816.101-.201.091-.201-.425-.021-.86.317-.98.275-.556-.202.314-.339.688-.953.688-1.133 0-.032-.152.021-.324.117-.182.106-.587.264-.89.36l-.546.18-.496-.35c-.273-.19-.658-.402-.86-.466-.516-.148-1.305-.127-1.77.043a3.034 3.034 0 0 0-1.973 3.05z"/>
    </g>
</svg>
