<svg xmlns="http://www.w3.org/2000/svg" width="22.4" height="22.396" viewBox="0 0 22.4 22.396">
  <path id="Path_10514" data-name="Path 10514" d="M74.472,63.377a2.345,2.345,0,0,0,1.484-.485,1.421,1.421,0,0,0,.538-1.176V58.7a1.326,1.326,0,0,0-.548-1.094,2.246,2.246,0,0,0-1.412-.423,2.53,2.53,0,0,0-1.5.4,1.265,1.265,0,0,0-.56,1.082v3.03a1.447,1.447,0,0,0,.545,1.186A2.267,2.267,0,0,0,74.472,63.377Zm-.658-4.57a.323.323,0,0,1,.178-.28.9.9,0,0,1,.463-.106,1.015,1.015,0,0,1,.5.106.319.319,0,0,1,.189.28v2.871a.38.38,0,0,1-.187.335.92.92,0,0,1-.5.121.8.8,0,0,1-.476-.12.39.39,0,0,1-.166-.336Zm4.826,4.566a1.554,1.554,0,0,0,.681-.254A2.548,2.548,0,0,0,80,62.554v.671h1.176V57.169H80v4.6a1.668,1.668,0,0,1-.362.325.668.668,0,0,1-.329.128.275.275,0,0,1-.239-.1.5.5,0,0,1-.077-.309V57.17H77.819v5.06a1.335,1.335,0,0,0,.207.81A.772.772,0,0,0,78.64,63.373Zm3.421,2.5H67.845a4.014,4.014,0,0,0-4.092,3.931v3.324a4.015,4.015,0,0,0,4.092,3.933H82.061a4.015,4.015,0,0,0,4.092-3.933V69.808A4.015,4.015,0,0,0,82.061,65.877ZM69.96,69.25H68.7v5.206H67.486V69.25H66.229v-.888H69.96S69.96,69.25,69.96,69.25Zm3.752,5.278H72.4v-.54a2.8,2.8,0,0,1-.758.454,1.989,1.989,0,0,1-.761.158.95.95,0,0,1-.685-.222.871.871,0,0,1-.23-.657v-4.11h1.311v3.771a.342.342,0,0,0,.08.251.388.388,0,0,0,.27.077.9.9,0,0,0,.366-.1,1.681,1.681,0,0,0,.407-.264V69.61h1.311S73.712,74.529,73.712,74.529Zm4.962-.936a.919.919,0,0,1-.3.741,1.316,1.316,0,0,1-.879.258,2.137,2.137,0,0,1-.679-.1,1.706,1.706,0,0,1-.554-.309v.349H74.949v-6.17h1.308v1.988a2.131,2.131,0,0,1,.555-.316,1.7,1.7,0,0,1,.6-.108,1.361,1.361,0,0,1,.937.289,1.083,1.083,0,0,1,.326.851ZM83.661,72.2H81.246v.889a.807.807,0,0,0,.123.517.548.548,0,0,0,.428.143.628.628,0,0,0,.441-.122.8.8,0,0,0,.127-.539v-.214h1.3v.241a1.284,1.284,0,0,1-.477,1.092,2.3,2.3,0,0,1-1.418.366,2.09,2.09,0,0,1-1.337-.388,1.292,1.292,0,0,1-.488-1.068V71a1.185,1.185,0,0,1,.538-1,2.309,2.309,0,0,1,1.382-.385,2.16,2.16,0,0,1,1.333.357A1.218,1.218,0,0,1,83.661,71S83.661,72.2,83.661,72.2ZM69.255,63.391h1.485V59.772l1.729-5.1H70.96l-.919,3.488h-.095l-.964-3.488h-1.5l1.77,5.267S69.255,63.391,69.255,63.391ZM76.8,70.648l-.275.045-.268.138v2.836a1.14,1.14,0,0,0,.308.161l.312.049a.518.518,0,0,0,.35-.1.393.393,0,0,0,.112-.311V71.116a.432.432,0,0,0-.136-.35A.614.614,0,0,0,76.8,70.648Z" transform="translate(-63.753 -54.668)" fill="#717a95"/>
</svg>
